<svg width="763" height="97" viewBox="0 0 763 97" fill="none" xmlns="http://www.w3.org/2000/svg">
<path d="M0 6.52148H2.42187V92.3532H53.6164L53.0409 94.6911H0.0120011V6.52148H0Z" fill="#999999"/>
<path d="M109.63 81.0481C109.63 87.93 110.086 93.0974 110.326 94.692H108.024C107.676 93.7089 107.101 86.5752 107.221 81.2879C103.996 90.7595 96.5022 96.4185 82.091 96.4185C65.8334 96.4185 60.5342 85.9638 60.5342 77.6072C60.5342 62.3567 74.0222 58.0526 90.3996 58.0526C100.77 58.0526 104.007 58.0526 107.233 58.1725V52.022C107.233 42.4305 102.737 33.5704 87.2824 33.5704C72.9911 33.5704 67.9196 40.704 66.3011 50.1756H63.8792C65.258 40.2124 71.0249 31.2324 87.5102 31.2324C103.996 31.2324 109.642 40.704 109.642 51.6503V81.0362L109.63 81.0481ZM107.209 60.5104C102.713 60.3905 97.4134 60.3905 90.2557 60.3905C78.8419 60.3905 63.0519 62.2369 63.0519 77.6072C63.0519 87.4504 70.6651 93.9607 82.079 93.9607C100.638 93.9607 107.209 84.1175 107.209 69.1188V60.5104Z" fill="#999999"/>
<path d="M182.598 94.6911L146.51 6.52148H149.159L170.716 59.0348C178.557 78.2177 182.13 86.7062 183.629 91.0104H183.749C185.367 87.0778 189.971 76.5033 197.117 60.2697L220.64 6.53349H223.289L184.552 94.7031H182.598V94.6911Z" fill="#999999"/>
<path d="M232.857 0H235.279V11.8095H232.857V0ZM232.857 32.9587H235.279V94.6918H232.857V32.9587Z" fill="#999999"/>
<path d="M251.537 63.7123C251.765 83.147 262.603 94.0812 277.242 94.0812C289.699 94.0812 297.3 87.4391 300.765 79.3224H303.415C299.722 88.7939 291.078 96.4192 277.242 96.4192C256.716 96.4192 248.995 78.9627 248.995 63.9521C248.995 44.889 259.953 31.2451 277.242 31.2451C298.919 31.2451 304.566 49.1931 304.566 61.1225V63.7003H251.537V63.7123ZM302.144 61.3743C301.688 46.2438 294.531 33.5831 277.014 33.5831C261.68 33.5831 252.232 46.004 251.645 61.3743H302.144Z" fill="#999999"/>
<path d="M401.284 48.7H349.861V92.3532H405.887L405.312 94.6911H347.439V6.52148H403.705V8.85942H349.861V46.362H401.284V48.7Z" fill="#999999"/>
<path d="M415.347 52.1418C415.347 40.0925 415.228 35.4167 415.228 32.9589H417.529C417.649 34.9251 417.877 44.3967 417.757 49.4322C420.059 43.1618 426.054 31.2324 442.659 31.2324C455.919 31.2324 465.487 40.2124 465.487 58.0406V94.692H463.065V58.5322C463.065 43.6534 455.692 33.6902 442.311 33.6902C425.598 33.6902 417.757 47.9576 417.757 61.6014V94.68H415.335V52.1298L415.347 52.1418Z" fill="#999999"/>
<path d="M515.639 51.1578V94.6911H513.217V6.52148H547.231C561.186 6.52148 571.785 14.1467 571.785 28.5339C571.785 40.2115 566.138 47.9686 553.333 50.0548C564.171 52.2728 571.089 58.1716 571.089 75.1365V76.2395C571.089 86.4425 571.317 92.3532 571.893 94.6911H569.351C568.548 90.5068 568.548 84.9798 568.548 76.2395V75.1365C568.548 60.2577 563.356 51.1578 542.95 51.1578H515.627H515.639ZM515.639 48.8198H543.418C559.783 48.8198 569.243 43.2808 569.243 28.7737C569.243 15.8612 560.251 8.84742 546.068 8.84742H515.627V48.8079L515.639 48.8198Z" fill="#999999"/>
<path d="M642.797 63.5804C642.797 80.5453 632.762 96.4192 613.279 96.4192C595.643 96.4192 584.109 82.032 584.109 64.2038C584.109 45.0209 596.566 31.2451 613.507 31.2451C631.491 31.2451 642.785 46.3756 642.785 63.5923L642.797 63.5804ZM586.651 64.2038C586.651 81.7922 598.413 94.0812 613.519 94.0812C630.472 94.0812 640.267 80.0657 640.267 63.7123C640.267 47.3588 629.549 33.5831 613.399 33.5831C597.25 33.5831 586.651 46.9871 586.651 64.2038Z" fill="#999999"/>
<path d="M654.211 78.2194C656.405 88.6741 664.246 94.0812 675.768 94.0812C687.877 94.0812 695.718 88.7939 695.718 78.9507C695.718 72.8002 694.447 66.4099 676.583 63.0888C657.1 59.528 654.798 54.1088 654.798 46.7353C654.798 40.0932 659.87 31.2451 674.857 31.2451C691.222 31.2451 695.838 41.0883 696.641 47.8503H694.219C693.068 41.5799 689.376 33.5831 674.737 33.5831C661.369 33.5831 657.328 41.0884 657.328 46.6155C657.328 55.3437 662.172 57.9334 677.386 60.8828C694.915 64.3238 698.248 70.4743 698.248 78.8428C698.248 89.7891 689.603 96.4312 675.768 96.4312C661.237 96.4312 653.168 88.3144 651.789 78.2314H654.211V78.2194Z" fill="#999999"/>
<path d="M709.194 63.7123C709.422 83.147 720.26 94.0812 734.899 94.0812C747.356 94.0812 754.957 87.4391 758.422 79.3224H761.072C757.379 88.7939 748.735 96.4192 734.899 96.4192C714.374 96.4192 706.652 78.9627 706.652 63.9521C706.652 44.889 717.611 31.2451 734.899 31.2451C756.576 31.2451 762.223 49.1931 762.223 61.1225V63.7003H709.194V63.7123ZM759.813 61.3743C759.357 46.2438 752.2 33.5831 734.683 33.5831C719.349 33.5831 709.901 46.004 709.314 61.3743H759.813Z" fill="#999999"/>
</svg>
