<svg width="373" height="53" viewBox="0 0 373 53" fill="none" xmlns="http://www.w3.org/2000/svg">
<path d="M0.755859 1.25163L2.94304 1.25163C5.53101 1.25163 7.00822 2.68465 7.00822 5.41425C7.00822 8.14385 5.53101 9.63379 3.01175 9.63379L0.755859 9.63379L0.755859 1.25163ZM2.85143 8.55331C4.66072 8.55331 5.63407 7.49557 5.63407 5.41425C5.63407 3.33293 4.66072 2.33212 2.85143 2.33212L2.0842 2.33212L2.0842 8.55331L2.85143 8.55331Z" fill="#B3B3B3"/>
<path d="M8.875 5.41385C8.875 2.71837 10.3751 1.10338 12.5394 1.10338C14.7037 1.10338 16.2152 2.71837 16.2152 5.41385C16.2152 8.10934 14.7037 9.78125 12.5394 9.78125C10.3751 9.78125 8.875 8.10934 8.875 5.41385ZM14.8525 5.41385C14.8525 3.44626 13.9364 2.2521 12.5394 2.2521C11.1423 2.2521 10.2377 3.44626 10.2377 5.41385C10.2377 7.38144 11.1423 8.63253 12.5394 8.63253C13.9364 8.63253 14.8525 7.37007 14.8525 5.41385Z" fill="#B3B3B3"/>
<path d="M18.5391 1.25163L19.9018 1.25163L22.6958 6.17631L23.5776 7.95055L23.6348 7.95055C23.5661 7.08618 23.4631 6.07394 23.4631 5.16407L23.4631 1.25163L24.7227 1.25163L24.7227 9.63379L23.36 9.63379L20.5659 4.69779L19.6842 2.94625L19.6269 2.94625C19.6956 3.81063 19.7987 4.7774 19.7987 5.68727L19.7987 9.63379L18.5391 9.63379L18.5391 1.25163Z" fill="#B3B3B3"/>
<path d="M27.8262 1.4785C27.8262 1.4785 27.6545 1.55813 27.54 1.55813C27.0819 1.55813 26.7842 1.21692 26.7842 0.773361C26.7842 0.386667 27.0819 -1.81328e-05 27.6087 -1.81559e-05C28.1354 -1.81789e-05 28.5591 0.489036 28.5591 1.13732C28.5591 2.19504 27.8491 2.99118 27.0705 3.34375L26.7956 2.84332C27.4369 2.52487 27.8148 1.91069 27.8262 1.4785Z" fill="#B3B3B3"/>
<path d="M35.533 2.3662L33.0596 2.3662L33.0596 1.25163L39.3463 1.25163L39.3463 2.3662L36.8614 2.3662L36.8614 9.63379L35.533 9.63379L35.533 2.3662Z" fill="#B3B3B3"/>
<path d="M44.0645 5.47077C44.0645 2.74117 45.7363 1.10338 47.8663 1.10338C48.9198 1.10338 49.7442 1.6038 50.2596 2.16109L49.5381 3.00271C49.103 2.55915 48.5762 2.2521 47.8892 2.2521C46.4349 2.2521 45.4271 3.45765 45.4271 5.42524C45.4271 7.39283 46.3661 8.63253 47.8548 8.63253C48.6335 8.63253 49.2175 8.29137 49.7213 7.74544L50.4313 8.57568C49.7557 9.34907 48.8969 9.78125 47.809 9.78125C45.6905 9.78125 44.0645 8.21175 44.0645 5.47077Z" fill="#B3B3B3"/>
<path d="M51.6338 5.41385C51.6338 2.71837 53.1339 1.10338 55.2982 1.10338C57.4625 1.10338 58.974 2.71837 58.974 5.41385C58.974 8.10934 57.4625 9.78125 55.2982 9.78125C53.1339 9.78125 51.6338 8.10934 51.6338 5.41385ZM57.6113 5.41385C57.6113 3.44626 56.6952 2.2521 55.2982 2.2521C53.9011 2.2521 52.9965 3.44626 52.9965 5.41385C52.9965 7.38144 53.9011 8.63253 55.2982 8.63253C56.6952 8.63253 57.6113 7.37007 57.6113 5.41385Z" fill="#B3B3B3"/>
<path d="M61.2979 1.25163L62.8209 1.25163L64.3668 5.49387C64.5614 6.05117 64.7332 6.61988 64.9279 7.17718L64.9851 7.17718C65.1798 6.61988 65.3401 6.05117 65.5348 5.49387L67.0578 1.25163L68.5923 1.25163L68.5923 9.63379L67.3555 9.63379L67.3555 5.49387C67.3555 4.74323 67.4586 3.6628 67.5273 2.90078L67.4815 2.90078L66.8059 4.83427L65.3401 8.82626L64.5156 8.82626L63.0384 4.83427L62.3743 2.90078L62.3285 2.90078C62.3857 3.6628 62.4888 4.74323 62.4888 5.49387L62.4888 9.63379L61.2979 9.63379L61.2979 1.25163Z" fill="#B3B3B3"/>
<path d="M71.375 1.25163L73.9286 1.25163C75.8066 1.25163 77.1464 1.89989 77.1464 3.78787C77.1464 5.67585 75.8066 6.46065 73.9744 6.46065L72.7033 6.46065L72.7033 9.63379L71.375 9.63379L71.375 1.25163ZM73.8485 5.40294C75.1997 5.40294 75.841 4.89108 75.841 3.78787C75.841 2.68465 75.1424 2.32073 73.8026 2.32073L72.7033 2.32073L72.7033 5.40294L73.8485 5.40294Z" fill="#B3B3B3"/>
<path d="M80.3986 1.25163L81.9331 1.25163L84.7271 9.63379L83.3186 9.63379L82.6087 7.24541L79.6772 7.24541L78.9557 9.63379L77.6045 9.63379L80.3986 1.25163ZM79.9863 6.2104L82.288 6.2104L81.956 5.08445C81.6697 4.17458 81.4177 3.24195 81.1658 2.29796L81.1086 2.29796C80.8681 3.25332 80.6047 4.17458 80.3299 5.08445L79.9863 6.2104Z" fill="#B3B3B3"/>
<path d="M86.4111 1.25163L89.1709 1.25163C90.9115 1.25163 92.2169 1.87719 92.2169 3.68555C92.2169 4.98211 91.5184 5.75548 90.4534 6.08531L92.5146 9.63379L91.0145 9.63379L89.1022 6.25594L87.7395 6.25594L87.7395 9.63379L86.4111 9.63379L86.4111 1.25163ZM89.0106 5.19815C90.2358 5.19815 90.9 4.69778 90.9 3.68555C90.9 2.67332 90.2358 2.32073 89.0106 2.32073L87.7395 2.32073L87.7395 5.19815L89.0106 5.19815Z" fill="#B3B3B3"/>
<path d="M94.4951 1.25163L99.4764 1.25163L99.4764 2.3662L95.8235 2.3662L95.8235 4.69779L98.9153 4.69779L98.9153 5.81236L95.8235 5.81236L95.8235 8.51922L99.6024 8.51922L99.6024 9.63379L94.4951 9.63379L94.4951 1.25163Z" fill="#B3B3B3"/>
<path d="M106.473 6.46065L103.942 1.25163L105.362 1.25163L106.336 3.48084C106.599 4.10637 106.84 4.68641 107.126 5.32331L107.172 5.32331C107.446 4.68641 107.721 4.10637 107.973 3.48084L108.958 1.25163L110.344 1.25163L107.801 6.46065L107.801 9.63379L106.473 9.63379L106.473 6.46065Z" fill="#B3B3B3"/>
<path d="M111.34 5.41385C111.34 2.71837 112.84 1.10338 115.004 1.10338C117.169 1.10338 118.68 2.71837 118.68 5.41385C118.68 8.10934 117.169 9.78125 115.004 9.78125C112.84 9.78125 111.34 8.10934 111.34 5.41385ZM117.317 5.41385C117.317 3.44626 116.401 2.2521 115.004 2.2521C113.607 2.2521 112.703 3.44626 112.703 5.41385C112.703 7.38144 113.607 8.63253 115.004 8.63253C116.401 8.63253 117.317 7.37007 117.317 5.41385Z" fill="#B3B3B3"/>
<path d="M120.959 6.03944L120.959 1.25124L122.287 1.25124L122.287 6.13038C122.287 8.01836 123.043 8.63253 124.097 8.63253C125.15 8.63253 125.94 8.01836 125.94 6.13038L125.94 1.25124L127.223 1.25124L127.223 6.03944C127.223 8.76905 125.963 9.78125 124.097 9.78125C122.23 9.78125 120.959 8.76905 120.959 6.03944Z" fill="#B3B3B3"/>
<path d="M129.971 1.25163L132.73 1.25163C134.471 1.25163 135.776 1.87719 135.776 3.68555C135.776 4.98211 135.078 5.75548 134.013 6.08531L136.074 9.63379L134.574 9.63379L132.662 6.25594L131.299 6.25594L131.299 9.63379L129.971 9.63379L129.971 1.25163ZM132.57 5.19815C133.795 5.19815 134.46 4.69778 134.46 3.68555C134.46 2.67332 133.795 2.32073 132.57 2.32073L131.299 2.32073L131.299 5.19815L132.57 5.19815Z" fill="#B3B3B3"/>
<path d="M141.205 1.25163L142.533 1.25163L142.533 8.51922L146.106 8.51922L146.106 9.63379L141.205 9.63379L141.205 1.25163Z" fill="#B3B3B3"/>
<path d="M148.167 1.25163L149.495 1.25163L149.495 9.63379L148.167 9.63379L148.167 1.25163Z" fill="#B3B3B3"/>
<path d="M152.278 1.25163L157.271 1.25163L157.271 2.3662L153.607 2.3662L153.607 4.9252L156.721 4.9252L156.721 6.02846L153.607 6.02846L153.607 9.63379L152.278 9.63379L152.278 1.25163Z" fill="#B3B3B3"/>
<path d="M159.332 1.25163L164.313 1.25163L164.313 2.3662L160.66 2.3662L160.66 4.69779L163.752 4.69779L163.752 5.81236L160.66 5.81236L160.66 8.51922L164.439 8.51922L164.439 9.63379L159.332 9.63379L159.332 1.25163Z" fill="#B3B3B3"/>
<path d="M169.077 1.25163L170.44 1.25163L171.23 5.61903C171.379 6.50615 171.528 7.40463 171.677 8.30313L171.722 8.30313C171.906 7.40463 172.1 6.50615 172.295 5.61903L173.383 1.25163L174.562 1.25163L175.65 5.61903C175.845 6.49478 176.028 7.39326 176.223 8.30313L176.28 8.30313C176.417 7.39326 176.566 6.49478 176.704 5.61903L177.505 1.25163L178.776 1.25163L177.116 9.63379L175.478 9.63379L174.345 4.98213C174.196 4.32247 174.07 3.69694 173.955 3.06003L173.91 3.06003C173.784 3.69694 173.646 4.32247 173.509 4.98213L172.398 9.63379L170.795 9.63379L169.077 1.25163Z" fill="#B3B3B3"/>
<path d="M180.734 1.25163L182.063 1.25163L182.063 9.63379L180.734 9.63379L180.734 1.25163Z" fill="#B3B3B3"/>
<path d="M186.563 2.3662L184.09 2.3662L184.09 1.25163L190.377 1.25163L190.377 2.3662L187.892 2.3662L187.892 9.63379L186.563 9.63379L186.563 2.3662Z" fill="#B3B3B3"/>
<path d="M192.403 1.25163L193.732 1.25163L193.732 4.67502L197.339 4.67502L197.339 1.25163L198.667 1.25163L198.667 9.63379L197.339 9.63379L197.339 5.82374L193.732 5.82374L193.732 9.63379L192.403 9.63379L192.403 1.25163Z" fill="#B3B3B3"/>
<path d="M204.141 5.41385C204.141 2.71837 205.641 1.10338 207.805 1.10338C209.969 1.10338 211.481 2.71837 211.481 5.41385C211.481 8.10934 209.969 9.78125 207.805 9.78125C205.641 9.78125 204.141 8.10934 204.141 5.41385ZM210.118 5.41385C210.118 3.44626 209.202 2.2521 207.805 2.2521C206.408 2.2521 205.503 3.44626 205.503 5.41385C205.503 7.38144 206.408 8.63253 207.805 8.63253C209.202 8.63253 210.118 7.37007 210.118 5.41385Z" fill="#B3B3B3"/>
<path d="M215.203 2.3662L212.729 2.3662L212.729 1.25163L219.016 1.25163L219.016 2.3662L216.531 2.3662L216.531 9.63379L215.203 9.63379L215.203 2.3662Z" fill="#B3B3B3"/>
<path d="M221.043 1.25163L222.371 1.25163L222.371 4.67502L225.978 4.67502L225.978 1.25163L227.307 1.25163L227.307 9.63379L225.978 9.63379L225.978 5.82374L222.371 5.82374L222.371 9.63379L221.043 9.63379L221.043 1.25163Z" fill="#B3B3B3"/>
<path d="M230.089 1.25163L235.07 1.25163L235.07 2.3662L231.417 2.3662L231.417 4.69779L234.509 4.69779L234.509 5.81236L231.417 5.81236L231.417 8.51922L235.196 8.51922L235.196 9.63379L230.089 9.63379L230.089 1.25163Z" fill="#B3B3B3"/>
<path d="M237.532 1.25163L240.292 1.25163C242.033 1.25163 243.338 1.87719 243.338 3.68555C243.338 4.98211 242.639 5.75548 241.575 6.08531L243.636 9.63379L242.136 9.63379L240.223 6.25594L238.861 6.25594L238.861 9.63379L237.532 9.63379L237.532 1.25163ZM240.132 5.19815C241.357 5.19815 242.021 4.69778 242.021 3.68555C242.021 2.67332 241.357 2.32073 240.132 2.32073L238.861 2.32073L238.861 5.19815L240.132 5.19815Z" fill="#B3B3B3"/>
<path d="M244.85 8.55291L245.628 7.64305C246.235 8.24584 247.06 8.63253 247.873 8.63253C248.892 8.63253 249.464 8.15487 249.464 7.44973C249.464 6.68771 248.892 6.44888 248.113 6.10768L246.945 5.60725C246.132 5.26605 245.227 4.62915 245.227 3.4122C245.227 2.09289 246.396 1.10338 247.999 1.10338C248.983 1.10338 249.911 1.51281 250.552 2.16109L249.854 3.00271C249.327 2.5364 248.743 2.2521 247.999 2.2521C247.14 2.2521 246.579 2.66154 246.579 3.32119C246.579 4.04909 247.254 4.32204 247.941 4.595L249.098 5.08405C250.094 5.50486 250.816 6.11901 250.816 7.34734C250.816 8.68939 249.693 9.78125 247.85 9.78125C246.693 9.78125 245.617 9.3263 244.85 8.55291Z" fill="#B3B3B3"/>
<path d="M252.693 8.8714C252.693 8.32547 253.083 7.93877 253.575 7.93877C254.068 7.93877 254.457 8.32547 254.457 8.8714C254.457 9.41732 254.068 9.78125 253.575 9.78125C253.083 9.78125 252.693 9.40594 252.693 8.8714Z" fill="#B3B3B3"/>
<path d="M2.47346 23.9756L-3.17676e-07 23.9756L-3.66396e-07 22.861L6.28671 22.861L6.28671 23.9756L3.8018 23.9756L3.8018 31.2432L2.47346 31.2432L2.47346 23.9756Z" fill="#B3B3B3"/>
<path d="M8.31348 22.861L9.64182 22.861L9.64182 26.2844L13.2489 26.2844L13.2489 22.861L14.5773 22.861L14.5773 31.2432L13.2489 31.2432L13.2489 27.4331L9.64182 27.4331L9.64182 31.2432L8.31348 31.2432L8.31348 22.861Z" fill="#B3B3B3"/>
<path d="M17.3604 22.861L22.3416 22.861L22.3416 23.9756L18.6887 23.9756L18.6887 26.3072L21.7805 26.3072L21.7805 27.4217L18.6887 27.4217L18.6887 30.1286L22.4676 30.1286L22.4676 31.2432L17.3604 31.2432L17.3604 22.861Z" fill="#B3B3B3"/>
<path d="M24.8027 22.861L27.5625 22.861C29.3031 22.861 30.6085 23.4866 30.6085 25.2949C30.6085 26.5915 29.91 27.3649 28.845 27.6947L30.9062 31.2432L29.4061 31.2432L27.4938 27.8653L26.1311 27.8653L26.1311 31.2432L24.8027 31.2432L24.8027 22.861ZM27.4022 26.8075C28.6274 26.8075 29.2916 26.3072 29.2916 25.2949C29.2916 24.2827 28.6274 23.9301 27.4022 23.9301L26.1311 23.9301L26.1311 26.8075L27.4022 26.8075Z" fill="#B3B3B3"/>
<path d="M32.8877 22.861L37.869 22.861L37.869 23.9756L34.216 23.9756L34.216 26.3072L37.3079 26.3072L37.3079 27.4217L34.216 27.4217L34.216 30.1286L37.9949 30.1286L37.9949 31.2432L32.8877 31.2432L32.8877 22.861Z" fill="#B3B3B3"/>
<path d="M40.6407 23.0879C40.6407 23.0879 40.4689 23.1675 40.3544 23.1675C39.8964 23.1675 39.5986 22.8263 39.5986 22.3827C39.5986 21.996 39.8964 21.6094 40.4231 21.6094C40.9499 21.6094 41.3736 22.0984 41.3736 22.7467C41.3736 23.8044 40.6636 24.6006 39.8849 24.9531L39.6101 24.4527C40.2513 24.1342 40.6292 23.5201 40.6407 23.0879Z" fill="#B3B3B3"/>
<path d="M46.0342 30.1623L46.8129 29.2524C47.4198 29.8552 48.2443 30.2419 49.0573 30.2419C50.0765 30.2419 50.649 29.7642 50.649 29.0591C50.649 28.2971 50.0765 28.0583 49.2978 27.7171L48.1297 27.2166C47.3167 26.8754 46.4121 26.2385 46.4121 25.0216C46.4121 23.7023 47.5801 22.7128 49.1833 22.7128C50.1681 22.7128 51.0956 23.1222 51.7369 23.7705L51.0384 24.6121C50.5116 24.1458 49.9276 23.8615 49.1833 23.8615C48.3244 23.8615 47.7633 24.2709 47.7633 24.9306C47.7633 25.6585 48.4389 25.9314 49.126 26.2044L50.2826 26.6934C51.2788 27.1142 52.0003 27.7284 52.0003 28.9567C52.0003 30.2988 50.878 31.3906 49.0344 31.3906C47.8778 31.3906 46.8014 30.9357 46.0342 30.1623Z" fill="#B3B3B3"/>
<path d="M57.3135 22.861L58.6762 22.861L61.4703 27.7857L62.352 29.5599L62.4093 29.5599C62.3406 28.6956 62.2375 27.6833 62.2375 26.7734L62.2375 22.861L63.4971 22.861L63.4971 31.2432L62.1344 31.2432L59.3403 26.3072L58.4586 24.5556L58.4013 24.5556C58.47 25.42 58.5731 26.3868 58.5731 27.2966L58.5731 31.2432L57.3135 31.2432L57.3135 22.861Z" fill="#B3B3B3"/>
<path d="M65.833 27.0232C65.833 24.3277 67.3331 22.7128 69.4974 22.7128C71.6617 22.7128 73.1732 24.3277 73.1732 27.0232C73.1732 29.7187 71.6617 31.3906 69.4974 31.3906C67.3331 31.3906 65.833 29.7187 65.833 27.0232ZM71.8105 27.0232C71.8105 25.0556 70.8944 23.8615 69.4974 23.8615C68.1003 23.8615 67.1957 25.0556 67.1957 27.0232C67.1957 28.9908 68.1003 30.2419 69.4974 30.2419C70.8944 30.2419 71.8105 28.9794 71.8105 27.0232Z" fill="#B3B3B3"/>
<path d="M78.1885 27.0801C78.1885 24.3505 79.8604 22.7128 81.9903 22.7128C83.0438 22.7128 83.8683 23.2132 84.3836 23.7705L83.6622 24.6121C83.227 24.1685 82.7003 23.8615 82.0132 23.8615C80.5589 23.8615 79.5512 25.067 79.5512 27.0346C79.5512 29.0022 80.4902 30.2419 81.9788 30.2419C82.7575 30.2419 83.3415 29.9007 83.8454 29.3548L84.5553 30.1851C83.8797 30.9584 83.0209 31.3906 81.933 31.3906C79.8146 31.3906 78.1885 29.8211 78.1885 27.0801Z" fill="#B3B3B3"/>
<path d="M85.7578 27.0232C85.7578 24.3277 87.2579 22.7128 89.4222 22.7128C91.5865 22.7128 93.098 24.3277 93.098 27.0232C93.098 29.7187 91.5865 31.3906 89.4222 31.3906C87.2579 31.3906 85.7578 29.7187 85.7578 27.0232ZM91.7353 27.0232C91.7353 25.0556 90.8192 23.8615 89.4222 23.8615C88.0251 23.8615 87.1205 25.0556 87.1205 27.0232C87.1205 28.9908 88.0251 30.2419 89.4222 30.2419C90.8192 30.2419 91.7353 28.9794 91.7353 27.0232Z" fill="#B3B3B3"/>
<path d="M95.4229 22.861L96.9459 22.861L98.4918 27.1032C98.6864 27.6605 98.8582 28.2293 99.0529 28.7866L99.1101 28.7866C99.3048 28.2293 99.4651 27.6605 99.6598 27.1032L101.183 22.861L102.717 22.861L102.717 31.2432L101.481 31.2432L101.481 27.1032C101.481 26.3526 101.584 25.2722 101.652 24.5102L101.607 24.5102L100.931 26.4436L99.4651 30.4356L98.6406 30.4356L97.1634 26.4436L96.4993 24.5102L96.4535 24.5102C96.5107 25.2722 96.6138 26.3526 96.6138 27.1032L96.6138 31.2432L95.4229 31.2432L95.4229 22.861Z" fill="#B3B3B3"/>
<path d="M105.5 22.861L108.054 22.861C109.932 22.861 111.271 23.5093 111.271 25.3972C111.271 27.2852 109.932 28.07 108.099 28.07L106.828 28.07L106.828 31.2432L105.5 31.2432L105.5 22.861ZM107.973 27.0123C109.325 27.0123 109.966 26.5005 109.966 25.3972C109.966 24.294 109.267 23.9301 107.928 23.9301L106.828 23.9301L106.828 27.0123L107.973 27.0123Z" fill="#B3B3B3"/>
<path d="M114.524 22.861L116.058 22.861L118.852 31.2432L117.444 31.2432L116.734 28.8548L113.802 28.8548L113.081 31.2432L111.729 31.2432L114.524 22.861ZM114.111 27.8198L116.413 27.8198L116.081 26.6938C115.795 25.784 115.543 24.8513 115.291 23.9073L115.234 23.9073C114.993 24.8627 114.73 25.784 114.455 26.6938L114.111 27.8198Z" fill="#B3B3B3"/>
<path d="M120.535 22.861L123.295 22.861C125.035 22.861 126.341 23.4866 126.341 25.2949C126.341 26.5915 125.642 27.3649 124.577 27.6947L126.639 31.2432L125.139 31.2432L123.226 27.8653L121.863 27.8653L121.863 31.2432L120.535 31.2432L120.535 22.861ZM123.135 26.8075C124.36 26.8075 125.024 26.3072 125.024 25.2949C125.024 24.2827 124.36 23.9301 123.135 23.9301L121.863 23.9301L121.863 26.8075L123.135 26.8075Z" fill="#B3B3B3"/>
<path d="M128.62 22.861L129.948 22.861L129.948 31.2432L128.62 31.2432L128.62 22.861Z" fill="#B3B3B3"/>
<path d="M132.136 30.1623L132.914 29.2524C133.521 29.8552 134.346 30.2419 135.159 30.2419C136.178 30.2419 136.751 29.7642 136.751 29.0591C136.751 28.2971 136.178 28.0583 135.399 27.7171L134.231 27.2166C133.418 26.8754 132.514 26.2385 132.514 25.0216C132.514 23.7023 133.682 22.7128 135.285 22.7128C136.27 22.7128 137.197 23.1222 137.838 23.7705L137.14 24.6121C136.613 24.1458 136.029 23.8615 135.285 23.8615C134.426 23.8615 133.865 24.2709 133.865 24.9306C133.865 25.6585 134.54 25.9314 135.228 26.2044L136.384 26.6934C137.38 27.1142 138.102 27.7284 138.102 28.9567C138.102 30.2988 136.98 31.3906 135.136 31.3906C133.979 31.3906 132.903 30.9357 132.136 30.1623Z" fill="#B3B3B3"/>
<path d="M139.808 27.0232C139.808 24.3277 141.308 22.7128 143.472 22.7128C145.636 22.7128 147.148 24.3277 147.148 27.0232C147.148 29.7187 145.636 31.3906 143.472 31.3906C141.308 31.3906 139.808 29.7187 139.808 27.0232ZM145.785 27.0232C145.785 25.0556 144.869 23.8615 143.472 23.8615C142.075 23.8615 141.17 25.0556 141.17 27.0232C141.17 28.9908 142.075 30.2419 143.472 30.2419C144.869 30.2419 145.785 28.9794 145.785 27.0232Z" fill="#B3B3B3"/>
<path d="M149.473 22.86L150.835 22.86L153.629 27.7847L154.511 29.559L154.568 29.559C154.5 28.6946 154.397 27.6823 154.397 26.7725L154.397 22.86L155.656 22.86L155.656 31.2422L154.294 31.2422L151.5 26.3062L150.618 24.5547L150.561 24.5547C150.629 25.419 150.732 26.3858 150.732 27.2957L150.732 31.2422L149.473 31.2422L149.473 22.86Z" fill="#B3B3B3"/>
<path d="M161.6 22.86L164.21 22.86C165.94 22.86 167.188 23.4173 167.188 24.93C167.188 25.7261 166.741 26.4881 165.985 26.7383L165.985 26.7952C166.947 27 167.646 27.6482 167.646 28.7856C167.646 30.4461 166.283 31.2422 164.417 31.2422L161.6 31.2422L161.6 22.86ZM164.268 30.2072C165.585 30.2072 166.34 29.7409 166.34 28.7173C166.34 27.7733 165.608 27.3525 164.268 27.3525L162.928 27.3525L162.928 30.2072L164.268 30.2072ZM164.062 26.363C165.344 26.363 165.882 25.8853 165.882 25.1005C165.882 24.2248 165.287 23.895 164.096 23.895L162.928 23.895L162.928 26.363L164.062 26.363Z" fill="#B3B3B3"/>
<path d="M169.81 22.86L174.791 22.86L174.791 23.9746L171.138 23.9746L171.138 26.3062L174.23 26.3062L174.23 27.4208L171.138 27.4208L171.138 30.1276L174.917 30.1276L174.917 31.2422L169.81 31.2422L169.81 22.86Z" fill="#B3B3B3"/>
<path d="M178.971 23.9746L176.497 23.9746L176.497 22.86L182.784 22.86L182.784 23.9746L180.299 23.9746L180.299 31.2422L178.971 31.2422L178.971 23.9746Z" fill="#B3B3B3"/>
<path d="M183.964 22.86L185.327 22.86L186.117 27.2274C186.266 28.1146 186.414 29.013 186.563 29.9115L186.609 29.9115C186.792 29.013 186.987 28.1146 187.182 27.2274L188.27 22.86L189.449 22.86L190.537 27.2274C190.732 28.1032 190.915 29.0017 191.109 29.9115L191.167 29.9115C191.304 29.0017 191.453 28.1032 191.59 27.2274L192.392 22.86L193.663 22.86L192.003 31.2422L190.365 31.2422L189.231 26.5905C189.083 25.9309 188.957 25.3053 188.842 24.6684L188.796 24.6684C188.67 25.3053 188.533 25.9309 188.395 26.5905L187.285 31.2422L185.682 31.2422L183.964 22.86Z" fill="#B3B3B3"/>
<path d="M195.621 22.86L200.602 22.86L200.602 23.9746L196.949 23.9746L196.949 26.3062L200.041 26.3062L200.041 27.4208L196.949 27.4208L196.949 30.1276L200.728 30.1276L200.728 31.2422L195.621 31.2422L195.621 22.86Z" fill="#B3B3B3"/>
<path d="M203.064 22.86L208.046 22.86L208.046 23.9746L204.393 23.9746L204.393 26.3062L207.485 26.3062L207.485 27.4208L204.393 27.4208L204.393 30.1276L208.172 30.1276L208.172 31.2422L203.064 31.2422L203.064 22.86Z" fill="#B3B3B3"/>
<path d="M210.508 22.86L211.871 22.86L214.665 27.7847L215.546 29.559L215.604 29.559C215.535 28.6946 215.432 27.6823 215.432 26.7725L215.432 22.86L216.691 22.86L216.691 31.2422L215.329 31.2422L212.535 26.3062L211.653 24.5547L211.596 24.5547C211.664 25.419 211.767 26.3858 211.767 27.2957L211.767 31.2422L210.508 31.2422L210.508 22.86Z" fill="#B3B3B3"/>
<path d="M224.352 23.9746L221.879 23.9746L221.879 22.86L228.166 22.86L228.166 23.9746L225.681 23.9746L225.681 31.2422L224.352 31.2422L224.352 23.9746Z" fill="#B3B3B3"/>
<path d="M230.192 22.86L231.521 22.86L231.521 26.2834L235.128 26.2834L235.128 22.86L236.456 22.86L236.456 31.2422L235.128 31.2422L235.128 27.4321L231.521 27.4321L231.521 31.2422L230.192 31.2422L230.192 22.86Z" fill="#B3B3B3"/>
<path d="M239.238 22.86L244.22 22.86L244.22 23.9746L240.567 23.9746L240.567 26.3062L243.658 26.3062L243.658 27.4208L240.567 27.4208L240.567 30.1276L244.346 30.1276L244.346 31.2422L239.238 31.2422L239.238 22.86Z" fill="#B3B3B3"/>
<path d="M249.235 30.1623L250.014 29.2524C250.621 29.8552 251.445 30.2419 252.258 30.2419C253.278 30.2419 253.85 29.7642 253.85 29.0591C253.85 28.2971 253.278 28.0583 252.499 27.7171L251.331 27.2166C250.518 26.8754 249.613 26.2385 249.613 25.0216C249.613 23.7023 250.781 22.7128 252.384 22.7128C253.369 22.7128 254.297 23.1222 254.938 23.7705L254.24 24.6121C253.713 24.1458 253.129 23.8615 252.384 23.8615C251.526 23.8615 250.964 24.2709 250.964 24.9306C250.964 25.6585 251.64 25.9314 252.327 26.2044L253.484 26.6934C254.48 27.1142 255.201 27.7284 255.201 28.9567C255.201 30.2988 254.079 31.3906 252.236 31.3906C251.079 31.3906 250.003 30.9357 249.235 30.1623Z" fill="#B3B3B3"/>
<path d="M257.32 27.6488L257.32 22.8606L258.649 22.8606L258.649 27.7398C258.649 29.6277 259.404 30.2419 260.458 30.2419C261.511 30.2419 262.302 29.6277 262.302 27.7398L262.302 22.8606L263.584 22.8606L263.584 27.6488C263.584 30.3784 262.324 31.3906 260.458 31.3906C258.591 31.3906 257.32 30.3784 257.32 27.6488Z" fill="#B3B3B3"/>
<path d="M266.332 22.86L267.695 22.86L270.489 27.7847L271.371 29.559L271.428 29.559C271.359 28.6946 271.256 27.6823 271.256 26.7725L271.256 22.86L272.516 22.86L272.516 31.2422L271.153 31.2422L268.359 26.3062L267.477 24.5547L267.42 24.5547C267.489 25.419 267.592 26.3858 267.592 27.2957L267.592 31.2422L266.332 31.2422L266.332 22.86Z" fill="#B3B3B3"/>
<path d="M280.142 22.86L281.676 22.86L284.47 31.2422L283.062 31.2422L282.352 28.8538L279.42 28.8538L278.699 31.2422L277.348 31.2422L280.142 22.86ZM279.73 27.8188L282.031 27.8188L281.699 26.6928C281.413 25.783 281.161 24.8503 280.909 23.9064L280.852 23.9064C280.611 24.8617 280.348 25.783 280.073 26.6928L279.73 27.8188Z" fill="#B3B3B3"/>
<path d="M286.154 22.86L287.517 22.86L290.311 27.7847L291.193 29.559L291.25 29.559C291.181 28.6946 291.078 27.6823 291.078 26.7725L291.078 22.86L292.338 22.86L292.338 31.2422L290.975 31.2422L288.181 26.3062L287.299 24.5547L287.242 24.5547C287.311 25.419 287.414 26.3858 287.414 27.2957L287.414 31.2422L286.154 31.2422L286.154 22.86Z" fill="#B3B3B3"/>
<path d="M295.132 22.86L297.319 22.86C299.907 22.86 301.384 24.293 301.384 27.0226C301.384 29.7523 299.907 31.2422 297.388 31.2422L295.132 31.2422L295.132 22.86ZM297.227 30.1617C299.037 30.1617 300.01 29.104 300.01 27.0226C300.01 24.9413 299.037 23.9405 297.227 23.9405L296.46 23.9405L296.46 30.1617L297.227 30.1617Z" fill="#B3B3B3"/>
<path d="M308.576 23.9746L306.103 23.9746L306.103 22.86L312.389 22.86L312.389 23.9746L309.904 23.9746L309.904 31.2422L308.576 31.2422L308.576 23.9746Z" fill="#B3B3B3"/>
<path d="M314.416 22.86L315.744 22.86L315.744 26.2834L319.351 26.2834L319.351 22.86L320.68 22.86L320.68 31.2422L319.351 31.2422L319.351 27.4321L315.744 27.4321L315.744 31.2422L314.416 31.2422L314.416 22.86Z" fill="#B3B3B3"/>
<path d="M323.462 22.86L328.443 22.86L328.443 23.9746L324.79 23.9746L324.79 26.3062L327.882 26.3062L327.882 27.4208L324.79 27.4208L324.79 30.1276L328.569 30.1276L328.569 31.2422L323.462 31.2422L323.462 22.86Z" fill="#B3B3B3"/>
<path d="M334.055 22.86L335.578 22.86L337.124 27.1023C337.318 27.6596 337.49 28.2283 337.685 28.7856L337.742 28.7856C337.937 28.2283 338.097 27.6596 338.292 27.1023L339.815 22.86L341.349 22.86L341.349 31.2422L340.112 31.2422L340.112 27.1023C340.112 26.3516 340.215 25.2712 340.284 24.5092L340.238 24.5092L339.563 26.4427L338.097 30.4347L337.272 30.4347L335.795 26.4427L335.131 24.5092L335.085 24.5092C335.143 25.2712 335.246 26.3516 335.246 27.1023L335.246 31.2422L334.055 31.2422L334.055 22.86Z" fill="#B3B3B3"/>
<path d="M343.674 27.0232C343.674 24.3277 345.174 22.7128 347.338 22.7128C349.503 22.7128 351.014 24.3277 351.014 27.0232C351.014 29.7187 349.503 31.3906 347.338 31.3906C345.174 31.3906 343.674 29.7187 343.674 27.0232ZM349.64 27.0232C349.64 25.0556 348.724 23.8615 347.327 23.8615C345.93 23.8615 345.025 25.0556 345.025 27.0232C345.025 28.9908 345.93 30.2419 347.327 30.2419C348.724 30.2419 349.64 28.9794 349.64 27.0232Z" fill="#B3B3B3"/>
<path d="M352.88 27.0232C352.88 24.3277 354.38 22.7128 356.544 22.7128C358.709 22.7128 360.22 24.3277 360.22 27.0232C360.22 29.7187 358.709 31.3906 356.544 31.3906C354.38 31.3906 352.88 29.7187 352.88 27.0232ZM358.846 27.0232C358.846 25.0556 357.93 23.8615 356.533 23.8615C355.136 23.8615 354.231 25.0556 354.231 27.0232C354.231 28.9908 355.136 30.2419 356.533 30.2419C357.93 30.2419 358.846 28.9794 358.846 27.0232Z" fill="#B3B3B3"/>
<path d="M362.545 22.86L363.908 22.86L366.702 27.7847L367.583 29.559L367.641 29.559C367.572 28.6946 367.469 27.6823 367.469 26.7725L367.469 22.86L368.729 22.86L368.729 31.2422L367.366 31.2422L364.572 26.3062L363.69 24.5547L363.633 24.5547C363.701 25.419 363.805 26.3858 363.805 27.2957L363.805 31.2422L362.545 31.2422L362.545 22.86Z" fill="#B3B3B3"/>
<path d="M371.236 30.4808C371.236 29.9348 371.626 29.5481 372.118 29.5481C372.61 29.5481 373 29.9348 373 30.4808C373 31.0267 372.61 31.3906 372.118 31.3906C371.626 31.3906 371.236 31.0153 371.236 30.4808Z" fill="#B3B3B3"/>
<path d="M2.47346 45.585L-3.17676e-07 45.585L-3.66396e-07 44.4704L6.28671 44.4704L6.28671 45.585L3.8018 45.585L3.8018 52.8525L2.47346 52.8525L2.47346 45.585Z" fill="#B3B3B3"/>
<path d="M8.31348 44.4704L9.64182 44.4704L9.64182 47.8938L13.2489 47.8938L13.2489 44.4704L14.5773 44.4704L14.5773 52.8525L13.2489 52.8525L13.2489 49.0425L9.64182 49.0425L9.64182 52.8525L8.31348 52.8525L8.31348 44.4704Z" fill="#B3B3B3"/>
<path d="M17.3604 44.4704L22.3416 44.4704L22.3416 45.585L18.6887 45.585L18.6887 47.9165L21.7805 47.9165L21.7805 49.0311L18.6887 49.0311L18.6887 51.738L22.4676 51.738L22.4676 52.8525L17.3604 52.8525L17.3604 44.4704Z" fill="#B3B3B3"/>
<path d="M26.1889 49.6794L23.6582 44.4704L25.0782 44.4704L26.0515 46.6996C26.3149 47.3251 26.5554 47.9052 26.8416 48.5421L26.8874 48.5421C27.1623 47.9052 27.4371 47.3251 27.689 46.6996L28.6738 44.4704L30.0594 44.4704L27.5173 49.6794L27.5173 52.8525L26.1889 52.8525L26.1889 49.6794Z" fill="#B3B3B3"/>
<path d="M34.2617 51.7717L35.0404 50.8618C35.6473 51.4646 36.4718 51.8513 37.2848 51.8513C38.304 51.8513 38.8766 51.3736 38.8766 50.6685C38.8766 49.9065 38.304 49.6676 37.5253 49.3264L36.3573 48.826C35.5443 48.4848 34.6396 47.8479 34.6396 46.631C34.6396 45.3116 35.8076 44.3221 37.4108 44.3221C38.3956 44.3221 39.3232 44.7316 39.9644 45.3798L39.2659 46.2215C38.7391 45.7551 38.1551 45.4708 37.4108 45.4708C36.552 45.4708 35.9909 45.8803 35.9909 46.5399C35.9909 47.2678 36.6665 47.5408 37.3535 47.8138L38.5101 48.3028C39.5064 48.7236 40.2278 49.3378 40.2278 50.5661C40.2278 51.9081 39.1056 53 37.2619 53C36.1054 53 35.0289 52.545 34.2617 51.7717Z" fill="#B3B3B3"/>
<path d="M42.3926 44.4704L43.7209 44.4704L43.7209 47.8938L47.328 47.8938L47.328 44.4704L48.6564 44.4704L48.6564 52.8525L47.328 52.8525L47.328 49.0425L43.7209 49.0425L43.7209 52.8525L42.3926 52.8525L42.3926 44.4704Z" fill="#B3B3B3"/>
<path d="M51.4385 44.4704L52.7668 44.4704L52.7668 52.8525L51.4385 52.8525L51.4385 44.4704Z" fill="#B3B3B3"/>
<path d="M55.5498 44.4704L56.9125 44.4704L59.7066 49.3951L60.5883 51.1693L60.6456 51.1693C60.5769 50.3049 60.4738 49.2927 60.4738 48.3828L60.4738 44.4704L61.7335 44.4704L61.7335 52.8525L60.3708 52.8525L57.5767 47.9165L56.6949 46.165L56.6377 46.165C56.7064 47.0294 56.8094 47.9962 56.8094 48.906L56.8094 52.8525L55.5498 52.8525L55.5498 44.4704Z" fill="#B3B3B3"/>
<path d="M64.5273 44.4704L69.5086 44.4704L69.5086 45.585L65.8557 45.585L65.8557 47.9165L68.9475 47.9165L68.9475 49.0311L65.8557 49.0311L65.8557 51.738L69.6346 51.738L69.6346 52.8525L64.5273 52.8525L64.5273 44.4704Z" fill="#B3B3B3"/>
<path d="M74.2725 44.4704L75.6352 44.4704L76.4253 48.8378C76.5741 49.7249 76.723 50.6234 76.8719 51.5219L76.9177 51.5219C77.1009 50.6234 77.2956 49.7249 77.4902 48.8378L78.5781 44.4704L79.7576 44.4704L80.8454 48.8378C81.0401 49.7135 81.2233 50.612 81.418 51.5219L81.4753 51.5219C81.6127 50.612 81.7615 49.7135 81.899 48.8378L82.7005 44.4704L83.9716 44.4704L82.3112 52.8525L80.6737 52.8525L79.54 48.2009C79.3911 47.5412 79.2652 46.9157 79.1507 46.2788L79.1049 46.2788C78.9789 46.9157 78.8415 47.5412 78.7041 48.2009L77.5933 52.8525L75.9901 52.8525L74.2725 44.4704Z" fill="#B3B3B3"/>
<path d="M85.9297 44.4704L87.258 44.4704L87.258 47.8938L90.8652 47.8938L90.8652 44.4704L92.1935 44.4704L92.1935 52.8525L90.8652 52.8525L90.8652 49.0425L87.258 49.0425L87.258 52.8525L85.9297 52.8525L85.9297 44.4704Z" fill="#B3B3B3"/>
<path d="M94.9766 44.4704L99.9578 44.4704L99.9578 45.585L96.3049 45.585L96.3049 47.9165L99.3967 47.9165L99.3967 49.0311L96.3049 49.0311L96.3049 51.738L100.084 51.738L100.084 52.8525L94.9766 52.8525L94.9766 44.4704Z" fill="#B3B3B3"/>
<path d="M102.42 44.4704L103.783 44.4704L106.577 49.3951L107.458 51.1693L107.516 51.1693C107.447 50.3049 107.344 49.2927 107.344 48.3828L107.344 44.4704L108.604 44.4704L108.604 52.8525L107.241 52.8525L104.447 47.9165L103.565 46.165L103.508 46.165C103.576 47.0294 103.68 47.9962 103.68 48.906L103.68 52.8525L102.42 52.8525L102.42 44.4704Z" fill="#B3B3B3"/>
<path d="M114.547 44.4704L115.875 44.4704L115.875 52.8525L114.547 52.8525L114.547 44.4704Z" fill="#B3B3B3"/>
<path d="M120.375 45.585L117.901 45.585L117.901 44.4704L124.188 44.4704L124.188 45.585L121.703 45.585L121.703 52.8525L120.375 52.8525L120.375 45.585Z" fill="#B3B3B3"/>
<path d="M126.524 44.6973C126.524 44.6973 126.353 44.7769 126.238 44.7769C125.78 44.7769 125.482 44.4357 125.482 43.9921C125.482 43.6054 125.78 43.2187 126.307 43.2187C126.834 43.2187 127.257 43.7078 127.257 44.3561C127.257 45.4138 126.547 46.2099 125.769 46.5625L125.494 46.0621C126.135 45.7436 126.513 45.1294 126.524 44.6973Z" fill="#B3B3B3"/>
<path d="M131.918 51.7717L132.697 50.8618C133.304 51.4646 134.128 51.8513 134.941 51.8513C135.96 51.8513 136.533 51.3736 136.533 50.6685C136.533 49.9065 135.96 49.6676 135.182 49.3264L134.014 48.826C133.201 48.4848 132.296 47.8479 132.296 46.631C132.296 45.3116 133.464 44.3221 135.067 44.3221C136.052 44.3221 136.979 44.7316 137.621 45.3798L136.922 46.2215C136.395 45.7551 135.811 45.4708 135.067 45.4708C134.208 45.4708 133.647 45.8803 133.647 46.5399C133.647 47.2678 134.323 47.5408 135.01 47.8138L136.166 48.3028C137.163 48.7236 137.884 49.3378 137.884 50.5661C137.884 51.9081 136.762 53 134.918 53C133.762 53 132.685 52.545 131.918 51.7717Z" fill="#B3B3B3"/>
<path d="M144.915 45.585L142.441 45.585L142.441 44.4704L148.728 44.4704L148.728 45.585L146.243 45.585L146.243 52.8525L144.915 52.8525L144.915 45.585Z" fill="#B3B3B3"/>
<path d="M150.755 44.4704L152.083 44.4704L152.083 47.8938L155.69 47.8938L155.69 44.4704L157.019 44.4704L157.019 52.8525L155.69 52.8525L155.69 49.0425L152.083 49.0425L152.083 52.8525L150.755 52.8525L150.755 44.4704Z" fill="#B3B3B3"/>
<path d="M159.802 44.4704L164.783 44.4704L164.783 45.585L161.13 45.585L161.13 47.9165L164.222 47.9165L164.222 49.0311L161.13 49.0311L161.13 51.738L164.909 51.738L164.909 52.8525L159.802 52.8525L159.802 44.4704Z" fill="#B3B3B3"/>
<path d="M167.245 44.4704L168.573 44.4704L168.573 52.8525L167.245 52.8525L167.245 44.4704Z" fill="#B3B3B3"/>
<path d="M171.355 44.4704L174.115 44.4704C175.856 44.4704 177.161 45.0959 177.161 46.9043C177.161 48.2009 176.463 48.9742 175.398 49.3041L177.459 52.8525L175.959 52.8525L174.047 49.4747L172.684 49.4747L172.684 52.8525L171.355 52.8525L171.355 44.4704ZM173.955 48.4169C175.18 48.4169 175.844 47.9165 175.844 46.9043C175.844 45.8921 175.18 45.5395 173.955 45.5395L172.684 45.5395L172.684 48.4169L173.955 48.4169Z" fill="#B3B3B3"/>
<path d="M184.307 45.585L181.834 45.585L181.834 44.4704L188.121 44.4704L188.121 45.585L185.636 45.585L185.636 52.8525L184.307 52.8525L184.307 45.585Z" fill="#B3B3B3"/>
<path d="M190.147 44.4704L191.476 44.4704L191.476 52.8525L190.147 52.8525L190.147 44.4704Z" fill="#B3B3B3"/>
<path d="M194.258 44.4704L195.781 44.4704L197.327 48.7126C197.521 49.2699 197.693 49.8386 197.888 50.3959L197.945 50.3959C198.14 49.8386 198.3 49.2699 198.495 48.7126L200.018 44.4704L201.552 44.4704L201.552 52.8525L200.315 52.8525L200.315 48.7126C200.315 47.962 200.419 46.8815 200.487 46.1195L200.441 46.1195L199.766 48.053L198.3 52.045L197.476 52.045L195.998 48.053L195.334 46.1195L195.288 46.1195C195.346 46.8815 195.449 47.962 195.449 48.7126L195.449 52.8525L194.258 52.8525L194.258 44.4704Z" fill="#B3B3B3"/>
<path d="M204.335 44.4704L209.316 44.4704L209.316 45.585L205.663 45.585L205.663 47.9165L208.755 47.9165L208.755 49.0311L205.663 49.0311L205.663 51.738L209.442 51.738L209.442 52.8525L204.335 52.8525L204.335 44.4704Z" fill="#B3B3B3"/>
<path d="M211.492 52.0901C211.492 51.5442 211.882 51.1575 212.374 51.1575C212.866 51.1575 213.256 51.5442 213.256 52.0901C213.256 52.6361 212.866 53 212.374 53C211.882 53 211.492 52.6247 211.492 52.0901Z" fill="#B3B3B3"/>
</svg>
