<svg width="26" height="202" viewBox="0 0 26 202" fill="none" xmlns="http://www.w3.org/2000/svg">
<g clip-path="url(#clip0_239_7627)">
<path d="M1.75781 202L1.75781 201.359L24.9058 201.359L24.9058 187.793L25.5358 187.945L25.5358 202L1.75781 202Z" fill="black"/>
<path d="M21.854 172.947C23.7104 172.947 25.1026 172.825 25.5358 172.765L25.5358 173.375C25.2714 173.467 23.3476 173.619 21.9216 173.588C24.4754 174.445 25.9999 176.43 25.9999 180.25C25.9999 184.559 23.1816 185.963 20.9259 185.963C16.8138 185.963 15.6522 182.389 15.6522 178.049C15.6522 175.299 15.6522 174.445 15.6859 173.588L14.0265 173.588C11.4389 173.588 9.05093 174.78 9.05093 178.873C9.05093 182.663 10.9748 184.006 13.5286 184.434L13.5286 185.076C10.8426 184.708 8.4209 183.182 8.4209 178.812C8.4209 174.442 10.9748 172.947 13.9252 172.947L21.8512 172.947L21.854 172.947ZM16.316 173.588C16.2822 174.78 16.2822 176.186 16.2822 178.08C16.2822 181.104 16.7801 185.291 20.9259 185.291C23.5782 185.291 25.3361 183.276 25.3361 180.25C25.3361 175.33 22.6838 173.588 18.6364 173.588L16.316 173.588Z" fill="black"/>
<path d="M25.5358 153.607L1.75781 163.17L1.75781 162.468L15.9194 156.755C21.0919 154.676 23.3814 153.731 24.543 153.333L24.543 153.303C23.4826 152.874 20.6306 151.653 16.2513 149.759L1.76063 143.526L1.76063 142.824L25.5387 153.09L25.5387 153.61L25.5358 153.607Z" fill="black"/>
<path d="M0 140.29L7.64699e-09 139.648L3.1839 139.648L3.1839 140.29L0 140.29ZM8.88793 140.29L8.88793 139.648L25.5359 139.648L25.5359 140.29L8.88793 140.29Z" fill="black"/>
<path d="M17.1766 135.339C22.4166 135.278 25.367 132.406 25.367 128.526C25.367 125.225 23.5754 123.21 21.3872 122.293L21.3872 121.591C23.941 122.569 25.9971 124.861 25.9971 128.526C25.9971 133.963 21.2887 136.011 17.2413 136.011C12.1026 136.011 8.4209 133.108 8.4209 128.526C8.4209 122.782 13.2614 121.284 16.4791 121.284L17.1766 121.284L17.1766 135.339ZM16.5466 121.928C12.4683 122.049 9.05093 123.943 9.05093 128.589C9.05093 132.652 12.4008 135.157 16.5466 135.311L16.5466 121.931L16.5466 121.928Z" fill="black"/>
<path d="M13.1321 95.6528L13.1321 109.28L24.9058 109.28L24.9058 94.4311L25.5358 94.5832L25.5358 109.921L1.75781 109.921L1.75781 95.0116L2.38784 95.0116L2.38784 109.28L12.5021 109.28L12.5021 95.6528L13.1321 95.6528Z" fill="black"/>
<path d="M14.0604 91.9271C10.8118 91.9271 9.54888 91.9575 8.88791 91.9575L8.88791 91.3467C9.4195 91.3163 11.9734 91.2555 13.3319 91.2859C11.6415 90.675 8.42383 89.0857 8.42383 84.6853C8.42383 81.1722 10.8455 78.6348 15.6523 78.6348L25.5359 78.6348L25.5359 79.276L15.7873 79.276C11.7737 79.276 9.08761 81.2302 9.08761 84.7765C9.08761 89.2073 12.9353 91.2831 16.6142 91.2831L25.5359 91.2831L25.5359 91.9244L14.0632 91.9244L14.0604 91.9271Z" fill="black"/>
<path d="M13.7959 65.348L25.5358 65.348L25.5358 65.9893L1.75781 65.9893L1.75781 56.9757C1.75781 53.2774 3.81385 50.4691 7.69529 50.4691C10.8454 50.4691 12.9352 51.9672 13.4978 55.3587C14.094 52.4868 15.686 50.6543 20.2621 50.6543L20.5603 50.6543C23.3139 50.6543 24.9058 50.5935 25.5358 50.4414L25.5358 51.1131C24.408 51.3259 22.9173 51.3259 20.5603 51.3259L20.2621 51.3259C16.2485 51.3259 13.7959 52.6997 13.7959 58.1089L13.7959 65.3508L13.7959 65.348ZM13.1659 65.348L13.1659 57.9845C13.1659 53.645 11.6724 51.1408 7.75998 51.1408C4.27793 51.1408 2.38784 53.5234 2.38784 57.2825L2.38784 65.348L13.1659 65.348Z" fill="black"/>
<path d="M17.1458 31.6511C21.722 31.6511 26 34.3101 26 39.4734C26 44.1474 22.1214 47.2017 17.3118 47.2017C12.1393 47.2017 8.42383 43.9014 8.42383 39.4098C8.42383 34.6446 12.5022 31.6483 17.1458 31.6483L17.1458 31.6511ZM17.3118 46.53C22.0539 46.53 25.37 43.4149 25.37 39.4126C25.37 34.921 21.5898 32.3255 17.1796 32.3255C12.7694 32.3255 9.05386 35.167 9.05386 39.443C9.05386 43.7189 12.6681 46.53 17.3118 46.53Z" fill="black"/>
<path d="M21.0919 28.6273C23.9102 28.0468 25.37 25.9683 25.37 22.914C25.37 19.7049 23.944 17.6291 21.2916 17.6291C19.6322 17.6291 17.908 17.9663 17.0136 22.7012C16.0517 27.8644 14.5919 28.4753 12.6034 28.4753C10.8118 28.4753 8.42383 27.1319 8.42383 23.16C8.42383 18.8204 11.0761 17.5987 12.9015 17.3859L12.9015 18.0271C11.2112 18.3339 9.05386 19.3097 9.05386 23.1904C9.05386 26.7339 11.0761 27.8036 12.5697 27.8036C14.9238 27.8036 15.6214 26.5211 16.4173 22.4883C17.3455 17.8447 19.005 16.9574 21.2579 16.9574C24.2083 16.9574 26 19.2489 26 22.914C26 26.7643 23.8118 28.9037 21.0919 29.2686L21.0919 28.6273Z" fill="black"/>
<path d="M17.1766 14.0554C22.4166 13.9946 25.367 11.1227 25.367 7.242C25.367 3.94172 23.5754 1.92672 21.3872 1.00906L21.3872 0.306974C23.941 1.28545 25.9971 3.57686 25.9971 7.242C25.9971 12.6789 21.2887 14.7271 17.2413 14.7271C12.1026 14.7271 8.4209 11.8248 8.4209 7.242C8.4209 1.49829 13.2614 0.000167904 16.4791 0.000167943L17.1766 0.000167951L17.1766 14.0554ZM16.5466 0.641431C12.4683 0.763049 9.05093 2.65642 9.05093 7.3028C9.05093 11.366 12.4008 13.8702 16.5466 14.025L16.5466 0.644198L16.5466 0.641431Z" fill="black"/>
</g>
<defs>
<clipPath id="clip0_239_7627">
<rect width="202" height="26" fill="white" transform="translate(0 202) rotate(-90)"/>
</clipPath>
</defs>
</svg>
