<svg width="731" height="93" viewBox="0 0 731 93" fill="none" xmlns="http://www.w3.org/2000/svg">
<g clip-path="url(#clip0_446_1497)">
<path d="M0 6.25H2.32V88.55H51.4L50.85 90.79H0V6.25Z" fill="black"/>
<path d="M105.11 77.7004C105.11 84.3004 105.55 89.2504 105.77 90.7904H103.56C103.23 89.8504 102.68 83.0104 102.79 77.9404C99.6895 87.0204 92.5095 92.4404 78.6895 92.4404C63.0995 92.4404 58.0195 82.4204 58.0195 74.4004C58.0195 59.7804 70.9495 55.6504 86.6495 55.6504C96.5995 55.6504 99.6895 55.6504 102.79 55.7704V49.8704C102.79 40.6704 98.4795 32.1804 83.6695 32.1804C69.9595 32.1804 65.0995 39.0204 63.5495 48.1004H61.2295C62.5595 38.5504 68.0795 29.9404 83.8895 29.9404C99.6995 29.9404 105.11 39.0204 105.11 49.5104V77.6904V77.7004ZM102.79 58.0104C98.4795 57.8904 93.3895 57.8904 86.5395 57.8904C75.5995 57.8904 60.4495 59.6604 60.4495 74.4004C60.4495 83.8304 67.7395 90.0804 78.6895 90.0804C96.4895 90.0804 102.79 80.6504 102.79 66.2604V58.0104Z" fill="black"/>
<path d="M175.08 90.79L140.48 6.25H143.02L163.69 56.6C171.21 74.99 174.63 83.13 176.07 87.26H176.18C177.73 83.49 182.15 73.35 189 57.78L211.55 6.26H214.09L176.95 90.8H175.07L175.08 90.79Z" fill="black"/>
<path d="M223.26 0H225.58V11.32H223.26V0ZM223.26 31.6H225.58V90.79H223.26V31.6Z" fill="black"/>
<path d="M241.17 61.0704C241.39 79.7004 251.78 90.1904 265.82 90.1904C277.76 90.1904 285.05 83.8204 288.37 76.0404H290.91C287.37 85.1204 279.08 92.4304 265.82 92.4304C246.15 92.4304 238.74 75.6904 238.74 61.3004C238.74 43.0304 249.24 29.9404 265.82 29.9404C286.6 29.9404 292.02 47.1504 292.02 58.5904V61.0704H241.17ZM289.69 58.8304C289.25 44.3304 282.4 32.1804 265.59 32.1804C250.89 32.1804 241.83 44.0904 241.27 58.8304H289.68H289.69Z" fill="black"/>
<path d="M384.75 46.69H335.45V88.55H389.17L388.62 90.79H333.13V6.25H387.07V8.49H335.45V44.45H384.75V46.69Z" fill="black"/>
<path d="M398.23 49.9902C398.23 38.4402 398.12 33.9502 398.12 31.6002H400.33C400.44 33.4902 400.66 42.5702 400.55 47.4002C402.76 41.3902 408.51 29.9502 424.43 29.9502C437.14 29.9502 446.32 38.5602 446.32 55.6502V90.7902H444V56.1302C444 41.8602 436.93 32.3102 424.1 32.3102C408.07 32.3102 400.56 45.9902 400.56 59.0702V90.7902H398.24V50.0002L398.23 49.9902Z" fill="black"/>
<path d="M494.39 49.05V90.79H492.07V6.25H524.68C538.06 6.25 548.22 13.56 548.22 27.36C548.22 38.56 542.8 45.99 530.53 47.99C540.92 50.11 547.55 55.77 547.55 72.04V73.1C547.55 82.89 547.77 88.55 548.32 90.79H545.89C545.12 86.78 545.12 81.48 545.12 73.1V72.04C545.12 57.77 540.15 49.05 520.58 49.05H494.38H494.39ZM494.39 46.81H521.03C536.73 46.81 545.79 41.5 545.79 27.59C545.79 15.21 537.17 8.49 523.57 8.49H494.39V46.81Z" fill="black"/>
<path d="M616.3 60.9602C616.3 77.2302 606.68 92.4402 588 92.4402C571.09 92.4402 560.04 78.6502 560.04 61.5502C560.04 43.1602 571.98 29.9502 588.23 29.9502C605.47 29.9502 616.31 44.4502 616.31 60.9602H616.3ZM562.47 61.5502C562.47 78.4102 573.74 90.2002 588.22 90.2002C604.47 90.2002 613.86 76.7602 613.86 61.0802C613.86 45.4002 603.58 32.1902 588.11 32.1902C572.64 32.1902 562.47 45.0402 562.47 61.5502Z" fill="black"/>
<path d="M627.24 74.9902C629.34 85.0102 636.86 90.2002 647.91 90.2002C659.52 90.2002 667.03 85.1302 667.03 75.7002C667.03 69.8002 665.81 63.6702 648.68 60.4902C630 57.0702 627.79 51.8802 627.79 44.8102C627.79 38.4402 632.65 29.9502 647.02 29.9502C662.72 29.9502 667.14 39.3802 667.91 45.8702H665.59C664.48 39.8602 660.95 32.1902 646.91 32.1902C634.09 32.1902 630.22 39.3802 630.22 44.6902C630.22 53.0602 634.86 55.5402 649.45 58.3702C666.25 61.6702 669.46 67.5702 669.46 75.5802C669.46 86.0702 661.17 92.4402 647.91 92.4402C633.98 92.4402 626.24 84.6602 624.92 74.9902H627.24Z" fill="black"/>
<path d="M679.96 61.0704C680.18 79.7004 690.57 90.1904 704.61 90.1904C716.55 90.1904 723.84 83.8204 727.16 76.0404H729.7C726.16 85.1204 717.87 92.4304 704.61 92.4304C684.94 92.4304 677.53 75.6904 677.53 61.3004C677.53 43.0304 688.03 29.9404 704.61 29.9404C725.39 29.9404 730.81 47.1504 730.81 58.5904V61.0704H679.96ZM728.49 58.8304C728.05 44.3304 721.2 32.1804 704.39 32.1804C689.69 32.1804 680.63 44.0904 680.07 58.8304H728.48H728.49Z" fill="black"/>
</g>
<defs>
<clipPath id="clip0_446_1497">
<rect width="730.81" height="92.44" fill="white"/>
</clipPath>
</defs>
</svg>
