<svg width="44" height="392" viewBox="0 0 44 392" fill="none" xmlns="http://www.w3.org/2000/svg">
<g clip-path="url(#clip0_446_1656)">
<path d="M7.3427 242.335H2.11817V240.15H16.9748V242.314H9.84747C10.557 242.935 11.4707 243.696 12.3737 244.37C13.567 245.27 15.2225 246.438 16.964 247.648V250.09L10.342 244.874L2.10742 250.24V247.68L8.93371 243.578L7.33195 242.325L7.3427 242.335Z" fill="#666666"/>
<path d="M7.40647 251.986C10.4272 251.986 12.9965 253.882 12.9965 256.828C12.9965 260.052 10.266 261.412 8.22347 261.412C7.85797 261.412 7.51397 261.391 7.19147 261.337V254.246C4.6652 254.246 3.06344 255.2 3.06344 257.492C3.06344 258.799 3.5042 259.816 4.2782 260.759H2.62269C2.07444 260.073 1.77344 258.863 1.77344 257.203C1.77344 254 3.6332 251.986 7.41722 251.986H7.40647ZM8.37397 259.173C10.0187 259.216 11.7925 258.295 11.7925 256.796C11.7925 255.189 9.98648 254.353 8.37397 254.311V259.173Z" fill="#666666"/>
<path d="M1.75196 269.22C1.75196 265.621 3.91272 264.079 7.37424 264.079C10.051 264.079 12.9965 265.568 12.9965 268.92C12.9965 270.409 12.631 271.438 12.0613 272.284H10.3198C11.169 271.427 11.7173 270.57 11.7173 269.274C11.7173 266.875 9.1695 266.307 7.36349 266.307C5.01998 266.307 3.00972 267.025 3.00972 269.488C3.00972 270.87 3.39672 271.459 4.22448 272.337H2.54747C1.99921 271.598 1.74121 270.581 1.74121 269.21L1.75196 269.22Z" fill="#666666"/>
<path d="M7.40647 274.747C10.4272 274.747 12.9965 276.643 12.9965 279.588C12.9965 282.812 10.266 284.173 8.22347 284.173C7.85797 284.173 7.51397 284.151 7.19147 284.098V277.007C4.6652 277.007 3.06344 277.96 3.06344 280.252C3.06344 281.559 3.5042 282.577 4.2782 283.519H2.62269C2.07444 282.834 1.77344 281.624 1.77344 279.963C1.77344 276.761 3.6332 274.747 7.41722 274.747H7.40647ZM8.37397 281.934C10.0187 281.977 11.7925 281.056 11.7925 279.556C11.7925 277.95 9.98648 277.114 8.37397 277.071V281.934Z" fill="#666666"/>
<path d="M12.6425 287.321V289.292C11.976 289.271 11.1267 289.292 10.4817 289.249C11.9007 289.721 12.9757 290.856 12.9757 292.184C12.9757 292.42 12.9542 292.634 12.9112 292.87H10.8042C10.9225 292.58 10.987 292.345 10.987 292.088C10.987 290.877 9.77221 289.453 7.56844 289.453H2.11816V287.321H12.6425Z" fill="#666666"/>
<path d="M12.6425 295.43V297.401C11.976 297.379 11.1267 297.4 10.4817 297.358C11.9007 297.829 12.9757 298.964 12.9757 300.292C12.9757 300.528 12.9542 300.742 12.9112 300.978H10.8042C10.9225 300.689 10.987 300.453 10.987 300.196C10.987 298.986 9.77221 297.561 7.56844 297.561H2.11816V295.43H12.6425Z" fill="#666666"/>
<path d="M2.09588 311.85V309.794C2.62264 309.697 3.03114 309.654 3.47189 309.654C2.52589 309.13 1.84863 308.016 1.84863 306.43C1.84863 303.871 3.38589 303.014 5.0629 303.014C7.56767 303.014 8.59967 305.359 8.64267 307.801C8.64267 308.508 8.64267 309.033 8.57817 309.483H9.35218C10.9754 309.483 11.6419 308.84 11.6419 307.566C11.6419 306.291 10.9754 304.845 10.1799 303.796H11.7602C12.4052 304.845 12.9534 306.409 12.9534 307.876C12.9319 310.222 11.5559 311.582 9.28768 311.582H4.38565C3.76214 311.604 2.68714 311.7 2.07438 311.84L2.09588 311.85ZM6.17016 309.526H7.34191C7.42791 309.098 7.43866 308.573 7.42791 307.887C7.38491 306.58 6.87966 305.092 5.2779 305.092C4.08465 305.092 3.28914 305.713 3.27839 306.923C3.25689 307.684 3.36439 308.273 3.94489 308.84C4.6759 309.483 5.3639 309.505 6.17016 309.526Z" fill="#666666"/>
<path d="M2.11816 321.404H16.9747V323.675H3.60167V329.041H2.11816V321.404Z" fill="#666666"/>
<path d="M12.6425 332.276V334.386H2.11816V332.276H12.6425ZM16.061 332.029C16.7705 332.029 17.3618 332.618 17.3618 333.336C17.3618 334.054 16.7705 334.621 16.061 334.621C15.3515 334.621 14.7495 334.054 14.7495 333.336C14.7495 332.618 15.3515 332.029 16.061 332.029Z" fill="#666666"/>
<path d="M12.6425 338.252V340.223H10.8257C11.6105 340.394 12.9542 341.412 12.9542 342.954C12.9542 344.689 12.0835 345.782 10.6645 346.178C11.7932 346.585 12.9757 347.678 12.9757 349.22C12.9757 351.683 11.5137 352.776 9.07345 352.776H2.11816V350.666H8.85845C10.4817 350.666 11.4707 350.173 11.4707 348.727C11.4707 347.206 9.91196 346.564 8.3102 346.564H2.11816V344.454H8.79395C10.2667 344.454 11.4707 343.907 11.4707 342.44C11.4707 341.058 9.93346 340.373 8.3317 340.373H2.11816V338.241H12.6425V338.252Z" fill="#666666"/>
<path d="M12.6425 356.579V358.689H2.11816V356.579H12.6425ZM16.061 356.322C16.7705 356.322 17.3618 356.911 17.3618 357.629C17.3618 358.347 16.7705 358.914 16.061 358.914C15.3515 358.914 14.7495 358.347 14.7495 357.629C14.7495 356.911 15.3515 356.322 16.061 356.322Z" fill="#666666"/>
<path d="M1.83789 366.111C1.83789 364.879 2.22489 364.215 2.75165 363.84C3.35365 363.433 4.12765 363.251 5.15966 363.251H11.3732V361.688H12.6095V363.251H15.4475V365.361H12.6095V367.632H11.3732V365.361H5.18116C3.9879 365.361 3.2569 365.479 3.2569 366.668C3.2569 367.022 3.35365 367.386 3.5579 367.707H2.16039C1.91314 367.236 1.83789 366.668 1.83789 366.1V366.111Z" fill="#666666"/>
<path d="M7.40647 369.903C10.4272 369.903 12.9965 371.799 12.9965 374.745C12.9965 377.969 10.266 379.329 8.22347 379.329C7.85797 379.329 7.51397 379.308 7.19147 379.254V372.163C4.6652 372.163 3.06344 373.117 3.06344 375.409C3.06344 376.715 3.5042 377.733 4.2782 378.676H2.62269C2.07444 377.99 1.77344 376.78 1.77344 375.12C1.77344 371.917 3.6332 369.903 7.41722 369.903H7.40647ZM8.37397 377.09C10.0187 377.133 11.7925 376.212 11.7925 374.713C11.7925 373.106 9.98648 372.27 8.37397 372.228V377.09Z" fill="#666666"/>
<path d="M7.48172 381.985C10.739 381.985 12.9428 383.721 12.9428 386.323C12.9428 387.812 12.2547 388.883 11.3087 389.451H17.6405V391.561H2.11744V389.612H3.7407C2.82694 389.215 1.77344 388.144 1.77344 386.463C1.77344 383.453 4.15995 381.985 7.48172 381.985ZM6.91197 389.644H8.14822C10.1155 389.526 11.7065 388.53 11.7065 386.891C11.7065 384.899 9.52423 384.213 7.46022 384.213C5.21346 384.213 3.06344 384.802 3.03119 386.87C3.07419 388.487 4.7512 389.504 6.92272 389.644H6.91197Z" fill="#666666"/>
<path d="M43.9996 37.0921L42.4301 42.5547C38.5924 42.8332 34.0236 42.9831 29.8203 42.8332C21.2203 42.5547 14.7595 41.1408 10.4164 36.8029C8.42769 39.727 5.93367 42.1798 2.9774 44.0649L1.82715 42.4583C4.04166 40.5731 6.30992 37.9382 8.20194 34.0716C6.44968 31.3831 5.20267 27.9449 4.41791 23.5106L6.26692 22.9429C7.14843 26.1455 8.25569 28.6947 9.58869 30.7191C10.7497 27.5165 11.6635 23.5534 12.1257 18.7977H8.42769C7.73968 20.0724 7.08393 21.1113 6.57868 21.8611L2.88065 20.3508C5.14892 16.5377 8.14818 10.4539 10.0402 5.3662H2.68715V3.05263H15.7592C14.4155 6.72649 11.9215 12.1998 9.66394 16.4842H11.9322L12.9965 15.6809L16.8772 17.1483C16.1892 23.5106 14.7057 29.166 12.2117 33.8359C16.1892 37.2742 21.7793 38.1203 29.5408 38.1203C34.6256 38.0775 39.6136 37.6062 43.9996 37.0814V37.0921ZM25.789 12.3069H15.9957V10.0469H25.789V6.37303H18.2102V4.05946H25.789V0H30.3148V4.05946H39.2374V10.0469H43.0321V12.3069H39.2374V18.5728H30.3148V22.0646H39.5061V24.421H30.3148V28.3841H41.6776V30.7405H30.3148V36.6315H25.789V30.7405H15.9957V28.3841H25.789V24.421H17.6512V22.0646H25.789V18.5728H18.0705V16.2164H25.789V12.3069ZM30.3148 10.0469H35.0771V6.37303H30.3148V10.0469ZM30.3148 16.2164H35.0771V12.3069H30.3148V16.2164Z" fill="black"/>
<path d="M2.78398 62.9694L1.71973 61.4163C5.321 57.9781 7.58926 54.1542 9.11577 48.8737L14.2005 50.3304C13.7383 51.4122 13.0933 52.5476 12.3085 53.7258H23.4456V56.0822H15.9098C17.0171 57.164 18.1781 58.6314 19.1886 60.1845L15.3938 61.6412C14.8348 59.7989 14.1898 57.9138 13.362 56.0822H10.5455C8.47077 58.6314 5.78325 61.1271 2.78398 62.9694ZM43.9997 86.7691L41.4627 91.8569C36.7972 91.0535 29.3151 87.1869 25.1549 81.2958V93.2707H20.4893V81.6279C16.9311 86.3407 9.07277 90.2074 2.47223 91.6641L1.87023 89.9182C8.42776 87.4654 13.147 84.5948 16.7053 80.2033H3.19248V77.8041H20.4786V74.3123C19.4573 74.9228 18.3071 75.4476 17.0171 75.9618L16.1356 74.3123C18.0276 73.0912 19.2746 71.9987 20.0593 70.7777C16.1356 72.47 9.20177 74.4515 4.35349 75.2549L3.28924 70.9598C5.78325 70.8205 7.99776 70.6813 10.0833 70.4456V64.5546H4.03099V62.1982H20.5753V64.5546H14.566V69.8779C16.4581 69.5459 18.3501 69.2139 20.3926 68.7426L20.6183 69.6423C21.4461 67.6608 21.4461 65.2615 21.4461 61.7269H36.6467V68.8925C36.6467 70.4456 37.2487 70.6813 38.5924 70.6813C40.3984 70.6813 40.4845 70.1671 40.3984 65.69H42.2905C44.1825 72.952 43.0752 74.4087 38.5924 74.4087C33.4647 74.4515 32.2607 73.5625 32.2607 69.3638V64.0833H25.7461C25.7031 68.839 24.2196 71.6238 21.4891 73.6482H25.1441V77.7933H42.5162V80.1926H26.8964C31.8414 84.2949 37.5282 85.7516 43.989 86.7477L43.9997 86.7691ZM20.8011 59.8525C23.7144 56.6927 25.5096 53.0189 26.8104 48.7773L31.7554 50.3304C31.1534 51.5086 30.5084 52.644 29.7666 53.6723H43.1182V56.0715H34.5719C35.7222 57.0141 36.7434 58.1923 37.7647 59.6061L34.0237 61.2128C33.3787 59.4669 32.7767 57.871 31.8091 56.0715H27.9284C25.9826 58.3851 23.8649 60.2167 22.0158 61.352L20.8118 59.8418L20.8011 59.8525ZM26.2944 65.6043L27.8639 64.9937C29.3904 67.393 30.5406 69.8994 31.2394 72.3522L27.6811 73.2947C27.4554 71.0776 26.8964 68.207 26.2944 65.615V65.6043Z" fill="black"/>
<path d="M20.1996 109.627H2.36523V107.174H10.632C9.28827 104.443 7.63276 101.422 6.56851 99.6761L7.95527 98.4551C10.1698 100.062 13.083 103.072 14.8353 105.567L12.567 107.174H20.1888V109.627H20.1996ZM3.97774 116.085V113.729H18.4366V116.085H3.97774ZM18.4473 122.63H3.97774V120.23H18.4366V122.63H18.4473ZM18.7161 139.039H8.41752V142.338H4.07449V126.925H18.7268V139.039H18.7161ZM14.4268 129.281H8.41752V136.64H14.4268V129.281ZM41.3665 142.574C37.1202 141.299 33.5082 139.232 30.6486 136.543C27.3269 139.328 23.1666 141.631 17.9421 143.098L17.2003 141.31C21.9088 139.382 25.5209 136.736 28.1976 133.908C25.6069 130.652 23.8116 126.796 22.8871 122.458H20.2963V120.059H34.3897L35.7334 119.159L40.313 121.237C38.9692 125.672 36.8944 129.817 33.7984 133.394C37.1202 135.419 40.7322 136.458 43.8712 137.165L41.3772 142.584L41.3665 142.574ZM18.5871 117.821C22.3281 114.714 23.2096 113.151 23.2096 105.942V101.561H36.6042V111.223C36.6042 112.679 36.7869 113.247 38.3564 113.247C39.7432 113.247 40.485 113.108 41.6352 112.026L43.624 115.518C42.334 116.835 40.4312 117.403 37.2922 117.403C33.0352 117.403 32.0247 116.182 32.0247 112.176V103.971H27.8214V106.135C27.8214 113.815 24.9081 116.974 19.5976 119.427L18.5763 117.821H18.5871ZM30.5519 131.027C32.6267 128.146 33.8844 125.179 34.6154 122.448H24.9619C26.2519 126.175 28.2406 128.949 30.5519 131.027Z" fill="black"/>
<path d="M21.5865 159.444H2.12891V156.991H11.2342C9.6217 154.302 7.53619 151.196 6.28918 149.493L7.53619 148.122C10.0732 149.589 13.1692 151.989 15.4375 154.442L12.5672 156.991H21.5758V159.444H21.5865ZM3.89192 170.133H19.8343V172.49H3.89192V170.133ZM3.93492 163.589H19.8773V165.945H3.93492V163.589ZM3.93492 176.785H19.7375V191.534H15.3945V188.802H8.41769V192.058H3.93492V176.785ZM8.41769 186.403H15.3945V179.141H8.41769V186.403ZM43.2586 163.685V166.138H34.7553V192.112H29.8103V166.138H21.4468V163.685H29.8103V148.743H34.7553V163.685H43.2586Z" fill="black"/>
<path d="M37.2164 239.626V253.336H36.0877V252.608H25.4881V253.336H24.3916V239.626H37.2164ZM36.0877 251.547V240.697H25.4881V251.547H36.0877ZM30.8416 249.159C29.2291 249.469 27.5951 249.801 26.3266 250.037L26.1761 249.159C27.3479 248.966 29.0679 248.655 30.7986 248.345L30.8416 249.159ZM34.6794 244.574C34.2924 246.053 33.7012 247.349 32.9594 248.43C33.2819 249.266 33.7012 249.801 34.2064 249.876C34.4214 249.941 34.5719 249.266 34.6902 248.259C34.8729 248.452 35.2169 248.687 35.4319 248.784C35.2277 250.498 34.7009 251.13 33.9054 250.819C33.2389 250.68 32.7121 250.123 32.2929 249.287C31.6909 249.994 31.0136 250.594 30.2504 251.097C30.1106 250.905 29.7666 250.53 29.5731 250.358C30.4869 249.823 31.2609 249.127 31.9059 248.313C31.4866 247.049 31.2286 245.431 31.0566 243.653H26.3266V242.775H30.9814C30.9384 242.229 30.8846 241.672 30.8524 241.104H31.8414C31.8736 241.672 31.9059 242.218 31.9381 242.775H35.3029V243.653H32.0134C32.1424 245.003 32.3251 246.267 32.5831 247.274C33.0777 246.427 33.4647 245.442 33.7227 244.371L34.6687 244.574H34.6794ZM30.2934 244.639V247.691H26.8749V244.639H30.2934ZM29.4549 245.378H27.6811V246.952H29.4549V245.378ZM34.3677 242.582C34.0237 242.239 33.3142 241.747 32.7121 241.479L33.2497 240.901C33.8517 241.179 34.5612 241.608 34.9159 241.972L34.3569 242.582H34.3677Z" fill="#666666"/>
<path d="M28.6057 257.256C28.1757 258.53 27.6167 260.094 27.1222 261.347C28.2079 262.654 28.4659 263.79 28.4659 264.754C28.4659 265.6 28.2832 266.285 27.8747 266.585C27.6597 266.756 27.3802 266.842 27.1007 266.885C26.7889 266.917 26.4019 266.928 26.0794 266.896C26.0687 266.617 25.9719 266.189 25.7999 265.9C26.1439 265.91 26.4342 265.932 26.6814 265.91C26.8642 265.9 27.0254 265.846 27.1329 265.75C27.3802 265.578 27.4554 265.139 27.4554 264.657C27.4554 263.79 27.1974 262.718 26.1224 261.455C26.5524 260.319 26.9932 258.97 27.2942 257.909H25.3162V270.559H24.3164V256.849H27.7134L27.8854 256.785L28.5949 257.224L28.6057 257.256ZM30.5729 261.53C30.7879 261.251 30.9922 260.951 31.1642 260.63C30.8202 260.233 30.3042 259.762 29.7882 259.366C29.4442 259.859 29.0787 260.308 28.6917 260.694C28.5412 260.533 28.1542 260.233 27.9392 260.094C28.9927 259.162 29.8527 257.759 30.3472 256.249L31.2394 256.453C31.1319 256.795 31.0029 257.117 30.8632 257.449H32.4865L32.6585 257.417L33.2497 257.641C32.8197 259.612 32.0027 261.262 30.9922 262.515H35.4535C34.529 261.272 33.755 259.666 33.2712 257.973L33.9162 257.802V257.095H36.8187L37.0015 257.052L37.6465 257.449C37.1842 258.745 36.3995 260.116 35.5932 261.037C36.2597 262.076 37.0445 262.943 37.926 263.457C37.7002 263.65 37.3992 264.004 37.2487 264.282C36.6145 263.854 36.0447 263.275 35.5072 262.601V263.5H30.7342V262.826C30.2289 263.393 29.6699 263.886 29.1002 264.239C28.9604 264.014 28.7024 263.693 28.4874 263.511C29.2077 263.072 29.9279 262.397 30.5407 261.572C29.7559 261.712 29.0464 261.829 28.3262 261.947L28.1864 261.133C28.8637 261.069 29.6269 260.973 30.5514 260.865V261.54L30.5729 261.53ZM31.3684 267.056C30.7772 268.053 29.8957 269.209 29.2184 269.959C29.0034 269.788 28.5734 269.488 28.2939 269.349C29.0249 268.642 29.8097 267.613 30.3472 266.714L31.3684 267.056ZM33.6905 265.921V270.612H32.6047V265.921H29.2184V264.946H37.066V265.921H33.6797H33.6905ZM30.4439 258.284C30.3687 258.423 30.2719 258.563 30.1967 258.691C30.6589 259.055 31.1749 259.484 31.5619 259.859C31.7877 259.366 31.9919 258.83 32.1639 258.284H30.4439ZM34.2172 257.941C34.4537 258.713 34.7547 259.473 35.131 260.18C35.6147 259.537 36.077 258.702 36.378 257.941H34.2172ZM35.6792 266.607C36.4532 267.442 37.4422 268.588 37.9367 269.274L37.0767 269.873C36.5822 269.177 35.604 267.978 34.8515 267.121L35.69 266.617L35.6792 266.607Z" fill="#666666"/>
<path d="M28.2514 279.181C28.0149 281.387 27.5741 283.187 26.9506 284.644C28.4449 286.154 30.5627 286.507 33.1749 286.507C33.7769 286.507 37.0987 286.507 37.8834 286.497C37.7114 286.764 37.5179 287.268 37.4534 287.578H33.1427C30.2939 287.578 28.0794 287.182 26.4669 285.608C25.9294 286.604 25.2736 287.375 24.5319 287.975C24.3491 287.739 23.9406 287.332 23.6826 287.171C24.4889 286.593 25.1661 285.79 25.7251 284.74C25.1554 283.937 24.6931 282.94 24.3169 281.687L25.1661 281.345C25.4456 282.287 25.7681 283.08 26.1981 283.722C26.5851 282.683 26.8969 281.473 27.0904 280.07H25.2199C24.9726 280.198 24.5964 280.402 24.5964 280.563C24.5211 280.338 24.2739 279.866 24.1126 279.62C24.4029 279.556 24.7791 279.181 25.0909 278.688C25.3704 278.292 26.1444 277.007 26.7464 275.614H24.0696V274.575H27.1764L27.5419 274.404L28.2836 274.897C27.5741 276.407 26.8001 277.874 26.0476 279.042H27.3806L27.5849 279.01L28.2299 279.202L28.2514 279.181ZM32.0354 275.839H29.1759V274.907H32.0354V273.579H33.1319V274.907H36.5827V277.017H37.6469V277.949H36.5827V280.113H33.1319V281.323H36.9374V282.201H33.1319V283.433H37.5072V284.376H33.1319V285.94H32.0354V284.376H28.2944V283.433H32.0354V282.201H28.9394V281.323H32.0354V280.113H29.0684V279.181H32.0354V277.949H28.1761V277.017H32.0354V275.839ZM33.1319 275.839V277.017H35.5399V275.839H33.1319ZM35.5399 277.949H33.1319V279.181H35.5399V277.949Z" fill="#666666"/>
<path d="M26.1658 292.763C25.6821 293.438 25.1338 294.059 24.5856 294.53C24.4351 294.327 24.0158 293.93 23.7793 293.738C24.7253 293.009 25.6176 291.906 26.1443 290.792L27.1656 291.092C27.0473 291.349 26.9183 291.585 26.7786 291.831H30.7238V292.763H27.7461C28.2083 293.202 28.7673 293.802 29.0253 294.177L28.2513 294.787C27.9718 294.38 27.4021 293.727 26.9183 293.245L27.6493 292.752H26.1658V292.763ZM29.1113 302.296C28.1223 303.442 26.3163 304.502 24.7253 305.005C24.5533 304.727 24.22 304.277 23.9513 304.063C25.5101 303.667 27.2731 302.831 28.1653 301.889L29.1113 302.296ZM31.3581 300.614H37.6791V301.557H31.3581V305.295H30.2508V301.557H23.9728V300.614H30.2508V299.779L30.0681 299.853C29.9176 299.629 29.5413 299.275 29.3263 299.125C30.3476 298.75 30.9818 298.29 31.3688 297.818C30.8313 297.561 30.3153 297.326 29.8531 297.122L30.2831 296.415C30.7453 296.608 31.2398 296.822 31.7343 297.047C31.8096 296.822 31.8418 296.576 31.8418 296.34V295.815H30.0681V294.98H35.5506V298.258C35.5506 298.536 35.5506 298.718 35.6259 298.782C35.6689 298.825 35.7441 298.847 35.8516 298.847H36.2709C36.3999 298.847 36.5074 298.836 36.5611 298.782C36.6364 298.75 36.6901 298.643 36.7331 298.472C36.7654 298.279 36.7761 297.829 36.7976 297.261C37.0019 297.433 37.3244 297.593 37.5824 297.69C37.5716 298.268 37.5071 298.922 37.4319 299.168C37.3566 299.393 37.1954 299.564 37.0126 299.661C36.8299 299.757 36.5504 299.789 36.3139 299.789H35.5829C35.2711 299.789 34.9486 299.725 34.7444 299.521C34.5186 299.329 34.4541 299.093 34.4541 298.225V295.826H32.7986V296.372C32.7986 296.737 32.7556 297.101 32.6266 297.476C33.2178 297.754 33.7661 298.011 34.1531 298.236L33.7339 299.05C33.3468 298.825 32.8093 298.557 32.2396 298.258C31.8848 298.75 31.3903 299.222 30.6056 299.596H31.3473V300.603L31.3581 300.614ZM24.005 298.718C24.6501 298.654 25.4778 298.525 26.3701 298.408V295.965H24.22V295.098H29.4876V295.965H27.4343V298.247L29.5198 297.915L29.5628 298.847C27.6493 299.157 25.6391 299.457 24.1663 299.693L23.9943 298.718H24.005ZM37.7974 291.852V292.784H34.4756C34.9379 293.181 35.4754 293.748 35.7441 294.091L34.9271 294.723C34.6476 294.327 34.0886 293.716 33.6264 293.256L34.3036 292.784H32.4438C32.0138 293.448 31.5193 294.027 31.0033 294.487C30.8206 294.294 30.4013 293.952 30.1433 293.791C31.0678 293.063 31.8418 291.981 32.2718 290.803L33.3254 291.081C33.2178 291.349 33.1211 291.606 32.9813 291.852H37.7866H37.7974ZM33.1963 301.792C34.6046 302.424 36.4214 303.356 37.3674 304.041L36.5934 304.877C35.6796 304.202 33.8736 303.195 32.4331 302.542L33.1856 301.781L33.1963 301.792Z" fill="#666666"/>
<path d="M29.6918 311.882H23.8545V310.918H29.6918V311.882ZM37.0233 315.438C36.4536 317.344 35.4968 318.822 34.2713 319.979C35.3248 320.708 36.5396 321.243 37.9156 321.554C37.6791 321.811 37.3566 322.282 37.2061 322.614C35.7548 322.218 34.4756 321.586 33.3683 320.74C32.2288 321.607 30.928 322.239 29.5413 322.657C29.4338 322.357 29.2188 321.95 29.0145 321.682H25.4885V322.421H24.4887V317.13H29.0468V321.575C30.2723 321.243 31.4548 320.708 32.4975 319.979C31.5193 319.015 30.756 317.837 30.1755 316.498L30.842 316.263H29.509V315.159H36.0881L36.2708 315.116L37.0126 315.449L37.0233 315.438ZM29.0575 312.985V313.917H24.5102V312.985H29.0575ZM24.5102 315.031H29.0683V315.963H24.5102V315.031ZM28.0363 318.105H25.4993V320.708H28.0363V318.105ZM26.671 310.746C26.4238 310.179 25.9508 309.3 25.51 308.636L26.4023 308.176C26.8538 308.818 27.3483 309.643 27.5955 310.211L26.671 310.746ZM32.0783 310.575C32.0783 311.989 31.6805 313.66 29.8423 314.763C29.6918 314.527 29.3048 314.088 29.1005 313.917C30.756 312.953 31.014 311.668 31.014 310.543V308.808H35.7118V312.46C35.7118 312.899 35.7441 313.039 35.9591 313.039H36.8728C37.0556 313.039 37.3673 313.006 37.5501 312.964C37.5608 313.263 37.5931 313.703 37.6253 313.97C37.4748 314.035 37.1631 314.045 36.8728 314.045H35.8731C34.8733 314.045 34.6476 313.606 34.6476 312.417V309.9H32.0783V310.564V310.575ZM31.1968 316.263C31.702 317.43 32.4438 318.437 33.379 319.272C34.2928 318.458 35.0453 317.462 35.5613 316.263H31.2075H31.1968Z" fill="#666666"/>
<path d="M30.4548 329.212H24.1016V328.248H30.4548V329.212ZM24.7896 330.315H29.8098V331.247H24.7896V330.315ZM29.7776 333.293H24.7896V332.361H29.7776V333.293ZM29.7991 339.012H25.9183V339.752H24.9186V334.46H29.7991V339.012ZM25.9183 335.435V338.038H28.7886V335.435H25.9183ZM27.0793 328.087C26.8428 327.52 26.3483 326.641 25.9506 325.988L26.8106 325.527C27.2728 326.17 27.7673 326.995 28.0038 327.541L27.0793 328.077V328.087ZM37.7864 332.168H34.6151V339.987H33.4541V332.168H30.4226V331.022H33.4541V325.892H34.6151V331.022H37.7864V332.168Z" fill="#666666"/>
<path d="M37.7651 352.84H36.1741V355.625H35.0345V354.918H31.3258V356.011C31.3258 356.739 31.1108 357.007 30.6485 357.178C30.1648 357.35 29.3693 357.371 28.0793 357.371C28.0148 357.071 27.832 356.643 27.6815 356.375C28.606 356.407 29.5305 356.386 29.7993 356.386C30.0895 356.375 30.1863 356.278 30.1863 356.011V354.918H25.1982V354.018H30.1863V352.84H23.8652V351.908H30.1863V350.805H25.338V349.938H30.1863V348.834H25.768V346.06H30.1863V345.15H24.1555V344.186H30.1863V342.922H31.3258V344.186H37.4748V345.15H31.3258V346.06H35.9268V348.834H31.3258V349.938H36.1741V351.908H37.7651V352.84ZM30.1863 348.02V346.885H26.8645V348.02H30.1863ZM31.3258 346.885V348.02H34.7873V346.885H31.3258ZM31.3258 351.908H35.0345V350.805H31.3258V351.908ZM35.0345 352.84H31.3258V354.018H35.0345V352.84Z" fill="#666666"/>
<path d="M28.2836 369.325C28.5739 368.682 28.8856 367.697 29.1221 366.787H27.6386V373.277C27.6386 373.877 27.5096 374.188 27.1334 374.391C26.7356 374.552 26.1336 374.563 25.1984 374.563C25.1554 374.284 24.9941 373.792 24.8436 373.492C25.5101 373.502 26.1121 373.502 26.3164 373.502C26.4991 373.492 26.5636 373.438 26.5636 373.267V368.211C25.9616 369.721 25.1554 371.199 24.3061 372.088C24.1771 371.756 23.9084 371.296 23.7041 370.996C24.6609 370.064 25.6176 368.382 26.1874 366.776H23.8546V365.748H27.9934C27.1871 365.051 25.7681 364.173 24.5641 363.638L25.2736 362.877C25.7574 363.081 26.2734 363.338 26.7679 363.605C27.3376 363.166 27.9289 362.599 28.3911 362.042H24.0159V361.013H29.2081L29.4124 360.971L30.1541 361.442C29.5521 362.384 28.5631 363.391 27.6386 364.12C28.1439 364.43 28.6169 364.762 28.9394 365.062L28.3481 365.737H29.4876L29.6596 365.673L30.3584 365.93C30.2831 366.197 30.2079 366.476 30.1219 366.765C31.1539 366.465 32.0999 366.069 32.8847 365.555C32.2719 364.987 31.7236 364.344 31.2936 363.638C30.9281 364.045 30.5519 364.441 30.1864 364.751C29.9714 364.559 29.5199 364.227 29.2404 364.077C30.4444 363.166 31.5624 361.731 32.1752 360.231L33.2717 360.531C33.0674 360.992 32.8202 361.442 32.5622 361.881H37.6899V362.877H36.4967C36.0667 363.948 35.4324 364.826 34.6369 365.555C35.6152 366.187 36.7547 366.658 37.9909 366.926C37.7652 367.183 37.4212 367.622 37.2707 367.933C35.9699 367.568 34.7874 367.001 33.7662 366.262C32.7879 366.958 31.6484 367.472 30.4014 367.868C30.3261 367.708 30.1541 367.472 29.9821 367.258C29.7241 368.168 29.4124 369.068 29.0684 369.711L28.2836 369.304V369.325ZM37.3459 369.036C37.3459 369.036 37.3352 369.346 37.3137 369.539C37.0342 372.474 36.7439 373.663 36.2924 374.124C36.0344 374.402 35.7334 374.488 35.3357 374.531C34.9594 374.541 34.3144 374.563 33.6157 374.52C33.5834 374.209 33.4759 373.727 33.3039 373.438C33.9704 373.502 34.5832 373.513 34.8304 373.513C35.0777 373.513 35.1959 373.502 35.3572 373.352C35.6474 373.052 35.8839 372.174 36.1097 370.011H33.5189C32.9814 372.014 31.8956 373.652 29.4231 374.627C29.2834 374.359 28.9716 373.931 28.7459 373.727C30.8744 372.935 31.8526 371.617 32.3257 370.011H29.9176V369.036H32.5729C32.6697 368.532 32.7234 368.008 32.7772 367.472H33.9382C33.8952 368.008 33.8092 368.532 33.7232 369.036H37.3352H37.3459ZM32.0031 362.898C32.4224 363.659 33.0244 364.344 33.7447 364.934C34.3789 364.366 34.8842 363.702 35.2389 362.898H31.9924H32.0031Z" fill="#666666"/>
<path d="M25.7467 386.151C25.65 388.101 25.3597 390.393 24.4997 392C24.2955 391.796 23.8332 391.389 23.5752 391.26C24.5642 389.354 24.6395 386.644 24.6395 384.609V379.125C26.467 378.9 28.6922 378.493 29.8962 377.925L30.638 378.889C29.391 379.436 27.4882 379.8 25.7682 380.003V381.514H29.907V386.151H25.7467ZM25.7575 382.574V385.08H28.789V382.574H25.7575ZM37.7975 384.009H36.0023V391.935H34.8735V384.009H32.4762V384.384C32.4762 386.73 32.186 389.964 30.2187 391.989C30.036 391.764 29.5737 391.357 29.3265 391.196C31.154 389.29 31.3367 386.537 31.3367 384.373V379.146C33.2395 378.868 35.4755 378.354 36.7333 377.775L37.518 378.75C36.185 379.318 34.2393 379.746 32.4762 380.025V382.874H37.7868V383.988L37.7975 384.009Z" fill="#666666"/>
<path d="M0.193359 226.333L38.8936 207.643" stroke="black" stroke-width="0.82" stroke-miterlimit="10"/>
</g>
<defs>
<clipPath id="clip0_446_1656">
<rect width="44" height="392" fill="white"/>
</clipPath>
</defs>
</svg>
