<?xml version="1.0" encoding="UTF-8"?>
<svg id="_圖層_1" data-name="圖層_1" xmlns="http://www.w3.org/2000/svg" version="1.1" viewBox="0 0 471 51">
  <!-- Generator: Adobe Illustrator 29.1.0, SVG Export Plug-In . SVG Version: 2.1.0 Build 142)  -->
  <defs>
    <style>
      .st0 {
        fill: #221714;
      }

      .st1 {
        fill: #192e5d;
      }
    </style>
  </defs>
  <g>
    <g>
      <path class="st0" d="M75.5,35.2v-1.5h-9.7v-3.7h7.7c.7,0,1.4-.6,1.4-1.4v-1.5h-5l2.4-4.9h-2.7c-.5,0-1,.3-1.2,1l-1.9,3.9h-4.9c-.6-1.5-1.3-3.1-1.6-3.8-.3-.6-.8-1-1.3-1h-2.8c.9,1.4,1.6,3.1,2.3,4.9h-4c-.5,0-.9.4-.9.9v1.9h10.4c-.8.3-1.3,1.1-1.3,2v1.6h-8.8c-.5,0-.9.4-.9.9v1.9h9.7v8.2h2.3c.6,0,1.1-.5,1.1-1.1v-7.1h8.3c.7,0,1.4-.6,1.4-1.4Z"/>
      <path class="st0" d="M65.9,9.1h-2.3c-.6,0-1.1.5-1.1,1.1v2.4h-14.1c-.5,0-.9.4-.9.9v1.9h15v3.2h-11.4c-1.4,0-2.5,1.1-2.5,2.5v23.7h2c.6,0,1.1-.5,1.1-1.1v-22.4h25v18.1c0,1.4-1.1,2.5-2.5,2.5h-2.4v1.7c0,.6.5,1.1,1.1,1.1h1.9c2.8,0,5.1-2.3,5.1-5.1v-18.6c0-1.4-1.1-2.5-2.5-2.5h-12.7c.8-.3,1.3-1.1,1.3-2v-1.2h13.6c.7,0,1.4-.6,1.4-1.4v-1.5h-15v-3.5Z"/>
      <path class="st0" d="M151.8,35.9v-1.8l-11.7,1.3c-.4,0-.7.4-.7.8v2.2l11.3-1.2c.7,0,1.1-.6,1.1-1.3Z"/>
      <path class="st0" d="M142,32.6h7.2c1.3,0,2.3-1.1,2.3-2.4v-7.1c0-1.3-1.1-2.4-2.3-2.4h-7.2c-1.3,0-2.3,1.1-2.3,2.4v7.1c0,1.3,1.1,2.4,2.3,2.4ZM142.5,23.4h6.2v6.7h-6.2v-6.7Z"/>
      <path class="st0" d="M164.1,10.1h-27c-1.4,0-2.5,1.1-2.5,2.5v28.7c0,.7.3,1.4.9,1.9.6.5,1.5.9,2.6,1.1,2.4.4,8,.6,12.5.6s10.1-.2,12.5-.6c1.1-.2,2-.5,2.6-1.1.6-.5.9-1.1.9-1.9V12.6c0-1.4-1.1-2.5-2.5-2.5ZM163.5,40.3c0,.8-.7.9-1.5,1.1-2.3.4-7.4.5-11.5.5s-9.2-.2-11.5-.5c-.7-.1-1.5-.3-1.5-1.1V12.8h14.2c0,.8.1,1.9.2,3.4h-12.3c-.5,0-.8.4-.8.8v1.7h13.4c.4,3.5,1.1,8,2.6,12.6,0,.1,0,.3.1.4-1.5,3.7-3.2,7.1-4.3,8.9h0c0,0,2.3,0,2.3,0,.6,0,1.1-.3,1.4-.9.7-1.2,1.4-2.7,2.1-4.2.7,1.7,1.6,3.2,2.6,4.5.4.5,1.4.6,2,.2l1.2-1s-2.2-1.9-4.2-7.4c1.7-4.2,3.1-8.5,3.7-11.2h-2.2c-.5,0-.9.3-1,.8-.5,1.8-1.1,3.8-1.9,5.9-.6-2.4-1.1-5.2-1.5-8.6h5.9c1,0,1.7-1.1,1.3-2l-1.3-2.3c-.3-.6-.7-.9-1.2-.9h-2.8l1.6,2.7h-3.7c0-.5,0-1,0-1.6,0-.8-.5-1.5-1.1-1.8h9.7v27.5Z"/>
      <path class="st0" d="M208.7,31.8v-1.2h-19.9c-.5,0-.8.4-.8.8v1.7h10c-.8.3-1.3,1.1-1.3,2v9.6h2.2c.6,0,1-.5,1-1v-10.6h7.4c.7,0,1.3-.6,1.3-1.3Z"/>
      <path class="st0" d="M184.5,23l2.2-10.5c.2-1.1-.6-2.2-1.8-2.2h-5.5c-1.3,0-2.3,1-2.3,2.3v32.2h2.1c.5,0,.9-.4.9-.9V12.9h3.4l-1.9,10.1s2.8,5.3,2.8,7.9-1.3,2.9-3.2,2.3v1.8c0,.4.3.8.7.9,2.5.5,5.2-.6,5.2-5s-1.9-6.2-2.7-8Z"/>
      <path class="st0" d="M204.7,35.3h-2.7l3.6,7.7c.2.5.7.8,1.3.8h2.5l-3.4-7.5c-.3-.6-.8-1-1.3-1Z"/>
      <path class="st0" d="M190.7,36.1c-1.1,2.8-3.1,6.1-4.1,7.6h2.5c.6,0,1.1-.3,1.4-.8,1.3-2,2.5-4.5,3.6-7.7h-2.3c-.6,0-1.1.3-1.3.9Z"/>
      <path class="st0" d="M187.1,21.4l3.5,2c-1.2,1.5-2.4,2.8-3.5,3.7l1.3,1.3c.2.2.5.3.8.3s.6-.1.8-.3c1-1,2-2.1,2.8-3.2v1.7h10c.7,0,1.3-.6,1.3-1.3v-.5c.9,1.1,1.8,2.2,2.7,3.2.2.2.5.3.8.3s.6-.1.8-.3l1.3-1.3c-1.9-1.5-4-4.2-5.8-7.1,1.1.2,2-.1,2.4-.7,1-1.5,2-3.3,2.8-5.7.4-1-.4-2.1-1.5-2.1h-5.3c-.3,0-.6.4-.6.8v1.5h4.1c-.3.9-1.3,3-2.7,4.9-1.2-2.1-2.1-4.3-2.6-6.3-.2-.7-.8-1.2-1.5-1.2h-5.9c.2-.6.4-1.2.6-1.8h-2.5c-.5,0-.9.3-1,.7-.8,2.4-1.9,5.2-3.9,8.5-.6,1-.2,2.3.8,2.9ZM198.4,15.1c1.3,3.3,3,6.4,5.1,9.2h-9.9c0,0-.1,0-.1,0,2.2-2.9,3.8-5.9,5-9.3ZM192.2,13.5h3.9c-.3,1-.7,2-1.2,3l-3.3-1.5c.2-.5.4-.9.6-1.4ZM190.4,17.3l3.2,1.5c-.5.8-1,1.6-1.5,2.4l-2.9-1.8c.4-.7.8-1.4,1.2-2.1Z"/>
      <path class="st0" d="M95.1,17.6h2.6l-3.1-6.1c-.3-.6-.8-1-1.3-1h-2.8l3.3,6.3c.3.5.8.8,1.4.8Z"/>
      <path class="st0" d="M95.1,26.4h2.6l-3.1-6.1c-.3-.6-.8-1-1.3-1h-2.8l3.3,6.3c.3.5.8.8,1.4.8Z"/>
      <path class="st0" d="M94.9,29.2c-.6,0-1,.4-1.1,1-.4,4.8-1.2,10.2-3.5,13.7h0c0,0,2.5,0,2.5,0,.6,0,1.2-.4,1.5-1,1.9-4.2,2.5-9.4,2.9-13.8h-2.2Z"/>
      <path class="st0" d="M118.1,23.7h4.7c.7,0,1.3-.6,1.3-1.3v-1.2h-7.8c.6-.4,1.1-1.2,1.1-2v-3h4.2c.7,0,1.3-.6,1.3-1.3v-1.2h-5.5v-4.5h-2c-.6,0-1.1.5-1.1,1.1v3.5h-6.9v-4.5h-2c-.6,0-1.1.5-1.1,1.1v3.5h-4.6c-.5,0-.8.4-.8.8v1.7h5.5v5h-5.9c-.5,0-.8.4-.8.8v1.7h5.7c-.2.9-.6,2-1.2,3.2-.7,1.3-1.6,2.5-2.6,3.5-.8.8-1.8,1.5-2.8,2.1l1.3,1.4c.3.3.6.4,1,.4s.6,0,.8-.3c.6-.4,1.1-.9,1.7-1.4.1-.1.2-.2.3-.3v8.6c0,.8.2,1.5.7,2,.5.6,1.2.9,2.1,1.1,2,.4,5,.6,8.7.6s5.7-.2,7.7-.5c.7-.1,1.2-.7,1.2-1.3v-1.7c-1.8.4-4.5.8-8.9.8s-5.5-.1-7.3-.5c-.6-.1-1.2-.3-1.2-1.1v-10.4h11.5v4.8h-9.5c-.5,0-.8.4-.8.8v1.8h11.1c.6,0,1.2-.3,1.6-.7.4-.4.6-1,.6-1.6v-3.8c.8.9,1.7,1.9,2.7,2.8.5.5,1.4.4,1.9,0l1.2-1.3s-4.3-3.3-7.1-9ZM107.5,19.2v-3h6.9v5h-7.9c.6-.4,1.1-1.2,1.1-2ZM105.2,27.4c.6-1.4,1-2.8,1.2-3.7h8.2c.4,1,1.1,2.3,1.9,3.7h-11.3Z"/>
    </g>
    <g>
      <rect class="st1" x=".1" y="24.7" width="35.1" height="1.7"/>
      <g>
        <polygon class="st1" points="29.2 43.8 33 42 33 28.1 29.2 28.1 29.2 43.8"/>
        <polygon class="st1" points="23.2 46.6 27 44.8 27 28.1 23.2 28.1 23.2 46.6"/>
        <polygon class="st1" points="16.6 49.7 20.4 47.9 20.4 28.1 16.6 28.1 16.6 49.7"/>
        <polygon class="st1" points="9.6 49 13.4 50.8 13.4 28.1 9.6 28.1 9.6 49"/>
        <polygon class="st1" points="2.4 45.6 6.2 47.4 6.2 28.1 2.4 28.1 2.4 45.6"/>
      </g>
      <g>
        <polygon class="st1" points="6.2 7.5 2.4 9.3 2.4 22.9 6.2 22.9 6.2 7.5"/>
        <polygon class="st1" points="13.4 4.1 9.6 5.9 9.6 22.9 13.4 22.9 13.4 4.1"/>
        <polygon class="st1" points="20.4 .8 16.6 2.6 16.6 22.9 20.4 22.9 20.4 .8"/>
        <polygon class="st1" points="27 2 23.2 .2 23.2 22.9 27 22.9 27 2"/>
        <polygon class="st1" points="33 4.7 29.2 2.9 29.2 22.9 33 22.9 33 4.7"/>
      </g>
    </g>
  </g>
  <g>
    <path class="st0" d="M232.3,10.1h1.5v34.6h-1.5V10.1Z"/>
    <path class="st0" d="M285.4,17.8h-14v3.2h12.3v19.1c0,3.2-1.4,3.6-7.8,3.6-.2-.9-.7-2.1-1.1-2.8,1.1,0,2.4,0,3.3,0,2,0,2.2,0,2.2-.8v-16.1h-21v19.6h-3.3v-22.6h11.9v-3.2h-13.8v-3.1h13.8v-3.6l4.3.2c0,.3-.2.5-.8.6v2.8h14v3.1ZM278.5,37.3h-7.3v6.2h-3.1v-6.2h-6.9v-2.7h6.9v-3.1h-6.4v-2.6h3.2c-.3-1.1-1-2.5-1.6-3.6l2.6-.7c.8,1.2,1.5,2.8,1.8,3.9l-1.2.3h6c-.3-.1-.7-.2-.9-.3.6-1.2,1.4-2.9,1.7-4.1l3.5,1c-.1.2-.4.3-.8.3-.5.9-1.1,2.1-1.8,3.1h3.9v2.6h-6.9v3.1h7.3v2.7Z"/>
    <path class="st0" d="M291.9,20.8c2.1.8,4.8,2.2,6.1,3.4l-1.9,2.7c-1.2-1.2-3.8-2.7-6-3.6l1.8-2.5ZM322.8,25.1h-5.7c1.5,2.6,3.8,5.1,6.2,6.4-.8.6-1.8,1.8-2.3,2.6-1.6-1.1-3.2-2.6-4.5-4.4v6.8h-10.2v3c0,1,.4,1.1,2.5,1.1h7c1.6,0,1.9-.4,2.1-3.2.7.5,2,1,2.9,1.1-.4,4-1.4,4.9-4.7,4.9h-7.4c-4.2,0-5.4-.9-5.4-4v-5.6h10.3v-3.1h-8.4v-1.6c-1.5,2.1-3.3,4-5.1,5.3-.3-.5-.8-1-1.3-1.5-1.5,3.4-3.2,6.9-4.5,9.3.1.2.2.4.2.6s0,.3-.1.5l-3.4-2.2c1.7-2.7,3.9-7.2,5.7-11.3l1.9,1.5c2.1-1.6,4.2-3.9,5.5-6.4h-5.7v-3h6v-3.8h-4.5v-2.9h4.5v-4.1l4,.2c0,.3-.2.5-.8.6v3.3h6v-4.1l4,.2c0,.3-.2.5-.8.6v3.3h5v2.9h-5v3.8h6v3ZM293.7,11.4c2.1.9,4.7,2.4,6,3.6l-1.9,2.7c-1.2-1.2-3.8-2.9-6-3.8l1.9-2.5ZM307.5,25.1c-.4,1-1,2.1-1.7,3.1h9.7c-.7-1-1.2-2-1.7-3.1h-6.4ZM307.6,18.3v3.8h6v-3.8h-6Z"/>
    <path class="st0" d="M338.3,19.6h-11.4v-2.6h11.4v2.6ZM358.3,39.7c0,1.7-.3,2.7-1.4,3.3-1,.6-2.8.6-5.4.6-.1-.9-.5-2.4-.9-3.3.9,0,1.7,0,2.5,0s1.2,0,1.5,0c.5,0,.7-.1.7-.7V15.3h-12.3v10c0,5.5-.4,13.4-3.3,18.5-.5-.5-1.8-1.5-2.6-1.8l.2-.4h-6.5v1.6h-2.6v-11.9h9.1v10.3c2.4-4.7,2.6-11.3,2.6-16.3v-12.8h18.3v27.1ZM337.4,24.3h-9.1v-2.6h9.1v2.6ZM328.3,26.5h9.1v2.6h-9.1v-2.6ZM337.3,14.9h-8.8v-2.6h8.8v2.6ZM334.7,33.9h-3.8v5.1h3.8v-5.1ZM347.7,24.2v-2.9h-3.2v-2.5h3.2v-2.9l3.4.2c0,.2-.2.4-.8.5v2.2h3.3v2.5h-3.3v2.9h3.7v2.5h-9.8v-2.5h3.5ZM347,38.2v1.3h-2.4v-10.5h8.9v9.1h-6.5ZM347,31.4v4.3h4.1v-4.3h-4.1Z"/>
    <path class="st0" d="M395.7,35.7v3h-14.3v4.9h-3.4v-4.9h-14v-3h14v-2.4h-10.4v-13.8h10.4v-2.2h-13.1v-3h13.1v-3l4.2.2c0,.3-.3.5-.8.6v2.2h13.2v3h-13.2v2.2h10.7v13.8h-10.7v2.4h14.3ZM370.8,22.1v2.9h7.2v-2.9h-7.2ZM370.8,30.6h7.2v-3h-7.2v3ZM388.8,22.1h-7.4v2.9h7.4v-2.9ZM388.8,30.6v-3h-7.4v3h7.4Z"/>
    <path class="st0" d="M432.7,28.2h-14.4c-.4.7-.8,1.5-1.3,2.2h13.2c0,0,1.8.2,1.8.2,0,.3,0,.6-.1.9-.6,7.2-1.1,10-2,11-1,1.1-2,1.2-5.7,1.1,0-.8-.3-2-.7-2.7,1.2.1,2.3.1,2.8.1s.8,0,1-.4c.6-.6,1-2.6,1.5-7.6h-2.3c-1.2,4.1-3.7,8.6-6.5,10.9-.6-.7-1.6-1.5-2.4-1.9,2.6-1.8,4.8-5.4,6.2-9h-2.8c-1.8,3.6-5.1,7.4-8.1,9.4-.6-.7-1.5-1.5-2.2-2,2.8-1.5,5.6-4.5,7.4-7.4h-3c-1.4,1.6-2.9,3-4.6,4-.5-.5-1.5-1.5-2.1-1.9,1.1-.7,2.3-1.5,3.3-2.5h0c-3.5,1.7-7.3,3.5-9.7,4.6,0,.3-.2.5-.5.6l-1.4-3.6c1.2-.5,2.8-1.1,4.5-1.8v-10.7h-3.8v-3.1h3.8v-7.4l3.9.2c0,.3-.2.4-.8.5v6.6h3.6v3.1h-3.6v9.5l3.4-1.4c0,.1,0,.3.7,2.8,1.3-1.3,2.5-2.8,3.4-4.4h-4.6v-2.8h22.2v2.8ZM430.2,12.1v11.6h-16.3v-11.6h16.3ZM427.2,16.8v-2.3h-10.3v2.3h10.3ZM427.2,21.3v-2.3h-10.3v2.3h10.3Z"/>
    <path class="st0" d="M469,35.3h-11.7c3.2,2.3,8,4.3,12.5,5.1-.7.7-1.6,1.9-2.1,2.8-4.6-1.2-9.6-3.7-13-6.8v7.1h-3.3v-7c-3.3,2.9-8.1,5.4-12.7,6.5-.5-.8-1.4-2-2-2.7,4.5-.9,9.3-2.8,12.3-5.2h-11.6v-2.7h14v-2.7l4.1.2c0,.3-.3.5-.8.6v1.9h14.2v2.7ZM445.9,26.8l-3.1-.9c.9-1,2-2.3,3-3.6h-8v-2.6h10c.8-1.1,1.6-2.1,2.2-3l3.6,1.1c-.1.3-.4.4-.9.3-.4.5-.8,1.1-1.2,1.6h17v2.6h-6.7c-.9,1.7-1.9,3.1-3.5,4.3,3.2.9,6.2,1.8,8.4,2.6l-2,2.3c-2.3-.9-5.8-2.1-9.6-3.1-3.3,1.5-8,2.4-15.3,2.9-.1-.8-.7-1.9-1.1-2.6,5.2-.3,9-.8,11.8-1.6-1.5-.4-2.9-.7-4.3-1l-.6.7ZM441.9,16.4v2.5h-3v-5.2h12.6v-2.5l4.1.2c0,.3-.3.5-.8.6v1.7h12.9v5.2h-3.2v-2.5h-22.6ZM448.1,24.1c2.1.4,4.4.9,6.8,1.5,1.6-.9,2.6-2,3.4-3.4h-8.7l-1.5,1.9Z"/>
  </g>
</svg>