<?xml version="1.0" encoding="UTF-8"?>
<svg id="_圖層_2" data-name="圖層 2" xmlns="http://www.w3.org/2000/svg" xmlns:xlink="http://www.w3.org/1999/xlink" viewBox="0 0 728.77 389.23">
  <defs>
    <style>
      .cls-1 {
        fill: url(#linear-gradient-2);
      }

      .cls-2 {
        fill: #1f1f1f;
      }

      .cls-3 {
        fill: url(#linear-gradient-3);
      }

      .cls-4 {
        fill: #c9a063;
      }

      .cls-5 {
        fill: url(#linear-gradient);
      }
    </style>
    <linearGradient id="linear-gradient" x1="264.27" y1="368.24" x2="275.88" y2="356.63" gradientUnits="userSpaceOnUse">
      <stop offset="0" stop-color="#000"/>
      <stop offset="0" stop-color="#010101"/>
      <stop offset=".07" stop-color="#111"/>
      <stop offset=".15" stop-color="#1b1b1b"/>
      <stop offset=".25" stop-color="#1f1f1f"/>
    </linearGradient>
    <linearGradient id="linear-gradient-2" x1="264.27" y1="-3289.33" x2="275.88" y2="-3300.93" gradientTransform="translate(0 -2908.26) scale(1 -1)" xlink:href="#linear-gradient"/>
    <linearGradient id="linear-gradient-3" x1="244.49" y1="380.92" x2="234.4" y2="375.09" gradientUnits="userSpaceOnUse">
      <stop offset="0" stop-color="#000"/>
      <stop offset="0" stop-color="#010101"/>
      <stop offset=".1" stop-color="#111"/>
      <stop offset=".2" stop-color="#1b1b1b"/>
      <stop offset=".33" stop-color="#1f1f1f"/>
    </linearGradient>
  </defs>
  <g id="_圖層_1-2" data-name="圖層 1">
    <g>
      <path d="M5.61,4.17h25.16v26.39H12.95v37.1h-7.33V4.17ZM23.59,15.24v-7.41h-10.64v7.41h10.64ZM23.59,26.96v-8.05h-10.64v8.05h10.64ZM42,60.75c10.43,2.3,12.44,1.22,12.44-3.52v-26.67h-17.69V4.17h25.09v55c0,9.27-7.26,12.37-20.71,4.46l.86-2.88ZM54.43,15.24v-7.41h-10.5v7.41h10.5ZM54.43,26.96v-8.05h-10.5v8.05h10.5Z"/>
      <path d="M110.09,9.42c-2.23,4.31-4.75,8.2-7.26,11.36h30.05v47.02h-7.26v-5.54h-39.9v5.68h-7.33V20.78h20.28c.86-3.24,1.94-7.98,2.37-11.36h-27.03v-3.74h62.84v3.74h-26.75ZM93.55,24.52h-7.84v34.01h7.84V24.52ZM110.67,24.52h-10.28v8.2h10.28v-8.2ZM110.67,36.45h-10.28v8.77h10.28v-8.77ZM110.67,48.89h-10.28v9.63h10.28v-9.63ZM117.57,58.53h8.05V24.52h-8.05v34.01Z"/>
      <path d="M208.24,38.97c-.36,7.41-1.51,19.56-3.24,24.37-2.44,6.54-10.64,6.4-20.13-.79l1.15-2.73c9.28,2.73,11.43,2.66,12.44-1.51.79-3.02,1.29-7.62,2.01-15.67h-37.1c-4.75,6.61-10.5,12.22-17.26,16.39l-1.8-2.59c11.14-9.35,18.69-22.72,23.37-37.46h-19.2v-3.67h11.43c-2.3-4.67-4.53-8.41-7.19-12.37l2.23-2.09c4.03,2.44,8.41,6.26,11.29,9.78l-6.18,4.67h8.7c1.37-4.89,2.37-9.85,3.16-14.88l8.12,1.51c-.93,4.46-2.01,8.99-3.45,13.37h17.47c-.72,4.03-1.51,7.98-2.37,11.94h9.35c-.65,4.03-1.29,7.84-2.09,11.72h9.27ZM160.93,47.81l2.95.79c-.5,6.26-2.66,13.66-5.18,18.19l-6.97-4.53c3.81-4.03,6.83-8.34,9.2-14.45ZM165.89,38.97h26.03c.58-2.73.94-5.39,1.29-8.05h-22.79c-1.44,2.8-2.95,5.46-4.53,8.05ZM171.43,47.81c1.94,4.46,3.59,11.29,4.24,15.75l-7.48.72c.29-4.17.5-11,.29-16.03l2.95-.43ZM175.38,18.98c-.93,2.8-2.09,5.54-3.24,8.27h12.44c.5-2.8.93-5.46,1.37-8.27h-10.57ZM187.53,58.53l-6.69,2.3c-.72-4.39-1.8-9.06-3.16-13.73l2.8-1.22c2.73,3.45,5.32,8.34,7.05,12.65ZM191.78,57.09c-1.44-4.53-3.09-8.7-4.89-12.08l2.44-1.73c3.02,2.52,6.61,6.83,8.63,10.64l-6.18,3.16Z"/>
      <path d="M241.75,42.49l1.29,2.8c-6.33,5.1-15.46,10.28-23.58,13.88l-3.16-7.77c2.44-.58,6.04-1.65,9.99-2.95v-24.01h-8.92v-3.67h8.92V3.52h7.19v17.26h8.41v3.67h-8.41v21.43c2.8-1.08,5.68-2.23,8.27-3.38ZM273.1,66.08c-6.69.43-12.08.36-18.19,0-8.05-.58-10.5-2.52-10.5-10.35v-24.88c-2.3.79-4.53,1.65-6.76,2.44l-1.15-3.45c2.59-1.01,5.25-1.94,7.91-2.95V8.84h7.05v15.31l6.11-2.44V1.73h6.69v17.33l5.68-2.37,1.29-1.94,7.55,1.87c-1.08,7.55-4.31,22.94-6.97,28.98l-2.95-.65c.93-5.97,1.94-20.13,1.94-24.45-2.16.86-4.31,1.8-6.54,2.66v27.32h-6.69v-24.66l-6.11,2.37v26.46c0,3.52,1.65,4.39,5.1,4.67,5.9.36,9.99.36,15.96,0,4.03-.29,4.67-1.73,4.67-16.97h3.09c3.31,18.77,2.87,23.08-7.19,23.73Z"/>
      <path d="M314.52,47.31c-6.54,5.03-14.52,9.78-22.72,13.52l-3.02-7.77c2.45-.5,5.82-1.44,9.56-2.66v-24.23h-8.34v-3.59h8.34V2.52h7.19v20.06h8.63v3.59h-8.63v21.64c2.59-.94,5.18-2.01,7.62-3.09l1.37,2.59ZM353.56,62.05v3.6h-48.68v-3.6h11.58V17.33h7.19v44.72h6.47V1.15h7.62v26.17h13.23v3.67h-13.23v31.06h15.82Z"/>
      <path d="M409.72,13.01l7.62,2.44c-4.67,29.55-17.98,45.87-35.09,53.71l-1.65-2.8c17.47-11.65,25.02-28.18,27.68-47.74h-10.79c-1.44,3.52-3.02,6.76-4.82,9.71,4.03,2.3,8.12,5.46,10.43,7.98l-5.54,5.46c-2.37-4.1-4.75-7.12-7.12-9.99-2.73,3.81-5.75,7.05-8.99,9.49l-2.01-2.3c5.97-7.48,11.72-18.98,14.52-38.18l8.05,1.51c-.79,4.39-1.87,8.56-3.16,12.51h8.84l2.01-1.8ZM438.34,45.15c-2.44-4.17-6.47-10.14-9.99-15.24v38.39h-7.41V1.65h7.41v22.43c6.33,4.75,13.73,11.58,16.54,15.1l-6.54,5.97Z"/>
      <path d="M509.38,66.44c-7.77,0-8.7-1.58-8.7-7.12v-15.53h-2.01c-.65,14.24-5.75,20.28-19.49,24.95l-1.37-2.59c2.23-1.01,4.1-2.01,5.68-3.09h-20.06v4.39h-6.4v-22.79c-1.29,1.58-2.66,2.95-4.03,4.1l-1.8-1.94c3.52-4.31,6.9-11.5,9.13-18.77h-5.46v-11.86h14.38v11.86h-7.62l4.6,1.73c-.72,1.8-1.73,3.67-2.8,5.61h9.42c-1.44-2.16-2.95-4.17-4.46-5.97l1.58-1.87c2.95,1.65,5.39,3.31,7.91,5.75l-2.23,2.08h11.14v3.16h-9.85v4.46h8.05v3.24h-8.05v4.82h8.34v3.24h-8.34v5.18h10.64c3.74-4.17,4.82-9.27,5.03-15.67h-4.1V5.39h23.58v38.39h-5.46v14.09c0,2.44.29,2.8,2.95,2.8,2.52,0,2.73-.43,2.73-9.2h2.88c1.94,11.72,1.94,14.96-5.82,14.96ZM460.63,10.5h-8.41v-3.6h8.41V1.65h6.25v5.25h6.83V1.65h6.25v5.25h7.62v3.6h-7.62v4.17h-6.25v-4.17h-6.83v4.17h-6.25v-4.17ZM459.63,24.81h4.96v-5.54h-4.96v5.54ZM470.7,38.54h-7.26v4.46h7.26v-4.46ZM470.7,46.23h-7.26v4.82h7.26v-4.82ZM470.7,54.28h-7.26v5.18h7.26v-5.18ZM472.07,16.18h14.38v11.79h-14.38v-11.79ZM476.81,24.73h4.89v-5.46h-4.89v5.46ZM494.79,16.9h11v-7.91h-11v7.91ZM494.79,28.18h11v-7.98h-11v7.98ZM494.79,40.19h11v-8.63h-11v8.63Z"/>
      <path d="M545.84,40.34c4.75,5.03,10.28,13.37,12.65,19.34l-7.26,3.31c-.72-2.59-1.8-5.75-2.95-8.99-6.62,3.88-16.9,8.2-22.36,9.78l-2.88-7.91c1.8-.29,3.67-.58,5.61-.94V4.82h26.75v31.56h-19.41v17.11c3.74-.86,7.48-1.8,11-2.88-1.22-3.24-2.59-6.33-3.67-8.7l2.52-1.58ZM535.99,18.69h12.15v-10.28h-12.15v10.28ZM535.99,32.71h12.15v-10.57h-12.15v10.57ZM584.67,5.1v45.15c0,7.62-9.13,7.62-16.46,2.95l.65-2.88c7.05,1.22,8.7.72,8.7-2.59V8.77h-10.5v59.68h-7.26V5.1h24.88Z"/>
      <path d="M654.7,38.11v29.62h-7.77v-5.32h-26.17v5.54h-7.62v-23.15c-6.18,2.3-12.15,3.88-17.4,5.03l-.79-3.09c22.5-6.9,39.33-18.55,48.1-33.29h-19.2c-2.01,2.01-4.17,3.88-6.4,5.68,3.31,1.94,6.97,4.67,10.07,7.55l-6.18,5.61c-2.3-3.81-4.82-7.41-7.48-10.64-4.82,3.38-10.07,6.04-15.1,8.05l-1.44-2.73c11.58-6.76,20.78-16.39,26.75-26.96l7.77,3.74c-1.37,2.09-2.88,4.1-4.53,6.04h15.82l2.95-1.65,7.76,4.53c-6.47,11.5-16.11,19.63-26.32,25.45h27.18ZM646.94,58.74v-17.04h-26.17v17.04h26.17Z"/>
      <path d="M687.5,28.26c0,3.09-.07,5.97-.29,8.77h31.92v30.49h-7.62v-26.75h-24.59c-1.44,12.29-5.46,21.43-15.03,27.83l-2.09-2.3c8.34-8.92,9.78-18.41,9.78-40.19V3.45h7.91v17.9h18.26V1.37h7.48v19.99h15.53v3.74h-41.27v3.16Z"/>
    </g>
    <path class="cls-4" d="M265.81,268.89h-5.64c.5,2.86.67,5.13.67,8.75v45.02c0,3.7-.17,5.89-.67,8.75h5.64c-.5-2.86-.67-4.88-.67-8.75v-45.02c0-3.79.17-5.89.67-8.75ZM246.73,268.89h-6.9c-.42,2.02-1.35,4.54-2.78,7.57l-22.47,48.47-22.55-48.47c-1.26-2.61-2.1-5.05-2.69-7.57h-6.98c.5,2.95.67,5.22.67,8.83v44.93c0,3.7-.17,5.72-.67,8.75h5.64c-.5-2.86-.67-5.05-.67-8.75v-40.14c0-2.44-.17-5.64-.5-9.34,1.09,3.28,2.1,5.81,2.78,7.32l20.03,43.33c1.77,3.87,2.44,5.64,2.78,7.57h4.12c.51-1.94,1.18-3.79,2.95-7.57l20.28-43.75c1.18-2.52,1.94-4.63,2.52-6.9-.34,3.28-.5,5.89-.5,8.75v40.73c0,3.37-.17,5.72-.59,8.75h5.55c-.5-2.95-.67-4.96-.67-8.75v-44.93c0-3.7.17-5.89.67-8.83ZM143.08,267.71c-17,0-27.94,12.71-27.94,32.48s10.85,32.39,27.94,32.39,27.94-12.54,27.94-32.39-10.85-32.48-27.94-32.48ZM143.17,328.55c-14.14,0-23.56-11.44-23.56-28.44s9.42-28.44,23.48-28.44c6.14,0,11.53,2.1,15.65,6.23,5.05,4.96,7.74,12.71,7.74,22.05,0,17.59-9,28.61-23.31,28.61ZM97.91,320.89c-3.79,4.88-9.68,7.57-16.75,7.57-14.47,0-23.64-11.02-23.64-28.36s9.17-28.44,23.64-28.44c6.56,0,11.95,2.27,15.65,6.48,1.77,2.02,2.69,3.7,4.12,7.57l4.38-1.6c-2.1-4.88-3.53-7.15-6.23-9.84-4.38-4.29-10.52-6.56-18.18-6.56s-14.05,2.36-18.76,7.15c-5.97,5.89-9.09,14.73-9.09,25.33s3.11,19.44,9,25.24c4.63,4.63,11.11,7.07,18.68,7.07,9.34,0,16.83-3.53,21.46-10.01,1.6-2.44,2.52-4.38,3.95-8.75l-4.54-1.43c-.84,3.87-1.77,5.97-3.7,8.58ZM665.24,277.64c0-3.79.17-5.89.67-8.75h-5.64c.51,2.95.67,4.96.67,8.75v39.38c0,.59.17,4.12.42,10.43-3.28-5.39-4.29-6.98-4.96-7.99l-29.11-43.67c-2.36-3.53-3.2-5.05-3.95-6.9h-6.73c.5,2.86.67,5.13.67,8.75v45.02c0,3.7-.17,5.89-.67,8.75h5.64c-.5-2.86-.67-4.88-.67-8.75v-40.14c0-2.61-.08-6.06-.34-9.17,2.19,3.79,3.28,5.55,4.04,6.73l29.53,44.43c2.1,3.11,3.11,4.88,4.04,6.9h7.07c-.5-2.69-.67-4.8-.67-8.75v-45.02ZM512.22,267.71c-17,0-27.94,12.71-27.94,32.48s10.85,32.39,27.94,32.39,27.94-12.54,27.94-32.39-10.85-32.48-27.94-32.48ZM512.3,328.55c-14.14,0-23.56-11.44-23.56-28.44s9.42-28.44,23.48-28.44c6.14,0,11.53,2.1,15.65,6.23,5.05,4.96,7.74,12.71,7.74,22.05,0,17.59-9,28.61-23.31,28.61ZM577.33,267.71c-17,0-27.94,12.71-27.94,32.48s10.85,32.39,27.94,32.39,27.94-12.54,27.94-32.39-10.85-32.48-27.94-32.48ZM577.41,328.55c-14.14,0-23.56-11.44-23.56-28.44s9.42-28.44,23.48-28.44c6.14,0,11.53,2.1,15.65,6.23,5.05,4.96,7.74,12.71,7.74,22.05,0,17.59-9,28.61-23.31,28.61ZM328.58,268.89h-5.64c.51,2.95.67,4.96.67,8.75v39.38c0,.59.17,4.12.42,10.43-3.28-5.39-4.29-6.98-4.96-7.99l-29.11-43.67c-2.36-3.53-3.2-5.05-3.95-6.9h-6.73c.5,2.86.67,5.13.67,8.75v45.02c0,3.7-.17,5.89-.67,8.75h5.64c-.5-2.86-.67-4.88-.67-8.75v-40.14c0-2.61-.08-6.06-.34-9.17,2.19,3.79,3.28,5.55,4.04,6.73l29.53,44.43c2.1,3.11,3.11,4.88,4.04,6.9h7.07c-.5-2.69-.67-4.8-.67-8.75v-45.02c0-3.79.17-5.89.67-8.75ZM368.11,271.67c9.51,0,15.82,4.29,19.1,12.87l4.21-1.68c-2.36-5.55-4.71-8.58-8.58-11.27-3.7-2.52-8.67-3.87-14.56-3.87s-10.6,1.18-14.81,3.79c-8.67,5.39-13.55,15.65-13.55,28.78,0,12.12,4.12,21.96,11.53,27.43,4.38,3.2,9.85,4.8,16.75,4.8,4.29,0,8.92-.67,12.79-1.85,3.7-1.09,5.97-2.19,10.43-4.96-.42-3.28-.59-5.13-.59-8.58v-7.15c0-3.62.17-5.97.59-9-2.95.17-5.05.25-8.41.25h-1.51c-4.12,0-5.97-.08-8.75-.51v4.88c2.61-.42,4.12-.5,8.75-.5h5.13v18.43c-5.3,3.53-11.11,5.22-17.92,5.22-4.97,0-9.59-1.18-12.96-3.2-7.15-4.54-11.27-13.63-11.27-25.16,0-17.67,9.09-28.69,23.64-28.69ZM467.55,301.63c-3.11-1.85-6.9-3.03-14.64-4.54-5.22-1.01-7.15-1.6-9.42-2.61-4.46-2.1-6.9-5.55-6.9-9.76,0-7.57,6.48-12.79,15.9-12.79,5.72,0,10.35,1.85,13.21,5.3,1.77,2.1,2.52,3.87,3.11,7.49l4.8-.84c-.84-4.12-1.6-6.06-3.45-8.41-3.62-4.88-9.76-7.49-17.59-7.49-12.45,0-20.36,6.48-20.36,16.75,0,4.88,2.27,9.09,6.4,11.86,2.78,1.85,6.14,3.03,12.96,4.46,8.5,1.77,10.85,2.44,13.55,4.04,3.45,1.94,5.13,5.22,5.13,9.59,0,8.58-6.48,13.8-17.25,13.8-6.65,0-12.03-2.27-14.98-6.23-1.77-2.52-2.44-4.63-2.69-8.84l-5.05.76c.67,5.05,1.43,7.4,3.37,10.18,3.7,5.3,10.35,8.08,19.35,8.08,13.88,0,21.71-6.31,21.71-17.67,0-6.06-2.27-10.27-7.15-13.13Z"/>
    <g>
      <g>
        <polygon class="cls-2" points="257.86 361.83 257.86 387.49 283.52 387.49 270.69 374.66 283.52 361.83 257.86 361.83"/>
        <polygon class="cls-5" points="257.86 361.83 270.69 374.66 283.52 361.83 257.86 361.83"/>
        <polygon class="cls-1" points="257.86 387.49 270.69 374.66 283.52 387.49 257.86 387.49"/>
        <path class="cls-2" d="M225.8,374.66c0,7.39-5.99,13.38-13.38,13.38s-13.38-5.99-13.38-13.38,5.99-13.38,13.38-13.38,13.38,5.99,13.38,13.38Z"/>
        <polygon class="cls-3" points="240.74 361.28 225.6 387.49 255.87 387.49 240.74 361.28"/>
        <polygon class="cls-2" points="248.3 374.38 240.74 387.49 255.87 387.49 248.3 374.38"/>
      </g>
      <g>
        <path class="cls-2" d="M303.55,369.65c.27,1.02.64,1.98,1.07,2.9.77-.63,1.66-1.45,2.2-2.06l1.02.86c-.07.09-.23.11-.36.09-.61.55-1.59,1.34-2.41,1.91.77,1.3,1.72,2.38,2.82,3.02-.25.21-.61.64-.8.95-2.16-1.45-3.68-4.31-4.5-7.56-.38.32-.8.63-1.25.91,1.7,1.38,2.4,3.4,2.4,5.02,0,1.14-.36,2.88-2.25,2.88-.32,0-.7,0-1.11-.04,0-.3-.11-.75-.27-1.05.43.05.86.07,1.14.07.36,0,.63-.04.88-.32.32-.29.52-.91.52-1.66,0-.27-.02-.55-.07-.84-1.43,1.36-3.52,2.59-5.29,3.25-.16-.27-.48-.64-.71-.84,2.02-.63,4.43-1.98,5.76-3.38-.13-.38-.3-.77-.54-1.13-1.25,1.04-3.07,2.06-4.5,2.59-.16-.23-.46-.61-.7-.79,1.56-.48,3.54-1.48,4.72-2.5-.23-.27-.5-.54-.79-.77-.95.55-1.98,1.04-2.95,1.39-.16-.2-.43-.46-.64-.66l-.46.64c-.25-.59-.93-1.77-1.47-2.68v8.63h-1.11v-8.62c-.59,2.02-1.39,3.99-2.22,5.18-.14-.32-.43-.79-.63-1.05,1.07-1.54,2.2-4.45,2.72-6.99h-2.36v-1.13h2.48v-3.99l1.47.11c-.02.11-.13.2-.36.23v3.65h2.04v.36c1.61-1.34,2.79-2.99,3.45-4.33l1.45.23c-.04.14-.16.21-.36.21-.14.27-.32.55-.5.84h3.07l.18-.05.84.55c-.05.07-.16.12-.25.12-.34.59-.84,1.29-1.34,1.91h3.68v3.9h-3.7ZM294.99,368.49c.5.66,1.82,2.66,2.13,3.15l-.09.13c1.41-.5,2.97-1.23,4.13-2.11h-3.25v-2.72c-.23.21-.48.41-.73.61-.13-.16-.3-.36-.48-.52h-1.7v1.47ZM298.99,366.7v2h2.91v-2h-2.91ZM302.3,365.75c.39-.45.8-1.04,1.13-1.57h-3.02c-.38.52-.8,1.05-1.29,1.57h3.18ZM306.13,368.7v-2h-3.11v2h3.11Z"/>
        <path class="cls-2" d="M318.98,368.41c.43.68,1.57,2.66,1.84,3.16l-.64.89c-.21-.57-.75-1.72-1.2-2.61v8.63h-1.07v-8.58c-.54,1.98-1.22,3.91-1.95,5.11-.13-.3-.41-.73-.59-.98.97-1.54,1.98-4.5,2.43-7.04h-2.09v-1.11h2.2v-3.99l1.41.09c-.02.13-.11.21-.34.25v3.65h1.7v1.11h-1.7v1.41ZM326.53,373.54c-.05.11-.18.18-.38.18-.18.64-.48,1.57-.79,2.32l1.97-.3.07.93c-2.36.45-4.83.89-6.4,1.16,0,.14-.11.21-.23.25l-.45-1.27c1.07-.14,2.48-.36,4.04-.61.3-.88.68-2.2.86-3.09l1.3.43ZM323.29,366.57v-1.77h-2.66v-1h2.66v-1.86l1.43.09c-.02.11-.13.2-.36.23v1.54h2.7v1h-2.7v1.77h2.27v1h-5.61v-1h2.27ZM326.51,368.63v4.13h-5.29v-4.13h5.29ZM322.4,373.24c.36.88.7,2.02.77,2.7l-1.02.3c-.09-.7-.38-1.86-.72-2.75l.97-.25ZM325.45,371.83v-2.27h-3.2v2.27h3.2ZM332.12,366.14v1.11h-1.25v9.8c0,1.36-.61,1.5-2.93,1.5-.04-.3-.21-.84-.38-1.16.84.02,1.61.02,1.86.02.23-.02.32-.09.32-.34v-9.81h-2.7v-1.11h2.7v-4.18l1.47.09c-.02.12-.11.21-.34.23v3.86h1.25ZM328.1,369.29c.52,1.43,1,3.31,1.13,4.4l-.98.32c-.13-1.13-.57-3.04-1.07-4.49l.93-.23Z"/>
        <path class="cls-2" d="M344.55,368.23l.7.23c-.02.09-.07.16-.13.21-.29,2.41-.79,4.42-1.52,6.02,1.79,1.77,4.33,2.16,7.42,2.16.68,0,4.65,0,5.52-.02-.2.29-.41.84-.48,1.18h-5.06c-3.38,0-6.01-.47-7.94-2.27-.68,1.18-1.5,2.11-2.45,2.79-.18-.25-.64-.68-.89-.84,1-.68,1.86-1.63,2.54-2.86-.7-.93-1.27-2.09-1.72-3.58l.95-.39c.34,1.14.77,2.09,1.31,2.86.5-1.23.88-2.68,1.09-4.38h-2.29l-.38.73-1.11-.3c.93-1.72,2.04-3.99,2.79-5.6h-3.06v-1.09h3.75l.23-.05.77.32c-.04.07-.09.16-.14.23-.55,1.14-1.43,2.95-2.31,4.67h2.16l.23-.04ZM349.84,368.31v-1.43h-5.08v-1h5.08v-1.41h-3.66v-.98h3.66v-1.61l1.52.11c-.02.13-.11.21-.34.23v1.27h3.93v2.4h1.45v1h-1.45v2.41h-3.93v1.48h4.24v.97h-4.24v1.48h5.04v1h-5.04v1.98h-1.18v-1.98h-4.84v-1h4.84v-1.48h-4.04v-.97h4.04v-1.48h-3.79v-.98h3.79ZM351.02,364.46v1.41h2.75v-1.41h-2.75ZM353.77,368.31v-1.43h-2.75v1.43h2.75Z"/>
        <path class="cls-2" d="M370.94,364.95v1h-6.83v-1h6.83ZM370.31,372.24v5.26h-4.31v.84h-1.07v-6.1h5.38ZM364.95,368.36v-.98h5.38v.98h-5.38ZM364.95,370.79v-.98h5.38v.98h-5.38ZM370.28,362.57v.98h-5.22v-.98h5.22ZM369.24,373.26h-3.24v3.22h3.24v-3.22ZM373.57,363.6v1.11c0,1.54-.39,3.45-2.32,4.72-.18-.23-.63-.64-.88-.8,1.77-1.14,2.06-2.66,2.06-3.93v-2.2h5.63v4.52c0,.39.05.46.38.46h1c.34,0,.39-.23.43-2.02.23.2.72.38,1.02.45-.09,2.11-.39,2.63-1.32,2.63h-1.29c-1.05,0-1.36-.32-1.36-1.5v-3.43h-3.34ZM379.07,369.74l.79.32c-.02.09-.09.14-.14.2-.61,2.13-1.7,3.84-3.09,5.17,1.22.95,2.65,1.64,4.29,2.06-.27.25-.61.73-.79,1.04-1.7-.5-3.16-1.27-4.42-2.31-1.38,1.07-2.97,1.84-4.65,2.32-.13-.3-.41-.8-.66-1.05,1.59-.41,3.11-1.09,4.43-2.07-1.13-1.16-2.02-2.54-2.65-4.15l1.07-.34c.55,1.43,1.39,2.68,2.47,3.74,1.07-1.02,1.95-2.27,2.52-3.77h-7.06v-1.11h7.67l.21-.04Z"/>
      </g>
      <g>
        <path class="cls-2" d="M294.16,388.46c-.38,0-.72-.06-1.03-.19-.31-.13-.58-.31-.81-.54-.23-.23-.41-.5-.54-.82-.13-.32-.19-.66-.19-1.03s.06-.71.19-1.03c.13-.32.31-.59.54-.82.23-.23.5-.41.81-.54.31-.13.66-.19,1.03-.19s.72.06,1.03.19c.31.13.58.31.81.54.23.23.41.5.53.82.13.32.19.66.19,1.03s-.06.72-.19,1.03c-.13.32-.31.59-.53.82-.23.23-.5.41-.81.54-.31.13-.66.19-1.03.19ZM294.16,387.92c.29,0,.55-.05.79-.16.24-.11.44-.25.62-.44.17-.19.3-.4.4-.65.09-.25.14-.51.14-.8s-.05-.55-.14-.8c-.1-.25-.23-.46-.4-.65-.17-.19-.38-.33-.62-.44-.24-.11-.5-.16-.79-.16s-.55.05-.79.16c-.24.11-.44.25-.62.44-.17.19-.3.4-.4.65-.09.25-.14.51-.14.8s.05.55.14.8c.1.25.23.46.4.65.17.19.38.33.62.44.24.11.5.16.79.16Z"/>
        <path class="cls-2" d="M299.44,383.41h.55l2.09,4.92h-.68l-.5-1.21h-2.46l-.51,1.21h-.66l2.17-4.92ZM299.71,384.16h-.01l-1.02,2.42h2.01l-.97-2.42Z"/>
        <path class="cls-2" d="M302.91,383.41h.58v2.13h.08l2.24-2.13h.84l-2.43,2.25,2.55,2.68h-.85l-2.34-2.5h-.08v2.5h-.58v-4.92Z"/>
        <path class="cls-2" d="M312.88,383.95h-1.63v4.38h-.58v-4.38h-1.63v-.54h3.84v.54Z"/>
        <path class="cls-2" d="M313.74,383.41h1.26c.24,0,.47.01.71.04.23.03.44.09.63.18.19.09.34.23.45.41.12.18.17.42.17.73,0,.36-.11.65-.33.88-.22.22-.52.36-.9.42l1.4,2.27h-.72l-1.33-2.21h-.75v2.21h-.58v-4.92ZM314.32,385.58h.52c.16,0,.33,0,.5-.01.17,0,.33-.04.48-.09.15-.05.27-.13.36-.24.09-.11.14-.27.14-.47,0-.18-.03-.32-.1-.42-.07-.11-.16-.19-.28-.25-.11-.06-.24-.1-.38-.11-.14-.02-.28-.03-.43-.03h-.82v1.63Z"/>
        <path class="cls-2" d="M318.16,383.41h3.09v.54h-2.51v1.54h2.34v.54h-2.34v1.75h2.63v.54h-3.22v-4.92Z"/>
        <path class="cls-2" d="M322.46,383.41h3.09v.54h-2.51v1.54h2.34v.54h-2.34v1.75h2.63v.54h-3.22v-4.92Z"/>
        <path class="cls-2" d="M328.77,383.41h1.89c.16,0,.33.02.51.06.18.04.36.1.54.18.18.08.35.19.51.32.16.13.31.29.43.47.13.18.23.39.3.63.07.24.11.51.11.81s-.04.57-.11.81c-.07.24-.17.45-.3.63-.13.18-.27.34-.43.47-.16.13-.34.24-.51.32-.18.08-.36.14-.54.18-.18.04-.35.06-.51.06h-1.89v-4.92ZM329.35,387.79h1.11c.28,0,.54-.04.79-.11.24-.07.45-.19.63-.34s.32-.35.42-.59c.1-.24.15-.53.15-.87s-.05-.63-.15-.87c-.1-.24-.24-.44-.42-.59-.18-.16-.38-.27-.63-.34-.24-.07-.5-.11-.79-.11h-1.11v3.84Z"/>
        <path class="cls-2" d="M334.19,383.41h3.09v.54h-2.51v1.54h2.34v.54h-2.34v1.75h2.63v.54h-3.22v-4.92Z"/>
        <path class="cls-2" d="M337.81,383.41h.66l1.52,4.05h.01l1.56-4.05h.62l-1.93,4.92h-.56l-1.88-4.92Z"/>
        <path class="cls-2" d="M342.91,383.41h3.09v.54h-2.51v1.54h2.34v.54h-2.34v1.75h2.63v.54h-3.22v-4.92Z"/>
        <path class="cls-2" d="M347.2,383.41h.58v4.38h2.25v.54h-2.84v-4.92Z"/>
        <path class="cls-2" d="M353.14,388.46c-.38,0-.72-.06-1.03-.19-.31-.13-.58-.31-.81-.54-.23-.23-.41-.5-.54-.82-.13-.32-.19-.66-.19-1.03s.06-.71.19-1.03c.13-.32.31-.59.54-.82.23-.23.5-.41.81-.54.31-.13.66-.19,1.03-.19s.72.06,1.03.19c.31.13.58.31.81.54.23.23.41.5.54.82.13.32.19.66.19,1.03s-.06.72-.19,1.03c-.13.32-.31.59-.54.82-.23.23-.5.41-.81.54-.31.13-.66.19-1.03.19ZM353.14,387.92c.29,0,.55-.05.79-.16.24-.11.44-.25.62-.44.17-.19.3-.4.4-.65.1-.25.14-.51.14-.8s-.05-.55-.14-.8c-.1-.25-.23-.46-.4-.65-.17-.19-.38-.33-.62-.44-.24-.11-.5-.16-.79-.16s-.55.05-.79.16c-.24.11-.44.25-.62.44-.17.19-.3.4-.4.65-.09.25-.14.51-.14.8s.05.55.14.8c.09.25.23.46.4.65.17.19.38.33.62.44.24.11.5.16.79.16Z"/>
        <path class="cls-2" d="M356.83,383.41h1.46c.23,0,.44.02.65.07.21.04.39.12.55.22.16.1.29.24.38.42.09.17.14.39.14.64,0,.27-.05.49-.15.67-.1.18-.23.32-.39.42-.16.1-.34.17-.52.22-.19.04-.37.06-.54.06h-.99v2.21h-.58v-4.92ZM357.41,385.58h.99c.29,0,.53-.07.71-.2.18-.13.27-.34.27-.62s-.09-.48-.27-.62c-.18-.13-.42-.2-.71-.2h-.99v1.63Z"/>
        <path class="cls-2" d="M361.12,383.41h.87l1.67,3.86h.01l1.68-3.86h.85v4.92h-.58v-4.13h-.01l-1.77,4.13h-.35l-1.77-4.13h-.01v4.13h-.58v-4.92Z"/>
        <path class="cls-2" d="M367.6,383.41h3.09v.54h-2.51v1.54h2.34v.54h-2.34v1.75h2.63v.54h-3.22v-4.92Z"/>
        <path class="cls-2" d="M371.9,383.41h.74l2.85,4.09h.01v-4.09h.58v4.92h-.74l-2.85-4.09h-.01v4.09h-.58v-4.92Z"/>
        <path class="cls-2" d="M380.78,383.95h-1.63v4.38h-.58v-4.38h-1.63v-.54h3.84v.54Z"/>
      </g>
      <path class="cls-2" d="M434.78,387.06l.1-1.03c.22.06.45.09.69.09.49,0,.69-.37.69-.82v-5.61h1.13v5.61c0,1.02-.49,1.88-1.82,1.88-.26-.01-.53-.05-.78-.12Z"/>
      <path class="cls-2" d="M440.35,379.7h-1.13v5.58h1.13v-5.58Z"/>
      <path class="cls-2" d="M445.2,383.94h-2.09l-.44,1.32h-1.2l2.08-5.58h1.21l2.07,5.58h-1.18l-.46-1.32ZM444.87,382.95l-.71-2.1-.71,2.1h1.42Z"/>
      <path class="cls-2" d="M452.29,379.7v5.58h-1.12v-2.27h-2.08v2.27h-1.13v-5.58h1.13v2.3h2.08v-2.3h1.12Z"/>
      <path class="cls-2" d="M457.71,384.28v1h-3.57v-5.58h3.5v.99h-2.37v1.33h2.08v1.01h-2.08v1.25h2.45Z"/>
      <path class="cls-2" d="M461.34,382.49c0-.37.07-.74.21-1.09.14-.35.35-.66.61-.92.26-.26.58-.47.92-.62.34-.14.71-.22,1.09-.22.44,0,.88.1,1.28.3.4.2.74.5.99.86l-.86.62c-.15-.23-.36-.41-.6-.54-.24-.13-.51-.19-.78-.19-.46.02-.9.22-1.22.55-.32.33-.5.78-.5,1.24s.18.91.5,1.24c.32.33.76.53,1.22.55.27,0,.54-.06.78-.19.24-.13.45-.31.6-.54l.86.63c-.26.36-.6.65-.99.85-.39.2-.83.31-1.28.3-.37,0-.75-.08-1.09-.22-.35-.14-.66-.36-.92-.62-.26-.27-.47-.58-.61-.93-.14-.35-.21-.72-.21-1.09"/>
      <path class="cls-2" d="M467.02,382.5c0-.56.17-1.11.49-1.57.31-.46.76-.82,1.28-1.04.52-.21,1.09-.26,1.64-.15.55.11,1.05.38,1.45.78.39.4.66.9.77,1.46.11.55.05,1.12-.17,1.64-.22.52-.58.96-1.05,1.27s-1.02.48-1.58.47c-.37,0-.74-.08-1.09-.22-.34-.14-.66-.36-.92-.62s-.47-.58-.61-.93c-.14-.35-.21-.72-.21-1.09ZM471.56,382.5c-.02-.33-.13-.65-.33-.92-.2-.27-.47-.47-.79-.59-.31-.11-.65-.14-.98-.06-.32.08-.62.25-.85.49-.23.24-.38.55-.44.88-.06.33-.02.67.11.97s.35.57.63.75c.28.18.6.28.94.28.23,0,.46-.05.67-.14.21-.09.41-.23.56-.4.16-.17.28-.37.36-.59.08-.22.12-.45.11-.68Z"/>
      <path class="cls-2" d="M475.29,383.28h-.38v2h-1.12v-5.58h2.22c.24-.02.49.02.72.1.23.09.44.22.61.39.17.17.31.38.39.61.09.23.12.47.11.72.02.4-.1.8-.35,1.11-.25.31-.61.53-1,.59l1.44,2.06h-1.32l-1.32-2ZM474.91,382.37h.9c.11,0,.22,0,.33-.04.11-.03.21-.09.29-.16.08-.07.15-.16.2-.26.05-.1.08-.21.08-.32,0-.11-.01-.22-.05-.33-.04-.11-.1-.2-.17-.28-.08-.08-.17-.15-.27-.19-.1-.05-.21-.07-.33-.07h-.99v1.67Z"/>
      <path class="cls-2" d="M483.44,381.52c.01.24-.02.48-.11.71-.09.23-.22.43-.39.6-.17.17-.38.3-.61.39-.23.09-.47.12-.71.11h-1.15v1.95h-1.12v-5.58h2.27c.24-.01.49.02.71.11.23.09.43.22.61.39.17.17.31.38.39.61.09.23.12.47.11.71ZM482.3,381.52c.01-.1,0-.21-.03-.31-.03-.1-.08-.19-.15-.27-.07-.08-.15-.14-.25-.18-.09-.04-.2-.06-.3-.07h-1.11v1.65h1.1c.1,0,.21-.02.31-.06.1-.04.18-.1.25-.18.07-.08.12-.17.16-.27.03-.1.04-.21.03-.31"/>
      <path class="cls-2" d="M483.95,384.06c0-.18.07-.34.19-.47.12-.12.29-.19.47-.19s.34.07.47.19c.12.12.19.29.19.47s-.07.34-.19.47-.29.19-.47.19-.34-.07-.47-.19c-.12-.12-.19-.29-.19-.47Z"/>
      <path class="cls-2" d="M445,368.42c1.5,1.29,3.23,2.28,5.11,2.91l.8.19-1.23,1.83-.66-.4c-1.55-.85-2.92-1.99-4.03-3.37l-.04-.06-.03-.05c.16.7.24,1.42.24,2.14,0,1.05-.19,2.1-.48,2.61-.19.33-.52.5-1.08.5s-1.25-.16-2.55-.55l-.73-.14-.12-.8c.66.15,1.34.23,2.01.24.46,0,.66-.1.78-.4.2-.67.29-1.37.28-2.07,0-.13,0-.25,0-.38-2.01,1.24-4.18,2.19-6.46,2.83l-.57.23-.31-.63.59-.17c2.41-.94,4.62-2.34,6.49-4.13-.05-.23-.07-.26-.17-.66-1.82,1.17-3.83,2.01-5.94,2.48l-.52.19-.3-.61.57-.16c2.09-.78,3.99-1.96,5.61-3.49-.11-.22-.13-.26-.26-.53-1.49.82-3.1,1.41-4.78,1.73l-.57.19-.3-.61.62-.14c1.86-.64,3.56-1.67,5-3.01h-2.38c-.36.02-.4.02-.9.07v-.83c.34.05.69.07,1.04.07h7.1c.35,0,.7-.02,1.04-.07v.83c-.35-.05-.69-.07-1.04-.07h-2.05c-.52.41-1.06.79-1.63,1.13.52.8.93,1.67,1.25,2.57,1.02-.71,1.96-1.52,2.8-2.43l.42-.52,1.67,1.46-.62.31c-1.04.6-2.12,1.13-3.23,1.58l-.43.17ZM438.14,361.91v1.48c0,.35.03.7.09,1.04h-2.17l.02-.17c.05-.29.07-.58.07-.87v-.81c.01-.47-.02-.94-.09-1.41.43.04.87.06,1.3.05h4.82v-1.08c0-.35-.03-.7-.09-1.05h2.31c-.06.35-.09.7-.1,1.05v1.09h4.93c.44,0,.87-.01,1.3-.06-.07.47-.1.94-.08,1.41v.82c0,.35.03.7.08,1.04h-2.18v-.17c.05-.29.07-.58.07-.87v-1.47h-10.28Z"/>
      <path class="cls-2" d="M459.28,363.83c.88.28,1.73.61,2.57.99l.5.17-1.2,1.84-.3-.42c-.62-.66-1.28-1.27-1.98-1.84l-.38-.24.42-.66.37.16ZM463.24,367.67l-.14.31c-.64,2.02-1.4,4.01-2.28,5.94l-.2.47-1.98-1.23.38-.33c1.33-1.59,2.49-3.31,3.45-5.14l.12-.33.64.31ZM459.99,359.69c.83.31,1.64.68,2.41,1.11l.47.19-1.25,1.74-.28-.42c-.54-.68-1.12-1.32-1.75-1.91l-.37-.26.45-.64.31.2ZM472.86,373.22c0,.9-.3,1.3-.96,1.3-.54,0-1.47-.17-3.07-.59l-.92-.14-.13-.79c.86.11,1.72.17,2.58.19.47,0,.57-.1.57-.62v-11.51h-6.84c-.36.02-.4.02-.9.07v-.83c.35.05.7.07,1.05.07h9.32c.27,0,.53-.02.8-.07v.83c-.26-.05-.53-.07-.8-.07h-.71v12.16ZM468.39,363.63c.47,0,.73-.02,1.15-.05-.07.45-.1.9-.09,1.35v4.1c-.01.45.02.91.09,1.36-.42-.04-.63-.05-.92-.05h-3.28c-.47,0-.71,0-1.15.05.07-.45.1-.9.08-1.36v-4.32c0-.38-.02-.76-.08-1.13.38.04.76.05,1.15.05h3.05ZM465.93,369.63h1.91v-5.31h-1.91v5.31Z"/>
      <path class="cls-2" d="M511.54,362.22v-2.09c0-.35-.02-.7-.09-1.05h2.24c-.06.35-.08.7-.09,1.05v2.1h4.15c.35,0,.7-.01,1.04-.05v.8c-.18-.02-.24-.04-.33-.04l-.24-.02h-4.62v3.18h5.28c.35,0,.7-.01,1.04-.05v.8c-.11-.02-.22-.03-.33-.03l-.24-.02h-13.45c-.29,0-.58.02-.87.05v-.81c.35.05.69.07,1.04.05h5.47v-3.18h-3.23c-.53.82-1.14,1.59-1.82,2.29l-.38.42-.59-.45.33-.42c.66-1.04,1.35-2.91,1.7-4.62l.09-.81,2.12.5-.31.78c-.19.55-.43,1.09-.71,1.61h2.81ZM516.99,368.57c.44.01.87,0,1.3-.05-.07.43-.1.87-.09,1.3v3.2c-.01.44.02.87.09,1.3-.34-.04-.68-.05-1.02-.05h-9.36c-.45,0-.61,0-1.08.05.07-.43.1-.87.09-1.3v-3.42c0-.36-.03-.72-.09-1.08.43.04.87.06,1.3.05h8.85ZM508.97,373.57h7.17v-4.29h-7.17v4.29Z"/>
      <path class="cls-2" d="M495.79,363.76h.71c.09,0,.16.02.33.04v-.78c-.35.04-.69.06-1.04.05h-1.76v-.1c0-.35.03-.7.09-1.04h-2c.06.34.09.69.09,1.04v.1h-2.79v-.1c0-.35.03-.7.09-1.04h-1.98c.06.34.09.69.09,1.04v.1h-1.37c-.35.01-.7,0-1.04-.05v.8c.29-.04.58-.05.87-.05h1.54v.43c.01.44-.01.87-.09,1.3.47-.03.61-.05,1.08-.05h4.51c.34,0,.68.02,1.02.05-.07-.43-.1-.86-.09-1.3v-.44h1.74ZM492.21,364.75h-2.8v-.99h2.8v.99Z"/>
      <path class="cls-2" d="M494.64,372.18h.28c.34,0,.68.02,1.02.05-.07-.44-.1-.88-.09-1.32v-1.81c-.01-.44.02-.87.09-1.3-.43.04-.87.06-1.3.05h-7.7c-.44,0-.88,0-1.32-.05.06.36.09.72.09,1.08v2.05c.02.44-.01.88-.09,1.32.47-.04.62-.05,1.08-.05h2.07l-.4.28c-1.15.67-2.36,1.22-3.63,1.63l-.55.09.26.63.49-.11c1.47-.2,2.93-.51,4.36-.94l.68-.16-1.09-1.43,5.78-.02ZM491.64,368.55h2.41v1.12h-2.41v-1.12ZM491.64,370.36h2.41v1.13h-2.41v-1.13ZM487.5,368.56h2.31v1.11h-2.31v-1.11ZM487.5,370.36h2.31v1.13h-2.31v-1.13Z"/>
      <path class="cls-2" d="M497.47,360.64c-.35.05-.69.07-1.04.07h-5.3v-.64c0-.35.03-.7.09-1.05h-2.24c.06.35.09.7.09,1.05v.64h-4.95c-.44,0-.87-.01-1.3-.05.08.46.1.93.07,1.39v4.27c0,3.09-.33,5.24-1.18,7.57l-.28.49.56.33.35-.54c1.53-2.12,2.37-4.65,2.41-7.26h12.31c.09,0,.16.02.33.04v-.78c-.35.04-.69.06-1.04.06h-11.57v-4.81h11.66c.35,0,.7.02,1.04.07v-.83Z"/>
      <path class="cls-2" d="M492.59,372.39l-.47-.1-.28.62.47.12c1.16.43,2.14.83,3.37,1.42l.64.38.87-1.82-.71-.07c-1.16-.21-1.98-.33-3.89-.56"/>
      <path class="cls-2" d="M399.54,371.27l9.4,7.95c.81.69,1.84,1.07,2.9,1.06,1.06,0,2.09-.39,2.89-1.09l1.78-1.54c.36-.4.56-.91.56-1.45v-.8c0-.07-.02-.14-.06-.2-.04-.06-.09-.11-.16-.14-.06-.03-.14-.04-.21-.03-.07,0-.14.04-.19.08l-3.01,2.58c-.45.39-1.02.61-1.62.61-.6,0-1.17-.21-1.63-.6l-9.39-7.95c-.14-.12-.25-.27-.33-.43-.08-.17-.12-.35-.12-.53s.04-.37.12-.53c.08-.17.19-.31.33-.43l6.89-5.87c1.16-.99,2.64-1.53,4.17-1.52,1.53,0,3,.57,4.15,1.57l6.78,5.81c.14.12.25.27.33.43.08.17.12.35.12.53s-.04.37-.12.53c-.08.17-.19.31-.33.43l-1.41,1.22c-.31.27-.71.41-1.13.41s-.81-.15-1.13-.41l-3.16-2.69c-.81-.71-1.85-1.1-2.93-1.11-1.08,0-2.12.37-2.95,1.07l-2.74,2.31s-.02.02-.03.03c-.03.03-.05.07-.06.11-.01.04-.02.08-.01.12,0,.04.02.08.03.12.02.04.05.07.08.1l.33.28c.25.22.57.34.9.34.33,0,.65-.11.9-.32h.02l1.85-1.57c.47-.4,1.06-.61,1.67-.61.61,0,1.2.23,1.66.63l3.18,2.69c.67.57,1.52.88,2.39.88s1.73-.31,2.39-.88l1.45-1.25c.35-.31.63-.68.82-1.1.19-.42.29-.88.28-1.34,0-.46-.11-.92-.3-1.34-.2-.42-.48-.79-.83-1.09l-6.78-5.8c-1.5-1.31-3.42-2.05-5.42-2.06-1.99-.01-3.93.69-5.45,1.98l-6.89,5.88c-.36.3-.64.68-.84,1.1-.2.42-.3.89-.3,1.36s.1.93.3,1.36c.2.42.48.8.84,1.1Z"/>
      <path class="cls-2" d="M423.62,375.39c-.39-.37-.91-.57-1.44-.56h-.8c-.07,0-.14.02-.2.06-.06.04-.11.09-.14.16-.03.06-.04.14-.03.21s.04.14.09.19l1.29,1.52c.4.35.91.55,1.44.55h.8c.07,0,.14-.02.2-.06.06-.04.11-.09.14-.16.03-.06.04-.14.03-.21,0-.07-.04-.14-.09-.19l-1.29-1.51Z"/>
      <path class="cls-2" d="M424.61,379.02l-6.98,6.05c-1.61,1.41-3.67,2.19-5.81,2.21-2.14.01-4.21-.74-5.84-2.13,0,0-6.73-5.8-6.86-5.87-.13-.08-.6-.33-.71.28v.26c0,.47.1.93.3,1.35.2.42.48.8.84,1.1l5.17,4.38c1.98,1.69,4.51,2.61,7.11,2.59,2.6-.02,5.12-.97,7.08-2.68l5.57-4.81c.24-.2.43-.46.56-.74.13-.28.2-.59.19-.91v-.78c0-.07-.02-.14-.06-.2-.04-.06-.09-.11-.16-.14-.06-.03-.14-.04-.21-.03-.07,0-.14.04-.19.09Z"/>
      <path class="cls-2" d="M399.54,376.84l7.17,6.06c1.32,1.13,2.99,1.79,4.73,1.86,1.74.08,3.45-.43,4.87-1.44.24-.19.43-.44.56-.72.13-.28.2-.58.2-.89v-.8c0-.07-.02-.13-.05-.18-.03-.06-.08-.1-.14-.13-.06-.03-.12-.04-.19-.04-.06,0-.13.03-.18.06l-.85.74c-1.06.93-2.42,1.45-3.83,1.46-1.41.01-2.78-.49-3.85-1.4,0,0-8.76-7.5-8.89-7.6-.13-.09-.54-.31-.66.2-.01.12-.02.24-.02.37,0,.47.1.93.3,1.36.2.43.48.8.84,1.11Z"/>
    </g>
    <g>
      <path d="M19.03,119.75l.67,1.87c-3.92,2.68-12.05,5.93-18.12,7.6l-1.58-5.55c3.01-.29,6.89-.91,10.86-1.77,1.05-5.07,2.2-12.77,2.68-19.56l5.16.96c-1,6.41-3.25,13.15-5.26,17.98,1.91-.48,3.78-.96,5.59-1.53ZM21.23,101.05H.77v-2.44h20.47v2.44ZM3.11,103.34l1.82-.53c2.53,5.4,4.5,11.96,5.16,16.93l-5.02.86c-.24-4.69-1-11.67-1.96-17.26ZM9.23,98.51c-.72-3.01-1.72-6.41-2.77-9.42l1.86-.81c2.3,2.58,4.3,5.88,5.5,8.56l-4.59,1.67ZM32.14,102.15v9.71h9.09v20.85h-4.88v-3.73h-11.43v3.87h-4.88v-20.99h7.08v-23.05h5.02v10.86h10.86v2.49h-10.86ZM24.91,114.29v12.24h11.43v-12.24h-11.43Z"/>
      <path d="M101.71,112.86v20.18h-4.93v-4.02h-25.68v4.06h-4.93v-20.23h4.93v13.53h10.23v-17.07h-13.06v-16.4h4.83v13.82h8.23v-17.69h5.17v17.69h8.32v-13.87h4.83v16.45h-13.15v17.07h10.28v-13.53h4.93Z"/>
      <path d="M168.14,125.67l-3.16,4.93c-5.83-3.16-12.29-8.61-16.45-15.45v18.03h-5.07v-16.02c-3.78,5.64-10.47,11.09-18.46,14.15l-.91-1.86c6.6-3.35,13.49-9.99,17.55-17.26l-3.01,2.1c-.91-2.1-1.82-4.02-2.68-5.69-1.77,4.06-4.4,7.79-7.94,10.52l-1.34-1.48c4.26-5.07,5.74-10.86,6.7-17.89l4.97.86c-.29,1.72-.72,3.44-1.29,5.12,1.91,1.67,3.83,3.73,5.07,5.55.48-.96.96-1.91,1.34-2.92v-9.95h-16.69v-2.87h16.69v-6.79h5.07v6.79h16.79v2.87h-16.79v12c.48.72,1,1.39,1.58,2.1,2.34-3.78,3.44-7.36,4.35-12.77l4.97,1.1c-.48,1.77-1.05,3.44-1.72,4.93,2.77,1.96,5.31,4.35,6.89,6.26l-3.63,3.01c-1.43-2.49-2.96-4.83-4.45-6.89-1.34,2.39-3.01,4.45-4.88,6.12,4.54,4.93,10.47,9.04,16.5,11.38Z"/>
      <path d="M195.92,116.83c-1.67,5.31-5.31,10.38-8.13,13.01l-1.34-1.24c1.72-2.77,3.92-7.7,5.16-13.01l4.3,1.24ZM210.84,98.18h-23.72v-2.39h11.76c-1.72-2.01-4.11-4.5-5.59-5.83l1-1.77c2.68,1,7.08,3.39,8.9,4.93l-2.3,2.68h9.95v2.39ZM201.61,113.19v15.16c0,4.78-4.26,6.03-11.09,3.01l.43-1.91c5.45.77,6.03.24,6.03-2.15v-14.11h-6.65v-11.57h17.55v11.57h-6.26ZM194.96,110.75h8.32v-6.69h-8.32v6.69ZM224.18,132.32c-5.59,0-6.6-.86-6.6-4.88v-16.5c-1.2,11.38-4.3,17.5-11.81,22.67l-1.29-1.48c2.2-2.1,3.83-4.21,5.07-6.65l-3.78,1.72c-.81-3.01-2.2-7.89-3.2-11.05l1.67-.86c1.87,2.3,4.26,6.69,5.55,9.71,2.34-4.78,3.2-10.76,3.49-19.89h-4.35v-2.44h4.4c.1-4.02.1-8.56.1-13.87h4.78c.05,5.21.05,9.8-.1,13.87h10.95v2.44h-11.05c-.05,1.1-.14,2.2-.19,3.2h4.16v16.93c0,2.25.38,2.73,2.44,2.73,2.63,0,2.39-.72,2.58-8.94h1.91c2.29,11.48,1.2,13.29-4.73,13.29ZM223.8,101.48c-1-3.11-2.44-6.65-3.78-9.42l1.58-1.05c2.25,1.96,4.92,5.5,6.36,8.27l-4.16,2.2Z"/>
      <path d="M292.18,126.11l-1.67,5.64c-3.49.29-9.23.24-13.01.05-7.94-.43-14.16-3.16-17.17-9.47-2.06,4.93-5.45,9.09-10.42,11.48l-1.1-1.72c5.55-4.59,7.41-10.57,8.13-17.74l5.4.62c-.24,1.67-.62,3.3-1.1,4.88,1.96,3.16,4.16,4.97,6.98,6.03v-13.63h-18.51v-2.68h41.41v2.68h-17.69v5.36h14.01v2.49h-14.01v6.79c1.29.1,2.68.1,4.21.1,6.17-.05,9.28-.24,14.54-.86ZM284.53,106.31h-27.54v-15.54h27.54v15.54ZM279.56,93.2h-17.65v4.11h17.65v-4.11ZM279.56,99.71h-17.65v4.16h17.65v-4.16Z"/>
      <path d="M329.82,115.54h-10.71v3.49h-5.07v-21.38h15.78v-8.99h5.26v8.99h15.92v21.09h-5.07v-3.2h-10.86v17.88h-5.26v-17.88ZM329.82,112.95v-12.67h-10.71v12.67h10.71ZM345.93,112.95v-12.67h-10.86v12.67h10.86Z"/>
      <path d="M416.18,92.92v2.44h-11.62v4.02h-4.78v-4.02h-10.14v4.02h-4.83v-4.02h-11.48v-2.44h11.48v-4.16h4.83v4.16h10.14v-4.16h4.78v4.16h11.62ZM407.43,108.08h8.46v2.39h-8.46v5.64h6.65v2.39h-16.93v4.02h15.11v2.44h-15.11v8.23h-5.07v-8.23h-14.97v-2.44h14.97v-4.02h-16.74v-2.39h6.6v-5.64h-8.51v-2.39h8.51v-5.17h-5.55v-2.39h36.82v2.39h-5.79v5.17ZM386.53,102.91v5.17h5.55v-5.17h-5.55ZM392.08,116.11v-5.64h-5.55v5.64h5.55ZM397.15,102.91v5.17h5.69v-5.17h-5.69ZM402.84,116.11v-5.64h-5.69v5.64h5.69Z"/>
      <path d="M478.92,127.11l-3.68,5.98c-5.36-2.53-14.25-11.48-16.83-26.68-2.53,14.15-10.95,23.38-22.09,27.07l-.96-1.91c9.04-4.83,15.73-12.43,17.79-27.16h-16.21v-2.92h16.5c.1-1,.19-2.06.24-3.11.19-2.96.24-6.36.24-9.56h5.6c0,3.87-.14,7.41-.33,11.05-.05.53-.05,1.1-.1,1.63h17.84v2.92h-16.74c3.59,13.01,11.57,19.51,18.75,22.72Z"/>
      <path d="M540.99,126.34l-1.48,5.21c-5.26.33-13.1.48-18.94.24-8.94-.38-12.39-3.11-14.39-7.17-1.48,3.25-3.44,6.36-5.69,8.8l-3.3-3.3c2.2-1.67,4.64-4.21,6.17-6.36v-10.81h-5.45v-2.44h10.42v12.91c2.3,3.68,7.89,4.02,12.1,4.02,6.65,0,14.78-.38,20.56-1.1ZM504.94,107.69c-1.72-2.3-4.45-5.45-6.74-7.75l1.05-1.67c2.77,1.2,6.41,3.35,9.04,5.69l-3.35,3.73ZM499.82,90.53l1-1.63c2.73,1.05,6.41,3.11,8.94,5.31l-3.25,3.68c-1.87-2.39-4.3-5.02-6.7-7.36ZM522.01,98.56h-12.05v-2.39h8.66c-1.29-2.3-2.92-4.78-4.21-6.55l1.24-1.43c2.68,1.58,5.83,4.21,7.46,6.17l-2.25,1.82h6.55c.96-2.3,1.87-5.21,2.44-7.99l5.12,1.58c-1.39,2.3-3.25,4.69-5.02,6.41h9.66v2.39h-12.53c-.91,1.58-2.06,3.2-3.16,4.5h12.43v21.28h-22.67v-21.28h7.51c.38-1.43.62-3.06.81-4.5ZM531.48,105.49h-12.91v3.73h12.91v-3.73ZM531.48,111.52h-12.91v4.02h12.91v-4.02ZM531.48,117.83h-12.91v4.06h12.91v-4.06Z"/>
      <path d="M599.05,133.18c-7.46-.1-7.27-19.99-7.27-31.42v-8.32h-23.38v10.95c0,16.98-2.58,24.29-7.32,29.12l-1.58-1.24c3.68-6.22,3.97-12.39,3.97-27.88v-13.44h33.14v11.57c0,12.39.34,24.15,2.25,24.48.62.14.72-1.58.72-7.7h2.06c1.96,9.8.53,13.96-2.58,13.87ZM587.57,119.36c2.15,2.96,4.3,7.41,5.6,11l-4.21,1.39c-.24-1.34-.67-3.06-1.15-4.78-5.88,1.96-14.54,3.83-19.41,4.3l-.81-4.69c3.3-.14,6.84-.43,10.33-.77v-7.89h-7.51v-12.86h7.51v-5.02h-8.23v-2.44h20.99v2.44h-8.08v5.02h7.46v12.86h-7.46v7.36c1.58-.19,3.11-.38,4.54-.62-.48-1.67-1-3.25-1.43-4.5l1.87-.81ZM578,115.54v-8.08h-3.44v8.08h3.44ZM582.5,115.54h3.35v-8.08h-3.35v8.08Z"/>
      <path d="M638.74,123.52c-3.39,3.01-10.85,6.79-15.83,8.08l-.77-1.87c4.5-2.2,9.33-5.79,12.15-9.04l4.45,2.82ZM664.37,109.56h-41.89v-2.44h20.61c-1.91-.96-4.02-1.96-5.64-2.68l.48-1.82c3.01.43,6.98,1.34,10.38,2.49l-1.05,2.01h17.12v2.44ZM658.15,102.63h-29.31v-11.91h29.31v11.91ZM646.44,120.08v8.27c0,4.64-4.4,6.6-12.43,2.39l.53-1.87c6.31,1,7.03.67,7.03-1.77v-7.03h-11.38v-8.51h26.78v8.51h-10.52ZM653.37,92.97h-19.8v2.58h19.8v-2.58ZM653.37,97.65h-19.8v2.68h19.8v-2.68ZM634.96,117.69h17.22v-3.73h-17.22v3.73ZM664.51,127.3l-3.01,4.45c-3.11-2.73-8.75-6.5-12.77-8.94l.76-1.82c4.5,1.15,11.09,3.92,15.02,6.31Z"/>
      <path d="M689.67,118.79c.14,5.59-.53,10.66-1.53,13.87l-4.69-1.86c1.77-2.87,3.44-7.03,4.35-12.19l1.87.19ZM710.28,113.77c-1.82,7.32-6.46,13.87-13.1,17.6l-1.1-1.58c5.79-4.78,8.08-10.14,9.09-14.68h-3.4c.1.19.14.38.24.57l-3.87,1.39c-.24-1.1-.57-2.3-.91-3.54-4.21,1.72-8.66,2.82-11.76,3.4l-1.15-4.64c1.1,0,2.2,0,3.35-.05,1.67-2.1,3.68-4.88,5.5-8.18-2.63.91-5.36,1.58-7.56,1.91l-.91-4.5,2.92.14c1.63-3.59,3.11-8.18,4.02-13.01l4.93,1.48c-1.72,4.16-4.11,8.42-6.31,11.52,1.39,0,2.77-.05,4.3-.14.81-1.72,1.63-3.59,2.29-5.5l4.5,1.96c-2.58,5.02-6.98,10.57-10.95,14.15,2.06-.14,4.11-.33,6.22-.57-.33-1.2-.76-2.34-1.15-3.4l1.72-.86c1.29,1.63,2.53,3.73,3.59,5.74h4.11l1.1-1,4.3,1.77ZM691.67,129.5c.05-3.06-.1-6.98-.48-11l1.77-.43c1.53,3.78,2.68,7.7,3.16,10.62l-4.45.81ZM697.79,125.53c-.86-3.01-1.72-5.21-2.96-8.13l1.48-.91c2.01,2.15,3.63,4.3,5.07,6.98l-3.59,2.06ZM727.63,126.87l-3.83,4.73c-3.44-2.49-6.65-7.89-8.42-14.06v10.62c0,5.36-4.59,6.26-11.86,2.68l.48-1.91c6.12.81,6.7.53,6.7-1.82v-17.12h-8.37v-15.69h6.7c.67-2.2,1-4.02,1.39-6.22l5.26,1.24c-1.29,1.96-2.54,3.54-3.97,4.97h11.62v15.69h-7.89c.43,2.44,1.2,4.64,2.2,6.65,1.44-1.67,2.58-3.25,3.92-5.5l4.06,2.96c-2.15,2.01-4.4,3.35-6.79,4.59,2.3,3.49,5.4,6.22,8.8,8.18ZM706.88,100.81h11.86v-4.06h-11.86v4.06ZM706.88,107.6h11.86v-4.45h-11.86v4.45Z"/>
    </g>
    <g>
      <path d="M59.47,222.16h37.31v2.46h-37.31v-2.46Z"/>
      <path d="M136.54,224.61c0,10.53-1.83,17.5-6.03,21.96l-1.07-.89c3.62-5.36,3.97-12.14,3.97-22.23v-12.1h18.75c-2.19-1.96-4.78-4.06-6.87-5.67l.67-1.21c2.72,1.07,6.34,2.99,8.84,4.73l-1.56,2.14h15.4v1.79h-32.09v11.47ZM169.26,242.38v1.83h-33.79v-1.83h15.26v-6.56h-12.27v-1.74h12.27v-19.55h3.03v19.55h12.68v1.74h-12.68v6.56h15.49ZM145.56,216.71c-.27,1.74-.62,3.44-1.12,5.09,2.28,2.23,4.69,5.18,5.94,7.63l-2.63,1.52c-.89-2.23-2.45-5.22-3.79-7.5-1.25,3.66-3.08,6.83-5.4,9.28l-.98-.89c2.63-3.79,4.29-9.55,4.78-15.8l3.21.67ZM162.3,216.76c-.22,1.74-.58,3.39-.98,4.95,2.32,2.23,5.04,5.36,6.47,7.77l-2.63,1.61c-1.03-2.28-2.77-5.31-4.37-7.72-1.07,3.26-2.68,6.2-5,8.88l-1.03-.85c2.72-4.33,3.88-9.51,4.33-15.31l3.21.67Z"/>
      <path d="M222.46,215.42v30.8h-3.21v-25.8c-4.42,5.94-10.62,11.38-17.81,15.09l-.76-1.29c10.44-6.78,16.69-14.64,20.4-24.06h-18.57v-2.05h38.52v2.05h-16.16c-.62,1.74-1.43,3.53-2.41,5.27ZM241.43,232.25l-2.95,2.63c-2.81-4.02-8.12-10.27-13.21-15.26l.85-1.16c5.85,3.93,12.59,10.31,15.31,13.79Z"/>
      <path d="M311.72,231.53h-11.47v10.8c0,3.71-2.77,5.58-11.51,1.92l.36-1.29c7.36,1.21,8.17.89,8.17-1.61v-9.82h-3.04c-4.11,5.94-12.94,11.38-21.74,13.34l-.45-1.25c7.19-2.32,14.24-6.52,18.39-12.1h-9.28c-.45,1.43-.94,2.81-1.38,3.97l-2.95-.71c1.07-2.81,2.23-6.74,3.12-10.13l2.99.62c-.31,1.29-.76,2.86-1.21,4.46h15.53v-6.29h-21.25v-1.74h34.05v1.74h-9.82v6.29h11.47v1.79ZM286.91,211.62h-9.46v5.76h-2.95v-7.5h18.61c-2.1-1.38-4.82-2.95-6.96-4.2l.45-1.29c2.59.67,6.38,2.01,9.02,3.35l-1.21,2.14h15.89v5.8h-2.9v-4.06h-9.73v3.48c0,2.28.54,2.46,4.64,2.46,3.21,0,4.82-.09,6.2-1.34l1.47,1.7c-1.52,1.7-3.39,1.87-8.17,1.92-6.07,0-6.92-.62-6.96-4.06v-4.15h-4.73c-1.7,4.82-7.77,8.57-16.02,9.69l-.27-1.29c7.5-1.61,11.51-4.69,13.08-8.39Z"/>
      <path d="M358.05,220.11h10.44v1.79h-10.44v4.82h8.88v11.65c0,3.21-2.54,4.24-7.85,2.19l.31-1.38c4.2.49,4.6.31,4.6-1.65v-9.06h-5.94v17.58h-3.04v-17.58h-5.98v14.28h-2.9v-16.02h8.88v-4.82h-10.94v-1.79h10.94v-5.89h-5.94c-.98,1.96-2.1,3.7-3.3,5.27l-1.16-.76c1.96-3.84,3.21-7.9,4.06-12.67l3.12.8c-.58,2.05-1.21,3.88-1.92,5.58h5.13v-7.5h3.04v7.5h8.88v1.79h-8.88v5.89ZM381.16,205.02v36.51c0,4.6-2.68,5.76-12.01,2.63l.31-1.34c7.68.94,8.7.71,8.7-2.01v-35.8h2.99ZM373.04,236.44h-2.81v-26.73h2.81v26.73Z"/>
      <path d="M418.7,206.49h12.36v35.12c0,4.73-3.48,5.8-10.13,2.5l.4-1.29c6.07,1.29,6.83.71,6.83-1.88v-11.78h-6.65c-.27,7.9-1.25,12.9-5.36,17.36l-1.12-.94c3.62-5.67,3.66-11.65,3.66-23.83v-15.26ZM428.16,227.47v-8.93h-6.56v2.32c0,2.41,0,4.6-.04,6.61h6.61ZM421.6,208.28v8.57h6.56v-8.57h-6.56ZM455.34,242.91l-2.14,3.17c-2.05-1.47-4.42-3.44-6.56-6.29-2.14,2.63-4.69,4.73-7.59,6.29l-.71-1.21c2.63-1.79,5-4.2,6.87-7.05-2.05-3.26-3.84-7.45-4.87-12.94h-2.5v21.47h-2.99v-39.68h17.18c.04,4.51-.09,7.05-.31,9.42-.4,4.42-4.11,4.91-10.4,1.61l.4-1.29c6.03,1.43,6.74.94,6.92-.89.18-1.83.27-3.88.27-7.1h-11.07v14.77h11.78l.89-.76,2.95,1.12c-.85,5.45-2.63,10.18-5.22,14.01,2.28,2.46,4.78,4.11,7.1,5.36ZM446.59,235.55c1.74-3.21,2.95-6.87,3.44-10.67h-8.3c1.12,4.55,2.86,7.99,4.87,10.67Z"/>
      <path d="M495.64,213.54h8.17v31.29h-2.95v-4.2h-9.15v5.04h-2.95v-32.13h5.31c.62-2.72,1.25-6.29,1.61-9.02l3.53.76c-.89,2.77-2.32,5.89-3.57,8.26ZM500.86,215.29h-9.15v10.22h9.15v-10.22ZM500.86,238.85v-11.56h-9.15v11.56h9.15ZM525.1,213.54c0,13.34-.45,22.41-1.07,27.72-.58,4.73-3.93,6.83-13.92,2.5l.36-1.34c9.15,1.7,10.09.98,10.49-2.46.45-3.88.94-11.92,1.03-24.64h-10.89c-1.3,3.53-3.08,7.14-5.54,10.44l-1.12-.8c3.26-6.16,5-13.79,5.85-20.35l3.44.67c-.45,2.5-1.07,5.36-2.01,8.26h13.39ZM514.52,233.58c-1.52-3.88-3.39-7.59-5.4-11.07l1.12-.8c2.72,2.86,5.58,6.74,7.32,10.13l-3.04,1.74Z"/>
      <path d="M598.34,241.39l-1.12,3.57c-4.06.27-9.51.4-13.52.22-8.61-.45-14.19-2.37-17.81-6.07-1.83,2.86-4.24,5.4-7.28,7.45l-.85-1.16c2.5-1.92,4.78-4.64,6.61-8.17-1.87-2.59-3.08-5.89-3.88-9.95l1.34-.36c.89,3.39,2.01,6.11,3.53,8.21,1.47-3.53,2.54-7.77,2.95-12.68h-4.73c-.71,1.29-1.34,2.32-1.83,3.04l-2.46-1.03c2.28-3.88,5.36-9.95,7.23-14.73h-7.81v-1.7h11.65c-1.25,3.35-3.7,8.61-5.85,12.63h3.44l.8-.62,2.72.94c-.45,5.67-1.79,11.29-4.42,16.2,3.53,3.48,8.61,4.78,16.11,4.91,4.37.04,10.13-.22,15.17-.71ZM581.6,216.27h-10.36v-1.7h10.36v-3.88h-8.12v-1.74h8.12v-4.11h2.9v4.11h8.97v5.62h4.11v1.7h-4.11v5.98h-8.97v3.79h9.6v1.79h-9.6v4.33h11.65v1.74h-11.65v6.16h-2.9v-6.16h-10.27v-1.74h10.27v-4.33h-8.66v-1.79h8.66v-3.79h-8.35v-1.79h8.35v-4.2ZM584.5,214.57h6.25v-3.88h-6.25v3.88ZM584.5,220.46h6.25v-4.2h-6.25v4.2Z"/>
      <path d="M629.89,217.52l-.8-1.07c3.44-3.17,6.11-6.92,7.94-12.05l3.17.98c-.54,1.2-1.25,2.5-2.1,3.79h12.14v1.79h-8.03c1.12,1.25,2.14,2.68,3.08,4.33l-2.59.98c-.58-1.79-1.25-3.53-2.19-5.31h-3.71c-1.83,2.41-4.2,4.73-6.92,6.56ZM669.61,241.44l-1.7,3.3c-5.04-.89-12.72-4.6-17-10.22v11.83h-2.95v-11.74c-3.62,4.64-11.92,8.57-18.34,10.09l-.45-1.29c6.65-2.28,12.27-5.22,16.2-9.69h-14.91v-1.79h17.5v-4.2h2.95v4.2h17.67v1.79h-16.6c4.6,4.37,10.76,6.47,17.63,7.72ZM637.88,225.37v-6.52h-6.56v-1.79h15.89v1.79h-6.47v6.03c2.14-.36,4.2-.8,6.34-1.34l.36,1.25c-3.93,1.61-10.76,3.44-15.84,4.24l-.76-2.86c2.5-.22,4.82-.49,7.05-.8ZM659.39,223.85v-5.45h-7.99c-.04,6.61-2.1,9.15-7.63,11.43l-.62-1.21c5.13-2.99,5.4-5,5.4-11.96h13.66v6.61c0,2.32.4,2.59,2.63,2.59,2.1,0,2.19-.4,2.14-5.67h1.34c1.38,7.32.58,8.17-3.84,8.17-4.11.04-5.09-.62-5.09-4.51ZM647.65,214.93c2.77-2.77,5-6.47,6.43-10.58l3.08,1.03c-.58,1.25-1.34,2.5-2.14,3.7h13.97v1.79h-8.75c1.16,1.12,2.19,2.41,3.17,3.93l-2.54,1.07c-.71-1.65-1.47-3.35-2.5-5h-4.69c-1.7,2.05-3.57,3.84-5.18,5.09l-.85-1.03ZM652.96,219.97l1.16-.45c1.29,2.19,2.46,4.91,3.08,7.14l-2.54.67c-.31-2.1-1.03-5-1.7-7.36Z"/>
    </g>
  </g>
</svg>