<svg width="413" height="53" viewBox="0 0 413 53" fill="none" xmlns="http://www.w3.org/2000/svg">
<g clip-path="url(#clip0_446_1166)">
<path d="M40.7559 1.25163L42.943 1.25163C45.531 1.25163 47.0082 2.68465 47.0082 5.41425C47.0082 8.14385 45.531 9.63379 43.0117 9.63379L40.7559 9.63379L40.7559 1.25163ZM42.8514 8.55331C44.6607 8.55331 45.6341 7.49557 45.6341 5.41425C45.6341 3.33293 44.6607 2.33212 42.8514 2.33212L42.0842 2.33212L42.0842 8.55331L42.8514 8.55331Z" fill="#B3B3B3"/>
<path d="M48.875 5.41385C48.875 2.71837 50.3751 1.10338 52.5394 1.10338C54.7037 1.10338 56.2152 2.71837 56.2152 5.41385C56.2152 8.10934 54.7037 9.78125 52.5394 9.78125C50.3751 9.78125 48.875 8.10934 48.875 5.41385ZM54.8525 5.41385C54.8525 3.44626 53.9364 2.2521 52.5394 2.2521C51.1423 2.2521 50.2377 3.44626 50.2377 5.41385C50.2377 7.38144 51.1423 8.63253 52.5394 8.63253C53.9364 8.63253 54.8525 7.37007 54.8525 5.41385Z" fill="#B3B3B3"/>
<path d="M58.5391 1.25163L59.9018 1.25163L62.6958 6.17631L63.5776 7.95055L63.6348 7.95055C63.5661 7.08618 63.4631 6.07394 63.4631 5.16407L63.4631 1.25163L64.7227 1.25163L64.7227 9.63379L63.36 9.63379L60.5659 4.69779L59.6842 2.94625L59.6269 2.94625C59.6956 3.81063 59.7987 4.7774 59.7987 5.68727L59.7987 9.63379L58.5391 9.63379L58.5391 1.25163Z" fill="#B3B3B3"/>
<path d="M67.8262 1.4785C67.8262 1.4785 67.6545 1.55813 67.54 1.55813C67.0819 1.55813 66.7842 1.21692 66.7842 0.773361C66.7842 0.386667 67.0819 -1.81328e-05 67.6087 -1.81559e-05C68.1354 -1.81789e-05 68.5591 0.489036 68.5591 1.13732C68.5591 2.19504 67.8491 2.99118 67.0705 3.34375L66.7956 2.84332C67.4369 2.52487 67.8148 1.91069 67.8262 1.4785Z" fill="#B3B3B3"/>
<path d="M75.533 2.3662L73.0596 2.3662L73.0596 1.25163L79.3463 1.25163L79.3463 2.3662L76.8614 2.3662L76.8614 9.63379L75.533 9.63379L75.533 2.3662Z" fill="#B3B3B3"/>
<path d="M84.0645 5.47077C84.0645 2.74117 85.7363 1.10338 87.8663 1.10338C88.9198 1.10338 89.7442 1.6038 90.2596 2.16109L89.5381 3.00271C89.103 2.55915 88.5762 2.2521 87.8892 2.2521C86.4349 2.2521 85.4271 3.45765 85.4271 5.42524C85.4271 7.39283 86.3661 8.63253 87.8548 8.63253C88.6335 8.63253 89.2175 8.29137 89.7213 7.74544L90.4313 8.57568C89.7557 9.34907 88.8969 9.78125 87.809 9.78125C85.6905 9.78125 84.0645 8.21175 84.0645 5.47077Z" fill="#B3B3B3"/>
<path d="M91.6338 5.41385C91.6338 2.71837 93.1339 1.10338 95.2982 1.10338C97.4625 1.10338 98.974 2.71837 98.974 5.41385C98.974 8.10934 97.4625 9.78125 95.2982 9.78125C93.1339 9.78125 91.6338 8.10934 91.6338 5.41385ZM97.6113 5.41385C97.6113 3.44626 96.6952 2.2521 95.2982 2.2521C93.9011 2.2521 92.9965 3.44626 92.9965 5.41385C92.9965 7.38144 93.9011 8.63253 95.2982 8.63253C96.6952 8.63253 97.6113 7.37007 97.6113 5.41385Z" fill="#B3B3B3"/>
<path d="M101.298 1.25163L102.821 1.25163L104.367 5.49387C104.561 6.05117 104.733 6.61988 104.928 7.17718L104.985 7.17718C105.18 6.61988 105.34 6.05117 105.535 5.49387L107.058 1.25163L108.592 1.25163L108.592 9.63379L107.356 9.63379L107.356 5.49387C107.356 4.74323 107.459 3.6628 107.527 2.90078L107.482 2.90078L106.806 4.83427L105.34 8.82626L104.516 8.82626L103.038 4.83427L102.374 2.90078L102.328 2.90078C102.386 3.6628 102.489 4.74323 102.489 5.49387L102.489 9.63379L101.298 9.63379L101.298 1.25163Z" fill="#B3B3B3"/>
<path d="M111.375 1.25163L113.929 1.25163C115.807 1.25163 117.146 1.89989 117.146 3.78787C117.146 5.67585 115.807 6.46065 113.974 6.46065L112.703 6.46065L112.703 9.63379L111.375 9.63379L111.375 1.25163ZM113.848 5.40294C115.2 5.40294 115.841 4.89108 115.841 3.78787C115.841 2.68465 115.142 2.32073 113.803 2.32073L112.703 2.32073L112.703 5.40294L113.848 5.40294Z" fill="#B3B3B3"/>
<path d="M120.399 1.25163L121.933 1.25163L124.727 9.63379L123.319 9.63379L122.609 7.24541L119.677 7.24541L118.956 9.63379L117.604 9.63379L120.399 1.25163ZM119.986 6.2104L122.288 6.2104L121.956 5.08445C121.67 4.17458 121.418 3.24195 121.166 2.29796L121.109 2.29796C120.868 3.25332 120.605 4.17458 120.33 5.08445L119.986 6.2104Z" fill="#B3B3B3"/>
<path d="M126.411 1.25163L129.171 1.25163C130.911 1.25163 132.217 1.87719 132.217 3.68555C132.217 4.98211 131.518 5.75548 130.453 6.08531L132.515 9.63379L131.015 9.63379L129.102 6.25594L127.739 6.25594L127.739 9.63379L126.411 9.63379L126.411 1.25163ZM129.011 5.19815C130.236 5.19815 130.9 4.69778 130.9 3.68555C130.9 2.67332 130.236 2.32073 129.011 2.32073L127.739 2.32073L127.739 5.19815L129.011 5.19815Z" fill="#B3B3B3"/>
<path d="M134.495 1.25163L139.476 1.25163L139.476 2.3662L135.823 2.3662L135.823 4.69779L138.915 4.69779L138.915 5.81236L135.823 5.81236L135.823 8.51922L139.602 8.51922L139.602 9.63379L134.495 9.63379L134.495 1.25163Z" fill="#B3B3B3"/>
<path d="M146.473 6.46065L143.942 1.25163L145.362 1.25163L146.336 3.48084C146.599 4.10637 146.84 4.68641 147.126 5.32331L147.172 5.32331C147.446 4.68641 147.721 4.10637 147.973 3.48084L148.958 1.25163L150.344 1.25163L147.801 6.46065L147.801 9.63379L146.473 9.63379L146.473 6.46065Z" fill="#B3B3B3"/>
<path d="M151.34 5.41385C151.34 2.71837 152.84 1.10338 155.004 1.10338C157.169 1.10338 158.68 2.71837 158.68 5.41385C158.68 8.10934 157.169 9.78125 155.004 9.78125C152.84 9.78125 151.34 8.10934 151.34 5.41385ZM157.317 5.41385C157.317 3.44626 156.401 2.2521 155.004 2.2521C153.607 2.2521 152.703 3.44626 152.703 5.41385C152.703 7.38144 153.607 8.63253 155.004 8.63253C156.401 8.63253 157.317 7.37007 157.317 5.41385Z" fill="#B3B3B3"/>
<path d="M160.959 6.03944L160.959 1.25124L162.287 1.25124L162.287 6.13038C162.287 8.01836 163.043 8.63253 164.097 8.63253C165.15 8.63253 165.94 8.01836 165.94 6.13038L165.94 1.25124L167.223 1.25124L167.223 6.03944C167.223 8.76905 165.963 9.78125 164.097 9.78125C162.23 9.78125 160.959 8.76905 160.959 6.03944Z" fill="#B3B3B3"/>
<path d="M169.971 1.25163L172.73 1.25163C174.471 1.25163 175.776 1.87719 175.776 3.68555C175.776 4.98211 175.078 5.75548 174.013 6.08531L176.074 9.63379L174.574 9.63379L172.662 6.25594L171.299 6.25594L171.299 9.63379L169.971 9.63379L169.971 1.25163ZM172.57 5.19815C173.795 5.19815 174.46 4.69778 174.46 3.68555C174.46 2.67332 173.795 2.32073 172.57 2.32073L171.299 2.32073L171.299 5.19815L172.57 5.19815Z" fill="#B3B3B3"/>
<path d="M181.205 1.25163L182.533 1.25163L182.533 8.51922L186.106 8.51922L186.106 9.63379L181.205 9.63379L181.205 1.25163Z" fill="#B3B3B3"/>
<path d="M188.167 1.25163L189.495 1.25163L189.495 9.63379L188.167 9.63379L188.167 1.25163Z" fill="#B3B3B3"/>
<path d="M192.278 1.25163L197.271 1.25163L197.271 2.3662L193.607 2.3662L193.607 4.9252L196.721 4.9252L196.721 6.02846L193.607 6.02846L193.607 9.63379L192.278 9.63379L192.278 1.25163Z" fill="#B3B3B3"/>
<path d="M199.332 1.25163L204.313 1.25163L204.313 2.3662L200.66 2.3662L200.66 4.69779L203.752 4.69779L203.752 5.81236L200.66 5.81236L200.66 8.51922L204.439 8.51922L204.439 9.63379L199.332 9.63379L199.332 1.25163Z" fill="#B3B3B3"/>
<path d="M209.077 1.25163L210.44 1.25163L211.23 5.61903C211.379 6.50615 211.528 7.40463 211.677 8.30313L211.722 8.30313C211.906 7.40463 212.1 6.50615 212.295 5.61903L213.383 1.25163L214.562 1.25163L215.65 5.61903C215.845 6.49478 216.028 7.39326 216.223 8.30313L216.28 8.30313C216.417 7.39326 216.566 6.49478 216.704 5.61903L217.505 1.25163L218.776 1.25163L217.116 9.63379L215.478 9.63379L214.345 4.98213C214.196 4.32247 214.07 3.69694 213.955 3.06003L213.91 3.06003C213.784 3.69694 213.646 4.32247 213.509 4.98213L212.398 9.63379L210.795 9.63379L209.077 1.25163Z" fill="#B3B3B3"/>
<path d="M220.734 1.25163L222.063 1.25163L222.063 9.63379L220.734 9.63379L220.734 1.25163Z" fill="#B3B3B3"/>
<path d="M226.563 2.3662L224.09 2.3662L224.09 1.25163L230.377 1.25163L230.377 2.3662L227.892 2.3662L227.892 9.63379L226.563 9.63379L226.563 2.3662Z" fill="#B3B3B3"/>
<path d="M232.403 1.25163L233.732 1.25163L233.732 4.67502L237.339 4.67502L237.339 1.25163L238.667 1.25163L238.667 9.63379L237.339 9.63379L237.339 5.82374L233.732 5.82374L233.732 9.63379L232.403 9.63379L232.403 1.25163Z" fill="#B3B3B3"/>
<path d="M244.141 5.41385C244.141 2.71837 245.641 1.10338 247.805 1.10338C249.969 1.10338 251.481 2.71837 251.481 5.41385C251.481 8.10934 249.969 9.78125 247.805 9.78125C245.641 9.78125 244.141 8.10934 244.141 5.41385ZM250.118 5.41385C250.118 3.44626 249.202 2.2521 247.805 2.2521C246.408 2.2521 245.503 3.44626 245.503 5.41385C245.503 7.38144 246.408 8.63253 247.805 8.63253C249.202 8.63253 250.118 7.37007 250.118 5.41385Z" fill="#B3B3B3"/>
<path d="M255.203 2.3662L252.729 2.3662L252.729 1.25163L259.016 1.25163L259.016 2.3662L256.531 2.3662L256.531 9.63379L255.203 9.63379L255.203 2.3662Z" fill="#B3B3B3"/>
<path d="M261.043 1.25163L262.371 1.25163L262.371 4.67502L265.978 4.67502L265.978 1.25163L267.307 1.25163L267.307 9.63379L265.978 9.63379L265.978 5.82374L262.371 5.82374L262.371 9.63379L261.043 9.63379L261.043 1.25163Z" fill="#B3B3B3"/>
<path d="M270.089 1.25163L275.07 1.25163L275.07 2.3662L271.417 2.3662L271.417 4.69779L274.509 4.69779L274.509 5.81236L271.417 5.81236L271.417 8.51922L275.196 8.51922L275.196 9.63379L270.089 9.63379L270.089 1.25163Z" fill="#B3B3B3"/>
<path d="M277.532 1.25163L280.292 1.25163C282.033 1.25163 283.338 1.87719 283.338 3.68555C283.338 4.98211 282.639 5.75548 281.575 6.08531L283.636 9.63379L282.136 9.63379L280.223 6.25594L278.861 6.25594L278.861 9.63379L277.532 9.63379L277.532 1.25163ZM280.132 5.19815C281.357 5.19815 282.021 4.69778 282.021 3.68555C282.021 2.67332 281.357 2.32073 280.132 2.32073L278.861 2.32073L278.861 5.19815L280.132 5.19815Z" fill="#B3B3B3"/>
<path d="M284.85 8.55291L285.628 7.64305C286.235 8.24584 287.06 8.63253 287.873 8.63253C288.892 8.63253 289.464 8.15487 289.464 7.44973C289.464 6.68771 288.892 6.44888 288.113 6.10768L286.945 5.60725C286.132 5.26605 285.227 4.62915 285.227 3.4122C285.227 2.09289 286.396 1.10338 287.999 1.10338C288.983 1.10338 289.911 1.51281 290.552 2.16109L289.854 3.00271C289.327 2.5364 288.743 2.2521 287.999 2.2521C287.14 2.2521 286.579 2.66154 286.579 3.32119C286.579 4.04909 287.254 4.32204 287.941 4.595L289.098 5.08405C290.094 5.50486 290.816 6.11901 290.816 7.34734C290.816 8.68939 289.693 9.78125 287.85 9.78125C286.693 9.78125 285.617 9.3263 284.85 8.55291Z" fill="#B3B3B3"/>
<path d="M292.693 8.8714C292.693 8.32547 293.083 7.93877 293.575 7.93877C294.068 7.93877 294.457 8.32547 294.457 8.8714C294.457 9.41732 294.068 9.78125 293.575 9.78125C293.083 9.78125 292.693 9.40594 292.693 8.8714Z" fill="#B3B3B3"/>
<path d="M42.4735 23.9751L40 23.9751L40 22.8605L46.2867 22.8605L46.2867 23.9751L43.8018 23.9751L43.8018 31.2427L42.4735 31.2427L42.4735 23.9751Z" fill="#B3B3B3"/>
<path d="M48.3135 22.8605L49.6418 22.8605L49.6418 26.2839L53.2489 26.2839L53.2489 22.8605L54.5773 22.8605L54.5773 31.2427L53.2489 31.2427L53.2489 27.4326L49.6418 27.4326L49.6418 31.2427L48.3135 31.2427L48.3135 22.8605Z" fill="#B3B3B3"/>
<path d="M57.3604 22.8605L62.3416 22.8605L62.3416 23.9751L58.6887 23.9751L58.6887 26.3067L61.7805 26.3067L61.7805 27.4212L58.6887 27.4212L58.6887 30.1281L62.4676 30.1281L62.4676 31.2427L57.3604 31.2427L57.3604 22.8605Z" fill="#B3B3B3"/>
<path d="M64.8027 22.8605L67.5625 22.8605C69.3031 22.8605 70.6085 23.4861 70.6085 25.2944C70.6085 26.591 69.91 27.3644 68.845 27.6942L70.9062 31.2427L69.4061 31.2427L67.4938 27.8648L66.1311 27.8648L66.1311 31.2427L64.8027 31.2427L64.8027 22.8605ZM67.4022 26.807C68.6274 26.807 69.2916 26.3067 69.2916 25.2944C69.2916 24.2822 68.6274 23.9296 67.4022 23.9296L66.1311 23.9296L66.1311 26.807L67.4022 26.807Z" fill="#B3B3B3"/>
<path d="M72.8877 22.8605L77.869 22.8605L77.869 23.9751L74.216 23.9751L74.216 26.3067L77.3079 26.3067L77.3079 27.4212L74.216 27.4212L74.216 30.1281L77.9949 30.1281L77.9949 31.2427L72.8877 31.2427L72.8877 22.8605Z" fill="#B3B3B3"/>
<path d="M80.6407 23.0879C80.6407 23.0879 80.4689 23.1675 80.3544 23.1675C79.8964 23.1675 79.5986 22.8263 79.5986 22.3827C79.5986 21.996 79.8964 21.6094 80.4231 21.6094C80.9499 21.6094 81.3736 22.0984 81.3736 22.7467C81.3736 23.8044 80.6636 24.6006 79.8849 24.9531L79.6101 24.4527C80.2513 24.1342 80.6292 23.5201 80.6407 23.0879Z" fill="#B3B3B3"/>
<path d="M86.0342 30.1623L86.8129 29.2524C87.4198 29.8552 88.2443 30.2419 89.0573 30.2419C90.0765 30.2419 90.649 29.7642 90.649 29.0591C90.649 28.2971 90.0765 28.0583 89.2978 27.7171L88.1297 27.2166C87.3167 26.8754 86.4121 26.2385 86.4121 25.0216C86.4121 23.7023 87.5801 22.7128 89.1833 22.7128C90.1681 22.7128 91.0956 23.1222 91.7369 23.7705L91.0384 24.6121C90.5116 24.1458 89.9276 23.8615 89.1833 23.8615C88.3244 23.8615 87.7633 24.2709 87.7633 24.9306C87.7633 25.6585 88.4389 25.9314 89.126 26.2044L90.2826 26.6934C91.2788 27.1142 92.0003 27.7284 92.0003 28.9567C92.0003 30.2988 90.878 31.3906 89.0344 31.3906C87.8778 31.3906 86.8014 30.9357 86.0342 30.1623Z" fill="#B3B3B3"/>
<path d="M97.3135 22.8605L98.6762 22.8605L101.47 27.7852L102.352 29.5594L102.409 29.5594C102.341 28.6951 102.237 27.6828 102.237 26.773L102.237 22.8605L103.497 22.8605L103.497 31.2427L102.134 31.2427L99.3403 26.3067L98.4586 24.5551L98.4013 24.5551C98.47 25.4195 98.5731 26.3863 98.5731 27.2962L98.5731 31.2427L97.3135 31.2427L97.3135 22.8605Z" fill="#B3B3B3"/>
<path d="M105.833 27.0232C105.833 24.3277 107.333 22.7128 109.497 22.7128C111.662 22.7128 113.173 24.3277 113.173 27.0232C113.173 29.7187 111.662 31.3906 109.497 31.3906C107.333 31.3906 105.833 29.7187 105.833 27.0232ZM111.811 27.0232C111.811 25.0556 110.894 23.8615 109.497 23.8615C108.1 23.8615 107.196 25.0556 107.196 27.0232C107.196 28.9908 108.1 30.2419 109.497 30.2419C110.894 30.2419 111.811 28.9794 111.811 27.0232Z" fill="#B3B3B3"/>
<path d="M118.188 27.0801C118.188 24.3505 119.86 22.7128 121.99 22.7128C123.044 22.7128 123.868 23.2132 124.384 23.7705L123.662 24.6121C123.227 24.1685 122.7 23.8615 122.013 23.8615C120.559 23.8615 119.551 25.067 119.551 27.0346C119.551 29.0022 120.49 30.2419 121.979 30.2419C122.758 30.2419 123.342 29.9007 123.845 29.3548L124.555 30.1851C123.88 30.9584 123.021 31.3906 121.933 31.3906C119.815 31.3906 118.188 29.8211 118.188 27.0801Z" fill="#B3B3B3"/>
<path d="M125.758 27.0232C125.758 24.3277 127.258 22.7128 129.422 22.7128C131.586 22.7128 133.098 24.3277 133.098 27.0232C133.098 29.7187 131.586 31.3906 129.422 31.3906C127.258 31.3906 125.758 29.7187 125.758 27.0232ZM131.735 27.0232C131.735 25.0556 130.819 23.8615 129.422 23.8615C128.025 23.8615 127.121 25.0556 127.121 27.0232C127.121 28.9908 128.025 30.2419 129.422 30.2419C130.819 30.2419 131.735 28.9794 131.735 27.0232Z" fill="#B3B3B3"/>
<path d="M135.423 22.8605L136.946 22.8605L138.492 27.1028C138.686 27.6601 138.858 28.2288 139.053 28.7861L139.11 28.7861C139.305 28.2288 139.465 27.6601 139.66 27.1028L141.183 22.8605L142.717 22.8605L142.717 31.2427L141.481 31.2427L141.481 27.1028C141.481 26.3521 141.584 25.2717 141.652 24.5097L141.607 24.5097L140.931 26.4432L139.465 30.4351L138.641 30.4351L137.163 26.4432L136.499 24.5097L136.453 24.5097C136.511 25.2717 136.614 26.3521 136.614 27.1028L136.614 31.2427L135.423 31.2427L135.423 22.8605Z" fill="#B3B3B3"/>
<path d="M145.5 22.8605L148.054 22.8605C149.932 22.8605 151.271 23.5088 151.271 25.3968C151.271 27.2847 149.932 28.0695 148.099 28.0695L146.828 28.0695L146.828 31.2427L145.5 31.2427L145.5 22.8605ZM147.973 27.0118C149.325 27.0118 149.966 26.5 149.966 25.3968C149.966 24.2935 149.267 23.9296 147.928 23.9296L146.828 23.9296L146.828 27.0118L147.973 27.0118Z" fill="#B3B3B3"/>
<path d="M154.524 22.8605L156.058 22.8605L158.852 31.2427L157.444 31.2427L156.734 28.8543L153.802 28.8543L153.081 31.2427L151.729 31.2427L154.524 22.8605ZM154.111 27.8193L156.413 27.8193L156.081 26.6933C155.795 25.7835 155.543 24.8508 155.291 23.9068L155.234 23.9068C154.993 24.8622 154.73 25.7835 154.455 26.6933L154.111 27.8193Z" fill="#B3B3B3"/>
<path d="M160.535 22.8605L163.295 22.8605C165.035 22.8605 166.341 23.4861 166.341 25.2944C166.341 26.591 165.642 27.3644 164.577 27.6942L166.639 31.2427L165.139 31.2427L163.226 27.8648L161.863 27.8648L161.863 31.2427L160.535 31.2427L160.535 22.8605ZM163.135 26.807C164.36 26.807 165.024 26.3067 165.024 25.2944C165.024 24.2822 164.36 23.9296 163.135 23.9296L161.863 23.9296L161.863 26.807L163.135 26.807Z" fill="#B3B3B3"/>
<path d="M168.62 22.8605L169.948 22.8605L169.948 31.2427L168.62 31.2427L168.62 22.8605Z" fill="#B3B3B3"/>
<path d="M172.136 30.1623L172.914 29.2524C173.521 29.8552 174.346 30.2419 175.159 30.2419C176.178 30.2419 176.751 29.7642 176.751 29.0591C176.751 28.2971 176.178 28.0583 175.399 27.7171L174.231 27.2166C173.418 26.8754 172.514 26.2385 172.514 25.0216C172.514 23.7023 173.682 22.7128 175.285 22.7128C176.27 22.7128 177.197 23.1222 177.838 23.7705L177.14 24.6121C176.613 24.1458 176.029 23.8615 175.285 23.8615C174.426 23.8615 173.865 24.2709 173.865 24.9306C173.865 25.6585 174.54 25.9314 175.228 26.2044L176.384 26.6934C177.38 27.1142 178.102 27.7284 178.102 28.9567C178.102 30.2988 176.98 31.3906 175.136 31.3906C173.979 31.3906 172.903 30.9357 172.136 30.1623Z" fill="#B3B3B3"/>
<path d="M179.808 27.0232C179.808 24.3277 181.308 22.7128 183.472 22.7128C185.636 22.7128 187.148 24.3277 187.148 27.0232C187.148 29.7187 185.636 31.3906 183.472 31.3906C181.308 31.3906 179.808 29.7187 179.808 27.0232ZM185.785 27.0232C185.785 25.0556 184.869 23.8615 183.472 23.8615C182.075 23.8615 181.17 25.0556 181.17 27.0232C181.17 28.9908 182.075 30.2419 183.472 30.2419C184.869 30.2419 185.785 28.9794 185.785 27.0232Z" fill="#B3B3B3"/>
<path d="M189.473 22.8605L190.835 22.8605L193.629 27.7852L194.511 29.5594L194.568 29.5594C194.5 28.6951 194.397 27.6828 194.397 26.773L194.397 22.8605L195.656 22.8605L195.656 31.2427L194.294 31.2427L191.5 26.3067L190.618 24.5551L190.561 24.5551C190.629 25.4195 190.732 26.3863 190.732 27.2962L190.732 31.2427L189.473 31.2427L189.473 22.8605Z" fill="#B3B3B3"/>
<path d="M201.6 22.8605L204.21 22.8605C205.94 22.8605 207.188 23.4178 207.188 24.9305C207.188 25.7266 206.741 26.4886 205.985 26.7388L205.985 26.7957C206.947 27.0004 207.646 27.6487 207.646 28.7861C207.646 30.4466 206.283 31.2427 204.417 31.2427L201.6 31.2427L201.6 22.8605ZM204.268 30.2077C205.585 30.2077 206.34 29.7414 206.34 28.7178C206.34 27.7738 205.608 27.353 204.268 27.353L202.928 27.353L202.928 30.2077L204.268 30.2077ZM204.062 26.3635C205.344 26.3635 205.882 25.8858 205.882 25.101C205.882 24.2253 205.287 23.8955 204.096 23.8955L202.928 23.8955L202.928 26.3635L204.062 26.3635Z" fill="#B3B3B3"/>
<path d="M209.81 22.8605L214.791 22.8605L214.791 23.9751L211.138 23.9751L211.138 26.3067L214.23 26.3067L214.23 27.4212L211.138 27.4212L211.138 30.1281L214.917 30.1281L214.917 31.2427L209.81 31.2427L209.81 22.8605Z" fill="#B3B3B3"/>
<path d="M218.971 23.9751L216.497 23.9751L216.497 22.8605L222.784 22.8605L222.784 23.9751L220.299 23.9751L220.299 31.2427L218.971 31.2427L218.971 23.9751Z" fill="#B3B3B3"/>
<path d="M223.964 22.8605L225.327 22.8605L226.117 27.2279C226.266 28.115 226.414 29.0135 226.563 29.912L226.609 29.912C226.792 29.0135 226.987 28.115 227.182 27.2279L228.27 22.8605L229.449 22.8605L230.537 27.2279C230.732 28.1037 230.915 29.0021 231.109 29.912L231.167 29.912C231.304 29.0021 231.453 28.1037 231.59 27.2279L232.392 22.8605L233.663 22.8605L232.003 31.2427L230.365 31.2427L229.231 26.591C229.083 25.9314 228.957 25.3058 228.842 24.6689L228.796 24.6689C228.67 25.3058 228.533 25.9314 228.395 26.591L227.285 31.2427L225.682 31.2427L223.964 22.8605Z" fill="#B3B3B3"/>
<path d="M235.621 22.8605L240.602 22.8605L240.602 23.9751L236.949 23.9751L236.949 26.3067L240.041 26.3067L240.041 27.4212L236.949 27.4212L236.949 30.1281L240.728 30.1281L240.728 31.2427L235.621 31.2427L235.621 22.8605Z" fill="#B3B3B3"/>
<path d="M243.064 22.8605L248.046 22.8605L248.046 23.9751L244.393 23.9751L244.393 26.3067L247.485 26.3067L247.485 27.4212L244.393 27.4212L244.393 30.1281L248.172 30.1281L248.172 31.2427L243.064 31.2427L243.064 22.8605Z" fill="#B3B3B3"/>
<path d="M250.508 22.8605L251.871 22.8605L254.665 27.7852L255.546 29.5594L255.604 29.5594C255.535 28.6951 255.432 27.6828 255.432 26.773L255.432 22.8605L256.691 22.8605L256.691 31.2427L255.329 31.2427L252.535 26.3067L251.653 24.5551L251.596 24.5551C251.664 25.4195 251.767 26.3863 251.767 27.2962L251.767 31.2427L250.508 31.2427L250.508 22.8605Z" fill="#B3B3B3"/>
<path d="M264.352 23.9751L261.879 23.9751L261.879 22.8605L268.166 22.8605L268.166 23.9751L265.681 23.9751L265.681 31.2427L264.352 31.2427L264.352 23.9751Z" fill="#B3B3B3"/>
<path d="M270.192 22.8605L271.521 22.8605L271.521 26.2839L275.128 26.2839L275.128 22.8605L276.456 22.8605L276.456 31.2427L275.128 31.2427L275.128 27.4326L271.521 27.4326L271.521 31.2427L270.192 31.2427L270.192 22.8605Z" fill="#B3B3B3"/>
<path d="M279.238 22.8605L284.22 22.8605L284.22 23.9751L280.567 23.9751L280.567 26.3067L283.658 26.3067L283.658 27.4212L280.567 27.4212L280.567 30.1281L284.346 30.1281L284.346 31.2427L279.238 31.2427L279.238 22.8605Z" fill="#B3B3B3"/>
<path d="M289.235 30.1623L290.014 29.2524C290.621 29.8552 291.445 30.2419 292.258 30.2419C293.278 30.2419 293.85 29.7642 293.85 29.0591C293.85 28.2971 293.278 28.0583 292.499 27.7171L291.331 27.2166C290.518 26.8754 289.613 26.2385 289.613 25.0216C289.613 23.7023 290.781 22.7128 292.384 22.7128C293.369 22.7128 294.297 23.1222 294.938 23.7705L294.24 24.6121C293.713 24.1458 293.129 23.8615 292.384 23.8615C291.526 23.8615 290.964 24.2709 290.964 24.9306C290.964 25.6585 291.64 25.9314 292.327 26.2044L293.484 26.6934C294.48 27.1142 295.201 27.7284 295.201 28.9567C295.201 30.2988 294.079 31.3906 292.236 31.3906C291.079 31.3906 290.003 30.9357 289.235 30.1623Z" fill="#B3B3B3"/>
<path d="M297.32 27.6488L297.32 22.8606L298.649 22.8606L298.649 27.7398C298.649 29.6277 299.404 30.2419 300.458 30.2419C301.511 30.2419 302.302 29.6277 302.302 27.7398L302.302 22.8606L303.584 22.8606L303.584 27.6488C303.584 30.3784 302.324 31.3906 300.458 31.3906C298.591 31.3906 297.32 30.3784 297.32 27.6488Z" fill="#B3B3B3"/>
<path d="M306.332 22.8605L307.695 22.8605L310.489 27.7852L311.371 29.5594L311.428 29.5594C311.359 28.6951 311.256 27.6828 311.256 26.773L311.256 22.8605L312.516 22.8605L312.516 31.2427L311.153 31.2427L308.359 26.3067L307.477 24.5551L307.42 24.5551C307.489 25.4195 307.592 26.3863 307.592 27.2962L307.592 31.2427L306.332 31.2427L306.332 22.8605Z" fill="#B3B3B3"/>
<path d="M320.142 22.8605L321.676 22.8605L324.47 31.2427L323.062 31.2427L322.352 28.8543L319.42 28.8543L318.699 31.2427L317.348 31.2427L320.142 22.8605ZM319.73 27.8193L322.031 27.8193L321.699 26.6933C321.413 25.7835 321.161 24.8508 320.909 23.9068L320.852 23.9068C320.611 24.8622 320.348 25.7835 320.073 26.6933L319.73 27.8193Z" fill="#B3B3B3"/>
<path d="M326.154 22.8605L327.517 22.8605L330.311 27.7852L331.193 29.5594L331.25 29.5594C331.181 28.6951 331.078 27.6828 331.078 26.773L331.078 22.8605L332.338 22.8605L332.338 31.2427L330.975 31.2427L328.181 26.3067L327.299 24.5551L327.242 24.5551C327.311 25.4195 327.414 26.3863 327.414 27.2962L327.414 31.2427L326.154 31.2427L326.154 22.8605Z" fill="#B3B3B3"/>
<path d="M335.132 22.8605L337.319 22.8605C339.907 22.8605 341.384 24.2935 341.384 27.0231C341.384 29.7527 339.907 31.2427 337.388 31.2427L335.132 31.2427L335.132 22.8605ZM337.227 30.1622C339.037 30.1622 340.01 29.1045 340.01 27.0231C340.01 24.9418 339.037 23.941 337.227 23.941L336.46 23.941L336.46 30.1622L337.227 30.1622Z" fill="#B3B3B3"/>
<path d="M348.576 23.9751L346.103 23.9751L346.103 22.8605L352.389 22.8605L352.389 23.9751L349.904 23.9751L349.904 31.2427L348.576 31.2427L348.576 23.9751Z" fill="#B3B3B3"/>
<path d="M354.416 22.8605L355.744 22.8605L355.744 26.2839L359.351 26.2839L359.351 22.8605L360.68 22.8605L360.68 31.2427L359.351 31.2427L359.351 27.4326L355.744 27.4326L355.744 31.2427L354.416 31.2427L354.416 22.8605Z" fill="#B3B3B3"/>
<path d="M363.462 22.8605L368.443 22.8605L368.443 23.9751L364.79 23.9751L364.79 26.3067L367.882 26.3067L367.882 27.4212L364.79 27.4212L364.79 30.1281L368.569 30.1281L368.569 31.2427L363.462 31.2427L363.462 22.8605Z" fill="#B3B3B3"/>
<path d="M374.055 22.8605L375.578 22.8605L377.124 27.1028C377.318 27.6601 377.49 28.2288 377.685 28.7861L377.742 28.7861C377.937 28.2288 378.097 27.6601 378.292 27.1028L379.815 22.8605L381.349 22.8605L381.349 31.2427L380.112 31.2427L380.112 27.1028C380.112 26.3521 380.215 25.2717 380.284 24.5097L380.238 24.5097L379.563 26.4432L378.097 30.4351L377.272 30.4351L375.795 26.4432L375.131 24.5097L375.085 24.5097C375.143 25.2717 375.246 26.3521 375.246 27.1028L375.246 31.2427L374.055 31.2427L374.055 22.8605Z" fill="#B3B3B3"/>
<path d="M383.674 27.0232C383.674 24.3277 385.174 22.7128 387.338 22.7128C389.503 22.7128 391.014 24.3277 391.014 27.0232C391.014 29.7187 389.503 31.3906 387.338 31.3906C385.174 31.3906 383.674 29.7187 383.674 27.0232ZM389.64 27.0232C389.64 25.0556 388.724 23.8615 387.327 23.8615C385.93 23.8615 385.025 25.0556 385.025 27.0232C385.025 28.9908 385.93 30.2419 387.327 30.2419C388.724 30.2419 389.64 28.9794 389.64 27.0232Z" fill="#B3B3B3"/>
<path d="M392.88 27.0232C392.88 24.3277 394.38 22.7128 396.544 22.7128C398.709 22.7128 400.22 24.3277 400.22 27.0232C400.22 29.7187 398.709 31.3906 396.544 31.3906C394.38 31.3906 392.88 29.7187 392.88 27.0232ZM398.846 27.0232C398.846 25.0556 397.93 23.8615 396.533 23.8615C395.136 23.8615 394.231 25.0556 394.231 27.0232C394.231 28.9908 395.136 30.2419 396.533 30.2419C397.93 30.2419 398.846 28.9794 398.846 27.0232Z" fill="#B3B3B3"/>
<path d="M402.545 22.8605L403.908 22.8605L406.702 27.7852L407.583 29.5594L407.641 29.5594C407.572 28.6951 407.469 27.6828 407.469 26.773L407.469 22.8605L408.729 22.8605L408.729 31.2427L407.366 31.2427L404.572 26.3067L403.69 24.5551L403.633 24.5551C403.701 25.4195 403.805 26.3863 403.805 27.2962L403.805 31.2427L402.545 31.2427L402.545 22.8605Z" fill="#B3B3B3"/>
<path d="M411.236 30.4808C411.236 29.9348 411.626 29.5481 412.118 29.5481C412.61 29.5481 413 29.9348 413 30.4808C413 31.0267 412.61 31.3906 412.118 31.3906C411.626 31.3906 411.236 31.0153 411.236 30.4808Z" fill="#B3B3B3"/>
<path d="M42.4735 45.5845L40 45.5845L40 44.4699L46.2867 44.4699L46.2867 45.5845L43.8018 45.5845L43.8018 52.8521L42.4735 52.8521L42.4735 45.5845Z" fill="#B3B3B3"/>
<path d="M48.3135 44.4699L49.6418 44.4699L49.6418 47.8933L53.2489 47.8933L53.2489 44.4699L54.5773 44.4699L54.5773 52.8521L53.2489 52.8521L53.2489 49.042L49.6418 49.042L49.6418 52.8521L48.3135 52.8521L48.3135 44.4699Z" fill="#B3B3B3"/>
<path d="M57.3604 44.4699L62.3416 44.4699L62.3416 45.5845L58.6887 45.5845L58.6887 47.9161L61.7805 47.9161L61.7805 49.0306L58.6887 49.0306L58.6887 51.7375L62.4676 51.7375L62.4676 52.8521L57.3604 52.8521L57.3604 44.4699Z" fill="#B3B3B3"/>
<path d="M66.1889 49.6789L63.6582 44.4699L65.0782 44.4699L66.0515 46.6991C66.3149 47.3246 66.5554 47.9047 66.8416 48.5416L66.8874 48.5416C67.1623 47.9047 67.4371 47.3246 67.689 46.6991L68.6738 44.4699L70.0594 44.4699L67.5173 49.6789L67.5173 52.8521L66.1889 52.8521L66.1889 49.6789Z" fill="#B3B3B3"/>
<path d="M74.2617 51.7717L75.0404 50.8618C75.6473 51.4646 76.4718 51.8513 77.2848 51.8513C78.304 51.8513 78.8766 51.3736 78.8766 50.6685C78.8766 49.9065 78.304 49.6676 77.5253 49.3264L76.3573 48.826C75.5443 48.4848 74.6396 47.8479 74.6396 46.631C74.6396 45.3116 75.8076 44.3221 77.4108 44.3221C78.3956 44.3221 79.3232 44.7316 79.9644 45.3798L79.2659 46.2215C78.7391 45.7551 78.1551 45.4708 77.4108 45.4708C76.552 45.4708 75.9909 45.8803 75.9909 46.5399C75.9909 47.2678 76.6665 47.5408 77.3535 47.8138L78.5101 48.3028C79.5064 48.7236 80.2278 49.3378 80.2278 50.5661C80.2278 51.9081 79.1056 53 77.2619 53C76.1054 53 75.0289 52.545 74.2617 51.7717Z" fill="#B3B3B3"/>
<path d="M82.3926 44.4699L83.7209 44.4699L83.7209 47.8933L87.328 47.8933L87.328 44.4699L88.6564 44.4699L88.6564 52.8521L87.328 52.8521L87.328 49.042L83.7209 49.042L83.7209 52.8521L82.3926 52.8521L82.3926 44.4699Z" fill="#B3B3B3"/>
<path d="M91.4385 44.4699L92.7668 44.4699L92.7668 52.8521L91.4385 52.8521L91.4385 44.4699Z" fill="#B3B3B3"/>
<path d="M95.5498 44.4699L96.9125 44.4699L99.7066 49.3946L100.588 51.1688L100.646 51.1688C100.577 50.3044 100.474 49.2922 100.474 48.3823L100.474 44.4699L101.733 44.4699L101.733 52.8521L100.371 52.8521L97.5767 47.9161L96.6949 46.1645L96.6377 46.1645C96.7064 47.0289 96.8094 47.9957 96.8094 48.9055L96.8094 52.8521L95.5498 52.8521L95.5498 44.4699Z" fill="#B3B3B3"/>
<path d="M104.527 44.4699L109.509 44.4699L109.509 45.5845L105.856 45.5845L105.856 47.9161L108.948 47.9161L108.948 49.0306L105.856 49.0306L105.856 51.7375L109.635 51.7375L109.635 52.8521L104.527 52.8521L104.527 44.4699Z" fill="#B3B3B3"/>
<path d="M114.272 44.4699L115.635 44.4699L116.425 48.8373C116.574 49.7244 116.723 50.6229 116.872 51.5214L116.918 51.5214C117.101 50.6229 117.296 49.7244 117.49 48.8373L118.578 44.4699L119.758 44.4699L120.845 48.8373C121.04 49.713 121.223 50.6115 121.418 51.5214L121.475 51.5214C121.613 50.6115 121.762 49.713 121.899 48.8373L122.701 44.4699L123.972 44.4699L122.311 52.8521L120.674 52.8521L119.54 48.2004C119.391 47.5407 119.265 46.9152 119.151 46.2783L119.105 46.2783C118.979 46.9152 118.841 47.5407 118.704 48.2004L117.593 52.8521L115.99 52.8521L114.272 44.4699Z" fill="#B3B3B3"/>
<path d="M125.93 44.4699L127.258 44.4699L127.258 47.8933L130.865 47.8933L130.865 44.4699L132.193 44.4699L132.193 52.8521L130.865 52.8521L130.865 49.042L127.258 49.042L127.258 52.8521L125.93 52.8521L125.93 44.4699Z" fill="#B3B3B3"/>
<path d="M134.977 44.4699L139.958 44.4699L139.958 45.5845L136.305 45.5845L136.305 47.9161L139.397 47.9161L139.397 49.0306L136.305 49.0306L136.305 51.7375L140.084 51.7375L140.084 52.8521L134.977 52.8521L134.977 44.4699Z" fill="#B3B3B3"/>
<path d="M142.42 44.4699L143.783 44.4699L146.577 49.3946L147.458 51.1688L147.516 51.1688C147.447 50.3044 147.344 49.2922 147.344 48.3823L147.344 44.4699L148.604 44.4699L148.604 52.8521L147.241 52.8521L144.447 47.9161L143.565 46.1645L143.508 46.1645C143.576 47.0289 143.68 47.9957 143.68 48.9055L143.68 52.8521L142.42 52.8521L142.42 44.4699Z" fill="#B3B3B3"/>
<path d="M154.547 44.4699L155.875 44.4699L155.875 52.8521L154.547 52.8521L154.547 44.4699Z" fill="#B3B3B3"/>
<path d="M160.375 45.5845L157.901 45.5845L157.901 44.4699L164.188 44.4699L164.188 45.5845L161.703 45.5845L161.703 52.8521L160.375 52.8521L160.375 45.5845Z" fill="#B3B3B3"/>
<path d="M166.524 44.6973C166.524 44.6973 166.353 44.7769 166.238 44.7769C165.78 44.7769 165.482 44.4357 165.482 43.9921C165.482 43.6054 165.78 43.2187 166.307 43.2187C166.834 43.2187 167.257 43.7078 167.257 44.3561C167.257 45.4138 166.547 46.2099 165.769 46.5625L165.494 46.0621C166.135 45.7436 166.513 45.1294 166.524 44.6973Z" fill="#B3B3B3"/>
<path d="M171.918 51.7717L172.697 50.8618C173.304 51.4646 174.128 51.8513 174.941 51.8513C175.96 51.8513 176.533 51.3736 176.533 50.6685C176.533 49.9065 175.96 49.6676 175.182 49.3264L174.014 48.826C173.201 48.4848 172.296 47.8479 172.296 46.631C172.296 45.3116 173.464 44.3221 175.067 44.3221C176.052 44.3221 176.979 44.7316 177.621 45.3798L176.922 46.2215C176.395 45.7551 175.811 45.4708 175.067 45.4708C174.208 45.4708 173.647 45.8803 173.647 46.5399C173.647 47.2678 174.323 47.5408 175.01 47.8138L176.166 48.3028C177.163 48.7236 177.884 49.3378 177.884 50.5661C177.884 51.9081 176.762 53 174.918 53C173.762 53 172.685 52.545 171.918 51.7717Z" fill="#B3B3B3"/>
<path d="M184.915 45.5845L182.441 45.5845L182.441 44.4699L188.728 44.4699L188.728 45.5845L186.243 45.5845L186.243 52.8521L184.915 52.8521L184.915 45.5845Z" fill="#B3B3B3"/>
<path d="M190.755 44.4699L192.083 44.4699L192.083 47.8933L195.69 47.8933L195.69 44.4699L197.019 44.4699L197.019 52.8521L195.69 52.8521L195.69 49.042L192.083 49.042L192.083 52.8521L190.755 52.8521L190.755 44.4699Z" fill="#B3B3B3"/>
<path d="M199.802 44.4699L204.783 44.4699L204.783 45.5845L201.13 45.5845L201.13 47.9161L204.222 47.9161L204.222 49.0306L201.13 49.0306L201.13 51.7375L204.909 51.7375L204.909 52.8521L199.802 52.8521L199.802 44.4699Z" fill="#B3B3B3"/>
<path d="M207.245 44.4699L208.573 44.4699L208.573 52.8521L207.245 52.8521L207.245 44.4699Z" fill="#B3B3B3"/>
<path d="M211.355 44.4699L214.115 44.4699C215.856 44.4699 217.161 45.0954 217.161 46.9038C217.161 48.2004 216.463 48.9737 215.398 49.3036L217.459 52.8521L215.959 52.8521L214.047 49.4742L212.684 49.4742L212.684 52.8521L211.355 52.8521L211.355 44.4699ZM213.955 48.4164C215.18 48.4164 215.844 47.916 215.844 46.9038C215.844 45.8916 215.18 45.539 213.955 45.539L212.684 45.539L212.684 48.4164L213.955 48.4164Z" fill="#B3B3B3"/>
<path d="M224.307 45.5845L221.834 45.5845L221.834 44.4699L228.121 44.4699L228.121 45.5845L225.636 45.5845L225.636 52.8521L224.307 52.8521L224.307 45.5845Z" fill="#B3B3B3"/>
<path d="M230.147 44.4699L231.476 44.4699L231.476 52.8521L230.147 52.8521L230.147 44.4699Z" fill="#B3B3B3"/>
<path d="M234.258 44.4699L235.781 44.4699L237.327 48.7121C237.521 49.2694 237.693 49.8381 237.888 50.3954L237.945 50.3954C238.14 49.8381 238.3 49.2694 238.495 48.7121L240.018 44.4699L241.552 44.4699L241.552 52.8521L240.315 52.8521L240.315 48.7121C240.315 47.9615 240.419 46.8811 240.487 46.119L240.441 46.119L239.766 48.0525L238.3 52.0445L237.476 52.0445L235.998 48.0525L235.334 46.119L235.288 46.119C235.346 46.8811 235.449 47.9615 235.449 48.7121L235.449 52.8521L234.258 52.8521L234.258 44.4699Z" fill="#B3B3B3"/>
<path d="M244.335 44.4699L249.316 44.4699L249.316 45.5845L245.663 45.5845L245.663 47.9161L248.755 47.9161L248.755 49.0306L245.663 49.0306L245.663 51.7375L249.442 51.7375L249.442 52.8521L244.335 52.8521L244.335 44.4699Z" fill="#B3B3B3"/>
<path d="M251.492 52.0901C251.492 51.5442 251.882 51.1575 252.374 51.1575C252.866 51.1575 253.256 51.5442 253.256 52.0901C253.256 52.6361 252.866 53 252.374 53C251.882 53 251.492 52.6247 251.492 52.0901Z" fill="#B3B3B3"/>
</g>
<defs>
<clipPath id="clip0_446_1166">
<rect width="53" height="413" fill="white" transform="translate(0 53) rotate(-90)"/>
</clipPath>
</defs>
</svg>
