<svg width="637" height="82" viewBox="0 0 637 82" fill="none" xmlns="http://www.w3.org/2000/svg">
<path d="M0.719727 6.18994H2.73975V77.78H45.4398L44.9598 79.7299H0.729736V6.18994H0.719727Z" fill="#999999"/>
<path d="M92.1599 68.35C92.1599 74.09 92.5399 78.4 92.7399 79.73H90.8199C90.5299 78.91 90.05 72.96 90.15 68.55C87.46 76.4501 81.2099 81.17 69.1899 81.17C55.6299 81.17 51.21 72.45 51.21 65.48C51.21 52.76 62.4599 49.17 76.1199 49.17C84.7699 49.17 87.4699 49.1701 90.1599 49.2701V44.1401C90.1599 36.1401 86.41 28.7501 73.52 28.7501C61.6 28.7501 57.37 34.7 56.02 42.6H53.9999C55.1499 34.29 59.96 26.8 73.71 26.8C87.46 26.8 92.1699 34.7001 92.1699 43.8301V68.3401L92.1599 68.35ZM90.14 51.22C86.39 51.12 81.9699 51.1201 75.9999 51.1201C66.4799 51.1201 53.3099 52.66 53.3099 65.48C53.3099 73.69 59.6599 79.1201 69.1799 79.1201C84.6599 79.1201 90.14 70.9101 90.14 58.4001V51.22Z" fill="#999999"/>
<path d="M153.02 79.7299L122.92 6.18994H125.13L143.11 49.9899C149.65 65.9899 152.63 73.0699 153.88 76.6599H153.98C155.33 73.3799 159.17 64.56 165.13 51.02L184.75 6.19995H186.96L154.65 79.7399H153.02V79.7299Z" fill="#999999"/>
<path d="M194.939 0.75H196.959V10.6H194.939V0.75ZM194.939 28.24H196.959V79.73H194.939V28.24Z" fill="#999999"/>
<path d="M210.52 53.8901C210.71 70.1001 219.75 79.22 231.96 79.22C242.35 79.22 248.69 73.68 251.58 66.91H253.79C250.71 74.81 243.5 81.17 231.96 81.17C214.84 81.17 208.4 66.6101 208.4 54.0901C208.4 38.1901 217.54 26.8101 231.96 26.8101C250.04 26.8101 254.75 41.78 254.75 51.73V53.8801H210.52V53.8901ZM252.73 51.9401C252.35 39.3201 246.38 28.7601 231.77 28.7601C218.98 28.7601 211.1 39.1201 210.61 51.9401H252.73Z" fill="#999999"/>
<path d="M335.42 41.3699H292.53V77.78H339.26L338.78 79.7299H290.51V6.18994H337.44V8.13995H292.53V39.4199H335.42V41.3699Z" fill="#999999"/>
<path d="M347.15 44.2401C347.15 34.1901 347.05 30.2901 347.05 28.2401H348.97C349.07 29.8801 349.26 37.78 349.16 41.98C351.08 36.75 356.08 26.8 369.93 26.8C380.99 26.8 388.97 34.29 388.97 49.16V79.73H386.95V49.5701C386.95 37.1601 380.8 28.85 369.64 28.85C355.7 28.85 349.16 40.7501 349.16 52.1301V79.72H347.14V44.23L347.15 44.2401Z" fill="#999999"/>
<path d="M430.8 43.4199V79.7299H428.78V6.18994H457.15C468.79 6.18994 477.63 12.5499 477.63 24.5499C477.63 34.2899 472.92 40.7599 462.24 42.4999C471.28 44.3499 477.05 49.2699 477.05 63.4199V64.34C477.05 72.85 477.24 77.7799 477.72 79.7299H475.6C474.93 76.2399 474.93 71.63 474.93 64.34V63.4199C474.93 51.0099 470.6 43.4199 453.58 43.4199H430.79H430.8ZM430.8 41.4699H453.97C467.62 41.4699 475.51 36.8499 475.51 24.7499C475.51 13.9799 468.01 8.12994 456.18 8.12994H430.79V41.46L430.8 41.4699Z" fill="#999999"/>
<path d="M536.86 53.7801C536.86 67.9301 528.49 81.17 512.24 81.17C497.53 81.17 487.91 69.17 487.91 54.3C487.91 38.3 498.3 26.8101 512.43 26.8101C527.43 26.8101 536.85 39.43 536.85 53.79L536.86 53.7801ZM490.03 54.3C490.03 68.97 499.84 79.22 512.44 79.22C526.58 79.22 534.75 67.5301 534.75 53.8901C534.75 40.2501 525.81 28.7601 512.34 28.7601C498.87 28.7601 490.03 39.94 490.03 54.3Z" fill="#999999"/>
<path d="M546.379 65.9901C548.209 74.7101 554.749 79.22 564.359 79.22C574.459 79.22 580.999 74.81 580.999 66.6C580.999 61.47 579.939 56.1401 565.039 53.3701C548.789 50.4001 546.869 45.88 546.869 39.73C546.869 34.19 551.099 26.8101 563.599 26.8101C577.249 26.8101 581.099 35.02 581.769 40.66H579.749C578.789 35.43 575.709 28.7601 563.499 28.7601C552.349 28.7601 548.979 35.0201 548.979 39.6301C548.979 46.9101 553.019 49.0701 565.709 51.5301C580.329 54.4001 583.109 59.5301 583.109 66.5101C583.109 75.6401 575.899 81.1801 564.359 81.1801C552.239 81.1801 545.509 74.4101 544.359 66.0001H546.379V65.9901Z" fill="#999999"/>
<path d="M592.24 53.8901C592.43 70.1001 601.47 79.22 613.68 79.22C624.07 79.22 630.41 73.68 633.3 66.91H635.51C632.43 74.81 625.22 81.17 613.68 81.17C596.56 81.17 590.12 66.6101 590.12 54.0901C590.12 38.1901 599.26 26.8101 613.68 26.8101C631.76 26.8101 636.47 41.78 636.47 51.73V53.8801H592.24V53.8901ZM634.46 51.9401C634.08 39.3201 628.11 28.7601 613.5 28.7601C600.71 28.7601 592.83 39.1201 592.34 51.9401H634.46Z" fill="#999999"/>
</svg>
