<svg width="48" height="326" viewBox="0 0 48 326" fill="none" xmlns="http://www.w3.org/2000/svg">
<path d="M46.2499 0.659912V2.56991C46.2499 4.82991 44.9899 6.11991 42.5899 6.11991C40.1899 6.11991 38.8799 4.82991 38.8799 2.62991V0.659912H46.2499ZM39.8299 2.48991C39.8299 4.06991 40.7599 4.91991 42.5899 4.91991C44.4199 4.91991 45.2999 4.06991 45.2999 2.48991V1.81991H39.8299V2.48991Z" fill="#B3B3B3"/>
<path d="M42.59 7.75C44.96 7.75 46.38 9.06 46.38 10.95C46.38 12.84 44.96 14.16 42.59 14.16C40.22 14.16 38.75 12.84 38.75 10.95C38.75 9.06 40.22 7.75 42.59 7.75ZM42.59 12.97C44.32 12.97 45.37 12.17 45.37 10.95C45.37 9.73 44.32 8.94 42.59 8.94C40.86 8.94 39.76 9.73 39.76 10.95C39.76 12.17 40.87 12.97 42.59 12.97Z" fill="#B3B3B3"/>
<path d="M46.2499 16.1899V17.3799L41.9199 19.8199L40.3599 20.5899V20.6399C41.1199 20.5799 42.0099 20.4899 42.8099 20.4899H46.2499V21.5899H38.8799V20.3999L43.2198 17.9599L44.7599 17.1899V17.1399C43.9999 17.1999 43.1499 17.2899 42.3499 17.2899H38.8799V16.1899H46.2499Z" fill="#B3B3B3"/>
<path d="M46.0502 24.2999C46.0502 24.2999 45.9802 24.1499 45.9802 24.0499C45.9802 23.6499 46.2802 23.3899 46.6702 23.3899C47.0102 23.3899 47.3502 23.6499 47.3502 24.1099C47.3502 24.5699 46.9202 24.9399 46.3502 24.9399C45.4202 24.9399 44.7202 24.3199 44.4102 23.6399L44.8502 23.3999C45.1302 23.9599 45.6702 24.2899 46.0502 24.2999Z" fill="#B3B3B3"/>
<path d="M45.2699 31.0301V28.8701H46.2499V34.3601H45.2699V32.1901H38.8799V31.0301H45.2699Z" fill="#B3B3B3"/>
<path d="M42.54 38.48C44.94 38.48 46.38 39.94 46.38 41.8C46.38 42.72 45.94 43.44 45.45 43.89L44.71 43.26C45.1 42.88 45.37 42.42 45.37 41.82C45.37 40.55 44.31 39.67 42.58 39.67C40.85 39.67 39.76 40.49 39.76 41.79C39.76 42.47 40.06 42.98 40.54 43.42L39.81 44.04C39.13 43.45 38.75 42.7 38.75 41.75C38.75 39.9 40.13 38.48 42.54 38.48Z" fill="#B3B3B3"/>
<path d="M42.59 45.0901C44.96 45.0901 46.38 46.4001 46.38 48.2901C46.38 50.1801 44.96 51.5001 42.59 51.5001C40.22 51.5001 38.75 50.1801 38.75 48.2901C38.75 46.4001 40.22 45.0901 42.59 45.0901ZM42.59 50.3101C44.32 50.3101 45.37 49.5101 45.37 48.2901C45.37 47.0701 44.32 46.2801 42.59 46.2801C40.86 46.2801 39.76 47.0701 39.76 48.2901C39.76 49.5101 40.87 50.3101 42.59 50.3101Z" fill="#B3B3B3"/>
<path d="M46.2499 53.53V54.86L42.5199 56.21C42.0299 56.38 41.5299 56.53 41.0399 56.7V56.75C41.5299 56.92 42.0299 57.06 42.5199 57.23L46.2499 58.56V59.9H38.8799V58.82H42.5199C43.1799 58.82 44.1299 58.91 44.7999 58.97V58.93L43.0999 58.34L39.5899 57.06V56.34L43.0999 55.05L44.7999 54.47V54.43C44.1299 54.48 43.1799 54.57 42.5199 54.57H38.8799V53.53H46.2499Z" fill="#B3B3B3"/>
<path d="M46.2499 62.3301V64.5601C46.2499 66.2001 45.6799 67.3701 44.0199 67.3701C42.3599 67.3701 41.6699 66.2001 41.6699 64.6001V63.4901H38.8799V62.3301H46.2499ZM42.5999 64.4901C42.5999 65.6701 43.0499 66.2301 44.0199 66.2301C44.9899 66.2301 45.3099 65.6201 45.3099 64.4501V63.4901H42.5999V64.4901Z" fill="#B3B3B3"/>
<path d="M46.2499 70.21V71.55L38.8799 73.99V72.76L40.9799 72.14V69.58L38.8799 68.95V67.77L46.2499 70.21ZM41.8899 69.85V71.86L42.8799 71.57C43.6799 71.32 44.4999 71.1 45.3299 70.88V70.83C44.4899 70.62 43.6799 70.39 42.8799 70.15L41.8899 69.85Z" fill="#B3B3B3"/>
<path d="M46.2499 75.46V77.87C46.2499 79.39 45.6999 80.53 44.1099 80.53C42.9699 80.53 42.2899 79.92 41.9999 78.99L38.8799 80.79V79.48L41.8499 77.81V76.62H38.8799V75.46H46.2499ZM42.7799 77.73C42.7799 78.8 43.2199 79.38 44.1099 79.38C44.9999 79.38 45.3099 78.8 45.3099 77.73V76.62H42.7799V77.73Z" fill="#B3B3B3"/>
<path d="M46.2499 82.52V86.87H45.2699V83.68H43.2198V86.38H42.2399V83.68H39.8599V86.98H38.8799V82.52H46.2499Z" fill="#B3B3B3"/>
<path d="M41.6699 92.98L46.2499 90.77V92.01L44.2899 92.86C43.7399 93.09 43.2299 93.3 42.6699 93.55V93.59C43.2299 93.83 43.7399 94.07 44.2899 94.29L46.2499 95.15V96.36L41.6699 94.14H38.8799V92.98H41.6699Z" fill="#B3B3B3"/>
<path d="M42.59 97.23C44.96 97.23 46.38 98.54 46.38 100.43C46.38 102.32 44.96 103.64 42.59 103.64C40.22 103.64 38.75 102.32 38.75 100.43C38.75 98.54 40.22 97.23 42.59 97.23ZM42.59 102.45C44.32 102.45 45.37 101.65 45.37 100.43C45.37 99.21 44.32 98.42 42.59 98.42C40.86 98.42 39.76 99.21 39.76 100.43C39.76 101.65 40.87 102.45 42.59 102.45Z" fill="#B3B3B3"/>
<path d="M42.04 105.63H46.25V106.79H41.96C40.3 106.79 39.76 107.45 39.76 108.37C39.76 109.29 40.3 109.98 41.96 109.98H46.25V111.1H42.04C39.64 111.1 38.75 110 38.75 108.37C38.75 106.74 39.64 105.63 42.04 105.63Z" fill="#B3B3B3"/>
<path d="M46.2499 113.5V115.91C46.2499 117.43 45.6999 118.57 44.1099 118.57C42.9699 118.57 42.2899 117.96 41.9999 117.03L38.8799 118.83V117.52L41.8499 115.85V114.66H38.8799V113.5H46.2499ZM42.7799 115.77C42.7799 116.84 43.2199 117.42 44.1099 117.42C44.9999 117.42 45.3099 116.84 45.3099 115.77V114.66H42.7799V115.77Z" fill="#B3B3B3"/>
<path d="M46.2499 123.31V124.47H39.8599V127.59H38.8799V123.31H46.2499Z" fill="#B3B3B3"/>
<path d="M46.2499 129.39V130.55H38.8799V129.39H46.2499Z" fill="#B3B3B3"/>
<path d="M46.2499 132.98V137.34H45.2699V134.14H43.0199V136.86H42.0499V134.14H38.8799V132.98H46.2499Z" fill="#B3B3B3"/>
<path d="M46.2499 139.14V143.49H45.2699V140.3H43.2198V143H42.2399V140.3H39.8599V143.6H38.8799V139.14H46.2499Z" fill="#B3B3B3"/>
<path d="M46.2499 147.65V148.84L42.4099 149.53C41.6299 149.66 40.8399 149.79 40.0499 149.92V149.96C40.8399 150.12 41.6299 150.29 42.4099 150.46L46.2499 151.41V152.44L42.4099 153.39C41.6399 153.56 40.8499 153.72 40.0499 153.89V153.94C40.8499 154.06 41.6399 154.19 42.4099 154.31L46.2499 155.01V156.12L38.8799 154.67V153.24L42.9698 152.25C43.5498 152.12 44.0999 152.01 44.6599 151.91V151.87C44.0999 151.76 43.5498 151.64 42.9698 151.52L38.8799 150.55V149.15L46.2499 147.65Z" fill="#B3B3B3"/>
<path d="M46.2499 157.83V158.99H38.8799V157.83H46.2499Z" fill="#B3B3B3"/>
<path d="M45.2699 162.92V160.76H46.2499V166.25H45.2699V164.08H38.8799V162.92H45.2699Z" fill="#B3B3B3"/>
<path d="M46.2499 168.02V169.18H43.2399V172.33H46.2499V173.49H38.8799V172.33H42.2299V169.18H38.8799V168.02H46.2499Z" fill="#B3B3B3"/>
<path d="M42.59 178.27C44.96 178.27 46.38 179.58 46.38 181.47C46.38 183.36 44.96 184.68 42.59 184.68C40.22 184.68 38.75 183.36 38.75 181.47C38.75 179.58 40.22 178.27 42.59 178.27ZM42.59 183.49C44.32 183.49 45.37 182.69 45.37 181.47C45.37 180.25 44.32 179.46 42.59 179.46C40.86 179.46 39.76 180.25 39.76 181.47C39.76 182.69 40.87 183.49 42.59 183.49Z" fill="#B3B3B3"/>
<path d="M45.2699 187.93V185.77H46.2499V191.26H45.2699V189.09H38.8799V187.93H45.2699Z" fill="#B3B3B3"/>
<path d="M46.2499 193.03V194.19H43.2399V197.34H46.2499V198.5H38.8799V197.34H42.2299V194.19H38.8799V193.03H46.2499Z" fill="#B3B3B3"/>
<path d="M46.2499 200.93V205.28H45.2699V202.09H43.2198V204.79H42.2399V202.09H39.8599V205.39H38.8799V200.93H46.2499Z" fill="#B3B3B3"/>
<path d="M46.2499 207.43V209.84C46.2499 211.36 45.6999 212.5 44.1099 212.5C42.9699 212.5 42.2899 211.89 41.9999 210.96L38.8799 212.76V211.45L41.8499 209.78V208.59H38.8799V207.43H46.2499ZM42.7799 209.7C42.7799 210.77 43.2199 211.35 44.1099 211.35C44.9999 211.35 45.3099 210.77 45.3099 209.7V208.59H42.7799V209.7Z" fill="#B3B3B3"/>
<path d="M39.83 213.82L40.63 214.5C40.1 215.03 39.76 215.75 39.76 216.46C39.76 217.35 40.18 217.85 40.8 217.85C41.47 217.85 41.68 217.35 41.98 216.67L42.42 215.65C42.72 214.94 43.28 214.15 44.35 214.15C45.51 214.15 46.38 215.17 46.38 216.57C46.38 217.43 46.02 218.24 45.45 218.8L44.71 218.19C45.12 217.73 45.37 217.22 45.37 216.57C45.37 215.82 45.01 215.33 44.43 215.33C43.79 215.33 43.55 215.92 43.31 216.52L42.88 217.53C42.51 218.4 41.97 219.03 40.89 219.03C39.71 219.03 38.75 218.05 38.75 216.44C38.75 215.43 39.15 214.49 39.83 213.82Z" fill="#B3B3B3"/>
<path d="M39.55 220.67C40.03 220.67 40.37 221.01 40.37 221.44C40.37 221.87 40.03 222.21 39.55 222.21C39.07 222.21 38.75 221.87 38.75 221.44C38.75 221.01 39.08 220.67 39.55 220.67Z" fill="#B3B3B3"/>
<path d="M26.2699 2.16V0H27.2499V5.49H26.2699V3.32H19.8799V2.16H26.2699Z" fill="#B3B3B3"/>
<path d="M27.2499 7.26001V8.42001H24.2399V11.57H27.2499V12.73H19.8799V11.57H23.2299V8.42001H19.8799V7.26001H27.2499Z" fill="#B3B3B3"/>
<path d="M27.2499 15.1599V19.5099H26.2699V16.3199H24.2198V19.0199H23.2399V16.3199H20.8599V19.6199H19.8799V15.1599H27.2499Z" fill="#B3B3B3"/>
<path d="M27.2499 21.6599V24.0699C27.2499 25.5899 26.6999 26.7299 25.1099 26.7299C23.9699 26.7299 23.2899 26.1199 22.9999 25.1899L19.8799 26.9899V25.6799L22.8499 24.0099V22.8199H19.8799V21.6599H27.2499ZM23.7799 23.9299C23.7799 24.9999 24.2199 25.5799 25.1099 25.5799C25.9999 25.5799 26.3099 24.9999 26.3099 23.9299V22.8199H23.7799V23.9299Z" fill="#B3B3B3"/>
<path d="M27.2499 28.72V33.07H26.2699V29.88H24.2198V32.58H23.2399V29.88H20.8599V33.18H19.8799V28.72H27.2499Z" fill="#B3B3B3"/>
<path d="M27.0502 35.4901C27.0502 35.4901 26.9802 35.3401 26.9802 35.2401C26.9802 34.8401 27.2802 34.5801 27.6702 34.5801C28.0102 34.5801 28.3502 34.8401 28.3502 35.3001C28.3502 35.7601 27.9202 36.1301 27.3502 36.1301C26.4202 36.1301 25.7202 35.5101 25.4102 34.8301L25.8502 34.5901C26.1302 35.1501 26.6702 35.4801 27.0502 35.4901Z" fill="#B3B3B3"/>
<path d="M20.83 40.2L21.63 40.88C21.1 41.41 20.76 42.13 20.76 42.84C20.76 43.73 21.18 44.2299 21.8 44.2299C22.47 44.2299 22.68 43.7299 22.98 43.0499L23.42 42.0299C23.72 41.3199 24.28 40.5299 25.35 40.5299C26.51 40.5299 27.38 41.55 27.38 42.95C27.38 43.81 27.02 44.62 26.45 45.18L25.71 44.57C26.12 44.11 26.37 43.6 26.37 42.95C26.37 42.2 26.01 41.7099 25.43 41.7099C24.79 41.7099 24.55 42.3 24.31 42.9L23.88 43.91C23.51 44.78 22.97 45.41 21.89 45.41C20.71 45.41 19.75 44.43 19.75 42.82C19.75 41.81 20.15 40.87 20.83 40.2Z" fill="#B3B3B3"/>
<path d="M27.2499 50.05V51.2401L22.9199 53.68L21.3599 54.4501V54.5C22.1199 54.44 23.0099 54.35 23.8099 54.35H27.2499V55.4501H19.8799V54.26L24.2198 51.82L25.7599 51.05V51C24.9999 51.06 24.1499 51.1501 23.3499 51.1501H19.8799V50.05H27.2499Z" fill="#B3B3B3"/>
<path d="M23.59 57.49C25.96 57.49 27.38 58.8 27.38 60.69C27.38 62.58 25.96 63.9 23.59 63.9C21.22 63.9 19.75 62.58 19.75 60.69C19.75 58.8 21.22 57.49 23.59 57.49ZM23.59 62.71C25.32 62.71 26.37 61.91 26.37 60.69C26.37 59.47 25.32 58.68 23.59 58.68C21.86 58.68 20.76 59.47 20.76 60.69C20.76 61.91 21.87 62.71 23.59 62.71Z" fill="#B3B3B3"/>
<path d="M23.54 68.28C25.94 68.28 27.38 69.74 27.38 71.6C27.38 72.52 26.94 73.24 26.45 73.69L25.71 73.06C26.1 72.68 26.37 72.22 26.37 71.62C26.37 70.35 25.31 69.47 23.58 69.47C21.85 69.47 20.76 70.29 20.76 71.59C20.76 72.27 21.06 72.78 21.54 73.22L20.81 73.84C20.13 73.25 19.75 72.5 19.75 71.55C19.75 69.7 21.13 68.28 23.54 68.28Z" fill="#B3B3B3"/>
<path d="M23.59 74.8899C25.96 74.8899 27.38 76.1999 27.38 78.0899C27.38 79.9799 25.96 81.2999 23.59 81.2999C21.22 81.2999 19.75 79.9799 19.75 78.0899C19.75 76.1999 21.22 74.8899 23.59 74.8899ZM23.59 80.1099C25.32 80.1099 26.37 79.3099 26.37 78.0899C26.37 76.8699 25.32 76.0799 23.59 76.0799C21.86 76.0799 20.76 76.8699 20.76 78.0899C20.76 79.3099 21.87 80.1099 23.59 80.1099Z" fill="#B3B3B3"/>
<path d="M27.2499 83.3301V84.6601L23.5199 86.0101C23.0299 86.1801 22.5299 86.3301 22.0399 86.5001V86.5501C22.5299 86.7201 23.0299 86.8601 23.5199 87.0301L27.2499 88.3601V89.7001H19.8799V88.6201H23.5199C24.1799 88.6201 25.1299 88.7101 25.7999 88.7701V88.7301L24.0999 88.1401L20.5899 86.8601V86.1401L24.0999 84.8501L25.7999 84.2701V84.2301C25.1299 84.2801 24.1799 84.3701 23.5199 84.3701H19.8799V83.3301H27.2499Z" fill="#B3B3B3"/>
<path d="M27.2499 92.1299V94.3599C27.2499 95.9999 26.6799 97.1699 25.0199 97.1699C23.3599 97.1699 22.6699 95.9999 22.6699 94.3999V93.2899H19.8799V92.1299H27.2499ZM23.5999 94.2899C23.5999 95.4699 24.0499 96.0299 25.0199 96.0299C25.9899 96.0299 26.3099 95.4199 26.3099 94.2499V93.2899H23.5999V94.2899Z" fill="#B3B3B3"/>
<path d="M27.2499 100.01V101.35L19.8799 103.79V102.56L21.9799 101.94V99.3801L19.8799 98.7501V97.5701L27.2499 100.01ZM22.8899 99.6501V101.66L23.8799 101.37C24.6799 101.12 25.4999 100.9 26.3299 100.68V100.63C25.4899 100.42 24.6799 100.19 23.8799 99.9501L22.8899 99.6501Z" fill="#B3B3B3"/>
<path d="M27.2499 105.26V107.67C27.2499 109.19 26.6999 110.33 25.1099 110.33C23.9699 110.33 23.2899 109.72 22.9999 108.79L19.8799 110.59V109.28L22.8499 107.61V106.42H19.8799V105.26H27.2499ZM23.7799 107.53C23.7799 108.6 24.2199 109.18 25.1099 109.18C25.9999 109.18 26.3099 108.6 26.3099 107.53V106.42H23.7799V107.53Z" fill="#B3B3B3"/>
<path d="M27.2499 112.32V113.48H19.8799V112.32H27.2499Z" fill="#B3B3B3"/>
<path d="M20.83 115.39L21.63 116.07C21.1 116.6 20.76 117.32 20.76 118.03C20.76 118.92 21.18 119.42 21.8 119.42C22.47 119.42 22.68 118.92 22.98 118.24L23.42 117.22C23.72 116.51 24.28 115.72 25.35 115.72C26.51 115.72 27.38 116.74 27.38 118.14C27.38 119 27.02 119.81 26.45 120.37L25.71 119.76C26.12 119.3 26.37 118.79 26.37 118.14C26.37 117.39 26.01 116.9 25.43 116.9C24.79 116.9 24.55 117.49 24.31 118.09L23.88 119.1C23.51 119.97 22.97 120.6 21.89 120.6C20.71 120.6 19.75 119.62 19.75 118.01C19.75 117 20.15 116.06 20.83 115.39Z" fill="#B3B3B3"/>
<path d="M23.59 122.09C25.96 122.09 27.38 123.4 27.38 125.29C27.38 127.18 25.96 128.5 23.59 128.5C21.22 128.5 19.75 127.18 19.75 125.29C19.75 123.4 21.22 122.09 23.59 122.09ZM23.59 127.31C25.32 127.31 26.37 126.51 26.37 125.29C26.37 124.07 25.32 123.28 23.59 123.28C21.86 123.28 20.76 124.07 20.76 125.29C20.76 126.51 21.87 127.31 23.59 127.31Z" fill="#B3B3B3"/>
<path d="M27.2499 130.53V131.72L22.9199 134.16L21.3599 134.93V134.98C22.1199 134.92 23.0099 134.83 23.8099 134.83H27.2499V135.93H19.8799V134.74L24.2198 132.3L25.7599 131.53V131.48C24.9999 131.54 24.1499 131.63 23.3499 131.63H19.8799V130.53H27.2499Z" fill="#B3B3B3"/>
<path d="M27.2499 141.12V143.4C27.2499 144.91 26.7599 146 25.4299 146C24.7299 146 24.0599 145.61 23.8399 144.95H23.7899C23.6099 145.79 23.0399 146.4 22.0399 146.4C20.5799 146.4 19.8799 145.21 19.8799 143.58V141.12H27.2499ZM20.7899 143.45C20.7899 144.6 21.1999 145.26 22.0999 145.26C22.9299 145.26 23.2999 144.62 23.2999 143.45V142.28H20.7899V143.45ZM24.1699 143.27C24.1699 144.39 24.5899 144.86 25.2799 144.86C26.0499 144.86 26.3399 144.34 26.3399 143.3V142.28H24.1699V143.27Z" fill="#B3B3B3"/>
<path d="M27.2499 148.29V152.64H26.2699V149.45H24.2198V152.15H23.2399V149.45H20.8599V152.75H19.8799V148.29H27.2499Z" fill="#B3B3B3"/>
<path d="M26.2699 156.29V154.13H27.2499V159.62H26.2699V157.45H19.8799V156.29H26.2699Z" fill="#B3B3B3"/>
<path d="M27.2499 160.65V161.84L23.4099 162.53C22.6299 162.66 21.8399 162.79 21.0499 162.92V162.96C21.8399 163.12 22.6299 163.29 23.4099 163.46L27.2499 164.41V165.44L23.4099 166.39C22.6399 166.56 21.8499 166.72 21.0499 166.89V166.94C21.8499 167.06 22.6399 167.19 23.4099 167.31L27.2499 168.01V169.12L19.8799 167.67V166.24L23.9698 165.25C24.5498 165.12 25.0999 165.01 25.6599 164.91V164.87C25.0999 164.76 24.5498 164.64 23.9698 164.52L19.8799 163.55V162.15L27.2499 160.65Z" fill="#B3B3B3"/>
<path d="M27.2499 170.83V175.18H26.2699V171.99H24.2198V174.69H23.2399V171.99H20.8599V175.29H19.8799V170.83H27.2499Z" fill="#B3B3B3"/>
<path d="M27.2499 177.33V181.68H26.2699V178.49H24.2198V181.19H23.2399V178.49H20.8599V181.79H19.8799V177.33H27.2499Z" fill="#B3B3B3"/>
<path d="M27.2499 183.83V185.02L22.9199 187.46L21.3599 188.23V188.28C22.1199 188.22 23.0099 188.13 23.8099 188.13H27.2499V189.23H19.8799V188.04L24.2198 185.6L25.7599 184.83V184.78C24.9999 184.84 24.1499 184.93 23.3499 184.93H19.8799V183.83H27.2499Z" fill="#B3B3B3"/>
<path d="M26.2699 195.92V193.76H27.2499V199.25H26.2699V197.08H19.8799V195.92H26.2699Z" fill="#B3B3B3"/>
<path d="M27.2499 201.02V202.18H24.2399V205.33H27.2499V206.49H19.8799V205.33H23.2299V202.18H19.8799V201.02H27.2499Z" fill="#B3B3B3"/>
<path d="M27.2499 208.92V213.27H26.2699V210.08H24.2198V212.78H23.2399V210.08H20.8599V213.38H19.8799V208.92H27.2499Z" fill="#B3B3B3"/>
<path d="M20.83 217.65L21.63 218.33C21.1 218.86 20.76 219.58 20.76 220.29C20.76 221.18 21.18 221.68 21.8 221.68C22.47 221.68 22.68 221.18 22.98 220.5L23.42 219.48C23.72 218.77 24.28 217.98 25.35 217.98C26.51 217.98 27.38 219 27.38 220.4C27.38 221.26 27.02 222.07 26.45 222.63L25.71 222.02C26.12 221.56 26.37 221.05 26.37 220.4C26.37 219.65 26.01 219.16 25.43 219.16C24.79 219.16 24.55 219.75 24.31 220.35L23.88 221.36C23.51 222.23 22.97 222.86 21.89 222.86C20.71 222.86 19.75 221.88 19.75 220.27C19.75 219.26 20.15 218.32 20.83 217.65Z" fill="#B3B3B3"/>
<path d="M23.04 224.71H27.25V225.87H22.96C21.3 225.87 20.76 226.53 20.76 227.45C20.76 228.37 21.3 229.06 22.96 229.06H27.25V230.18H23.04C20.64 230.18 19.75 229.08 19.75 227.45C19.75 225.82 20.64 224.71 23.04 224.71Z" fill="#B3B3B3"/>
<path d="M27.2499 232.58V233.77L22.9199 236.21L21.3599 236.98V237.03C22.1199 236.97 23.0099 236.88 23.8099 236.88H27.2499V237.98H19.8799V236.79L24.2198 234.35L25.7599 233.58V233.53C24.9999 233.59 24.1499 233.68 23.3499 233.68H19.8799V232.58H27.2499Z" fill="#B3B3B3"/>
<path d="M27.2499 244.64V245.98L19.8799 248.42V247.19L21.9799 246.57V244.01L19.8799 243.38V242.2L27.2499 244.64ZM22.8899 244.28V246.29L23.8799 246C24.6799 245.75 25.4999 245.53 26.3299 245.31V245.26C25.4899 245.05 24.6799 244.82 23.8799 244.58L22.8899 244.28Z" fill="#B3B3B3"/>
<path d="M27.2499 249.89V251.08L22.9199 253.52L21.3599 254.29V254.34C22.1199 254.28 23.0099 254.19 23.8099 254.19H27.2499V255.29H19.8799V254.1L24.2198 251.66L25.7599 250.89V250.84C24.9999 250.9 24.1499 250.99 23.3499 250.99H19.8799V249.89H27.2499Z" fill="#B3B3B3"/>
<path d="M27.2499 257.73V259.64C27.2499 261.9 25.9899 263.19 23.5899 263.19C21.1899 263.19 19.8799 261.9 19.8799 259.7V257.73H27.2499ZM20.8299 259.56C20.8299 261.14 21.7599 261.99 23.5899 261.99C25.4199 261.99 26.2999 261.14 26.2999 259.56V258.89H20.8299V259.56Z" fill="#B3B3B3"/>
<path d="M26.2699 269.47V267.31H27.2499V272.8H26.2699V270.63H19.8799V269.47H26.2699Z" fill="#B3B3B3"/>
<path d="M27.2499 274.57V275.73H24.2399V278.88H27.2499V280.04H19.8799V278.88H23.2299V275.73H19.8799V274.57H27.2499Z" fill="#B3B3B3"/>
<path d="M27.2499 282.47V286.82H26.2699V283.63H24.2198V286.33H23.2399V283.63H20.8599V286.93H19.8799V282.47H27.2499Z" fill="#B3B3B3"/>
<path d="M27.2499 291.72V293.05L23.5199 294.4C23.0299 294.57 22.5299 294.72 22.0399 294.89V294.94C22.5299 295.11 23.0299 295.25 23.5199 295.42L27.2499 296.75V298.09H19.8799V297.01H23.5199C24.1799 297.01 25.1299 297.1 25.7999 297.16V297.12L24.0999 296.53L20.5899 295.25V294.53L24.0999 293.24L25.7999 292.66V292.62C25.1299 292.67 24.1799 292.76 23.5199 292.76H19.8799V291.72H27.2499Z" fill="#B3B3B3"/>
<path d="M23.59 300.12C25.96 300.12 27.38 301.43 27.38 303.32C27.38 305.21 25.96 306.53 23.59 306.53C21.22 306.53 19.75 305.21 19.75 303.32C19.75 301.43 21.22 300.12 23.59 300.12ZM23.59 305.33C25.32 305.33 26.37 304.53 26.37 303.31C26.37 302.09 25.32 301.3 23.59 301.3C21.86 301.3 20.76 302.09 20.76 303.31C20.76 304.53 21.87 305.33 23.59 305.33Z" fill="#B3B3B3"/>
<path d="M23.59 308.16C25.96 308.16 27.38 309.47 27.38 311.36C27.38 313.25 25.96 314.57 23.59 314.57C21.22 314.57 19.75 313.25 19.75 311.36C19.75 309.47 21.22 308.16 23.59 308.16ZM23.59 313.37C25.32 313.37 26.37 312.57 26.37 311.35C26.37 310.13 25.32 309.34 23.59 309.34C21.86 309.34 20.76 310.13 20.76 311.35C20.76 312.57 21.87 313.37 23.59 313.37Z" fill="#B3B3B3"/>
<path d="M27.2499 316.6V317.79L22.9199 320.23L21.3599 321V321.05C22.1199 320.99 23.0099 320.9 23.8099 320.9H27.2499V322H19.8799V320.81L24.2198 318.37L25.7599 317.6V317.55C24.9999 317.61 24.1499 317.7 23.3499 317.7H19.8799V316.6H27.2499Z" fill="#B3B3B3"/>
<path d="M20.55 324.19C21.03 324.19 21.37 324.53 21.37 324.96C21.37 325.39 21.03 325.73 20.55 325.73C20.07 325.73 19.75 325.39 19.75 324.96C19.75 324.53 20.08 324.19 20.55 324.19Z" fill="#B3B3B3"/>
<path d="M7.2699 2.16V0H8.24988V5.49H7.2699V3.32H0.879883V2.16H7.2699Z" fill="#B3B3B3"/>
<path d="M8.24988 7.26001V8.42001H5.23987V11.57H8.24988V12.73H0.879883V11.57H4.22986V8.42001H0.879883V7.26001H8.24988Z" fill="#B3B3B3"/>
<path d="M8.24988 15.1599V19.5099H7.2699V16.3199H5.21985V19.0199H4.23987V16.3199H1.85986V19.6199H0.879883V15.1599H8.24988Z" fill="#B3B3B3"/>
<path d="M3.66986 22.8699L8.24988 20.6599V21.8999L6.28986 22.7499C5.73986 22.9799 5.22986 23.1899 4.66986 23.4399V23.4799C5.22986 23.7199 5.73986 23.9599 6.28986 24.1799L8.24988 25.0399V26.2499L3.66986 24.0299H0.879883V22.8699H3.66986Z" fill="#B3B3B3"/>
<path d="M1.83002 29.9199L2.63 30.5999C2.1 31.1299 1.76001 31.8499 1.76001 32.5599C1.76001 33.4499 2.17999 33.9499 2.79999 33.9499C3.46999 33.9499 3.67998 33.4499 3.97998 32.7699L4.41998 31.7499C4.71998 31.0399 5.27998 30.2499 6.34998 30.2499C7.50998 30.2499 8.38 31.2699 8.38 32.6699C8.38 33.5299 8.02001 34.3399 7.45001 34.8999L6.71002 34.2899C7.12002 33.8299 7.37 33.3199 7.37 32.6699C7.37 31.9199 7.00999 31.4299 6.42999 31.4299C5.78999 31.4299 5.55 32.0199 5.31 32.6199L4.88 33.6299C4.51 34.4999 3.97001 35.1299 2.89001 35.1299C1.71001 35.1299 0.75 34.1499 0.75 32.5399C0.75 31.5299 1.15002 30.5899 1.83002 29.9199Z" fill="#B3B3B3"/>
<path d="M8.24988 37.02V38.18H5.23987V41.33H8.24988V42.49H0.879883V41.33H4.22986V38.18H0.879883V37.02H8.24988Z" fill="#B3B3B3"/>
<path d="M8.24988 44.9199V46.0799H0.879883V44.9199H8.24988Z" fill="#B3B3B3"/>
<path d="M8.24988 48.51V49.7L3.91986 52.14L2.35986 52.91V52.96C3.11986 52.9 4.00988 52.81 4.80988 52.81H8.24988V53.91H0.879883V52.72L5.21985 50.28L6.75989 49.51V49.46C5.99989 49.52 5.14985 49.61 4.34985 49.61H0.879883V48.51H8.24988Z" fill="#B3B3B3"/>
<path d="M8.24988 56.3501V60.7001H7.2699V57.5101H5.21985V60.2101H4.23987V57.5101H1.85986V60.8101H0.879883V56.3501H8.24988Z" fill="#B3B3B3"/>
<path d="M8.24988 64.8601V66.0501L4.40985 66.7401C3.62985 66.8701 2.83987 67.0001 2.04987 67.1301V67.1701C2.83987 67.3301 3.62985 67.5001 4.40985 67.6701L8.24988 68.6201V69.6501L4.40985 70.6001C3.63985 70.7701 2.84987 70.9301 2.04987 71.1001V71.1501C2.84987 71.2701 3.63985 71.4001 4.40985 71.5201L8.24988 72.2201V73.3301L0.879883 71.8801V70.4501L4.96985 69.4601C5.54985 69.3301 6.09985 69.2201 6.65985 69.1201V69.0801C6.09985 68.9701 5.54985 68.8501 4.96985 68.7301L0.879883 67.7601V66.3601L8.24988 64.8601Z" fill="#B3B3B3"/>
<path d="M8.24988 75.04V76.2H5.23987V79.35H8.24988V80.51H0.879883V79.35H4.22986V76.2H0.879883V75.04H8.24988Z" fill="#B3B3B3"/>
<path d="M8.24988 82.9399V87.2899H7.2699V84.0999H5.21985V86.7999H4.23987V84.0999H1.85986V87.3999H0.879883V82.9399H8.24988Z" fill="#B3B3B3"/>
<path d="M8.24988 89.4399V90.6299L3.91986 93.0699L2.35986 93.8399V93.8899C3.11986 93.8299 4.00988 93.7399 4.80988 93.7399H8.24988V94.8399H0.879883V93.6499L5.21985 91.2099L6.75989 90.4399V90.3899C5.99989 90.4499 5.14985 90.5399 4.34985 90.5399H0.879883V89.4399H8.24988Z" fill="#B3B3B3"/>
<path d="M8.24988 100.03V101.19H0.879883V100.03H8.24988Z" fill="#B3B3B3"/>
<path d="M7.2699 105.12V102.96H8.24988V108.45H7.2699V106.28H0.879883V105.12H7.2699Z" fill="#B3B3B3"/>
<path d="M8.05017 110.49C8.05017 110.49 7.98016 110.34 7.98016 110.24C7.98016 109.84 8.28017 109.58 8.67017 109.58C9.01017 109.58 9.35016 109.84 9.35016 110.3C9.35016 110.76 8.92016 111.13 8.35016 111.13C7.42016 111.13 6.72016 110.51 6.41016 109.83L6.85016 109.59C7.13016 110.15 7.67017 110.48 8.05017 110.49Z" fill="#B3B3B3"/>
<path d="M1.83002 115.2L2.63 115.88C2.1 116.41 1.76001 117.13 1.76001 117.84C1.76001 118.73 2.17999 119.23 2.79999 119.23C3.46999 119.23 3.67998 118.73 3.97998 118.05L4.41998 117.03C4.71998 116.32 5.27998 115.53 6.34998 115.53C7.50998 115.53 8.38 116.55 8.38 117.95C8.38 118.81 8.02001 119.62 7.45001 120.18L6.71002 119.57C7.12002 119.11 7.37 118.6 7.37 117.95C7.37 117.2 7.00999 116.71 6.42999 116.71C5.78999 116.71 5.55 117.3 5.31 117.9L4.88 118.91C4.51 119.78 3.97001 120.41 2.89001 120.41C1.71001 120.41 0.75 119.43 0.75 117.82C0.75 116.81 1.15002 115.87 1.83002 115.2Z" fill="#B3B3B3"/>
<path d="M7.2699 126.55V124.39H8.24988V129.88H7.2699V127.71H0.879883V126.55H7.2699Z" fill="#B3B3B3"/>
<path d="M8.24988 131.65V132.81H5.23987V135.96H8.24988V137.12H0.879883V135.96H4.22986V132.81H0.879883V131.65H8.24988Z" fill="#B3B3B3"/>
<path d="M8.24988 139.55V143.9H7.2699V140.71H5.21985V143.41H4.23987V140.71H1.85986V144.01H0.879883V139.55H8.24988Z" fill="#B3B3B3"/>
<path d="M8.24988 146.05V147.21H0.879883V146.05H8.24988Z" fill="#B3B3B3"/>
<path d="M8.24988 149.64V152.05C8.24988 153.57 7.69986 154.71 6.10986 154.71C4.96986 154.71 4.28988 154.1 3.99988 153.17L0.879883 154.97V153.66L3.84985 151.99V150.8H0.879883V149.64H8.24988ZM4.77991 151.91C4.77991 152.98 5.21986 153.56 6.10986 153.56C6.99986 153.56 7.30988 152.98 7.30988 151.91V150.8H4.77991V151.91Z" fill="#B3B3B3"/>
<path d="M7.2699 160.95V158.79H8.24988V164.28H7.2699V162.11H0.879883V160.95H7.2699Z" fill="#B3B3B3"/>
<path d="M8.24988 166.05V167.21H0.879883V166.05H8.24988Z" fill="#B3B3B3"/>
<path d="M8.24988 169.64V170.97L4.5199 172.32C4.0299 172.49 3.52986 172.64 3.03986 172.81V172.86C3.52986 173.03 4.0299 173.17 4.5199 173.34L8.24988 174.67V176.01H0.879883V174.93H4.5199C5.1799 174.93 6.12987 175.02 6.79987 175.08V175.04L5.09985 174.45L1.5899 173.17V172.45L5.09985 171.16L6.79987 170.58V170.54C6.12987 170.59 5.1799 170.68 4.5199 170.68H0.879883V169.64H8.24988Z" fill="#B3B3B3"/>
<path d="M8.24988 178.44V182.79H7.2699V179.6H5.21985V182.3H4.23987V179.6H1.85986V182.9H0.879883V178.44H8.24988Z" fill="#B3B3B3"/>
<path d="M1.54999 184.69C2.02999 184.69 2.37 185.03 2.37 185.46C2.37 185.89 2.02999 186.23 1.54999 186.23C1.06999 186.23 0.75 185.89 0.75 185.46C0.75 185.03 1.07999 184.69 1.54999 184.69Z" fill="#B3B3B3"/>
</svg>
