<svg width="341" height="116" viewBox="0 0 341 116" fill="none" xmlns="http://www.w3.org/2000/svg">
<g clip-path="url(#clip0_446_1837)">
<path d="M36.18 4.87995C36.18 5.22995 36.05 5.52995 35.78 5.75995C35.51 5.99995 35.16 6.10995 34.71 6.10995H23.85V13.15H32.19C32.58 13.15 32.92 13.27 33.2 13.5C33.48 13.74 33.62 14.03 33.62 14.38V38.93C33.62 39.2799 33.48 39.57 33.2 39.81C32.92 40.04 32.58 40.16 32.19 40.16H30.43C30.04 40.16 29.7 40.04 29.42 39.81C29.14 39.57 29 39.2799 29 38.93V36.6899H7.46V39.11C7.46 39.4599 7.33 39.76 7.06 39.99C6.79 40.23 6.44 40.34 5.99 40.34H4.27C3.82 40.34 3.47 40.22 3.22 39.99C2.97 39.76 2.84 39.4599 2.84 39.11V14.39C2.84 14.04 2.97 13.75 3.22 13.51C3.47 13.28 3.82 13.16 4.27 13.16H11.73V6.11995H1.47C1.02 6.11995 0.67 5.99995 0.4 5.76995C0.13 5.53995 0 5.23995 0 4.88995C0 4.50995 0.13 4.21995 0.4 4.00995C0.67 3.79995 1.02 3.69995 1.47 3.69995H34.72C35.17 3.69995 35.52 3.79995 35.79 4.00995C36.06 4.21995 36.19 4.50995 36.19 4.88995L36.18 4.87995ZM29.01 34.45V28.3799H24.19C23.16 28.3799 22.32 28.2999 21.7 28.1399C21.08 27.9799 20.59 27.7099 20.25 27.33C19.91 26.95 19.69 26.46 19.58 25.86C19.47 25.26 19.41 24.5199 19.41 23.6399V15.37H16.27C16.27 16.87 16.16 18.3799 15.93 19.9C15.71 21.43 15.3 22.92 14.71 24.3899C14.12 25.8599 13.33 27.2699 12.34 28.6399C11.35 30 10.07 31.27 8.5 32.45L7.24 30.87C8.27 29.73 9.08 28.49 9.67 27.15C10.26 25.8099 10.7 24.47 11.01 23.1C11.32 21.74 11.51 20.39 11.6 19.07C11.68 17.75 11.73 16.52 11.73 15.37H7.45V34.47H29L29.01 34.45ZM19.41 6.11995H16.27V13.16H19.41V6.11995ZM23.85 15.36V22.2199C23.85 23.0999 23.97 23.7199 24.21 24.07C24.45 24.42 24.97 24.6 25.78 24.6H29.01V15.36H23.85Z" fill="#C29A62"/>
<path d="M47.4202 40.3C46.9702 40.3 46.6202 40.18 46.3502 39.95C46.0802 39.72 45.9502 39.42 45.9502 39.07V3.20998C45.9502 2.85998 46.0802 2.55998 46.3502 2.32998C46.6202 2.08998 46.9702 1.97998 47.4202 1.97998H59.5402C59.9302 1.97998 60.2702 2.09998 60.5502 2.32998C60.8302 2.55998 60.9702 2.85998 60.9702 3.20998V16.76C60.9702 17.08 60.8302 17.36 60.5502 17.6C60.2702 17.84 59.9302 17.95 59.5402 17.95H50.4802V39.07C50.4802 39.42 50.3402 39.72 50.0602 39.95C49.7802 40.18 49.4402 40.3 49.0502 40.3H47.4202ZM56.5102 8.66998V4.22998H50.4702V8.66998H56.5102ZM56.5102 15.8V10.87H50.4702V15.8H56.5102ZM67.2002 38.24C66.9502 38.09 66.7602 37.95 66.6302 37.8C66.5002 37.65 66.4402 37.51 66.4402 37.36C66.4402 37.3 66.4802 37.15 66.5702 36.92H66.5302C66.5902 36.68 66.7202 36.51 66.9302 36.39C67.1402 36.27 67.3802 36.21 67.6602 36.21C67.7402 36.21 67.8102 36.21 67.8502 36.23C67.8902 36.25 67.9402 36.25 68.0002 36.25C68.8902 36.46 69.6702 36.61 70.3302 36.71C70.9902 36.81 71.5502 36.86 72.0302 36.86C72.9202 36.86 73.5202 36.64 73.8102 36.2C74.1002 35.76 74.2502 35.08 74.2502 34.18V17.94H65.3202C64.8702 17.94 64.5202 17.82 64.2502 17.59C63.9802 17.36 63.8502 17.08 63.8502 16.75V3.20998C63.8502 2.85998 63.9802 2.55998 64.2502 2.32998C64.5202 2.08998 64.8702 1.97998 65.3202 1.97998H77.3502C77.8002 1.97998 78.1502 2.09998 78.4002 2.32998C78.6502 2.55998 78.7802 2.85998 78.7802 3.20998V35.2C78.7802 36.84 78.4002 38.16 77.6302 39.14C76.8602 40.12 75.6802 40.61 74.0902 40.61C73.2002 40.61 72.1802 40.43 71.0302 40.06C69.8802 39.69 68.6002 39.08 67.1702 38.23H67.2102L67.2002 38.24ZM74.2502 8.66998V4.22998H68.3402V8.66998H74.2502ZM74.2502 15.8V10.87H68.3402V15.8H74.2502Z" fill="#C29A62"/>
<path d="M91.56 11.09C91.25 11.56 90.92 12.02 90.55 12.48C90.19 12.94 89.81 13.38 89.42 13.82H89.46C89.38 13.94 89.26 14.02 89.12 14.06C88.98 14.1 88.83 14.13 88.66 14.13C88.46 14.13 88.3 14.11 88.16 14.06C88.02 14.02 87.91 13.94 87.83 13.82H87.87C87.73 13.67 87.63 13.54 87.58 13.42C87.52 13.3 87.5 13.19 87.5 13.07C87.5 13.01 87.51 12.93 87.54 12.83C87.57 12.73 87.62 12.62 87.71 12.5H87.67C88.7 10.77 89.58 8.98 90.29 7.13C91 5.28 91.67 3.32 92.28 1.23C92.36 0.94 92.52 0.7 92.74 0.53C92.96 0.36 93.26 0.27 93.62 0.27C93.82 0.27 94.12 0.34 94.54 0.47C94.96 0.6 95.25 0.7 95.42 0.76C95.73 0.91 95.98 1.07 96.17 1.24C96.37 1.42 96.46 1.62 96.46 1.86C96.46 1.98 96.38 2.24 96.21 2.65C96.04 3.06 95.85 3.5 95.62 3.97C95.4 4.44 95.18 4.88 94.97 5.29C94.76 5.7 94.63 5.97 94.57 6.08H98.89C98.75 5.32 98.56 4.49 98.32 3.59C98.08 2.7 97.81 1.92 97.5 1.28C97.47 1.22 97.46 1.12 97.46 0.97C97.46 0.82 97.52 0.68 97.63 0.55C97.74 0.42 97.92 0.28 98.17 0.13H98.13C98.21 0.07 98.3 0.04 98.4 0.02C98.5 0.01 98.62 0 98.76 0C99.1 0 99.44 0.16 99.81 0.48C100.17 0.8 100.52 1.19 100.86 1.65C101.2 2.11 101.5 2.57 101.76 3.04C102.03 3.51 102.23 3.89 102.37 4.18V4.14C102.43 4.29 102.47 4.41 102.52 4.51C102.57 4.61 102.58 4.69 102.58 4.75C102.58 4.93 102.5 5.1 102.35 5.28C102.2 5.46 101.97 5.62 101.66 5.76L101.03 6.07H106.1C106.49 6.07 106.81 6.17 107.06 6.36C107.31 6.55 107.44 6.81 107.44 7.13C107.44 7.51 107.31 7.8 107.06 7.99C106.81 8.18 106.49 8.28 106.1 8.28H101.66V10.7H105.22C105.44 10.7 105.63 10.74 105.79 10.83C105.94 10.92 106.02 11.07 106.02 11.27V11.75L105.22 11.66C106.17 10.08 106.95 8.45 107.55 6.78C108.15 5.11 108.66 3.29 109.08 1.32C109.16 1.03 109.32 0.79 109.56 0.62C109.8 0.44 110.1 0.36 110.46 0.36C110.68 0.36 111 0.43 111.4 0.56C111.8 0.69 112.11 0.79 112.3 0.85C112.64 1 112.9 1.16 113.1 1.33C113.3 1.51 113.39 1.71 113.39 1.95C113.39 2.04 113.31 2.28 113.14 2.68C112.97 3.08 112.78 3.51 112.57 3.98C112.36 4.45 112.16 4.89 111.98 5.3C111.8 5.71 111.68 5.98 111.62 6.09H115.69C115.52 5.33 115.33 4.51 115.1 3.63C114.87 2.75 114.62 2.02 114.35 1.43C114.32 1.37 114.31 1.27 114.31 1.12C114.31 0.97 114.37 0.83 114.48 0.7C114.59 0.57 114.77 0.43 115.03 0.28H114.99C115.07 0.22 115.16 0.19 115.26 0.17C115.36 0.16 115.48 0.15 115.62 0.15C115.84 0.15 116.03 0.18 116.19 0.24C116.34 0.3 116.48 0.39 116.59 0.5C116.73 0.68 116.95 0.96 117.26 1.36C117.57 1.76 117.88 2.18 118.2 2.64C118.52 3.1 118.81 3.54 119.06 3.96C119.31 4.39 119.44 4.7 119.44 4.91C119.44 5.09 119.37 5.26 119.23 5.44C119.09 5.62 118.87 5.78 118.56 5.92L118.18 6.1H122.96C123.38 6.1 123.7 6.2 123.92 6.39C124.14 6.58 124.26 6.84 124.26 7.16C124.26 7.54 124.15 7.83 123.92 8.02C123.7 8.21 123.38 8.31 122.96 8.31H118.56V10.77H121.75C122.09 10.77 122.38 10.87 122.63 11.06C122.88 11.25 123.01 11.51 123.01 11.83C123.01 12.15 122.88 12.42 122.63 12.62C122.38 12.83 122.08 12.93 121.75 12.93H118.56V15.53H121.75C122.09 15.53 122.38 15.63 122.63 15.82C122.88 16.01 123.01 16.27 123.01 16.59C123.01 16.91 122.88 17.17 122.63 17.36C122.38 17.55 122.08 17.65 121.75 17.65H118.56V20.33H123.34C123.76 20.33 124.08 20.43 124.3 20.64C124.52 20.85 124.64 21.11 124.64 21.43C124.64 21.75 124.53 22.02 124.3 22.22C124.08 22.43 123.76 22.53 123.34 22.53H111.89V23.28C111.89 23.6 111.78 23.85 111.55 24.01C111.33 24.17 111.02 24.25 110.63 24.25H109.2C108.75 24.25 108.4 24.14 108.13 23.92C107.86 23.7 107.73 23.41 107.73 23.06V11.18L108.48 11.27L108.27 11.53C108.02 11.85 107.77 12.17 107.54 12.48C107.3 12.79 107.02 13.12 106.68 13.47C106.6 13.56 106.48 13.62 106.34 13.67C106.2 13.71 106.06 13.74 105.92 13.74C105.75 13.74 105.6 13.72 105.46 13.67C105.32 13.63 105.21 13.56 105.12 13.47L104.62 12.99V12.9L104.7 12.72L105.08 12.9H101.64V15.5H104.66C105.08 15.5 105.4 15.6 105.62 15.81C105.84 16.02 105.96 16.28 105.96 16.6C105.96 16.92 105.85 17.18 105.62 17.37C105.4 17.56 105.07 17.66 104.66 17.66H101.64V20.34H106.21C106.6 20.34 106.92 20.44 107.17 20.65C107.42 20.86 107.55 21.12 107.55 21.44C107.55 21.76 107.42 22.03 107.17 22.23C106.92 22.44 106.6 22.54 106.21 22.54H94.93V23.38C94.93 23.7 94.8 23.97 94.55 24.17C94.3 24.38 93.98 24.48 93.59 24.48H92.25C91.8 24.48 91.45 24.36 91.18 24.13C90.91 23.9 90.78 23.62 90.78 23.29V11.06L91.53 11.15L91.56 11.09ZM123.43 35.68C123.93 35.68 124.32 35.76 124.58 35.92C124.85 36.08 124.98 36.32 124.98 36.65C124.98 36.74 124.96 36.85 124.92 36.98C124.88 37.11 124.82 37.25 124.73 37.4L123.68 39.6C123.6 39.83 123.44 40.01 123.22 40.13C123 40.25 122.73 40.31 122.42 40.31H122.25C119.62 40.13 117.08 39.82 114.62 39.36C112.16 38.9 109.8 38.11 107.53 36.96C105.07 38.02 102.37 38.86 99.42 39.49C96.47 40.12 93.08 40.55 89.25 40.79H89.12C88.81 40.79 88.55 40.72 88.34 40.57C88.13 40.42 88 40.23 87.94 40C87.94 39.65 88 39.4 88.11 39.25C88.22 39.1 88.47 39 88.86 38.94C92.07 38.62 94.96 38.12 97.52 37.44C100.08 36.77 102.38 35.97 104.42 35.06C103.05 34.12 101.79 33.01 100.65 31.72C99.5 30.43 98.46 28.95 97.51 27.28H94.7C94.31 27.28 93.99 27.18 93.74 26.97C93.49 26.76 93.36 26.5 93.36 26.18C93.36 25.86 93.49 25.6 93.74 25.41C93.99 25.22 94.31 25.12 94.7 25.12H115.03L115.41 24.81C115.49 24.75 115.6 24.7 115.72 24.66C115.85 24.62 115.98 24.59 116.12 24.59C116.26 24.59 116.38 24.59 116.48 24.61C116.58 24.63 116.67 24.66 116.75 24.72L119.1 26.22C119.35 26.37 119.54 26.53 119.67 26.7C119.8 26.88 119.86 27.05 119.86 27.23C119.86 27.32 119.84 27.44 119.8 27.58C119.76 27.72 119.67 27.87 119.53 28.02C118.52 29.31 117.4 30.49 116.15 31.56C114.91 32.63 113.53 33.64 112.02 34.57C113.81 34.98 115.65 35.26 117.55 35.41C119.45 35.56 121.41 35.64 123.42 35.67L123.43 35.68ZM94.96 10.69H97.64V8.27H94.96V10.69ZM94.96 15.44H97.64V12.84H94.96V15.44ZM94.96 17.6V20.46H97.64V17.6H94.96ZM99.74 27.06C100.97 28.64 102.24 29.91 103.56 30.87C104.87 31.82 106.29 32.62 107.79 33.27C109.13 32.42 110.31 31.49 111.33 30.48C112.35 29.47 113.22 28.4 113.95 27.29H99.91L99.74 27.07V27.06ZM111.9 10.74H114.54V8.28H111.9V10.74ZM111.9 15.49H114.54V12.89H111.9V15.49ZM111.9 17.6V20.28H114.54V17.6H111.9Z" fill="#C29A62"/>
<path d="M141.12 35.9499C141.12 37.0699 140.78 37.9499 140.09 38.5899C139.4 39.2299 138.48 39.5599 137.3 39.5599C137.02 39.5599 136.57 39.4899 135.96 39.3599C135.34 39.2299 134.73 39.0399 134.12 38.8099C133.5 38.5699 132.96 38.2999 132.48 37.9999C132 37.6899 131.77 37.3499 131.77 36.9699C131.77 36.9099 131.77 36.8499 131.79 36.7899C131.8 36.7299 131.81 36.6699 131.81 36.6099C131.87 36.3999 131.98 36.2399 132.15 36.0999C132.32 35.9699 132.55 35.8999 132.86 35.8999C132.92 35.8999 132.97 35.8999 133.03 35.9199C133.09 35.9299 133.13 35.9399 133.16 35.9399C133.72 36.0899 134.19 36.1799 134.59 36.2299C134.98 36.2699 135.32 36.2999 135.6 36.2999C136.13 36.2999 136.47 36.1499 136.61 35.8399C136.75 35.5299 136.82 35.0699 136.82 34.4499V25.3399C136.54 25.4899 136.27 25.6199 136 25.7399C135.73 25.8599 135.48 25.9599 135.22 26.0499C135 26.1099 134.8 26.1899 134.63 26.2899C134.46 26.3899 134.27 26.4699 134.04 26.5299C133.96 26.5599 133.87 26.5799 133.77 26.5999C133.67 26.6099 133.57 26.6199 133.46 26.6199C133.15 26.6199 132.89 26.5499 132.66 26.3999C132.44 26.2499 132.25 26.0299 132.12 25.7399L131.53 23.8899C131.47 23.7699 131.44 23.6699 131.43 23.5799C131.42 23.4899 131.41 23.4199 131.41 23.3599C131.41 23.0999 131.51 22.8699 131.72 22.6799C131.93 22.4899 132.23 22.3699 132.62 22.3099C133.32 22.1599 134 22.0099 134.65 21.8499C135.3 21.6899 136.03 21.5099 136.81 21.2999V11.9699H133.04C132.65 11.9699 132.33 11.8799 132.08 11.6799C131.83 11.4899 131.7 11.1999 131.7 10.8199C131.7 10.4999 131.83 10.2399 132.08 10.0499C132.33 9.8599 132.65 9.7599 133.04 9.7599H136.81V1.6299C136.81 1.2799 136.94 0.979902 137.21 0.749902C137.48 0.509902 137.83 0.399902 138.28 0.399902H139.66C140.11 0.399902 140.46 0.519902 140.73 0.749902C141 0.979902 141.13 1.2799 141.13 1.6299V9.7699H144.32C144.74 9.7699 145.06 9.8699 145.28 10.0599C145.5 10.2499 145.62 10.5099 145.62 10.8299C145.62 11.2099 145.51 11.4999 145.28 11.6899C145.06 11.8799 144.74 11.9799 144.32 11.9799H141.13V20.0799L142.14 19.7299C142.47 19.6099 142.8 19.5099 143.1 19.4199C143.27 19.3599 143.44 19.3099 143.6 19.2699C143.77 19.2299 143.94 19.1699 144.1 19.1199H144.06C144.14 19.0899 144.23 19.0699 144.31 19.0499C144.39 19.0399 144.48 19.0299 144.56 19.0299C144.84 19.0299 145.1 19.1199 145.34 19.2899C145.58 19.4699 145.7 19.7199 145.7 20.0399C145.7 20.1899 145.65 20.3299 145.55 20.4799C145.45 20.6299 145.31 20.7699 145.11 20.9199C144.41 21.3599 143.71 21.7799 143.01 22.1699C142.31 22.5699 141.61 22.9699 140.91 23.3799L141.12 23.2499V35.9699V35.9499ZM160.49 35.7299C160.71 35.7599 160.94 35.7699 161.16 35.7699H161.91C162.72 35.7699 163.61 35.7499 164.57 35.6999C165.53 35.6599 166.49 35.5799 167.44 35.4599C167.78 35.4599 168.14 35.5099 168.53 35.6099C168.92 35.7099 169.12 36.0099 169.12 36.5099C169.12 36.6299 169.09 36.7999 169.04 37.0399C168.96 37.2999 168.88 37.5699 168.81 37.8499C168.74 38.1299 168.68 38.4099 168.62 38.7099C168.56 38.8899 168.42 39.0499 168.2 39.2199C167.98 39.3899 167.7 39.4899 167.36 39.5499C166.74 39.6099 166.07 39.6499 165.35 39.6799C164.62 39.7099 163.9 39.7199 163.17 39.7199C161.63 39.7199 160.14 39.6799 158.68 39.5899C157.23 39.4999 155.85 39.2399 154.55 38.7999C153.25 38.3599 152.05 37.6799 150.94 36.7499C149.83 35.8199 148.88 34.5599 148.07 32.9399C147.37 34.2899 146.5 35.5899 145.45 36.8299C144.4 38.0799 143.11 39.2299 141.57 40.2799L141.61 40.2399C141.53 40.2999 141.42 40.3499 141.3 40.3899C141.17 40.4299 141.04 40.4599 140.9 40.4599C140.65 40.4599 140.39 40.3799 140.12 40.2199C139.85 40.0599 139.72 39.8199 139.72 39.4899C139.72 39.3699 139.76 39.2499 139.85 39.1399C139.94 39.0299 140.05 38.9099 140.19 38.7899H140.15C141.02 37.9699 141.76 37.0699 142.37 36.0799C142.98 35.0999 143.51 34.0599 143.94 32.9599C144.37 31.8599 144.74 30.7299 145.03 29.5699C145.32 28.4099 145.58 27.2499 145.81 26.0699C145.87 25.7499 146.02 25.4899 146.27 25.2999C146.52 25.1099 146.83 25.0099 147.19 25.0099H147.4C147.48 25.0099 147.55 25.0299 147.61 25.0499C147.86 25.1099 148.12 25.1799 148.39 25.2699C148.66 25.3599 148.93 25.4299 149.21 25.4899C149.52 25.6099 149.76 25.7599 149.94 25.9499C150.12 26.1399 150.23 26.3499 150.25 26.5899C150.25 26.6199 150.25 26.6599 150.23 26.7199C150.22 26.7799 150.21 26.8399 150.21 26.8999C150.07 27.4599 149.94 27.9899 149.81 28.5099C149.68 29.0199 149.51 29.5599 149.29 30.1199C149.82 31.2099 150.34 32.0899 150.84 32.7599C151.34 33.4399 151.9 33.9499 152.52 34.2999V23.4799H147.15C146.76 23.4799 146.44 23.3899 146.19 23.1899C145.94 22.9899 145.81 22.7099 145.81 22.3299C145.81 22.0099 145.94 21.7499 146.19 21.5599C146.44 21.3699 146.76 21.2699 147.15 21.2699H152.52V17.7899H144.93C144.48 17.7899 144.14 17.6899 143.9 17.4799C143.66 17.2699 143.54 17.0099 143.54 16.6899C143.54 16.3699 143.66 16.0999 143.9 15.8999C144.14 15.6899 144.48 15.5899 144.93 15.5899H152.52V12.5099H147.53C147.14 12.5099 146.82 12.4099 146.57 12.2199C146.32 12.0299 146.19 11.7399 146.19 11.3599C146.19 11.0399 146.32 10.7799 146.57 10.5899C146.82 10.3999 147.14 10.2999 147.53 10.2999H152.52V7.2599H144.43C143.98 7.2599 143.64 7.1599 143.4 6.9499C143.16 6.7499 143.04 6.4799 143.04 6.1599C143.04 5.8399 143.16 5.5699 143.4 5.3699C143.64 5.1699 143.98 5.0599 144.43 5.0599H152.52V1.6699C152.52 1.3199 152.65 1.0199 152.9 0.789902C153.15 0.559902 153.5 0.439902 153.95 0.439902H155.42C155.87 0.439902 156.22 0.559902 156.49 0.789902C156.76 1.0199 156.89 1.3199 156.89 1.6699V5.0999H167.04C167.46 5.0999 167.78 5.1999 168 5.4099C168.22 5.6199 168.34 5.8799 168.34 6.1999C168.34 6.5199 168.23 6.7899 168 6.9899C167.78 7.1999 167.46 7.2999 167.04 7.2999H156.89V10.3399H162.76C163.21 10.3399 163.56 10.4399 163.81 10.6499C164.06 10.8599 164.19 11.1499 164.19 11.5299V15.6199H167.25C167.67 15.6199 167.99 15.7199 168.21 15.9299C168.43 16.1399 168.55 16.3999 168.55 16.7199C168.55 17.0399 168.44 17.3099 168.21 17.5099C167.98 17.7099 167.67 17.8199 167.25 17.8199H164.19V22.2599C164.19 22.6099 164.06 22.9099 163.81 23.1399C163.56 23.3799 163.21 23.4899 162.76 23.4899H156.89V27.6699H165.65C166.04 27.6699 166.36 27.7699 166.61 27.9599C166.86 28.1499 166.99 28.4099 166.99 28.7299C166.99 29.1099 166.86 29.3999 166.61 29.5899C166.36 29.7799 166.04 29.8799 165.65 29.8799H156.89V35.5099C157.42 35.5699 157.97 35.6099 158.55 35.6399C159.12 35.6699 159.77 35.6999 160.5 35.7299H160.49ZM156.88 12.5399V15.6199H159.9V12.5399H156.88ZM159.9 17.8199H156.88V21.2999H159.9V17.8199Z" fill="#C29A62"/>
<path d="M179.44 39.95C179.3 40.1 179.13 40.2099 178.94 40.2999C178.74 40.3899 178.53 40.43 178.31 40.43C178.09 40.43 177.9 40.4 177.74 40.34C177.59 40.2799 177.44 40.18 177.3 40.0299L176.42 39.02C176.25 38.8699 176.13 38.72 176.04 38.56C175.95 38.4 175.93 38.2399 175.96 38.0999C175.96 37.9499 176.01 37.81 176.11 37.66C176.21 37.5099 176.35 37.37 176.55 37.22H176.51C177.32 36.49 178.17 35.61 179.05 34.58C179.93 33.55 180.68 32.57 181.29 31.6299L181.21 31.7199V22.3899H177.44C177.05 22.3899 176.73 22.2899 176.48 22.08C176.23 21.87 176.1 21.61 176.1 21.29C176.1 20.97 176.23 20.7 176.48 20.5C176.73 20.29 177.05 20.19 177.44 20.19H184.15C184.6 20.19 184.95 20.31 185.22 20.54C185.49 20.77 185.62 21.07 185.62 21.42V31.6299L185.54 31.54C186.1 32.39 186.8 33.07 187.66 33.56C188.51 34.06 189.43 34.44 190.43 34.7C191.42 34.9599 192.43 35.1299 193.45 35.2099C194.47 35.2799 195.41 35.32 196.28 35.32C197.45 35.32 198.7 35.2999 200.03 35.25C201.36 35.2099 202.7 35.1399 204.05 35.0499C205.41 34.9599 206.74 34.8699 208.05 34.7599C209.36 34.66 210.59 34.5499 211.74 34.43C212.08 34.43 212.44 34.47 212.83 34.56C213.22 34.65 213.42 34.9399 213.42 35.4399C213.42 35.5299 213.38 35.6899 213.32 35.9199C213.25 36.16 213.17 36.4199 213.07 36.7099C212.97 37 212.88 37.27 212.8 37.5C212.72 37.7299 212.66 37.8999 212.63 37.9799C212.55 38.2099 212.39 38.3899 212.17 38.5099C211.95 38.6299 211.68 38.7099 211.37 38.77C209.78 38.83 208.02 38.87 206.09 38.9C204.16 38.93 202.23 38.9399 200.3 38.9399H198.14C197.43 38.9399 196.74 38.93 196.06 38.9C194.27 38.87 192.7 38.6899 191.34 38.3699C189.98 38.0499 188.82 37.6199 187.84 37.09C186.86 36.56 186.03 35.9499 185.35 35.2599C184.66 34.57 184.09 33.83 183.61 33.04C183.05 34.27 182.41 35.47 181.68 36.65C180.95 37.82 180.21 38.91 179.46 39.91L179.44 39.95ZM183.84 16.28C183.7 16.46 183.53 16.59 183.34 16.68C183.14 16.77 182.93 16.8099 182.71 16.8099C182.49 16.8099 182.27 16.76 182.06 16.66C181.85 16.5599 181.68 16.42 181.54 16.24C180.9 15.39 180.19 14.48 179.42 13.51C178.65 12.54 177.9 11.68 177.18 10.91C177.04 10.76 176.94 10.64 176.89 10.54C176.83 10.44 176.81 10.31 176.81 10.17C176.81 10.11 176.83 10.02 176.87 9.90995C176.91 9.78995 176.97 9.65995 177.06 9.50995L177.02 9.54995C177.08 9.36995 177.19 9.23995 177.38 9.14995C177.56 9.05995 177.78 9.01995 178.03 9.01995C178.28 9.01995 178.74 9.19995 179.39 9.56995C180.05 9.93995 180.73 10.36 181.44 10.85C182.15 11.33 182.83 11.82 183.47 12.3C184.11 12.78 184.55 13.13 184.77 13.33C184.97 13.48 185.11 13.62 185.21 13.77C185.31 13.92 185.36 14.06 185.36 14.21C185.36 14.33 185.32 14.45 185.23 14.58C185.15 14.71 185.03 14.85 184.89 15H184.93C184.73 15.23 184.55 15.45 184.38 15.64C184.21 15.83 184.03 16.04 183.84 16.28ZM185.05 7.34995C184.91 7.49995 184.75 7.60995 184.57 7.69995C184.39 7.78995 184.19 7.82995 183.96 7.82995C183.73 7.82995 183.53 7.78995 183.33 7.69995C183.13 7.60995 182.97 7.47995 182.83 7.29995C182.16 6.47995 181.45 5.62995 180.71 4.76995C179.97 3.90995 179.21 3.04995 178.42 2.19995H178.46C178.32 2.07995 178.21 1.96995 178.15 1.84995C178.08 1.72995 178.05 1.61995 178.05 1.49995C178.05 1.43995 178.06 1.35995 178.09 1.25995C178.12 1.15995 178.16 1.02995 178.22 0.889951C178.33 0.739951 178.47 0.629951 178.64 0.559951C178.81 0.489951 179.02 0.449951 179.27 0.449951H179.58C179.68 0.449951 179.75 0.479951 179.81 0.539951H179.77C180.05 0.659951 180.56 0.909951 181.3 1.30995C182.04 1.70995 182.79 2.14995 183.56 2.62995C184.33 3.10995 185.01 3.59995 185.61 4.07995C186.21 4.55995 186.51 4.96995 186.51 5.28995C186.51 5.40995 186.47 5.52995 186.41 5.65995C186.34 5.78995 186.23 5.92995 186.1 6.07995H186.14C185.94 6.31995 185.76 6.52995 185.59 6.71995C185.42 6.90995 185.26 7.11995 185.09 7.35995H185.05V7.34995ZM198.81 34.5C198.36 34.5 198.01 34.38 197.76 34.15C197.51 33.92 197.38 33.6199 197.38 33.27V29.9699H188.41C187.96 29.9699 187.63 29.88 187.4 29.68C187.18 29.49 187.07 29.1999 187.07 28.82C187.07 28.5 187.18 28.24 187.4 28.0499C187.62 27.8599 187.96 27.76 188.41 27.76H197.38V25.34H190.8C190.35 25.34 190 25.2199 189.73 24.99C189.46 24.76 189.33 24.46 189.33 24.11V14.91C189.33 14.56 189.46 14.26 189.73 14.03C190 13.8 190.35 13.68 190.8 13.68H197.38V11.35H189.5C189.05 11.35 188.71 11.25 188.47 11.04C188.23 10.83 188.11 10.57 188.11 10.25C188.11 9.92995 188.23 9.65995 188.47 9.45995C188.71 9.24995 189.05 9.14995 189.5 9.14995H197.38V7.03995C197.38 6.65995 197.51 6.36995 197.76 6.15995C198.01 5.95995 198.36 5.84995 198.81 5.84995H200.28C200.73 5.84995 201.08 5.94995 201.35 6.15995C201.62 6.36995 201.75 6.65995 201.75 7.03995V9.14995H209.38C209.8 9.14995 210.12 9.24995 210.34 9.45995C210.56 9.66995 210.68 9.92995 210.68 10.25C210.68 10.57 210.57 10.84 210.34 11.04C210.12 11.25 209.79 11.35 209.38 11.35H201.75V13.68H208.37C208.82 13.68 209.17 13.8 209.44 14.03C209.71 14.27 209.84 14.56 209.84 14.91V24.11C209.84 24.46 209.71 24.76 209.44 24.99C209.17 25.2299 208.82 25.34 208.37 25.34H201.75V27.76H211.1C211.49 27.76 211.81 27.8599 212.06 28.0499C212.31 28.24 212.44 28.5 212.44 28.82C212.44 29.1999 212.31 29.49 212.06 29.68C211.81 29.87 211.49 29.9699 211.1 29.9699H201.75V33.27C201.75 33.6199 201.62 33.92 201.35 34.15C201.08 34.39 200.73 34.5 200.28 34.5H198.81ZM188.7 8.57995C188.25 8.57995 187.9 8.45995 187.63 8.22995C187.36 7.99995 187.23 7.69995 187.23 7.34995V3.64995C187.23 3.29995 187.36 3.00995 187.63 2.76995C187.9 2.53995 188.25 2.41995 188.7 2.41995H210.12C210.51 2.41995 210.85 2.53995 211.13 2.76995C211.41 3.00995 211.55 3.29995 211.55 3.64995V7.34995C211.55 7.69995 211.41 7.99995 211.13 8.22995C210.85 8.46995 210.51 8.57995 210.12 8.57995H208.69C208.24 8.57995 207.89 8.45995 207.64 8.22995C207.39 7.99995 207.26 7.69995 207.26 7.34995V4.61995H191.54V7.34995C191.54 7.69995 191.41 7.99995 191.14 8.22995C190.87 8.46995 190.52 8.57995 190.07 8.57995H188.69H188.7ZM197.38 18.35V15.75H193.48V18.35H197.38ZM197.38 23.28V20.33H193.48V23.28H197.38ZM205.72 18.35V15.75H201.74V18.35H205.72ZM205.72 23.28V20.33H201.74V23.28H205.72Z" fill="#C29A62"/>
<path d="M233.77 26.2801C233.77 25.2701 233.56 24.3801 233.14 23.6101C232.72 22.8401 232.17 22.2001 231.51 21.6701C230.84 21.1501 230.08 20.7601 229.22 20.4901C228.36 20.2301 227.5 20.1001 226.63 20.1001H225.67C225.56 20.1001 225.46 20.1201 225.37 20.1501H225.14C224.77 20.1501 224.45 20.0601 224.21 19.8801C223.96 19.7001 223.84 19.4301 223.84 19.0701V17.8901C223.84 17.5001 223.96 17.2001 224.21 16.9801C224.46 16.7701 224.8 16.6101 225.24 16.5101C226.33 16.3501 227.3 16.0501 228.16 15.6301C229.02 15.2101 229.75 14.7001 230.35 14.1101C230.95 13.5201 231.44 12.8601 231.8 12.1301C232.16 11.3901 232.38 10.6701 232.48 9.95009C232.48 9.85009 232.48 9.75009 232.5 9.66009C232.52 9.56009 232.52 9.46009 232.52 9.37009C232.52 8.06009 232.07 7.08009 231.17 6.41009C230.27 5.74009 229.07 5.41009 227.57 5.41009C226.39 5.41009 225.33 5.61009 224.4 6.00009C223.47 6.39009 222.59 6.83009 221.79 7.32009C221.63 7.42009 221.46 7.50009 221.28 7.57009C221.09 7.64009 220.89 7.67009 220.67 7.67009C220.3 7.67009 220.02 7.56009 219.83 7.33009C219.64 7.10009 219.55 6.76009 219.55 6.30009V5.12009C219.55 4.86009 219.63 4.62009 219.78 4.41009C219.94 4.20009 220.11 4.03009 220.29 3.90009C221.04 3.61009 222.08 3.27009 223.42 2.90009C224.76 2.52009 226.41 2.34009 228.37 2.34009C230.11 2.34009 231.59 2.58009 232.81 3.05009C234.03 3.52009 235.02 4.12009 235.8 4.84009C236.58 5.56009 237.15 6.34009 237.53 7.19009C237.91 8.04009 238.11 8.84009 238.14 9.59009C238.14 9.69009 238.14 9.80009 238.12 9.91009C238.1 10.0201 238.1 10.1101 238.1 10.1801C238.01 11.1601 237.73 12.0501 237.26 12.8501C236.79 13.6501 236.21 14.3701 235.51 15.0101C234.81 15.6501 234.05 16.1901 233.25 16.6501C232.44 17.1101 231.63 17.4801 230.82 17.7801V17.9301C231.88 18.0601 232.91 18.3501 233.92 18.7901C234.93 19.2301 235.85 19.7901 236.67 20.4801C237.49 21.1701 238.16 21.9801 238.68 22.9101C239.19 23.8401 239.48 24.8801 239.54 26.0201C239.54 27.7201 239.27 29.2401 238.75 30.5801C238.22 31.9201 237.48 33.0601 236.53 34.0101C235.58 34.9601 234.44 35.7101 233.12 36.2601C231.8 36.8201 230.36 37.1901 228.8 37.3901C228.36 37.4601 227.92 37.5001 227.47 37.5101C227.02 37.5301 226.57 37.5301 226.14 37.5301C225.11 37.5301 224.09 37.4701 223.08 37.3601C222.07 37.2401 221.1 37.0601 220.16 36.8001H220.21C219.81 36.7301 219.51 36.6001 219.32 36.4101C219.13 36.2101 219.01 35.9901 218.95 35.7201L218.9 35.3801V35.4301C218.9 35.0101 218.97 34.7101 219.11 34.5501C219.25 34.3901 219.55 34.2901 220.02 34.2601C220.08 34.2601 220.14 34.2601 220.21 34.2801C220.27 34.3001 220.33 34.3001 220.4 34.3001H220.35C221.07 34.4001 221.77 34.4701 222.45 34.5201C223.13 34.5701 223.79 34.6101 224.41 34.6401C225.75 34.6401 226.99 34.5101 228.12 34.2501C229.26 33.9901 230.24 33.5401 231.08 32.9001C231.92 32.2601 232.58 31.4101 233.06 30.3301C233.54 29.2501 233.78 27.9101 233.78 26.3101L233.77 26.2801Z" fill="#C29A62"/>
<path d="M267.01 25.1099C267.01 27.2999 266.67 29.1699 265.98 30.7199C265.29 32.2699 264.31 33.5399 263.04 34.5199C261.76 35.4999 260.21 36.2199 258.37 36.6799C256.53 37.1399 254.46 37.3699 252.16 37.3699C251.54 37.3699 250.89 37.3699 250.22 37.3499C249.55 37.3299 248.86 37.2799 248.14 37.1799C247.77 37.1099 247.45 36.9799 247.18 36.7899C246.91 36.5899 246.75 36.3499 246.69 36.0499V35.8499V35.8999C246.69 35.3799 246.77 35.0299 246.95 34.8699C247.12 34.7099 247.49 34.6199 248.05 34.6199C248.39 34.6499 248.7 34.6699 248.98 34.6699H249.87C253.76 34.6699 256.62 33.9799 258.44 32.6099C260.26 31.2399 261.23 28.9699 261.36 25.7999C261.36 24.9199 261.31 24.0399 261.2 23.1799C261.09 22.3099 260.86 21.5399 260.5 20.8499C260.14 20.1599 259.65 19.6099 259.03 19.1799C258.41 18.7599 257.58 18.5399 256.56 18.5399C255.44 18.5399 254.49 18.6799 253.71 18.9599C252.93 19.2399 252.29 19.5899 251.8 20.0099C251.58 20.2099 251.35 20.3299 251.1 20.3799C250.85 20.4299 250.59 20.4499 250.31 20.4499C250.06 20.3899 249.83 20.3399 249.61 20.3299C249.39 20.3099 249.16 20.2699 248.91 20.2099C248.5 20.1099 248.19 19.9599 247.95 19.7399C247.72 19.5299 247.6 19.2699 247.6 18.9799V18.8299C247.66 16.3799 247.74 13.9499 247.83 11.5299C247.92 9.10991 248 6.67991 248.06 4.22991C248.12 3.80991 248.29 3.47991 248.55 3.24991C248.81 3.01991 249.2 2.90991 249.69 2.90991H263.93C264.37 2.90991 264.74 3.03991 265.05 3.29991C265.36 3.55991 265.52 3.88991 265.52 4.27991V5.05991C265.52 5.41991 265.36 5.72991 265.05 5.98991C264.74 6.24991 264.36 6.37991 263.93 6.37991H253L252.63 16.9599L252.49 16.8599L252.68 17.0599L252.12 17.0099C252.52 16.7499 253.19 16.4099 254.1 15.9799C255.02 15.5599 256.08 15.3399 257.3 15.3399H257.49C258.77 15.3399 259.97 15.5599 261.11 15.9999C262.25 16.4399 263.26 17.0799 264.14 17.9099C265.02 18.7399 265.73 19.7599 266.24 20.9699C266.75 22.1799 267.01 23.5499 267.01 25.0899V25.1099Z" fill="#C29A62"/>
<path d="M284.94 37.4999C283.26 37.4999 281.71 37.1199 280.29 36.3499C278.87 35.5799 277.65 34.4599 276.62 32.9699C275.59 31.4799 274.78 29.6599 274.19 27.4799C273.6 25.2999 273.3 22.8199 273.3 20.0099C273.3 17.1999 273.6 14.6499 274.21 12.4599C274.82 10.2699 275.66 8.42992 276.73 6.94992C277.8 5.45992 279.08 4.33992 280.56 3.56992C282.04 2.79992 283.65 2.41992 285.39 2.41992C289 2.41992 291.83 3.90992 293.86 6.87992C295.9 9.84992 296.92 14.0799 296.92 19.5699C296.92 25.3499 295.88 29.7899 293.79 32.8699C291.7 35.9599 288.78 37.4999 285.01 37.4999H284.92H284.94ZM285.08 34.4699C286.14 34.4699 287.06 34.0999 287.83 33.3699C288.61 32.6299 289.25 31.6099 289.74 30.3099C290.24 28.9999 290.61 27.4499 290.86 25.6499C291.11 23.8499 291.23 21.8899 291.23 19.7699C291.23 17.6499 291.11 15.8099 290.88 14.0599C290.65 12.3099 290.28 10.7999 289.78 9.52992C289.28 8.25992 288.65 7.25992 287.89 6.53992C287.13 5.81992 286.2 5.45992 285.11 5.45992C284.21 5.45992 283.38 5.78992 282.64 6.45992C281.89 7.12992 281.25 8.08992 280.7 9.34992C280.16 10.6099 279.74 12.1399 279.44 13.9299C279.14 15.7299 279 17.7699 279 20.0499C279 22.3299 279.14 24.2199 279.42 25.9799C279.7 27.7399 280.1 29.2599 280.63 30.5099C281.16 31.7699 281.8 32.7399 282.54 33.4299C283.29 34.1199 284.13 34.4599 285.06 34.4599L285.08 34.4699Z" fill="#C29A62"/>
<path d="M325.05 18.4401C327.03 21.5501 329.26 24.1201 331.74 26.1401C334.21 28.1601 336.9 29.8901 339.81 31.3301C340.12 31.4801 340.35 31.6401 340.5 31.8101C340.65 31.9901 340.73 32.1801 340.73 32.3801C340.73 32.4701 340.7 32.5901 340.65 32.7301C340.59 32.8801 340.51 33.0401 340.4 33.2101L338.56 35.8501C338.45 36.0001 338.29 36.1101 338.08 36.2001C337.87 36.2901 337.65 36.3301 337.43 36.3301C337.23 36.3301 337.07 36.3101 336.93 36.2601C336.79 36.2201 336.66 36.1501 336.55 36.0601H336.59C335.5 35.2701 334.4 34.4101 333.3 33.4901C332.2 32.5701 331.11 31.5501 330.05 30.4501C328.99 29.3501 327.97 28.1401 327.01 26.8201C326.05 25.5001 325.16 24.0601 324.35 22.5101V39.4901C324.35 39.8401 324.22 40.1301 323.95 40.3701C323.68 40.6001 323.33 40.7201 322.88 40.7201H320.99C320.6 40.7201 320.26 40.6001 319.98 40.3701C319.7 40.1301 319.56 39.8401 319.56 39.4901V22.2901C318.83 23.6101 317.97 24.9501 316.98 26.2901C315.99 27.6401 314.86 28.9601 313.6 30.2501C312.34 31.5401 310.97 32.7701 309.47 33.9201C307.97 35.0801 306.36 36.1401 304.63 37.1101L304.67 37.0701C304.36 37.3001 304.06 37.3801 303.75 37.3101C303.44 37.2401 303.21 37.0201 303.04 36.6701L303.08 36.7101C303 36.5901 302.93 36.4901 302.89 36.4001C302.85 36.3101 302.83 36.2401 302.83 36.1801C302.83 36.0601 302.88 35.9401 302.98 35.8101C303.08 35.6801 303.21 35.5501 303.38 35.4401C306.62 32.9801 309.34 30.3101 311.53 27.4501C313.72 24.5901 315.42 21.6501 316.62 18.6301H305.3C304.85 18.6301 304.5 18.5101 304.23 18.2801C303.96 18.0501 303.83 17.7501 303.83 17.4001V17.1801C303.83 16.8601 303.96 16.5801 304.23 16.3401C304.5 16.1101 304.85 15.9901 305.3 15.9901H319.55V1.32009C319.55 0.970088 319.69 0.680088 319.97 0.440088C320.25 0.210088 320.58 0.0900879 320.98 0.0900879H322.87C323.32 0.0900879 323.67 0.210088 323.94 0.440088C324.21 0.680088 324.34 0.970088 324.34 1.32009V16.0201H338.51C338.96 16.0201 339.31 16.1401 339.56 16.3701C339.81 16.6101 339.94 16.8801 339.94 17.2101V17.4301C339.94 17.7801 339.81 18.0801 339.56 18.3101C339.31 18.5501 338.96 18.6601 338.51 18.6601H325.18L325.05 18.4401ZM310.17 2.95009C310.37 3.13009 310.69 3.46009 311.13 3.94009C311.58 4.42009 312.08 4.98009 312.64 5.61009C313.2 6.24009 313.78 6.91009 314.38 7.61009C314.98 8.31009 315.53 8.99009 316.02 9.63009C316.51 10.2801 316.91 10.8501 317.24 11.3701C317.56 11.8801 317.72 12.2601 317.72 12.4901C317.72 12.6401 317.66 12.7901 317.55 12.9501C317.44 13.1101 317.27 13.2701 317.05 13.4101L315.12 14.7301L315.16 14.6901C315.05 14.8101 314.92 14.8801 314.78 14.9101C314.64 14.9401 314.49 14.9501 314.32 14.9501C314.01 14.9501 313.75 14.8801 313.52 14.7501C313.3 14.6201 313.13 14.4201 313.02 14.1601C312.38 12.5501 311.64 10.9001 310.82 9.21009C310 7.52009 309.09 5.89009 308.12 4.30009C308.06 4.15009 308.02 4.04009 307.99 3.95009C307.96 3.86009 307.95 3.79009 307.95 3.73009C307.95 3.41009 308.1 3.14009 308.41 2.94009C308.72 2.74009 309.01 2.63009 309.29 2.63009C309.49 2.63009 309.65 2.65009 309.79 2.70009C309.93 2.74009 310.06 2.82009 310.17 2.94009V2.95009ZM335.16 4.09009C335.41 4.24009 335.6 4.39009 335.73 4.55009C335.86 4.71009 335.92 4.88009 335.92 5.06009C335.92 5.15009 335.9 5.26009 335.86 5.39009C335.82 5.52009 335.74 5.66009 335.63 5.81009C334.6 7.42009 333.38 8.94009 331.98 10.3601C330.58 11.7801 329.25 13.1501 328 14.4701C327.92 14.5601 327.8 14.6201 327.66 14.6701C327.52 14.7101 327.38 14.7401 327.24 14.7401C327.04 14.7401 326.87 14.7101 326.72 14.6501C326.57 14.5901 326.45 14.5201 326.36 14.4301H326.4C326.26 14.3101 326.15 14.1901 326.06 14.0601C325.98 13.9301 325.93 13.8001 325.93 13.6901C325.93 13.6301 325.95 13.5501 325.99 13.4501C326.03 13.3501 326.09 13.2401 326.18 13.1201C327.02 11.8601 327.84 10.4201 328.65 8.81009C329.46 7.20009 330.24 5.42009 331 3.49009C331.11 3.23009 331.28 3.02009 331.5 2.87009C331.72 2.72009 332 2.65009 332.34 2.65009C332.48 2.65009 332.61 2.66009 332.74 2.69009C332.87 2.72009 333 2.76009 333.14 2.82009L335.19 4.10009H335.15L335.16 4.09009Z" fill="#C29A62"/>
<path d="M36.18 4.87995C36.18 5.22995 36.05 5.52995 35.78 5.75995C35.51 5.99995 35.16 6.10995 34.71 6.10995H23.85V13.15H32.19C32.58 13.15 32.92 13.27 33.2 13.5C33.48 13.74 33.62 14.03 33.62 14.38V38.93C33.62 39.2799 33.48 39.57 33.2 39.81C32.92 40.04 32.58 40.16 32.19 40.16H30.43C30.04 40.16 29.7 40.04 29.42 39.81C29.14 39.57 29 39.2799 29 38.93V36.6899H7.46V39.11C7.46 39.4599 7.33 39.76 7.06 39.99C6.79 40.23 6.44 40.34 5.99 40.34H4.27C3.82 40.34 3.47 40.22 3.22 39.99C2.97 39.76 2.84 39.4599 2.84 39.11V14.39C2.84 14.04 2.97 13.75 3.22 13.51C3.47 13.28 3.82 13.16 4.27 13.16H11.73V6.11995H1.47C1.02 6.11995 0.67 5.99995 0.4 5.76995C0.13 5.53995 0 5.23995 0 4.88995C0 4.50995 0.13 4.21995 0.4 4.00995C0.67 3.79995 1.02 3.69995 1.47 3.69995H34.72C35.17 3.69995 35.52 3.79995 35.79 4.00995C36.06 4.21995 36.19 4.50995 36.19 4.88995L36.18 4.87995ZM29.01 34.45V28.3799H24.19C23.16 28.3799 22.32 28.2999 21.7 28.1399C21.08 27.9799 20.59 27.7099 20.25 27.33C19.91 26.95 19.69 26.46 19.58 25.86C19.47 25.26 19.41 24.5199 19.41 23.6399V15.37H16.27C16.27 16.87 16.16 18.3799 15.93 19.9C15.71 21.43 15.3 22.92 14.71 24.3899C14.12 25.8599 13.33 27.2699 12.34 28.6399C11.35 30 10.07 31.27 8.5 32.45L7.24 30.87C8.27 29.73 9.08 28.49 9.67 27.15C10.26 25.8099 10.7 24.47 11.01 23.1C11.32 21.74 11.51 20.39 11.6 19.07C11.68 17.75 11.73 16.52 11.73 15.37H7.45V34.47H29L29.01 34.45ZM19.41 6.11995H16.27V13.16H19.41V6.11995ZM23.85 15.36V22.2199C23.85 23.0999 23.97 23.7199 24.21 24.07C24.45 24.42 24.97 24.6 25.78 24.6H29.01V15.36H23.85Z" fill="black"/>
<path d="M47.4202 40.3C46.9702 40.3 46.6202 40.18 46.3502 39.95C46.0802 39.72 45.9502 39.42 45.9502 39.07V3.20998C45.9502 2.85998 46.0802 2.55998 46.3502 2.32998C46.6202 2.08998 46.9702 1.97998 47.4202 1.97998H59.5402C59.9302 1.97998 60.2702 2.09998 60.5502 2.32998C60.8302 2.55998 60.9702 2.85998 60.9702 3.20998V16.76C60.9702 17.08 60.8302 17.36 60.5502 17.6C60.2702 17.84 59.9302 17.95 59.5402 17.95H50.4802V39.07C50.4802 39.42 50.3402 39.72 50.0602 39.95C49.7802 40.18 49.4402 40.3 49.0502 40.3H47.4202ZM56.5102 8.66998V4.22998H50.4702V8.66998H56.5102ZM56.5102 15.8V10.87H50.4702V15.8H56.5102ZM67.2002 38.24C66.9502 38.09 66.7602 37.95 66.6302 37.8C66.5002 37.65 66.4402 37.51 66.4402 37.36C66.4402 37.3 66.4802 37.15 66.5702 36.92H66.5302C66.5902 36.68 66.7202 36.51 66.9302 36.39C67.1402 36.27 67.3802 36.21 67.6602 36.21C67.7402 36.21 67.8102 36.21 67.8502 36.23C67.8902 36.25 67.9402 36.25 68.0002 36.25C68.8902 36.46 69.6702 36.61 70.3302 36.71C70.9902 36.81 71.5502 36.86 72.0302 36.86C72.9202 36.86 73.5202 36.64 73.8102 36.2C74.1002 35.76 74.2502 35.08 74.2502 34.18V17.94H65.3202C64.8702 17.94 64.5202 17.82 64.2502 17.59C63.9802 17.36 63.8502 17.08 63.8502 16.75V3.20998C63.8502 2.85998 63.9802 2.55998 64.2502 2.32998C64.5202 2.08998 64.8702 1.97998 65.3202 1.97998H77.3502C77.8002 1.97998 78.1502 2.09998 78.4002 2.32998C78.6502 2.55998 78.7802 2.85998 78.7802 3.20998V35.2C78.7802 36.84 78.4002 38.16 77.6302 39.14C76.8602 40.12 75.6802 40.61 74.0902 40.61C73.2002 40.61 72.1802 40.43 71.0302 40.06C69.8802 39.69 68.6002 39.08 67.1702 38.23H67.2102L67.2002 38.24ZM74.2502 8.66998V4.22998H68.3402V8.66998H74.2502ZM74.2502 15.8V10.87H68.3402V15.8H74.2502Z" fill="black"/>
<path d="M91.56 11.09C91.25 11.56 90.92 12.02 90.55 12.48C90.19 12.94 89.81 13.38 89.42 13.82H89.46C89.38 13.94 89.26 14.02 89.12 14.06C88.98 14.1 88.83 14.13 88.66 14.13C88.46 14.13 88.3 14.11 88.16 14.06C88.02 14.02 87.91 13.94 87.83 13.82H87.87C87.73 13.67 87.63 13.54 87.58 13.42C87.52 13.3 87.5 13.19 87.5 13.07C87.5 13.01 87.51 12.93 87.54 12.83C87.57 12.73 87.62 12.62 87.71 12.5H87.67C88.7 10.77 89.58 8.98 90.29 7.13C91 5.28 91.67 3.32 92.28 1.23C92.36 0.94 92.52 0.7 92.74 0.53C92.96 0.36 93.26 0.27 93.62 0.27C93.82 0.27 94.12 0.34 94.54 0.47C94.96 0.6 95.25 0.7 95.42 0.76C95.73 0.91 95.98 1.07 96.17 1.24C96.37 1.42 96.46 1.62 96.46 1.86C96.46 1.98 96.38 2.24 96.21 2.65C96.04 3.06 95.85 3.5 95.62 3.97C95.4 4.44 95.18 4.88 94.97 5.29C94.76 5.7 94.63 5.97 94.57 6.08H98.89C98.75 5.32 98.56 4.49 98.32 3.59C98.08 2.7 97.81 1.92 97.5 1.28C97.47 1.22 97.46 1.12 97.46 0.97C97.46 0.82 97.52 0.68 97.63 0.55C97.74 0.42 97.92 0.28 98.17 0.13H98.13C98.21 0.07 98.3 0.04 98.4 0.02C98.5 0.01 98.62 0 98.76 0C99.1 0 99.44 0.16 99.81 0.48C100.17 0.8 100.52 1.19 100.86 1.65C101.2 2.11 101.5 2.57 101.76 3.04C102.03 3.51 102.23 3.89 102.37 4.18V4.14C102.43 4.29 102.47 4.41 102.52 4.51C102.57 4.61 102.58 4.69 102.58 4.75C102.58 4.93 102.5 5.1 102.35 5.28C102.2 5.46 101.97 5.62 101.66 5.76L101.03 6.07H106.1C106.49 6.07 106.81 6.17 107.06 6.36C107.31 6.55 107.44 6.81 107.44 7.13C107.44 7.51 107.31 7.8 107.06 7.99C106.81 8.18 106.49 8.28 106.1 8.28H101.66V10.7H105.22C105.44 10.7 105.63 10.74 105.79 10.83C105.94 10.92 106.02 11.07 106.02 11.27V11.75L105.22 11.66C106.17 10.08 106.95 8.45 107.55 6.78C108.15 5.11 108.66 3.29 109.08 1.32C109.16 1.03 109.32 0.79 109.56 0.62C109.8 0.44 110.1 0.36 110.46 0.36C110.68 0.36 111 0.43 111.4 0.56C111.8 0.69 112.11 0.79 112.3 0.85C112.64 1 112.9 1.16 113.1 1.33C113.3 1.51 113.39 1.71 113.39 1.95C113.39 2.04 113.31 2.28 113.14 2.68C112.97 3.08 112.78 3.51 112.57 3.98C112.36 4.45 112.16 4.89 111.98 5.3C111.8 5.71 111.68 5.98 111.62 6.09H115.69C115.52 5.33 115.33 4.51 115.1 3.63C114.87 2.75 114.62 2.02 114.35 1.43C114.32 1.37 114.31 1.27 114.31 1.12C114.31 0.97 114.37 0.83 114.48 0.7C114.59 0.57 114.77 0.43 115.03 0.28H114.99C115.07 0.22 115.16 0.19 115.26 0.17C115.36 0.16 115.48 0.15 115.62 0.15C115.84 0.15 116.03 0.18 116.19 0.24C116.34 0.3 116.48 0.39 116.59 0.5C116.73 0.68 116.95 0.96 117.26 1.36C117.57 1.76 117.88 2.18 118.2 2.64C118.52 3.1 118.81 3.54 119.06 3.96C119.31 4.39 119.44 4.7 119.44 4.91C119.44 5.09 119.37 5.26 119.23 5.44C119.09 5.62 118.87 5.78 118.56 5.92L118.18 6.1H122.96C123.38 6.1 123.7 6.2 123.92 6.39C124.14 6.58 124.26 6.84 124.26 7.16C124.26 7.54 124.15 7.83 123.92 8.02C123.7 8.21 123.38 8.31 122.96 8.31H118.56V10.77H121.75C122.09 10.77 122.38 10.87 122.63 11.06C122.88 11.25 123.01 11.51 123.01 11.83C123.01 12.15 122.88 12.42 122.63 12.62C122.38 12.83 122.08 12.93 121.75 12.93H118.56V15.53H121.75C122.09 15.53 122.38 15.63 122.63 15.82C122.88 16.01 123.01 16.27 123.01 16.59C123.01 16.91 122.88 17.17 122.63 17.36C122.38 17.55 122.08 17.65 121.75 17.65H118.56V20.33H123.34C123.76 20.33 124.08 20.43 124.3 20.64C124.52 20.85 124.64 21.11 124.64 21.43C124.64 21.75 124.53 22.02 124.3 22.22C124.08 22.43 123.76 22.53 123.34 22.53H111.89V23.28C111.89 23.6 111.78 23.85 111.55 24.01C111.33 24.17 111.02 24.25 110.63 24.25H109.2C108.75 24.25 108.4 24.14 108.13 23.92C107.86 23.7 107.73 23.41 107.73 23.06V11.18L108.48 11.27L108.27 11.53C108.02 11.85 107.77 12.17 107.54 12.48C107.3 12.79 107.02 13.12 106.68 13.47C106.6 13.56 106.48 13.62 106.34 13.67C106.2 13.71 106.06 13.74 105.92 13.74C105.75 13.74 105.6 13.72 105.46 13.67C105.32 13.63 105.21 13.56 105.12 13.47L104.62 12.99V12.9L104.7 12.72L105.08 12.9H101.64V15.5H104.66C105.08 15.5 105.4 15.6 105.62 15.81C105.84 16.02 105.96 16.28 105.96 16.6C105.96 16.92 105.85 17.18 105.62 17.37C105.4 17.56 105.07 17.66 104.66 17.66H101.64V20.34H106.21C106.6 20.34 106.92 20.44 107.17 20.65C107.42 20.86 107.55 21.12 107.55 21.44C107.55 21.76 107.42 22.03 107.17 22.23C106.92 22.44 106.6 22.54 106.21 22.54H94.93V23.38C94.93 23.7 94.8 23.97 94.55 24.17C94.3 24.38 93.98 24.48 93.59 24.48H92.25C91.8 24.48 91.45 24.36 91.18 24.13C90.91 23.9 90.78 23.62 90.78 23.29V11.06L91.53 11.15L91.56 11.09ZM123.43 35.68C123.93 35.68 124.32 35.76 124.58 35.92C124.85 36.08 124.98 36.32 124.98 36.65C124.98 36.74 124.96 36.85 124.92 36.98C124.88 37.11 124.82 37.25 124.73 37.4L123.68 39.6C123.6 39.83 123.44 40.01 123.22 40.13C123 40.25 122.73 40.31 122.42 40.31H122.25C119.62 40.13 117.08 39.82 114.62 39.36C112.16 38.9 109.8 38.11 107.53 36.96C105.07 38.02 102.37 38.86 99.42 39.49C96.47 40.12 93.08 40.55 89.25 40.79H89.12C88.81 40.79 88.55 40.72 88.34 40.57C88.13 40.42 88 40.23 87.94 40C87.94 39.65 88 39.4 88.11 39.25C88.22 39.1 88.47 39 88.86 38.94C92.07 38.62 94.96 38.12 97.52 37.44C100.08 36.77 102.38 35.97 104.42 35.06C103.05 34.12 101.79 33.01 100.65 31.72C99.5 30.43 98.46 28.95 97.51 27.28H94.7C94.31 27.28 93.99 27.18 93.74 26.97C93.49 26.76 93.36 26.5 93.36 26.18C93.36 25.86 93.49 25.6 93.74 25.41C93.99 25.22 94.31 25.12 94.7 25.12H115.03L115.41 24.81C115.49 24.75 115.6 24.7 115.72 24.66C115.85 24.62 115.98 24.59 116.12 24.59C116.26 24.59 116.38 24.59 116.48 24.61C116.58 24.63 116.67 24.66 116.75 24.72L119.1 26.22C119.35 26.37 119.54 26.53 119.67 26.7C119.8 26.88 119.86 27.05 119.86 27.23C119.86 27.32 119.84 27.44 119.8 27.58C119.76 27.72 119.67 27.87 119.53 28.02C118.52 29.31 117.4 30.49 116.15 31.56C114.91 32.63 113.53 33.64 112.02 34.57C113.81 34.98 115.65 35.26 117.55 35.41C119.45 35.56 121.41 35.64 123.42 35.67L123.43 35.68ZM94.96 10.69H97.64V8.27H94.96V10.69ZM94.96 15.44H97.64V12.84H94.96V15.44ZM94.96 17.6V20.46H97.64V17.6H94.96ZM99.74 27.06C100.97 28.64 102.24 29.91 103.56 30.87C104.87 31.82 106.29 32.62 107.79 33.27C109.13 32.42 110.31 31.49 111.33 30.48C112.35 29.47 113.22 28.4 113.95 27.29H99.91L99.74 27.07V27.06ZM111.9 10.74H114.54V8.28H111.9V10.74ZM111.9 15.49H114.54V12.89H111.9V15.49ZM111.9 17.6V20.28H114.54V17.6H111.9Z" fill="black"/>
<path d="M141.12 35.9499C141.12 37.0699 140.78 37.9499 140.09 38.5899C139.4 39.2299 138.48 39.5599 137.3 39.5599C137.02 39.5599 136.57 39.4899 135.96 39.3599C135.34 39.2299 134.73 39.0399 134.12 38.8099C133.5 38.5699 132.96 38.2999 132.48 37.9999C132 37.6899 131.77 37.3499 131.77 36.9699C131.77 36.9099 131.77 36.8499 131.79 36.7899C131.8 36.7299 131.81 36.6699 131.81 36.6099C131.87 36.3999 131.98 36.2399 132.15 36.0999C132.32 35.9699 132.55 35.8999 132.86 35.8999C132.92 35.8999 132.97 35.8999 133.03 35.9199C133.09 35.9299 133.13 35.9399 133.16 35.9399C133.72 36.0899 134.19 36.1799 134.59 36.2299C134.98 36.2699 135.32 36.2999 135.6 36.2999C136.13 36.2999 136.47 36.1499 136.61 35.8399C136.75 35.5299 136.82 35.0699 136.82 34.4499V25.3399C136.54 25.4899 136.27 25.6199 136 25.7399C135.73 25.8599 135.48 25.9599 135.22 26.0499C135 26.1099 134.8 26.1899 134.63 26.2899C134.46 26.3899 134.27 26.4699 134.04 26.5299C133.96 26.5599 133.87 26.5799 133.77 26.5999C133.67 26.6099 133.57 26.6199 133.46 26.6199C133.15 26.6199 132.89 26.5499 132.66 26.3999C132.44 26.2499 132.25 26.0299 132.12 25.7399L131.53 23.8899C131.47 23.7699 131.44 23.6699 131.43 23.5799C131.42 23.4899 131.41 23.4199 131.41 23.3599C131.41 23.0999 131.51 22.8699 131.72 22.6799C131.93 22.4899 132.23 22.3699 132.62 22.3099C133.32 22.1599 134 22.0099 134.65 21.8499C135.3 21.6899 136.03 21.5099 136.81 21.2999V11.9699H133.04C132.65 11.9699 132.33 11.8799 132.08 11.6799C131.83 11.4899 131.7 11.1999 131.7 10.8199C131.7 10.4999 131.83 10.2399 132.08 10.0499C132.33 9.8599 132.65 9.7599 133.04 9.7599H136.81V1.6299C136.81 1.2799 136.94 0.979902 137.21 0.749902C137.48 0.509902 137.83 0.399902 138.28 0.399902H139.66C140.11 0.399902 140.46 0.519902 140.73 0.749902C141 0.979902 141.13 1.2799 141.13 1.6299V9.7699H144.32C144.74 9.7699 145.06 9.8699 145.28 10.0599C145.5 10.2499 145.62 10.5099 145.62 10.8299C145.62 11.2099 145.51 11.4999 145.28 11.6899C145.06 11.8799 144.74 11.9799 144.32 11.9799H141.13V20.0799L142.14 19.7299C142.47 19.6099 142.8 19.5099 143.1 19.4199C143.27 19.3599 143.44 19.3099 143.6 19.2699C143.77 19.2299 143.94 19.1699 144.1 19.1199H144.06C144.14 19.0899 144.23 19.0699 144.31 19.0499C144.39 19.0399 144.48 19.0299 144.56 19.0299C144.84 19.0299 145.1 19.1199 145.34 19.2899C145.58 19.4699 145.7 19.7199 145.7 20.0399C145.7 20.1899 145.65 20.3299 145.55 20.4799C145.45 20.6299 145.31 20.7699 145.11 20.9199C144.41 21.3599 143.71 21.7799 143.01 22.1699C142.31 22.5699 141.61 22.9699 140.91 23.3799L141.12 23.2499V35.9699V35.9499ZM160.49 35.7299C160.71 35.7599 160.94 35.7699 161.16 35.7699H161.91C162.72 35.7699 163.61 35.7499 164.57 35.6999C165.53 35.6599 166.49 35.5799 167.44 35.4599C167.78 35.4599 168.14 35.5099 168.53 35.6099C168.92 35.7099 169.12 36.0099 169.12 36.5099C169.12 36.6299 169.09 36.7999 169.04 37.0399C168.96 37.2999 168.88 37.5699 168.81 37.8499C168.74 38.1299 168.68 38.4099 168.62 38.7099C168.56 38.8899 168.42 39.0499 168.2 39.2199C167.98 39.3899 167.7 39.4899 167.36 39.5499C166.74 39.6099 166.07 39.6499 165.35 39.6799C164.62 39.7099 163.9 39.7199 163.17 39.7199C161.63 39.7199 160.14 39.6799 158.68 39.5899C157.23 39.4999 155.85 39.2399 154.55 38.7999C153.25 38.3599 152.05 37.6799 150.94 36.7499C149.83 35.8199 148.88 34.5599 148.07 32.9399C147.37 34.2899 146.5 35.5899 145.45 36.8299C144.4 38.0799 143.11 39.2299 141.57 40.2799L141.61 40.2399C141.53 40.2999 141.42 40.3499 141.3 40.3899C141.17 40.4299 141.04 40.4599 140.9 40.4599C140.65 40.4599 140.39 40.3799 140.12 40.2199C139.85 40.0599 139.72 39.8199 139.72 39.4899C139.72 39.3699 139.76 39.2499 139.85 39.1399C139.94 39.0299 140.05 38.9099 140.19 38.7899H140.15C141.02 37.9699 141.76 37.0699 142.37 36.0799C142.98 35.0999 143.51 34.0599 143.94 32.9599C144.37 31.8599 144.74 30.7299 145.03 29.5699C145.32 28.4099 145.58 27.2499 145.81 26.0699C145.87 25.7499 146.02 25.4899 146.27 25.2999C146.52 25.1099 146.83 25.0099 147.19 25.0099H147.4C147.48 25.0099 147.55 25.0299 147.61 25.0499C147.86 25.1099 148.12 25.1799 148.39 25.2699C148.66 25.3599 148.93 25.4299 149.21 25.4899C149.52 25.6099 149.76 25.7599 149.94 25.9499C150.12 26.1399 150.23 26.3499 150.25 26.5899C150.25 26.6199 150.25 26.6599 150.23 26.7199C150.22 26.7799 150.21 26.8399 150.21 26.8999C150.07 27.4599 149.94 27.9899 149.81 28.5099C149.68 29.0199 149.51 29.5599 149.29 30.1199C149.82 31.2099 150.34 32.0899 150.84 32.7599C151.34 33.4399 151.9 33.9499 152.52 34.2999V23.4799H147.15C146.76 23.4799 146.44 23.3899 146.19 23.1899C145.94 22.9899 145.81 22.7099 145.81 22.3299C145.81 22.0099 145.94 21.7499 146.19 21.5599C146.44 21.3699 146.76 21.2699 147.15 21.2699H152.52V17.7899H144.93C144.48 17.7899 144.14 17.6899 143.9 17.4799C143.66 17.2699 143.54 17.0099 143.54 16.6899C143.54 16.3699 143.66 16.0999 143.9 15.8999C144.14 15.6899 144.48 15.5899 144.93 15.5899H152.52V12.5099H147.53C147.14 12.5099 146.82 12.4099 146.57 12.2199C146.32 12.0299 146.19 11.7399 146.19 11.3599C146.19 11.0399 146.32 10.7799 146.57 10.5899C146.82 10.3999 147.14 10.2999 147.53 10.2999H152.52V7.2599H144.43C143.98 7.2599 143.64 7.1599 143.4 6.9499C143.16 6.7499 143.04 6.4799 143.04 6.1599C143.04 5.8399 143.16 5.5699 143.4 5.3699C143.64 5.1699 143.98 5.0599 144.43 5.0599H152.52V1.6699C152.52 1.3199 152.65 1.0199 152.9 0.789902C153.15 0.559902 153.5 0.439902 153.95 0.439902H155.42C155.87 0.439902 156.22 0.559902 156.49 0.789902C156.76 1.0199 156.89 1.3199 156.89 1.6699V5.0999H167.04C167.46 5.0999 167.78 5.1999 168 5.4099C168.22 5.6199 168.34 5.8799 168.34 6.1999C168.34 6.5199 168.23 6.7899 168 6.9899C167.78 7.1999 167.46 7.2999 167.04 7.2999H156.89V10.3399H162.76C163.21 10.3399 163.56 10.4399 163.81 10.6499C164.06 10.8599 164.19 11.1499 164.19 11.5299V15.6199H167.25C167.67 15.6199 167.99 15.7199 168.21 15.9299C168.43 16.1399 168.55 16.3999 168.55 16.7199C168.55 17.0399 168.44 17.3099 168.21 17.5099C167.98 17.7099 167.67 17.8199 167.25 17.8199H164.19V22.2599C164.19 22.6099 164.06 22.9099 163.81 23.1399C163.56 23.3799 163.21 23.4899 162.76 23.4899H156.89V27.6699H165.65C166.04 27.6699 166.36 27.7699 166.61 27.9599C166.86 28.1499 166.99 28.4099 166.99 28.7299C166.99 29.1099 166.86 29.3999 166.61 29.5899C166.36 29.7799 166.04 29.8799 165.65 29.8799H156.89V35.5099C157.42 35.5699 157.97 35.6099 158.55 35.6399C159.12 35.6699 159.77 35.6999 160.5 35.7299H160.49ZM156.88 12.5399V15.6199H159.9V12.5399H156.88ZM159.9 17.8199H156.88V21.2999H159.9V17.8199Z" fill="black"/>
<path d="M179.44 39.95C179.3 40.1 179.13 40.2099 178.94 40.2999C178.74 40.3899 178.53 40.43 178.31 40.43C178.09 40.43 177.9 40.4 177.74 40.34C177.59 40.2799 177.44 40.18 177.3 40.0299L176.42 39.02C176.25 38.8699 176.13 38.72 176.04 38.56C175.95 38.4 175.93 38.2399 175.96 38.0999C175.96 37.9499 176.01 37.81 176.11 37.66C176.21 37.5099 176.35 37.37 176.55 37.22H176.51C177.32 36.49 178.17 35.61 179.05 34.58C179.93 33.55 180.68 32.57 181.29 31.6299L181.21 31.7199V22.3899H177.44C177.05 22.3899 176.73 22.2899 176.48 22.08C176.23 21.87 176.1 21.61 176.1 21.29C176.1 20.97 176.23 20.7 176.48 20.5C176.73 20.29 177.05 20.19 177.44 20.19H184.15C184.6 20.19 184.95 20.31 185.22 20.54C185.49 20.77 185.62 21.07 185.62 21.42V31.6299L185.54 31.54C186.1 32.39 186.8 33.07 187.66 33.56C188.51 34.06 189.43 34.44 190.43 34.7C191.42 34.9599 192.43 35.1299 193.45 35.2099C194.47 35.2799 195.41 35.32 196.28 35.32C197.45 35.32 198.7 35.2999 200.03 35.25C201.36 35.2099 202.7 35.1399 204.05 35.0499C205.41 34.9599 206.74 34.8699 208.05 34.7599C209.36 34.66 210.59 34.5499 211.74 34.43C212.08 34.43 212.44 34.47 212.83 34.56C213.22 34.65 213.42 34.9399 213.42 35.4399C213.42 35.5299 213.38 35.6899 213.32 35.9199C213.25 36.16 213.17 36.4199 213.07 36.7099C212.97 37 212.88 37.27 212.8 37.5C212.72 37.7299 212.66 37.8999 212.63 37.9799C212.55 38.2099 212.39 38.3899 212.17 38.5099C211.95 38.6299 211.68 38.7099 211.37 38.77C209.78 38.83 208.02 38.87 206.09 38.9C204.16 38.93 202.23 38.9399 200.3 38.9399H198.14C197.43 38.9399 196.74 38.93 196.06 38.9C194.27 38.87 192.7 38.6899 191.34 38.3699C189.98 38.0499 188.82 37.6199 187.84 37.09C186.86 36.56 186.03 35.9499 185.35 35.2599C184.66 34.57 184.09 33.83 183.61 33.04C183.05 34.27 182.41 35.47 181.68 36.65C180.95 37.82 180.21 38.91 179.46 39.91L179.44 39.95ZM183.84 16.28C183.7 16.46 183.53 16.59 183.34 16.68C183.14 16.77 182.93 16.8099 182.71 16.8099C182.49 16.8099 182.27 16.76 182.06 16.66C181.85 16.5599 181.68 16.42 181.54 16.24C180.9 15.39 180.19 14.48 179.42 13.51C178.65 12.54 177.9 11.68 177.18 10.91C177.04 10.76 176.94 10.64 176.89 10.54C176.83 10.44 176.81 10.31 176.81 10.17C176.81 10.11 176.83 10.02 176.87 9.90995C176.91 9.78995 176.97 9.65995 177.06 9.50995L177.02 9.54995C177.08 9.36995 177.19 9.23995 177.38 9.14995C177.56 9.05995 177.78 9.01995 178.03 9.01995C178.28 9.01995 178.74 9.19995 179.39 9.56995C180.05 9.93995 180.73 10.36 181.44 10.85C182.15 11.33 182.83 11.82 183.47 12.3C184.11 12.78 184.55 13.13 184.77 13.33C184.97 13.48 185.11 13.62 185.21 13.77C185.31 13.92 185.36 14.06 185.36 14.21C185.36 14.33 185.32 14.45 185.23 14.58C185.15 14.71 185.03 14.85 184.89 15H184.93C184.73 15.23 184.55 15.45 184.38 15.64C184.21 15.83 184.03 16.04 183.84 16.28ZM185.05 7.34995C184.91 7.49995 184.75 7.60995 184.57 7.69995C184.39 7.78995 184.19 7.82995 183.96 7.82995C183.73 7.82995 183.53 7.78995 183.33 7.69995C183.13 7.60995 182.97 7.47995 182.83 7.29995C182.16 6.47995 181.45 5.62995 180.71 4.76995C179.97 3.90995 179.21 3.04995 178.42 2.19995H178.46C178.32 2.07995 178.21 1.96995 178.15 1.84995C178.08 1.72995 178.05 1.61995 178.05 1.49995C178.05 1.43995 178.06 1.35995 178.09 1.25995C178.12 1.15995 178.16 1.02995 178.22 0.889951C178.33 0.739951 178.47 0.629951 178.64 0.559951C178.81 0.489951 179.02 0.449951 179.27 0.449951H179.58C179.68 0.449951 179.75 0.479951 179.81 0.539951H179.77C180.05 0.659951 180.56 0.909951 181.3 1.30995C182.04 1.70995 182.79 2.14995 183.56 2.62995C184.33 3.10995 185.01 3.59995 185.61 4.07995C186.21 4.55995 186.51 4.96995 186.51 5.28995C186.51 5.40995 186.47 5.52995 186.41 5.65995C186.34 5.78995 186.23 5.92995 186.1 6.07995H186.14C185.94 6.31995 185.76 6.52995 185.59 6.71995C185.42 6.90995 185.26 7.11995 185.09 7.35995H185.05V7.34995ZM198.81 34.5C198.36 34.5 198.01 34.38 197.76 34.15C197.51 33.92 197.38 33.6199 197.38 33.27V29.9699H188.41C187.96 29.9699 187.63 29.88 187.4 29.68C187.18 29.49 187.07 29.1999 187.07 28.82C187.07 28.5 187.18 28.24 187.4 28.0499C187.62 27.8599 187.96 27.76 188.41 27.76H197.38V25.34H190.8C190.35 25.34 190 25.2199 189.73 24.99C189.46 24.76 189.33 24.46 189.33 24.11V14.91C189.33 14.56 189.46 14.26 189.73 14.03C190 13.8 190.35 13.68 190.8 13.68H197.38V11.35H189.5C189.05 11.35 188.71 11.25 188.47 11.04C188.23 10.83 188.11 10.57 188.11 10.25C188.11 9.92995 188.23 9.65995 188.47 9.45995C188.71 9.24995 189.05 9.14995 189.5 9.14995H197.38V7.03995C197.38 6.65995 197.51 6.36995 197.76 6.15995C198.01 5.95995 198.36 5.84995 198.81 5.84995H200.28C200.73 5.84995 201.08 5.94995 201.35 6.15995C201.62 6.36995 201.75 6.65995 201.75 7.03995V9.14995H209.38C209.8 9.14995 210.12 9.24995 210.34 9.45995C210.56 9.66995 210.68 9.92995 210.68 10.25C210.68 10.57 210.57 10.84 210.34 11.04C210.12 11.25 209.79 11.35 209.38 11.35H201.75V13.68H208.37C208.82 13.68 209.17 13.8 209.44 14.03C209.71 14.27 209.84 14.56 209.84 14.91V24.11C209.84 24.46 209.71 24.76 209.44 24.99C209.17 25.2299 208.82 25.34 208.37 25.34H201.75V27.76H211.1C211.49 27.76 211.81 27.8599 212.06 28.0499C212.31 28.24 212.44 28.5 212.44 28.82C212.44 29.1999 212.31 29.49 212.06 29.68C211.81 29.87 211.49 29.9699 211.1 29.9699H201.75V33.27C201.75 33.6199 201.62 33.92 201.35 34.15C201.08 34.39 200.73 34.5 200.28 34.5H198.81ZM188.7 8.57995C188.25 8.57995 187.9 8.45995 187.63 8.22995C187.36 7.99995 187.23 7.69995 187.23 7.34995V3.64995C187.23 3.29995 187.36 3.00995 187.63 2.76995C187.9 2.53995 188.25 2.41995 188.7 2.41995H210.12C210.51 2.41995 210.85 2.53995 211.13 2.76995C211.41 3.00995 211.55 3.29995 211.55 3.64995V7.34995C211.55 7.69995 211.41 7.99995 211.13 8.22995C210.85 8.46995 210.51 8.57995 210.12 8.57995H208.69C208.24 8.57995 207.89 8.45995 207.64 8.22995C207.39 7.99995 207.26 7.69995 207.26 7.34995V4.61995H191.54V7.34995C191.54 7.69995 191.41 7.99995 191.14 8.22995C190.87 8.46995 190.52 8.57995 190.07 8.57995H188.69H188.7ZM197.38 18.35V15.75H193.48V18.35H197.38ZM197.38 23.28V20.33H193.48V23.28H197.38ZM205.72 18.35V15.75H201.74V18.35H205.72ZM205.72 23.28V20.33H201.74V23.28H205.72Z" fill="black"/>
<path d="M233.77 26.2801C233.77 25.2701 233.56 24.3801 233.14 23.6101C232.72 22.8401 232.17 22.2001 231.51 21.6701C230.84 21.1501 230.08 20.7601 229.22 20.4901C228.36 20.2301 227.5 20.1001 226.63 20.1001H225.67C225.56 20.1001 225.46 20.1201 225.37 20.1501H225.14C224.77 20.1501 224.45 20.0601 224.21 19.8801C223.96 19.7001 223.84 19.4301 223.84 19.0701V17.8901C223.84 17.5001 223.96 17.2001 224.21 16.9801C224.46 16.7701 224.8 16.6101 225.24 16.5101C226.33 16.3501 227.3 16.0501 228.16 15.6301C229.02 15.2101 229.75 14.7001 230.35 14.1101C230.95 13.5201 231.44 12.8601 231.8 12.1301C232.16 11.3901 232.38 10.6701 232.48 9.95009C232.48 9.85009 232.48 9.75009 232.5 9.66009C232.52 9.56009 232.52 9.46009 232.52 9.37009C232.52 8.06009 232.07 7.08009 231.17 6.41009C230.27 5.74009 229.07 5.41009 227.57 5.41009C226.39 5.41009 225.33 5.61009 224.4 6.00009C223.47 6.39009 222.59 6.83009 221.79 7.32009C221.63 7.42009 221.46 7.50009 221.28 7.57009C221.09 7.64009 220.89 7.67009 220.67 7.67009C220.3 7.67009 220.02 7.56009 219.83 7.33009C219.64 7.10009 219.55 6.76009 219.55 6.30009V5.12009C219.55 4.86009 219.63 4.62009 219.78 4.41009C219.94 4.20009 220.11 4.03009 220.29 3.90009C221.04 3.61009 222.08 3.27009 223.42 2.90009C224.76 2.52009 226.41 2.34009 228.37 2.34009C230.11 2.34009 231.59 2.58009 232.81 3.05009C234.03 3.52009 235.02 4.12009 235.8 4.84009C236.58 5.56009 237.15 6.34009 237.53 7.19009C237.91 8.04009 238.11 8.84009 238.14 9.59009C238.14 9.69009 238.14 9.80009 238.12 9.91009C238.1 10.0201 238.1 10.1101 238.1 10.1801C238.01 11.1601 237.73 12.0501 237.26 12.8501C236.79 13.6501 236.21 14.3701 235.51 15.0101C234.81 15.6501 234.05 16.1901 233.25 16.6501C232.44 17.1101 231.63 17.4801 230.82 17.7801V17.9301C231.88 18.0601 232.91 18.3501 233.92 18.7901C234.93 19.2301 235.85 19.7901 236.67 20.4801C237.49 21.1701 238.16 21.9801 238.68 22.9101C239.19 23.8401 239.48 24.8801 239.54 26.0201C239.54 27.7201 239.27 29.2401 238.75 30.5801C238.22 31.9201 237.48 33.0601 236.53 34.0101C235.58 34.9601 234.44 35.7101 233.12 36.2601C231.8 36.8201 230.36 37.1901 228.8 37.3901C228.36 37.4601 227.92 37.5001 227.47 37.5101C227.02 37.5301 226.57 37.5301 226.14 37.5301C225.11 37.5301 224.09 37.4701 223.08 37.3601C222.07 37.2401 221.1 37.0601 220.16 36.8001H220.21C219.81 36.7301 219.51 36.6001 219.32 36.4101C219.13 36.2101 219.01 35.9901 218.95 35.7201L218.9 35.3801V35.4301C218.9 35.0101 218.97 34.7101 219.11 34.5501C219.25 34.3901 219.55 34.2901 220.02 34.2601C220.08 34.2601 220.14 34.2601 220.21 34.2801C220.27 34.3001 220.33 34.3001 220.4 34.3001H220.35C221.07 34.4001 221.77 34.4701 222.45 34.5201C223.13 34.5701 223.79 34.6101 224.41 34.6401C225.75 34.6401 226.99 34.5101 228.12 34.2501C229.26 33.9901 230.24 33.5401 231.08 32.9001C231.92 32.2601 232.58 31.4101 233.06 30.3301C233.54 29.2501 233.78 27.9101 233.78 26.3101L233.77 26.2801Z" fill="black"/>
<path d="M267.01 25.1099C267.01 27.2999 266.67 29.1699 265.98 30.7199C265.29 32.2699 264.31 33.5399 263.04 34.5199C261.76 35.4999 260.21 36.2199 258.37 36.6799C256.53 37.1399 254.46 37.3699 252.16 37.3699C251.54 37.3699 250.89 37.3699 250.22 37.3499C249.55 37.3299 248.86 37.2799 248.14 37.1799C247.77 37.1099 247.45 36.9799 247.18 36.7899C246.91 36.5899 246.75 36.3499 246.69 36.0499V35.8499V35.8999C246.69 35.3799 246.77 35.0299 246.95 34.8699C247.12 34.7099 247.49 34.6199 248.05 34.6199C248.39 34.6499 248.7 34.6699 248.98 34.6699H249.87C253.76 34.6699 256.62 33.9799 258.44 32.6099C260.26 31.2399 261.23 28.9699 261.36 25.7999C261.36 24.9199 261.31 24.0399 261.2 23.1799C261.09 22.3099 260.86 21.5399 260.5 20.8499C260.14 20.1599 259.65 19.6099 259.03 19.1799C258.41 18.7599 257.58 18.5399 256.56 18.5399C255.44 18.5399 254.49 18.6799 253.71 18.9599C252.93 19.2399 252.29 19.5899 251.8 20.0099C251.58 20.2099 251.35 20.3299 251.1 20.3799C250.85 20.4299 250.59 20.4499 250.31 20.4499C250.06 20.3899 249.83 20.3399 249.61 20.3299C249.39 20.3099 249.16 20.2699 248.91 20.2099C248.5 20.1099 248.19 19.9599 247.95 19.7399C247.72 19.5299 247.6 19.2699 247.6 18.9799V18.8299C247.66 16.3799 247.74 13.9499 247.83 11.5299C247.92 9.10991 248 6.67991 248.06 4.22991C248.12 3.80991 248.29 3.47991 248.55 3.24991C248.81 3.01991 249.2 2.90991 249.69 2.90991H263.93C264.37 2.90991 264.74 3.03991 265.05 3.29991C265.36 3.55991 265.52 3.88991 265.52 4.27991V5.05991C265.52 5.41991 265.36 5.72991 265.05 5.98991C264.74 6.24991 264.36 6.37991 263.93 6.37991H253L252.63 16.9599L252.49 16.8599L252.68 17.0599L252.12 17.0099C252.52 16.7499 253.19 16.4099 254.1 15.9799C255.02 15.5599 256.08 15.3399 257.3 15.3399H257.49C258.77 15.3399 259.97 15.5599 261.11 15.9999C262.25 16.4399 263.26 17.0799 264.14 17.9099C265.02 18.7399 265.73 19.7599 266.24 20.9699C266.75 22.1799 267.01 23.5499 267.01 25.0899V25.1099Z" fill="black"/>
<path d="M284.94 37.4999C283.26 37.4999 281.71 37.1199 280.29 36.3499C278.87 35.5799 277.65 34.4599 276.62 32.9699C275.59 31.4799 274.78 29.6599 274.19 27.4799C273.6 25.2999 273.3 22.8199 273.3 20.0099C273.3 17.1999 273.6 14.6499 274.21 12.4599C274.82 10.2699 275.66 8.42992 276.73 6.94992C277.8 5.45992 279.08 4.33992 280.56 3.56992C282.04 2.79992 283.65 2.41992 285.39 2.41992C289 2.41992 291.83 3.90992 293.86 6.87992C295.9 9.84992 296.92 14.0799 296.92 19.5699C296.92 25.3499 295.88 29.7899 293.79 32.8699C291.7 35.9599 288.78 37.4999 285.01 37.4999H284.92H284.94ZM285.08 34.4699C286.14 34.4699 287.06 34.0999 287.83 33.3699C288.61 32.6299 289.25 31.6099 289.74 30.3099C290.24 28.9999 290.61 27.4499 290.86 25.6499C291.11 23.8499 291.23 21.8899 291.23 19.7699C291.23 17.6499 291.11 15.8099 290.88 14.0599C290.65 12.3099 290.28 10.7999 289.78 9.52992C289.28 8.25992 288.65 7.25992 287.89 6.53992C287.13 5.81992 286.2 5.45992 285.11 5.45992C284.21 5.45992 283.38 5.78992 282.64 6.45992C281.89 7.12992 281.25 8.08992 280.7 9.34992C280.16 10.6099 279.74 12.1399 279.44 13.9299C279.14 15.7299 279 17.7699 279 20.0499C279 22.3299 279.14 24.2199 279.42 25.9799C279.7 27.7399 280.1 29.2599 280.63 30.5099C281.16 31.7699 281.8 32.7399 282.54 33.4299C283.29 34.1199 284.13 34.4599 285.06 34.4599L285.08 34.4699Z" fill="black"/>
<path d="M325.05 18.4401C327.03 21.5501 329.26 24.1201 331.74 26.1401C334.21 28.1601 336.9 29.8901 339.81 31.3301C340.12 31.4801 340.35 31.6401 340.5 31.8101C340.65 31.9901 340.73 32.1801 340.73 32.3801C340.73 32.4701 340.7 32.5901 340.65 32.7301C340.59 32.8801 340.51 33.0401 340.4 33.2101L338.56 35.8501C338.45 36.0001 338.29 36.1101 338.08 36.2001C337.87 36.2901 337.65 36.3301 337.43 36.3301C337.23 36.3301 337.07 36.3101 336.93 36.2601C336.79 36.2201 336.66 36.1501 336.55 36.0601H336.59C335.5 35.2701 334.4 34.4101 333.3 33.4901C332.2 32.5701 331.11 31.5501 330.05 30.4501C328.99 29.3501 327.97 28.1401 327.01 26.8201C326.05 25.5001 325.16 24.0601 324.35 22.5101V39.4901C324.35 39.8401 324.22 40.1301 323.95 40.3701C323.68 40.6001 323.33 40.7201 322.88 40.7201H320.99C320.6 40.7201 320.26 40.6001 319.98 40.3701C319.7 40.1301 319.56 39.8401 319.56 39.4901V22.2901C318.83 23.6101 317.97 24.9501 316.98 26.2901C315.99 27.6401 314.86 28.9601 313.6 30.2501C312.34 31.5401 310.97 32.7701 309.47 33.9201C307.97 35.0801 306.36 36.1401 304.63 37.1101L304.67 37.0701C304.36 37.3001 304.06 37.3801 303.75 37.3101C303.44 37.2401 303.21 37.0201 303.04 36.6701L303.08 36.7101C303 36.5901 302.93 36.4901 302.89 36.4001C302.85 36.3101 302.83 36.2401 302.83 36.1801C302.83 36.0601 302.88 35.9401 302.98 35.8101C303.08 35.6801 303.21 35.5501 303.38 35.4401C306.62 32.9801 309.34 30.3101 311.53 27.4501C313.72 24.5901 315.42 21.6501 316.62 18.6301H305.3C304.85 18.6301 304.5 18.5101 304.23 18.2801C303.96 18.0501 303.83 17.7501 303.83 17.4001V17.1801C303.83 16.8601 303.96 16.5801 304.23 16.3401C304.5 16.1101 304.85 15.9901 305.3 15.9901H319.55V1.32009C319.55 0.970088 319.69 0.680088 319.97 0.440088C320.25 0.210088 320.58 0.0900879 320.98 0.0900879H322.87C323.32 0.0900879 323.67 0.210088 323.94 0.440088C324.21 0.680088 324.34 0.970088 324.34 1.32009V16.0201H338.51C338.96 16.0201 339.31 16.1401 339.56 16.3701C339.81 16.6101 339.94 16.8801 339.94 17.2101V17.4301C339.94 17.7801 339.81 18.0801 339.56 18.3101C339.31 18.5501 338.96 18.6601 338.51 18.6601H325.18L325.05 18.4401ZM310.17 2.95009C310.37 3.13009 310.69 3.46009 311.13 3.94009C311.58 4.42009 312.08 4.98009 312.64 5.61009C313.2 6.24009 313.78 6.91009 314.38 7.61009C314.98 8.31009 315.53 8.99009 316.02 9.63009C316.51 10.2801 316.91 10.8501 317.24 11.3701C317.56 11.8801 317.72 12.2601 317.72 12.4901C317.72 12.6401 317.66 12.7901 317.55 12.9501C317.44 13.1101 317.27 13.2701 317.05 13.4101L315.12 14.7301L315.16 14.6901C315.05 14.8101 314.92 14.8801 314.78 14.9101C314.64 14.9401 314.49 14.9501 314.32 14.9501C314.01 14.9501 313.75 14.8801 313.52 14.7501C313.3 14.6201 313.13 14.4201 313.02 14.1601C312.38 12.5501 311.64 10.9001 310.82 9.21009C310 7.52009 309.09 5.89009 308.12 4.30009C308.06 4.15009 308.02 4.04009 307.99 3.95009C307.96 3.86009 307.95 3.79009 307.95 3.73009C307.95 3.41009 308.1 3.14009 308.41 2.94009C308.72 2.74009 309.01 2.63009 309.29 2.63009C309.49 2.63009 309.65 2.65009 309.79 2.70009C309.93 2.74009 310.06 2.82009 310.17 2.94009V2.95009ZM335.16 4.09009C335.41 4.24009 335.6 4.39009 335.73 4.55009C335.86 4.71009 335.92 4.88009 335.92 5.06009C335.92 5.15009 335.9 5.26009 335.86 5.39009C335.82 5.52009 335.74 5.66009 335.63 5.81009C334.6 7.42009 333.38 8.94009 331.98 10.3601C330.58 11.7801 329.25 13.1501 328 14.4701C327.92 14.5601 327.8 14.6201 327.66 14.6701C327.52 14.7101 327.38 14.7401 327.24 14.7401C327.04 14.7401 326.87 14.7101 326.72 14.6501C326.57 14.5901 326.45 14.5201 326.36 14.4301H326.4C326.26 14.3101 326.15 14.1901 326.06 14.0601C325.98 13.9301 325.93 13.8001 325.93 13.6901C325.93 13.6301 325.95 13.5501 325.99 13.4501C326.03 13.3501 326.09 13.2401 326.18 13.1201C327.02 11.8601 327.84 10.4201 328.65 8.81009C329.46 7.20009 330.24 5.42009 331 3.49009C331.11 3.23009 331.28 3.02009 331.5 2.87009C331.72 2.72009 332 2.65009 332.34 2.65009C332.48 2.65009 332.61 2.66009 332.74 2.69009C332.87 2.72009 333 2.76009 333.14 2.82009L335.19 4.10009H335.15L335.16 4.09009Z" fill="black"/>
<path d="M158.7 110.37H152.84V62.7H144.63L148.22 56.52H158.7V110.37Z" fill="black"/>
<path d="M201.39 80.87C207.32 84.16 210.29 88.7699 210.29 94.6999C210.29 99.5599 208.69 103.6 205.5 106.84C202.3 110.08 198.12 111.7 192.95 111.7C187.78 111.7 183.63 110.08 180.5 106.84C177.37 103.6 175.81 99.7 175.81 95.1399C175.81 88.9599 178.84 84.2 184.91 80.87C180.4 78.07 178.15 74.27 178.15 69.47C178.15 65.69 179.62 62.37 182.56 59.5C185.5 56.63 189.03 55.2 193.15 55.2C197.27 55.2 200.77 56.5999 203.67 59.3899C206.57 62.1899 208.01 65.6 208.01 69.62C208.01 74.28 205.8 78.0299 201.39 80.8799V80.87ZM193.04 105.66C196.35 105.66 199.06 104.61 201.18 102.5C203.29 100.39 204.35 97.8699 204.35 94.9199C204.35 91.9699 203.26 89.4299 201.07 87.2699C198.89 85.1099 196.24 84.0299 193.14 84.0299C190.04 84.0299 187.36 85.1499 185.11 87.3799C182.86 89.6099 181.73 92.24 181.73 95.25C181.73 98.2599 182.78 100.76 184.87 102.72C186.96 104.68 189.69 105.66 193.04 105.66ZM193.25 78.22C195.59 78.22 197.65 77.34 199.42 75.57C201.19 73.7999 202.08 71.78 202.08 69.5C202.08 67.22 201.25 65.2799 199.6 63.6899C197.94 62.0999 195.81 61.2999 193.19 61.2999C190.57 61.2999 188.41 62.0999 186.71 63.6899C185.01 65.2799 184.16 67.22 184.16 69.5C184.16 71.78 185.08 73.7999 186.92 75.57C188.76 77.34 190.87 78.22 193.26 78.22H193.25Z" fill="black"/>
<path d="M233.32 91.0201H213.87V85.5801H233.32V91.0201Z" fill="black"/>
<path d="M262.93 79.87C265.64 81.29 267.75 83.25 269.24 85.76C270.73 88.26 271.48 90.98 271.48 93.93C271.48 98.74 269.84 102.87 266.55 106.33C263.26 109.79 259.11 111.52 254.1 111.52C249.59 111.52 245.9 110.13 243.03 107.36C240.16 104.59 238.21 100.48 237.2 95.04H243.06C243.93 98.52 245.23 101.11 246.96 102.8C248.68 104.49 251.14 105.34 254.34 105.34C257.54 105.34 260.21 104.27 262.37 102.14C264.53 100.01 265.61 97.32 265.61 94.08C265.61 90.84 264.38 88.27 261.92 86.36C259.46 84.45 255.84 83.44 251.06 83.34V77.45C254.51 77.45 257.29 76.67 259.41 75.1C261.52 73.53 262.58 71.58 262.58 69.25C262.58 66.92 261.76 64.98 260.13 63.44C258.5 61.9 256.52 61.12 254.2 61.12C251.88 61.12 249.99 61.82 248.54 63.22C247.09 64.62 245.86 66.74 244.85 69.58H238.85C239.86 64.87 241.7 61.27 244.37 58.77C247.04 56.27 250.32 55.02 254.23 55.02C258.14 55.02 261.53 56.39 264.4 59.14C267.27 61.89 268.71 65.22 268.71 69.14C268.71 73.65 266.78 77.23 262.92 79.88L262.93 79.87Z" fill="black"/>
<path d="M296.59 110.18H290.73V62.5001H282.52L286.11 56.3201H296.59V110.17V110.18Z" fill="black"/>
<path d="M319.98 105.57C320.42 105.45 320.85 105.32 321.29 105.2C321.73 105.08 322.16 104.94 322.6 104.8L323.35 104.55H323.32C323.38 104.53 323.5 104.52 323.66 104.52C323.85 104.52 324.03 104.58 324.2 104.69C324.38 104.8 324.46 104.96 324.46 105.17C324.44 105.29 324.39 105.41 324.32 105.53C324.25 105.64 324.13 105.75 323.96 105.86C322.65 106.61 321.26 107.35 319.78 108.08C318.3 108.82 316.72 109.46 315.04 110.02C315 110.04 314.94 110.06 314.87 110.07C314.8 110.08 314.72 110.09 314.64 110.09C314.39 110.09 314.18 110.03 314.02 109.92C313.85 109.81 313.74 109.65 313.68 109.44C313.62 109.21 313.55 108.98 313.48 108.74C313.41 108.5 313.34 108.27 313.28 108.04C313.26 107.98 313.24 107.92 313.23 107.87C313.22 107.82 313.21 107.77 313.21 107.73C313.21 107.52 313.3 107.35 313.47 107.22C313.65 107.09 313.88 107 314.17 106.96C314.58 106.88 315.03 106.79 315.49 106.7C315.96 106.61 316.5 106.49 317.12 106.34V96.54H314.38C314.09 96.54 313.85 96.47 313.66 96.34C313.47 96.21 313.38 96 313.38 95.73C313.38 95.5 313.47 95.32 313.66 95.19C313.85 95.06 314.08 94.99 314.38 94.99H317.12V87.59C317.12 87.34 317.22 87.13 317.42 86.97C317.62 86.8 317.88 86.72 318.21 86.72H319.3C319.63 86.72 319.9 86.8 320.09 86.97C320.29 87.14 320.39 87.34 320.39 87.59V94.99H323.1C323.39 94.99 323.62 95.06 323.8 95.19C323.98 95.33 324.06 95.51 324.06 95.73C324.06 96 323.97 96.2 323.8 96.34C323.62 96.48 323.39 96.54 323.1 96.54H320.39V105.47L319.99 105.59L319.98 105.57ZM339.77 101.96C340.08 101.96 340.32 102.03 340.49 102.18C340.66 102.33 340.74 102.51 340.74 102.74C340.74 102.97 340.66 103.16 340.49 103.3C340.32 103.45 340.09 103.52 339.77 103.52H333.02V114.16C333.02 114.41 332.93 114.62 332.74 114.78C332.55 114.95 332.29 115.03 331.96 115.03H330.75C330.42 115.03 330.15 114.95 329.96 114.78C329.76 114.61 329.66 114.41 329.66 114.16V103.52H322.91C322.58 103.52 322.32 103.45 322.15 103.3C321.97 103.15 321.89 102.97 321.89 102.74C321.89 102.51 321.98 102.33 322.15 102.18C322.33 102.03 322.58 101.96 322.91 101.96H329.66V90.07H323.87C323.54 90.07 323.29 90 323.12 89.85C322.95 89.71 322.87 89.52 322.87 89.29C322.87 89.06 322.95 88.87 323.12 88.73C323.29 88.58 323.53 88.51 323.87 88.51H338.71C339 88.51 339.24 88.58 339.43 88.73C339.62 88.87 339.71 89.06 339.71 89.29C339.71 89.52 339.62 89.71 339.43 89.85C339.24 90 339 90.07 338.71 90.07H333.02V101.96H339.77ZM324.15 91.91C324.15 91.91 324.24 91.87 324.31 91.86C324.37 91.86 324.44 91.84 324.53 91.84C324.7 91.84 324.85 91.87 325 91.93C325.14 91.99 325.26 92.08 325.34 92.18C325.96 93.07 326.58 94.06 327.21 95.15C327.83 96.24 328.38 97.37 328.86 98.56C328.9 98.64 328.93 98.72 328.95 98.78C328.97 98.84 328.98 98.89 328.98 98.94C328.98 99.09 328.92 99.22 328.79 99.33C328.66 99.44 328.5 99.55 328.29 99.66L327.05 100.06H327.08C327 100.1 326.92 100.13 326.85 100.14C326.78 100.15 326.69 100.16 326.59 100.16C326.34 100.16 326.14 100.1 325.98 99.99C325.82 99.88 325.72 99.71 325.65 99.51C325.36 98.33 325.07 97.15 324.79 95.98C324.51 94.81 324.12 93.72 323.62 92.73C323.6 92.69 323.59 92.63 323.59 92.54C323.59 92.44 323.64 92.33 323.73 92.23C323.82 92.13 323.96 92.02 324.15 91.92V91.91ZM335.04 100.06C334.96 100.16 334.85 100.24 334.71 100.29C334.57 100.34 334.42 100.37 334.26 100.37C334.18 100.37 334.1 100.37 334.03 100.35C333.96 100.35 333.89 100.31 333.83 100.27H333.86C333.67 100.17 333.54 100.08 333.46 100.01C333.38 99.94 333.34 99.85 333.34 99.75C333.34 99.71 333.34 99.66 333.36 99.61C333.37 99.56 333.4 99.5 333.44 99.44C333.92 98.34 334.35 97.17 334.75 95.94C335.14 94.71 335.47 93.5 335.71 92.32C335.77 92.09 335.88 91.92 336.04 91.79C336.2 91.67 336.42 91.6 336.71 91.6C336.81 91.6 336.9 91.6 336.97 91.62C337.04 91.62 337.13 91.66 337.23 91.7L338.47 92.2C338.68 92.28 338.84 92.39 338.97 92.51C339.09 92.63 339.16 92.78 339.16 92.95C339.16 92.99 339.15 93.04 339.13 93.11C339.11 93.17 339.08 93.24 339.04 93.33C338.79 93.91 338.51 94.51 338.18 95.12C337.86 95.73 337.52 96.34 337.15 96.94C336.79 97.54 336.42 98.11 336.06 98.65C335.7 99.19 335.36 99.67 335.05 100.08L335.04 100.06Z" fill="black"/>
</g>
<defs>
<clipPath id="clip0_446_1837">
<rect width="340.73" height="115.03" fill="white"/>
</clipPath>
</defs>
</svg>
