<svg width="343" height="181" viewBox="0 0 343 181" fill="none" xmlns="http://www.w3.org/2000/svg">
<g clip-path="url(#clip0_446_433)">
<path d="M200.64 45.31V52.76H69.4697V45.31H127.16V37.56H88.2497V10.88H127.16V0H142.51V10.88H181.71V37.56H142.51V45.31H200.64ZM121.64 112.54L130.88 120.14C117.32 127.74 93.6097 134.45 71.9997 137.28L70.2097 131.47C87.3497 126.55 101.21 120.44 113.29 112.54H86.4597V60.07H183.95V112.54H121.64ZM101.66 75.13H168.89V67.38H101.66V75.13ZM101.66 90.03H168.89V82.13H101.66V90.03ZM101.66 105.24H168.89V97.04H101.66V105.24ZM127.15 18.04H102.85V30.11H127.15V18.04ZM142.51 30.11H166.81V18.04H142.51V30.11ZM144.44 112.69C160.54 114.33 183.35 117.91 200.19 123.12L192.89 138.62C179.03 131.47 158.61 124.01 142.95 118.65L144.44 112.69Z" fill="#4B4E4E"/>
<path d="M234.93 90.4801C233.59 111.95 228.22 127.15 216 138.48L211.38 134.46C219.58 121.34 220.77 105.39 220.77 76.0301V52.3301H275.33C273.69 47.8601 272.05 43.8301 270.11 39.8101V47.5601H257.89V24.1601H234.19V47.8601H221.22V17.3001H270.11V36.0801L273.39 33.8401C276.82 36.5201 280.25 40.4001 283.23 44.5701V17.1401H332.57V47.5501H319.75V23.8501H295.45V47.1001H284.87L286.21 49.3401L280.55 52.3201H338.54V59.7701H300.53V67.3701H332.28V90.4701H234.94L234.93 90.4801ZM274.28 11.0301H217.49V3.58008H274.28V11.0301ZM281.73 118.5L282.77 124.16C264.73 130.57 248.19 134 233.28 135.79L230.75 122.52L241.48 122.07V93.4501H255.64V103.29H281.28V110H255.64V121.18C264.58 120.58 273.38 119.69 281.73 118.5ZM254.46 74.2301H235.38V76.4701C235.38 78.8501 235.38 81.2401 235.23 83.6201H254.46V74.2301ZM235.38 59.7701V67.3701H254.46V59.7701H235.38ZM254.46 44.1201L243.73 48.4401C242.09 41.4301 240 34.7301 237.92 29.2101L242.39 26.6801C247.01 31.1501 251.18 37.4101 254.46 44.1201ZM268.47 67.5201H286.21V59.7701H268.47V67.5201ZM268.47 83.6201H286.21V74.2301H268.47V83.6201ZM337.33 11.0301H279.79V3.58008H337.33V11.0301ZM331.52 133.26C323.17 133.86 311.69 133.86 300.52 133.26C288.3 132.51 285.17 128.19 285.17 118.8V93.7601H299.18V107.62C306.48 104.19 315.13 99.1201 321.54 93.7601L331.23 104.05C323.03 108.52 309.17 112.4 299.18 114.48V115.52C299.18 119.69 299.92 121.48 304.55 121.78C312.45 122.23 324.08 122.23 328.25 121.93C333.91 121.48 334.36 119.54 334.06 105.09H340.02C345.54 128.05 342.11 132.52 331.52 133.26ZM303.35 26.6801C308.27 31.4501 312.14 37.1101 316.02 43.9701L305.59 48.5901C303.95 42.1801 301.57 35.4701 299.03 29.5101L303.35 26.6801ZM300.52 83.6201H318.11V74.2301H300.52V83.6201Z" fill="#4B4E4E"/>
<path d="M19.6001 38.6701C18.4501 35.1501 16.7301 30.9201 15.3601 27.4701V68.0301H10.9101V32.8601C8.90008 39.3201 5.89008 46.2801 2.37008 51.3801L0.580078 50.0201C4.31008 43.2001 8.40008 31.0701 10.4101 19.3701H2.08008V16.5701H10.9101V1.85012H15.3601V16.5701H23.4001V19.3701H15.3601V23.3901C18.4501 27.4101 21.8201 32.8701 23.5401 36.8101L19.5901 38.6801L19.6001 38.6701ZM64.8201 57.8401L61.5901 62.1501C55.8501 57.0501 52.6201 50.5201 50.7501 41.4001C49.3901 42.1201 48.0901 42.6901 46.9501 43.1201C49.3201 48.7901 49.7501 54.5301 49.2501 59.4101C48.5301 65.7301 45.3701 68.0201 41.2101 68.0201C38.1201 68.0201 34.5301 66.2301 31.1601 63.9301L32.0201 61.9901C35.7501 63.2801 38.2701 64.0001 40.9901 63.7801C43.2201 63.7101 44.4401 61.2701 44.7201 58.5401C44.9401 55.9601 45.0101 52.8701 44.5801 49.6401C38.6201 54.9501 30.0801 59.2601 21.0401 61.4801L20.3201 59.4001C31.0901 55.8101 38.1201 50.7901 43.5801 44.5401C43.2901 43.4601 42.9301 42.3101 42.4301 41.1701C37.7601 45.2601 31.5901 49.4301 21.5401 52.3701L20.7501 50.3601C30.1501 46.7001 35.9701 42.3201 40.6301 37.3001C40.2001 36.5101 39.7001 35.7901 39.1901 35.0701C34.4501 38.5901 28.2801 41.6701 21.8201 43.5401L20.9601 41.5301C28.1401 38.7301 34.3101 34.9301 38.2601 30.8301H26.7701V21.4301C25.4101 22.5101 23.9701 23.5101 22.4601 24.5201L21.2401 22.8701C28.9201 16.1201 32.8701 9.52012 36.1701 1.12012L41.1201 2.91012C40.2601 4.63012 39.3301 6.36012 38.3201 8.01012H47.0801L48.6601 7.00012L52.9001 9.66012C50.5301 12.8201 48.2301 15.3301 46.1501 17.0501H60.5101V30.8301H44.1401C43.2101 31.7601 42.1301 32.7701 40.9801 33.7001C43.1301 36.0701 44.7801 38.6501 46.0801 41.1701C49.3101 39.1601 52.6801 36.1501 55.6301 32.7701L59.5101 35.7801C57.5001 37.4301 54.9901 39.0801 52.6201 40.4501C54.8501 48.1301 58.7901 53.7301 64.8201 57.8201V57.8401ZM31.3001 28.1201H41.3501V19.7901H31.3001V28.1201ZM36.6101 10.7501C35.1001 12.9801 33.4501 15.0601 31.5901 17.0701H43.2201C44.7301 14.9901 46.2401 12.7601 47.1001 10.7501H36.6201H36.6101ZM55.9201 19.7901H45.8001V28.1201H55.9201V19.7901Z" fill="#4B4E4E"/>
<path d="M14.7198 100.91V140.18H10.1298V104.07C8.25977 110.32 5.31977 117.28 1.79977 122.81L0.00976562 121.45C3.66977 114.13 7.61977 102.71 9.33977 91.4401H1.43977V88.6401H10.1298V73.3501H14.7198V88.6401H21.4698V91.4401H14.7198V96.9701C17.5898 100.13 20.4598 103.72 22.3998 107.09L18.5198 109.46C17.4398 106.59 16.0798 103.57 14.7198 100.92V100.91ZM47.0898 128.25C39.0498 132.27 27.0598 135.79 19.5298 137.37L17.9498 132.35C22.4698 131.92 28.1398 130.91 33.5998 129.62C34.8198 125.96 36.0398 120.79 36.8298 116.05L41.4998 117.41C39.8498 121.79 38.0498 125.88 36.2598 129.04C40.0598 128.11 43.6498 127.1 46.3798 126.17L47.0998 128.25H47.0898ZM30.2198 85.4701H19.8098V82.6701H30.2198V73.4801H34.8898V82.6701H45.8698V85.4701H34.8898V92.6501H43.3598V95.3801H22.0398V92.6501H30.2198V85.4701ZM41.9898 114.33H22.7498V99.5401H41.9898V114.33ZM22.8998 117.49L24.7698 116.56C26.9198 119.57 29.2898 124.24 30.4398 127.33L26.1298 128.98C25.4098 125.82 24.1898 121.16 22.8998 117.49ZM37.6898 102.34H27.0698V111.53H37.6898V102.34ZM65.0398 94.8001H59.4398V133.35C59.4398 140.17 53.6298 142.47 42.4998 136.44L43.2198 134.36C52.9098 136.44 54.7798 136.08 54.7798 132.49V94.8001H44.7998V92.0001H54.7798V73.7001H59.4498V92.0001H65.0498V94.8001H65.0398ZM47.5898 120.57C47.0898 114.76 46.0798 108.51 44.7198 102.48L46.8698 101.91C49.2398 107.51 51.3898 114.54 52.1798 119.64L47.5898 120.57Z" fill="#4B4E4E"/>
<path d="M12.4103 179.87C13.1303 179.87 13.8403 179.87 14.5603 179.78V180.55C13.8403 180.46 13.1303 180.46 12.4103 180.46H3.48027C2.76027 180.46 1.99027 180.46 1.28027 180.55C1.37027 179.83 1.37027 179.12 1.37027 178.4V161.34C1.37027 160.62 1.37027 159.91 1.28027 159.19H2.11027C2.02027 159.91 2.02027 160.62 2.02027 161.34V179.86H12.4103V179.87Z" fill="#4B4E4E"/>
<path d="M27.8695 179.16C27.8695 178.5 27.9295 177.73 28.0095 177.04H27.9495C26.8595 179.44 24.8295 180.76 22.2495 180.76C19.0995 180.76 17.2695 179.27 17.2695 176.75C17.2695 173.54 19.9295 172 25.4295 172C26.5195 172 27.2295 172.03 27.8295 172.09V170.69C27.8295 167.37 26.4295 165.97 23.2495 165.97C22.1895 165.97 21.3295 166.23 20.5295 166.63C19.8095 167 19.2395 167.49 18.7795 168L18.3795 167.48C18.9795 166.88 19.6095 166.39 20.2995 166.05C21.1895 165.59 22.1595 165.36 23.3095 165.36C26.8595 165.36 28.4895 166.99 28.4895 170.6V178.3C28.4895 179.16 28.5195 179.76 28.5795 180.48H27.8595V179.16H27.8695ZM27.8395 172.66C27.2095 172.6 26.4895 172.57 25.4395 172.57C20.2895 172.57 17.9095 173.89 17.9095 176.75C17.9095 178.93 19.4795 180.16 22.2595 180.16C24.8595 180.16 26.7195 178.9 27.8395 176.44V172.66Z" fill="#4B4E4E"/>
<path d="M55.7802 159.15C55.4402 159.87 55.1502 160.58 54.8602 161.3L48.1602 178.33C47.8702 179.05 47.6202 179.73 47.4402 180.48H46.5202C46.3202 179.74 46.0902 179.05 45.8002 178.33L39.1002 161.3C38.8102 160.58 38.5302 159.87 38.1602 159.15H39.0202C39.2202 159.87 39.5102 160.58 39.7902 161.3L46.2902 177.87C46.5202 178.41 46.7502 179.02 46.9802 179.67C47.2102 178.98 47.4402 178.38 47.6402 177.87L54.1702 161.3C54.4602 160.58 54.7102 159.87 54.9102 159.15H55.7702H55.7802Z" fill="#4B4E4E"/>
<path d="M59.9002 160.52C59.9002 160.95 59.6102 161.24 59.2102 161.24C58.8102 161.24 58.4902 160.95 58.4902 160.52C58.4902 160.12 58.8002 159.83 59.2102 159.83C59.6202 159.83 59.9002 160.12 59.9002 160.52ZM59.6102 165.59C59.5502 166.19 59.5202 166.74 59.5202 167.74V178.33C59.5202 179.3 59.5502 179.88 59.6102 180.48H58.7802C58.8402 179.88 58.8702 179.31 58.8702 178.33V167.74C58.8702 166.74 58.8402 166.19 58.7802 165.59H59.6102Z" fill="#4B4E4E"/>
<path d="M64.8204 172.8V172.94C64.8204 177.29 67.3404 180.15 71.1704 180.15C72.6904 180.15 74.1504 179.72 75.2304 178.92C75.6904 178.58 76.0604 178.2 76.3704 177.77L76.8304 178.2C76.5704 178.51 76.1104 178.94 75.7404 179.23C74.5404 180.2 72.9104 180.75 71.1604 180.75C67.0104 180.75 64.1504 177.57 64.1504 172.94C64.1504 168.31 66.7304 165.21 70.9304 165.21C75.1304 165.21 77.2004 167.76 77.2004 172.28V172.8H64.8104H64.8204ZM76.5604 172.23C76.5604 168.11 74.5604 165.82 70.9204 165.82C67.2804 165.82 65.0804 168.22 64.8504 172.23H76.5604Z" fill="#4B4E4E"/>
<path d="M98.7099 179.87C99.4299 179.87 100.14 179.87 100.86 179.78V180.55C100.14 180.46 99.4299 180.46 98.7099 180.46H90.5799C89.8599 180.46 89.0899 180.46 88.3799 180.55C88.4699 179.83 88.4699 179.12 88.4699 178.4V161.23C88.4699 160.51 88.4699 159.8 88.3799 159.05C89.0999 159.14 89.8699 159.14 90.5799 159.14H98.2799C98.9999 159.14 99.7099 159.14 100.43 159.05V159.82C99.7099 159.73 98.9999 159.73 98.2799 159.73H89.1199V169.49H97.3099C98.0299 169.49 98.7399 169.49 99.4599 169.4V170.17C98.7399 170.08 98.0299 170.08 97.3099 170.08H89.1199V179.84H98.7099V179.87Z" fill="#4B4E4E"/>
<path d="M116.18 180.47C116.24 179.84 116.27 179.27 116.27 178.32V170.96C116.27 167.67 114.64 165.89 111.58 165.89C108.29 165.92 106.06 168.01 106.06 171.01V178.31C106.06 179.28 106.09 179.86 106.15 180.46H105.32C105.38 179.86 105.41 179.29 105.41 178.31V167.72C105.41 166.72 105.38 166.17 105.32 165.57H106.06V166.77C106.06 167.43 106.03 168.26 105.95 168.92H106.04C106.84 166.72 108.93 165.28 111.65 165.28C115 165.28 116.95 167.28 116.95 170.78V178.31C116.95 179.25 116.98 179.83 117.04 180.46H116.21L116.18 180.47Z" fill="#4B4E4E"/>
<path d="M142.11 178.24C142.57 178.98 143.05 179.76 143.63 180.47H142.46C142.17 179.67 141.77 178.95 141.32 178.24L136.28 170.31H130.07V178.32C130.07 179.04 130.07 179.75 130.16 180.47H129.36C129.42 179.75 129.42 179.04 129.42 178.32V161.2C129.42 159.85 129.39 159.51 129.33 159.05C129.96 159.11 130.53 159.14 131.53 159.14H135.79C139.94 159.14 142.23 161.03 142.23 164.49C142.23 167.55 140.6 169.58 136.96 170.16L142.11 178.23V178.24ZM135.21 169.74C139.36 169.74 141.56 167.94 141.56 164.53C141.56 161.38 139.5 159.75 135.66 159.75H130.05V169.74H135.2H135.21Z" fill="#4B4E4E"/>
<path d="M159.4 173.06C159.4 177.73 156.77 180.76 152.73 180.76C148.69 180.76 146.06 177.61 146.06 173C146.06 168.39 148.69 165.3 152.73 165.3C156.77 165.3 159.4 168.45 159.4 173.06ZM158.74 173.06C158.74 168.74 156.39 165.9 152.73 165.9C149.07 165.9 146.72 168.65 146.72 173C146.72 177.35 149.07 180.16 152.73 180.16C156.39 180.16 158.74 177.41 158.74 173.06Z" fill="#4B4E4E"/>
<path d="M162.75 177.41C163.15 178.04 163.67 178.61 164.24 179.07C165.16 179.81 166.44 180.16 167.99 180.16C171 180.16 172.65 178.96 172.65 176.7C172.65 174.73 171.53 173.9 167.84 173.15C164.43 172.46 163.09 171.38 163.09 169.34C163.09 166.91 165.04 165.3 167.96 165.3C169.02 165.3 169.96 165.5 170.82 165.87C171.54 166.18 172.25 166.7 172.71 167.22L172.25 167.71C171.91 167.28 171.36 166.85 170.7 166.51C169.87 166.11 168.93 165.91 167.95 165.91C165.32 165.91 163.74 167.2 163.74 169.34C163.74 171.03 164.91 171.89 167.95 172.49C171.93 173.29 173.3 174.38 173.3 176.64C173.3 179.22 171.3 180.76 167.95 180.76C166.26 180.76 164.94 180.39 163.89 179.59C163.26 179.13 162.69 178.53 162.26 177.87L162.75 177.41Z" fill="#4B4E4E"/>
<path d="M176.83 172.8V172.94C176.83 177.29 179.35 180.15 183.18 180.15C184.7 180.15 186.16 179.72 187.24 178.92C187.7 178.58 188.07 178.2 188.38 177.77L188.84 178.2C188.58 178.51 188.12 178.94 187.75 179.23C186.55 180.2 184.92 180.75 183.17 180.75C179.02 180.75 176.16 177.57 176.16 172.94C176.16 168.31 178.74 165.21 182.94 165.21C187.14 165.21 189.21 167.76 189.21 172.28V172.8H176.82H176.83ZM188.57 172.23C188.57 168.11 186.57 165.82 182.93 165.82C179.29 165.82 177.09 168.22 176.86 172.23H188.57Z" fill="#4B4E4E"/>
<path d="M204.69 174.9C203.28 175.77 200.46 176.96 199.03 177.38L198.63 176.13C199.4 176 200.24 175.8 201.09 175.56V170.95H199.23V170.3H201.09V166.41H199.06V165.76H204.13V166.41H202.15V170.3H203.95V170.95H202.15V175.24C202.98 174.97 203.78 174.69 204.5 174.39L204.68 174.89L204.69 174.9ZM212.44 179.36C211.64 179.41 210.46 179.41 209.68 179.36C208.48 179.26 208.1 178.93 208.1 177.58V172.79H207.19C207.02 176.6 205.04 178.8 202.12 180.08L201.85 179.6C204.38 178.1 205.89 176.27 206.09 172.8H204.41V166.94H206.79C207.02 166.26 207.27 165.16 207.41 164.33L208.71 164.65C208.39 165.37 207.86 166.31 207.4 166.95H212.16V172.81H209.17V177.52C209.17 178.2 209.22 178.34 209.92 178.4C210.62 178.45 211.6 178.43 212.32 178.38C212.99 178.31 213.07 178.06 213.05 175.92H213.55C214.23 179.01 213.6 179.28 212.47 179.38L212.44 179.36ZM207.72 167.58H205.44V169.44H207.72V167.58ZM207.72 170.1H205.44V172.15H207.72V170.1ZM208.76 169.45H211.07V167.59H208.76V169.45ZM208.76 172.14H211.07V170.09H208.76V172.14ZM210.23 176.28C210.66 176.2 211.08 176.08 211.51 175.95C211.39 175.5 211.26 175.08 211.16 174.75L211.56 174.57C212.03 175.29 212.49 176.4 212.67 177.08L211.84 177.35C211.79 177.08 211.72 176.75 211.64 176.42C210.96 176.8 210.08 177.22 209.44 177.37L209.16 176.45C209.34 176.43 209.53 176.4 209.71 176.38C209.94 175.42 210.09 174.2 210.16 173.2L211.16 173.42C210.96 174.33 210.59 175.47 210.23 176.28Z" fill="#4B4E4E"/>
<path d="M226.42 174.55C226.32 176.98 225.9 178.63 224.69 179.97L224.27 179.64C225.25 178.13 225.37 176.28 225.37 173.02V170.38H231.59C231.32 169.71 231.04 169.08 230.76 168.53L231.16 168.25C231.64 168.75 232.14 169.43 232.51 170.1L231.94 170.38H238.41V171.03H233.95V172.03H237.66V174.56H226.41L226.42 174.55ZM231.23 165.6H224.88V164.95H231.23V165.6ZM229.68 169.8V167.07H226.49V169.82H225.51V166.46H230.63V169.8H229.68ZM232.31 177.95L232.41 178.43C230.48 179.03 228.17 179.38 226.57 179.54L226.39 178.48C226.82 178.46 227.31 178.45 227.79 178.41V174.92H228.82V176.15H232.16V176.72H228.82V178.33C230.05 178.23 231.32 178.1 232.31 177.95ZM226.45 171.03V172.03H229.24V171.03H226.45ZM229.25 172.64H226.46V173.94H229.25V172.64ZM227.23 167.65L227.63 167.42C228.1 167.94 228.61 168.73 228.96 169.47L228.05 169.85C227.83 169.1 227.52 168.24 227.23 167.65ZM230.28 172.03H232.92V171.03H230.28V172.03ZM230.28 173.94H232.92V172.64H230.28V173.94ZM238.33 165.6H231.98V164.95H238.33V165.6ZM236.68 169.76V167.03H233.44V169.72H232.48V166.41H237.69V169.75H236.69L236.68 169.76ZM237.76 179.33C236.83 179.4 235.61 179.4 234.48 179.33C233.18 179.25 232.77 178.91 232.77 177.82V174.96H233.8V176.74C234.78 176.34 236.05 175.74 236.89 175.11L237.62 175.96C236.64 176.48 234.92 177.01 233.79 177.27V177.62C233.79 178.25 233.92 178.4 234.69 178.45C235.61 178.5 236.87 178.52 237.48 178.47C238.18 178.42 238.23 178.15 238.21 176.26H238.71C239.18 178.9 238.86 179.25 237.75 179.34L237.76 179.33ZM233.95 173.94H236.63V172.64H233.95V173.94ZM234.14 167.67L234.52 167.4C235.02 167.9 235.53 168.66 235.92 169.4L235.04 169.8C234.82 169.1 234.46 168.29 234.14 167.67Z" fill="#4B4E4E"/>
<path d="M264.47 178.5L263.84 179.83C261.63 179.48 258.52 178.3 257.15 175.12H257C256.04 177.8 253.66 179.36 249.53 180.01L249.36 179.53C253.02 178.66 254.87 177.25 255.68 175.12H250.07V174.47H255.89C256.04 173.94 256.12 173.36 256.17 172.74L257.43 172.84C257.38 173.42 257.3 173.97 257.18 174.47H263.65V175.12H257.69C259.3 177.57 262.08 178.2 264.44 178.5H264.47ZM264.02 172.36H249.76V171.71H256.23V169.98H251.46V169.33H256.23V167.65H250.39V167H254.72C254.12 166.28 253.14 165.27 252.49 164.69L252.77 164.27C253.7 164.75 255.12 165.67 255.86 166.33L255.24 167H257.92C258.5 166.19 259.08 165.1 259.47 164.24L260.68 164.86C260.1 165.64 259.4 166.39 258.68 167.01H263.37V167.66H257.4V169.34H262.34V169.99H257.4V171.72H264V172.37L264.02 172.36Z" fill="#4B4E4E"/>
<path d="M289.46 176.3H283.12V178.53C283.12 179.86 282.06 180.36 278.91 179.16L279.04 178.66C281.74 179.04 282 178.96 282 178.04V176.29H275.05V175.64H282V174.46L282.88 174.61C283.58 174.24 284.34 173.73 284.89 173.26H277.6V172.61H285.12L285.55 172.44L286.58 173.32C285.45 174.15 284.02 174.77 283.1 175.05V175.63H289.44V176.28L289.46 176.3ZM276.36 174H275.26V171.04H276.77C276.7 169.18 276.62 167.23 276.54 165.35L277.52 165.55C278.2 165.28 278.92 164.88 279.6 164.34L280.28 165.07C279.55 165.49 278.42 165.85 277.58 166.02L277.63 167.07H280.01V167.72H277.65C277.68 168.19 277.7 168.67 277.72 169.13H280.15V169.78H277.74C277.76 170.2 277.77 170.63 277.77 171.04H280.43L280.21 170.62C280.79 170.29 281.31 169.89 281.76 169.44C281.38 169.14 280.99 168.84 280.6 168.57L280.82 168.17C281.3 168.4 281.78 168.65 282.25 168.92C282.55 168.55 282.83 168.17 283.1 167.76L283.9 168.33C283.63 168.68 283.32 169.03 282.95 169.38C283.35 169.65 283.73 169.95 284.1 170.26L283.4 171.01C283.08 170.64 282.72 170.28 282.34 169.93C281.77 170.38 281.16 170.78 280.49 171.04H286.55C286.58 170.64 286.6 170.23 286.63 169.83H284.18V169.18H286.66L286.71 167.87H284.3V167.22H286.75L286.8 165.81H284.19V165.16H286.65L286.95 164.88L287.9 165.13C287.8 167.08 287.7 169.14 287.55 171.05H289.11V173.98H288.01V171.72H276.37V174.02L276.36 174ZM281.8 166.07C281.4 165.69 281 165.32 280.65 165.06L280.88 164.64C281.3 164.86 281.76 165.16 282.23 165.51C282.5 165.13 282.71 164.76 282.91 164.4L283.78 164.9C283.55 165.27 283.25 165.65 282.9 166.01C283.28 166.31 283.65 166.61 283.96 166.89L283.24 167.61C283.01 167.33 282.67 166.96 282.32 166.6C281.79 167.08 281.19 167.55 280.57 167.88L280.3 167.51C280.87 167.08 281.35 166.6 281.78 166.08L281.8 166.07Z" fill="#4B4E4E"/>
<path d="M302.92 170.64V179.92H301.89V172.18C301.34 172.91 300.78 173.58 300.24 174.03L299.89 173.65C301.2 172.15 302.29 169.87 302.88 168.14L303.96 168.57C303.69 169.2 303.33 169.92 302.91 170.63L302.92 170.64ZM300.61 169.21L300.26 168.84C301.29 167.71 302.32 165.85 302.86 164.31L303.96 164.76C303.24 166.27 302.01 168.07 300.62 169.2L300.61 169.21ZM307.74 170.1H310.17V170.77H307.74V172.88H309.79V173.53H307.74V177.11C308.54 176.88 309.32 176.63 309.99 176.39L310.16 176.87C308.25 177.88 305.6 178.77 303.79 179.23L303.41 178.1C303.76 178.05 304.13 177.98 304.51 177.9V172.19H305.46V177.68C305.86 177.6 306.28 177.5 306.69 177.38V170.76H304.08V170.09H306.69V167.45H305.51C305.14 168.03 304.78 168.51 304.45 168.86L304.05 168.56C304.67 167.63 305.38 165.93 305.73 164.45L306.81 164.75C306.56 165.43 306.24 166.15 305.89 166.78H309.8V167.45H307.75V170.09L307.74 170.1ZM314.26 165.54V176.15C314.26 177.45 313.1 177.6 311.52 177.06V179.89H310.47V165.53H314.26V165.54ZM313.27 166.2H311.52V176.51C313.02 176.69 313.27 176.56 313.27 175.79V166.19V166.2Z" fill="#4B4E4E"/>
<path d="M331.1 174.8V173.59H327.64C327.51 176.58 327.06 178.33 325.74 180.03L325.29 179.71C326.47 177.68 326.57 175.6 326.57 170.98V165.86L327.57 166.21C328.77 165.88 330.76 165.1 331.68 164.48L332.59 165.41C331.18 165.96 329.16 166.51 327.68 166.71V168.97H332.19V174.81H331.09L331.1 174.8ZM331.1 172.92V169.63H327.69V170.89C327.69 171.62 327.69 172.3 327.67 172.92H331.1ZM340.3 171.01H338.35V179.84H337.25V171.01H334.37C334.34 175.09 333.9 177.73 331.59 179.98L331.21 179.61C332.97 177.31 333.26 174.77 333.26 170.38V165.81L334.31 166.11C335.69 165.79 337.59 165.16 338.83 164.41L339.65 165.37C338.09 165.99 336.06 166.4 334.38 166.62V170.36H340.3V171.01Z" fill="#4B4E4E"/>
</g>
<defs>
<clipPath id="clip0_446_433">
<rect width="342.62" height="180.76" fill="white"/>
</clipPath>
</defs>
</svg>
