<svg width="833" height="99" viewBox="0 0 833 99" fill="none" xmlns="http://www.w3.org/2000/svg">
<g clip-path="url(#clip0_446_1106)">
<path d="M0 5.36011H7.35V89.1401H60.84L59.49 96.5201H0V5.36011Z" fill="black"/>
<path d="M121.88 81.8701C121.88 86.9301 122.24 94.9801 122.48 96.5101H115.76C115.28 93.7301 115.04 88.2701 115.04 85.9801C111.92 93.2301 105.21 98.3001 91.7202 98.3001C74.4902 98.3001 68.4902 87.1901 68.4902 77.9701C68.4902 61.8501 82.5002 57.3801 99.2902 57.3801H115.03V53.2101C115.03 45.2201 111.82 37.3801 96.8702 37.3801C83.5702 37.3801 80.3702 43.9501 78.9502 51.0301H71.9702C72.8002 42.2301 78.1902 30.8301 96.9902 30.8301C115.79 30.8301 121.9 41.2401 121.9 51.7301V81.8801L121.88 81.8701ZM115.03 63.5301C112.89 63.5301 108.93 63.5301 99.5302 63.5301C83.5002 63.5301 75.5702 67.0901 75.5702 77.5701C75.5702 85.1601 80.6802 91.6101 92.3102 91.6101C111.28 91.6101 115.03 79.0001 115.03 67.3101V63.5401V63.5301Z" fill="black"/>
<path d="M202.79 96.5101L164.1 5.36011H172.2L193.95 56.7601C201.92 75.6001 205.01 83.5401 206.69 88.2801H206.93C208.25 84.2901 213.54 71.4701 218.05 60.8501L241.78 5.36011H249.75L210.46 96.5101H202.79Z" fill="black"/>
<path d="M257.95 0H264.93V13.48H257.95V0ZM257.95 32.61H264.93V96.51H257.95V32.61Z" fill="black"/>
<path d="M284.47 66.1701C285.18 80.9601 294.32 91.5901 308.22 91.5901C318.8 91.5901 324.97 86.5401 328.76 79.0801H335.74C332.73 87.5801 324.57 98.3001 307.39 98.3001C287.63 98.3001 277.37 81.9201 277.37 64.8201C277.37 44.8001 289.8 30.8301 307.04 30.8301C329.46 30.8301 336.7 48.9501 336.7 63.9401C336.7 64.7301 336.7 65.3801 336.7 66.1701H284.47ZM329.13 59.7701C328.54 50.6701 324.03 37.5101 306.93 37.5101C293.36 37.5101 286.02 47.0101 284.71 59.7701H329.13Z" fill="black"/>
<path d="M444.26 51.9601H391.13V89.2601H449.53L448.31 96.5101H383.66V5.36011H447.01V12.6101H391.13V44.7101H444.26V51.9601Z" fill="black"/>
<path d="M461.21 48.7201C461.21 43.3501 461.21 37.4701 461.09 32.6201H467.83C468.07 35.0301 468.19 41.1201 468.19 46.4201C470.71 39.3301 477.39 30.8301 490.89 30.8301C504.39 30.8301 513.9 39.7901 513.9 57.9001V96.5101H506.91V59.4701C506.91 47.1901 502.52 37.8001 489.91 37.8001C475.42 37.8001 468.19 49.9401 468.19 66.5601V96.5101H461.21V48.7201Z" fill="black"/>
<path d="M573.68 55.0301V96.5101H566.21V5.36011H603.98C620.33 5.36011 632.28 12.9501 632.28 29.4001C632.28 40.0201 627.81 48.2901 616.27 51.2301C623.02 53.0101 630.01 58.0801 630.01 73.8001V77.5201C630.01 84.9001 630.01 92.9201 630.97 96.5101H623.37C622.17 92.5501 622.52 84.8201 622.52 78.2401V75.1801C622.52 59.4901 616.71 55.0401 600.4 55.0401H573.68V55.0301ZM573.68 47.6801H601.77C616.86 47.6801 624.56 42.1001 624.56 29.5701C624.56 18.1701 616.85 12.7101 602.36 12.7101H573.68V47.6801Z" fill="black"/>
<path d="M703.86 64.5601C703.86 81.2401 694.21 98.3001 673.1 98.3001C653.98 98.3001 642.72 82.3301 642.72 64.6901C642.72 45.9301 654.81 30.8301 673.59 30.8301C692.37 30.8301 703.87 47.0901 703.87 64.5701L703.86 64.5601ZM649.94 64.6901C649.94 78.0301 658.37 91.4601 673.35 91.4601C688.33 91.4601 696.64 79.1501 696.64 64.6901C696.64 50.2301 687.87 37.6601 673 37.6601C658.13 37.6601 649.95 50.2201 649.95 64.6801L649.94 64.6901Z" fill="black"/>
<path d="M718.52 77.3301C721.01 86.5501 728.25 91.7401 740.61 91.7401C754.02 91.7401 759.11 86.5601 759.11 79.3701C759.11 73.0401 755.89 68.3801 738.87 66.3401C718.8 63.8901 714.4 56.6901 714.4 48.6501C714.4 41.1901 720.18 30.8201 738.44 30.8201C758.94 30.8201 763.91 42.6801 764.39 49.5001H757.18C756.22 45.1801 753.6 37.3601 737.84 37.3601C724.56 37.3601 721.61 43.6701 721.61 48.1001C721.61 54.0301 724.93 57.5601 740.05 59.6001C761.56 62.4401 766.31 69.1301 766.31 78.9501C766.31 90.3301 758.16 98.2901 740.22 98.2901C722.28 98.2901 713.45 90.1301 711.3 77.3201H718.51L718.52 77.3301Z" fill="black"/>
<path d="M780.65 66.1701C781.36 80.9601 790.5 91.5901 804.4 91.5901C814.98 91.5901 821.15 86.5401 824.94 79.0801H831.92C828.91 87.5801 820.75 98.3001 803.57 98.3001C783.81 98.3001 773.55 81.9201 773.55 64.8201C773.55 44.8001 785.98 30.8301 803.22 30.8301C825.64 30.8301 832.88 48.9501 832.88 63.9401C832.88 64.7301 832.88 65.3801 832.88 66.1701H780.65ZM825.31 59.7701C824.72 50.6701 820.21 37.5101 803.11 37.5101C789.54 37.5101 782.2 47.0101 780.89 59.7701H825.31Z" fill="black"/>
</g>
<defs>
<clipPath id="clip0_446_1106">
<rect width="832.88" height="98.3" fill="white"/>
</clipPath>
</defs>
</svg>
