<svg width="310" height="35" viewBox="0 0 310 35" fill="none" xmlns="http://www.w3.org/2000/svg">
<g clip-path="url(#clip0_233_5819)">
<path d="M0 1.90845L2.73569 1.90845L2.73569 31.7386L22.6448 31.7386L22.1423 34.3662L0 34.3662L0 1.90845Z" fill="black" fill-opacity="0.4"/>
<path d="M45.3641 29.15C45.3641 30.9516 45.4981 33.8178 45.5874 34.3626H43.0862C42.9075 33.3728 42.8182 31.4287 42.8182 30.6134C41.6569 33.1947 39.1595 34.9999 34.1385 34.9999C27.7254 34.9999 25.4922 31.0442 25.4922 27.7614C25.4922 22.0218 30.7067 20.4303 36.956 20.4303L42.8145 20.4303V18.9455C42.8145 16.1007 41.6197 13.3092 36.0553 13.3092C31.105 13.3092 29.914 15.6485 29.3854 18.1693H26.7875C27.0964 15.0361 29.1026 10.9771 36.1 10.9771C43.0974 10.9771 45.3715 14.6836 45.3715 18.4186V29.1535L45.3641 29.15ZM42.8145 22.62C42.018 22.62 40.5441 22.62 37.0454 22.62C31.0789 22.62 28.1274 23.8875 28.1274 27.619C28.1274 30.3214 30.0293 32.6179 34.358 32.6179C41.4187 32.6179 42.8145 28.1281 42.8145 23.9659V22.6235V22.62Z" fill="black" fill-opacity="0.4"/>
<path d="M75.4786 34.3627L61.0781 1.90845L64.093 1.90845L72.1884 20.2096C75.1548 26.9176 76.3049 29.7447 76.9302 31.4324H77.0196C77.5109 30.0117 79.4798 25.4471 81.1584 21.6658L89.9908 1.90845L92.9573 1.90845L78.3334 34.3627H75.4786Z" fill="black" fill-opacity="0.4"/>
<path d="M96.0098 0L98.6077 0V4.79959H96.0098V0ZM96.0098 11.6109H98.6077V34.3627H96.0098V11.6109Z" fill="black" fill-opacity="0.4"/>
<path d="M105.881 23.56C106.145 28.826 109.547 32.6108 114.721 32.6108C118.659 32.6108 120.955 30.8128 122.366 28.1566H124.964C123.843 31.1831 120.806 34.9999 114.412 34.9999C107.057 34.9999 103.238 29.1678 103.238 23.0793C103.238 15.9511 107.865 10.9771 114.282 10.9771C122.626 10.9771 125.321 17.4287 125.321 22.766C125.321 23.0472 125.321 23.2787 125.321 23.56L105.881 23.56ZM122.503 21.2812C122.284 18.0411 120.605 13.3555 114.241 13.3555C109.19 13.3555 106.458 16.738 105.97 21.2812L122.503 21.2812Z" fill="black" fill-opacity="0.4"/>
<path d="M165.354 18.5005L145.579 18.5005V31.7813L167.316 31.7813L166.862 34.3627L142.799 34.3627V1.90845L166.378 1.90845V4.48983L145.579 4.48983V15.9191L165.354 15.9191V18.5005Z" fill="black" fill-opacity="0.4"/>
<path d="M171.664 17.3468C171.664 15.4348 171.664 13.3412 171.619 11.6144H174.128C174.217 12.4725 174.262 14.6408 174.262 16.5279C175.2 14.0035 177.686 10.9771 182.711 10.9771C187.736 10.9771 191.275 14.1673 191.275 20.6154V34.3626H188.673V21.1744C188.673 16.8021 187.039 13.4587 182.346 13.4587C176.953 13.4587 174.262 17.7812 174.262 23.6988V34.3626H171.664V17.3468Z" fill="black" fill-opacity="0.4"/>
<path d="M213.525 19.5936V34.3627H210.745V1.90845L224.803 1.90845C230.889 1.90845 235.337 4.61089 235.337 10.468C235.337 14.2492 233.673 17.1938 229.378 18.2406C231.89 18.8744 234.492 20.6796 234.492 26.2767V27.6012C234.492 30.2289 234.492 33.0844 234.849 34.3627L232.02 34.3627C231.574 32.9527 231.704 30.2004 231.704 27.8576V26.7681C231.704 21.1816 229.541 19.5972 223.471 19.5972L213.525 19.5972V19.5936ZM213.525 16.9766H223.981C229.597 16.9766 232.463 14.9898 232.463 10.5285C232.463 6.46948 229.593 4.52544 224.2 4.52544L213.525 4.52544V16.9766Z" fill="black" fill-opacity="0.4"/>
<path d="M261.978 22.9867C261.978 28.9257 258.386 34.9999 250.529 34.9999C243.413 34.9999 239.222 29.3138 239.222 23.033C239.222 16.3534 243.722 10.9771 250.712 10.9771C257.702 10.9771 261.982 16.7665 261.982 22.9903L261.978 22.9867ZM241.909 23.033C241.909 27.7827 245.047 32.5645 250.622 32.5645C256.198 32.5645 259.291 28.1815 259.291 23.033C259.291 17.8845 256.027 13.4089 250.492 13.4089C244.957 13.4089 241.913 17.8809 241.913 23.0294L241.909 23.033Z" fill="black" fill-opacity="0.4"/>
<path d="M267.435 27.5335C268.362 30.8163 271.057 32.6642 275.657 32.6642C280.649 32.6642 282.543 30.8199 282.543 28.2599C282.543 26.0061 281.345 24.3469 275.01 23.6205C267.54 22.7482 265.902 20.1846 265.902 17.3219C265.902 14.6658 268.053 10.9735 274.85 10.9735C282.48 10.9735 284.33 15.1963 284.508 17.6246H281.825C281.467 16.0864 280.492 13.3021 274.626 13.3021C269.683 13.3021 268.585 15.5488 268.585 17.1261C268.585 19.2375 269.821 20.4944 275.449 21.2207C283.455 22.2319 285.223 24.6139 285.223 28.1103C285.223 32.1622 282.189 34.9964 275.512 34.9964C268.835 34.9964 265.548 32.091 264.748 27.53H267.432L267.435 27.5335Z" fill="black" fill-opacity="0.4"/>
<path d="M290.56 23.56C290.824 28.826 294.226 32.6108 299.399 32.6108C303.337 32.6108 305.634 30.8128 307.044 28.1566H309.642C308.522 31.1831 305.485 34.9999 299.091 34.9999C291.736 34.9999 287.917 29.1678 287.917 23.0793C287.917 15.9511 292.543 10.9771 298.96 10.9771C307.305 10.9771 310 17.4287 310 22.766C310 23.0472 310 23.2787 310 23.56L290.56 23.56ZM307.182 21.2812C306.963 18.0411 305.284 13.3555 298.919 13.3555C293.869 13.3555 291.137 16.738 290.649 21.2812L307.182 21.2812Z" fill="black" fill-opacity="0.4"/>
</g>
<defs>
<clipPath id="clip0_233_5819">
<rect width="310" height="35" fill="white"/>
</clipPath>
</defs>
</svg>
