<svg width="139" height="833" viewBox="0 0 139 833" fill="none" xmlns="http://www.w3.org/2000/svg">
<path d="M133.38 0.329956V7.67996H49.5997V61.17L42.2197 59.8199V0.319946H133.37L133.38 0.329956Z" fill="black"/>
<path d="M56.8704 122.21C51.8104 122.21 43.7604 122.57 42.2304 122.81V116.09C45.0104 115.61 50.4704 115.37 52.7604 115.37C45.5104 112.25 40.4404 105.54 40.4404 92.0599C40.4404 74.8299 51.5504 68.83 60.7704 68.83C76.8904 68.83 81.3604 82.8399 81.3604 99.6299V115.37H85.5305C93.5205 115.37 101.36 112.16 101.36 97.21C101.36 83.91 94.7905 80.7099 87.7104 79.2899V72.3099C96.5104 73.1399 107.91 78.53 107.91 97.33C107.91 116.13 97.5004 122.24 87.0104 122.24H56.8604L56.8704 122.21ZM75.2104 115.36C75.2104 113.22 75.2104 109.26 75.2104 99.86C75.2104 83.84 71.6504 75.9 61.1704 75.9C53.5804 75.9 47.1304 81.01 47.1304 92.64C47.1304 111.61 59.7404 115.36 71.4304 115.36H75.2004H75.2104Z" fill="black"/>
<path d="M42.2305 203.12L133.38 164.43V172.53L81.9805 194.28C63.1405 202.25 55.2005 205.34 50.4605 207.02V207.26C54.4505 208.58 67.2705 213.87 77.8905 218.38L133.38 242.11V250.08L42.2305 210.79V203.12Z" fill="black"/>
<path d="M106.13 258.28V265.26H42.2305V258.28H106.13ZM138.74 258.28V265.26H125.26V258.28H138.74Z" fill="black"/>
<path d="M72.5704 284.8C57.7804 285.51 47.1505 294.65 47.1505 308.55C47.1505 319.13 52.2004 325.3 59.6604 329.09V336.07C51.1604 333.06 40.4404 324.9 40.4404 307.72C40.4404 287.96 56.8204 277.7 73.9204 277.7C93.9404 277.7 107.91 290.13 107.91 307.37C107.91 329.79 89.7904 337.03 74.8004 337.03C74.0104 337.03 73.3604 337.03 72.5704 337.03V284.8ZM78.9704 329.46C88.0704 328.87 101.23 324.36 101.23 307.26C101.23 293.69 91.7304 286.35 78.9704 285.04V329.46Z" fill="black"/>
<path d="M86.7805 444.59V391.46H49.4805V449.86L42.2305 448.64V383.99H133.38V447.34H126.13V391.46H94.0305V444.59H86.7805Z" fill="black"/>
<path d="M90.0205 461.54C95.3905 461.54 101.27 461.54 106.12 461.42V468.16C103.71 468.4 97.6205 468.52 92.3205 468.52C99.4105 471.04 107.91 477.72 107.91 491.22C107.91 504.72 98.9505 514.23 80.8405 514.23H42.2305V507.24H79.2705C91.5505 507.24 100.94 502.85 100.94 490.24C100.94 475.75 88.8005 468.52 72.1805 468.52H42.2305V461.53H90.0205V461.54Z" fill="black"/>
<path d="M83.7105 574H42.2305V566.53H133.38V604.3C133.38 620.65 125.791 632.6 109.341 632.6C98.7205 632.6 90.4505 628.13 87.5105 616.59C85.7305 623.34 80.6605 630.33 64.9405 630.33H61.2205C53.8405 630.33 45.8205 630.33 42.2305 631.29V623.69C46.1905 622.49 53.9205 622.84 60.5005 622.84H63.5605C79.2505 622.84 83.7005 617.03 83.7005 600.72V574H83.7105ZM91.0605 574V602.09C91.0605 617.18 96.6405 624.88 109.17 624.88C120.57 624.88 126.031 617.17 126.031 602.68V574H91.0605Z" fill="black"/>
<path d="M74.1804 704.19C57.5004 704.19 40.4404 694.54 40.4404 673.43C40.4404 654.31 56.4104 643.05 74.0504 643.05C92.8104 643.05 107.91 655.14 107.91 673.92C107.91 692.7 91.6504 704.2 74.1704 704.2L74.1804 704.19ZM74.0504 650.27C60.7104 650.27 47.2805 658.7 47.2805 673.68C47.2805 688.66 59.5904 696.97 74.0504 696.97C88.5104 696.97 101.08 688.2 101.08 673.33C101.08 658.46 88.5204 650.28 74.0604 650.28L74.0504 650.27Z" fill="black"/>
<path d="M61.4102 718.85C52.1902 721.34 47.0002 728.58 47.0002 740.94C47.0002 754.35 52.1802 759.44 59.3702 759.44C65.7002 759.44 70.3602 756.22 72.4002 739.2C74.8502 719.13 82.0502 714.73 90.0902 714.73C97.5502 714.73 107.92 720.51 107.92 738.77C107.92 759.27 96.0602 764.24 89.2402 764.73V757.52C93.5602 756.56 101.38 753.94 101.38 738.18C101.38 724.9 95.0702 721.95 90.6402 721.95C84.7102 721.95 81.1802 725.27 79.1402 740.39C76.3002 761.9 69.6102 766.65 59.7902 766.65C48.4102 766.65 40.4502 758.5 40.4502 740.56C40.4502 722.62 48.6102 713.79 61.4202 711.64V718.85H61.4102Z" fill="black"/>
<path d="M72.5704 780.98C57.7804 781.69 47.1505 790.83 47.1505 804.73C47.1505 815.31 52.2004 821.48 59.6604 825.27V832.25C51.1604 829.24 40.4404 821.08 40.4404 803.9C40.4404 784.14 56.8204 773.88 73.9204 773.88C93.9404 773.88 107.91 786.31 107.91 803.55C107.91 825.97 89.7904 833.21 74.8004 833.21C74.0104 833.21 73.3604 833.21 72.5704 833.21V780.98ZM78.9704 825.64C88.0704 825.05 101.23 820.54 101.23 803.44C101.23 789.87 91.7304 782.53 78.9704 781.22V825.64Z" fill="black"/>
<path d="M0 0L0 523.48H18L18 0H0Z" fill="url(#paint0_linear_446_853)"/>
<defs>
<linearGradient id="paint0_linear_446_853" x1="9" y1="-3.62997" x2="9" y2="510.63" gradientUnits="userSpaceOnUse">
<stop stop-color="#F0D178"/>
<stop offset="0.32" stop-color="#F7E28B"/>
<stop offset="0.53" stop-color="#FFDD7E"/>
<stop offset="0.62" stop-color="#FCD97A"/>
<stop offset="0.71" stop-color="#F3CD70"/>
<stop offset="0.8" stop-color="#E4BB60"/>
<stop offset="0.88" stop-color="#CFA049"/>
<stop offset="0.93" stop-color="#C2903B"/>
</linearGradient>
</defs>
</svg>
