<svg width="833" height="98" viewBox="0 0 833 98" fill="none" xmlns="http://www.w3.org/2000/svg">
<g clip-path="url(#clip0_446_725)">
<path d="M0 5.36H7.35V89.14H60.84L59.49 96.52H0V5.36Z" fill="black"/>
<path d="M121.88 81.87C121.88 86.93 122.24 94.98 122.48 96.51H115.76C115.28 93.73 115.04 88.27 115.04 85.98C111.92 93.23 105.21 98.3 91.7202 98.3C74.4902 98.3 68.4902 87.19 68.4902 77.97C68.4902 61.85 82.5002 57.38 99.2902 57.38H115.03V53.21C115.03 45.22 111.82 37.38 96.8702 37.38C83.5702 37.38 80.3702 43.95 78.9502 51.03H71.9702C72.8002 42.23 78.1902 30.83 96.9902 30.83C115.79 30.83 121.9 41.24 121.9 51.73V81.88L121.88 81.87ZM115.03 63.53C112.89 63.53 108.93 63.53 99.5302 63.53C83.5002 63.53 75.5702 67.09 75.5702 77.57C75.5702 85.16 80.6802 91.61 92.3102 91.61C111.28 91.61 115.03 79 115.03 67.31V63.54V63.53Z" fill="black"/>
<path d="M202.79 96.51L164.1 5.36H172.2L193.95 56.76C201.92 75.6 205.01 83.54 206.69 88.28H206.93C208.25 84.29 213.54 71.47 218.05 60.85L241.78 5.36H249.75L210.46 96.51H202.79Z" fill="black"/>
<path d="M257.95 0H264.93V13.48H257.95V0ZM257.95 32.61H264.93V96.51H257.95V32.61Z" fill="black"/>
<path d="M284.47 66.17C285.18 80.96 294.32 91.59 308.22 91.59C318.8 91.59 324.97 86.54 328.76 79.08H335.74C332.73 87.58 324.57 98.3 307.39 98.3C287.63 98.3 277.37 81.92 277.37 64.82C277.37 44.8 289.8 30.83 307.04 30.83C329.46 30.83 336.7 48.95 336.7 63.94C336.7 64.73 336.7 65.38 336.7 66.17H284.47ZM329.13 59.77C328.54 50.67 324.03 37.51 306.93 37.51C293.36 37.51 286.02 47.01 284.71 59.77H329.13Z" fill="black"/>
<path d="M444.26 51.96H391.13V89.26H449.53L448.31 96.51H383.66V5.36H447.01V12.61H391.13V44.71H444.26V51.96Z" fill="black"/>
<path d="M461.21 48.72C461.21 43.35 461.21 37.47 461.09 32.62H467.83C468.07 35.03 468.19 41.12 468.19 46.42C470.71 39.33 477.39 30.83 490.89 30.83C504.39 30.83 513.9 39.79 513.9 57.9V96.51H506.91V59.47C506.91 47.19 502.52 37.8 489.91 37.8C475.42 37.8 468.19 49.94 468.19 66.56V96.51H461.21V48.72Z" fill="black"/>
<path d="M573.68 55.03V96.51H566.21V5.36H603.98C620.33 5.36 632.28 12.95 632.28 29.4C632.28 40.02 627.81 48.29 616.27 51.23C623.02 53.01 630.01 58.08 630.01 73.8V77.52C630.01 84.9 630.01 92.92 630.97 96.51H623.37C622.17 92.55 622.52 84.82 622.52 78.24V75.18C622.52 59.49 616.71 55.04 600.4 55.04H573.68V55.03ZM573.68 47.68H601.77C616.86 47.68 624.56 42.1 624.56 29.57C624.56 18.17 616.85 12.71 602.36 12.71H573.68V47.68Z" fill="black"/>
<path d="M703.86 64.56C703.86 81.24 694.21 98.3 673.1 98.3C653.98 98.3 642.72 82.33 642.72 64.69C642.72 45.93 654.81 30.83 673.59 30.83C692.37 30.83 703.87 47.09 703.87 64.57L703.86 64.56ZM649.94 64.69C649.94 78.03 658.37 91.46 673.35 91.46C688.33 91.46 696.64 79.15 696.64 64.69C696.64 50.23 687.87 37.66 673 37.66C658.13 37.66 649.95 50.22 649.95 64.68L649.94 64.69Z" fill="black"/>
<path d="M718.52 77.33C721.01 86.55 728.25 91.74 740.61 91.74C754.02 91.74 759.11 86.56 759.11 79.37C759.11 73.04 755.89 68.38 738.87 66.34C718.8 63.89 714.4 56.69 714.4 48.65C714.4 41.19 720.18 30.82 738.44 30.82C758.94 30.82 763.91 42.68 764.39 49.5H757.18C756.22 45.18 753.6 37.36 737.84 37.36C724.56 37.36 721.61 43.67 721.61 48.1C721.61 54.03 724.93 57.56 740.05 59.6C761.56 62.44 766.31 69.13 766.31 78.95C766.31 90.33 758.16 98.29 740.22 98.29C722.28 98.29 713.45 90.13 711.3 77.32H718.51L718.52 77.33Z" fill="black"/>
<path d="M780.65 66.17C781.36 80.96 790.5 91.59 804.4 91.59C814.98 91.59 821.15 86.54 824.94 79.08H831.92C828.91 87.58 820.75 98.3 803.57 98.3C783.81 98.3 773.55 81.92 773.55 64.82C773.55 44.8 785.98 30.83 803.22 30.83C825.64 30.83 832.88 48.95 832.88 63.94C832.88 64.73 832.88 65.38 832.88 66.17H780.65ZM825.31 59.77C824.72 50.67 820.21 37.51 803.11 37.51C789.54 37.51 782.2 47.01 780.89 59.77H825.31Z" fill="black"/>
</g>
<defs>
<clipPath id="clip0_446_725">
<rect width="832.88" height="98.3" fill="white"/>
</clipPath>
</defs>
</svg>
