<?xml version="1.0" encoding="UTF-8"?>
<svg id="_圖層_2" data-name="圖層 2" xmlns="http://www.w3.org/2000/svg" viewBox="0 0 320 320">
  <defs>
    <style>
      .cls-1 {
        fill: #a3191f;
      }
    </style>
  </defs>
  <g id="LINE_LOGO" data-name="LINE LOGO">
    <g>
      <path class="cls-1" d="M247.86,0H72.14C32.3,0,0,32.3,0,72.14v175.72c0,39.84,32.3,72.14,72.14,72.14h175.72c39.84,0,72.14-32.3,72.14-72.14V72.14C320,32.3,287.7,0,247.86,0ZM243.79,198.19h0c-22.38,25.76-72.44,57.14-83.82,61.94-11.39,4.8-9.71-3.06-9.24-5.75.27-1.61,1.52-9.13,1.52-9.13.36-2.72.73-6.95-.35-9.65-1.2-2.97-5.93-4.51-9.4-5.26-51.27-6.78-89.23-42.62-89.23-85.42,0-47.74,47.86-86.58,106.69-86.58s106.69,38.84,106.69,86.58c0,19.11-7.41,36.31-22.87,53.27Z"/>
      <path class="cls-1" d="M231.16,121.86h-29.97c-1.13,0-2.04.91-2.04,2.04v.04h0v46.48h0v.04c0,1.13.91,2.04,2.04,2.04h29.97c1.13,0,2.04-.91,2.04-2.04v-7.57c0-1.12-.92-2.04-2.04-2.04h-20.37v-7.86h20.37c1.13,0,2.04-.91,2.04-2.04v-7.57c0-1.12-.92-2.04-2.04-2.04h-20.37v-7.86h20.37c1.13,0,2.04-.91,2.04-2.04v-7.57c0-1.12-.92-2.04-2.04-2.04Z"/>
      <path class="cls-1" d="M120.29,160.85h-20.37v-36.96c0-1.12-.92-2.04-2.04-2.04h-7.57c-1.13,0-2.04.91-2.04,2.04v46.53h0v.04c0,1.13.91,2.04,2.04,2.04h29.97c1.12,0,2.04-.91,2.04-2.04v-7.57c0-1.12-.92-2.04-2.04-2.04Z"/>
      <rect class="cls-1" x="128.73" y="121.85" width="11.64" height="50.64" rx="2.04" ry="2.04"/>
      <path class="cls-1" d="M189.84,121.85h-7.57c-1.13,0-2.04.91-2.04,2.04v27.65l-21.3-28.77c-.05-.07-.11-.14-.16-.21,0,0,0,0-.01-.01-.04-.04-.08-.09-.12-.13-.01-.01-.03-.02-.04-.03-.04-.03-.07-.06-.11-.09-.02-.01-.04-.03-.06-.04-.03-.03-.07-.05-.11-.07-.02-.01-.04-.03-.06-.04-.04-.02-.07-.04-.11-.06-.02-.01-.04-.02-.06-.03-.04-.02-.08-.04-.12-.05-.02,0-.04-.02-.07-.02-.04-.01-.08-.03-.12-.04-.02,0-.05-.01-.07-.02-.04,0-.08-.02-.12-.03-.03,0-.06,0-.09-.01-.04,0-.07-.01-.11-.01-.04,0-.07,0-.11,0-.02,0-.05,0-.07,0h-7.52c-1.12,0-2.04.91-2.04,2.04v46.56c0,1.12.91,2.04,2.04,2.04h7.57c1.13,0,2.04-.91,2.04-2.04v-27.65l21.33,28.81c.15.21.33.38.53.51,0,0,.02.01.02.02.04.03.08.05.13.08.02.01.04.02.06.03.03.02.07.03.1.05.03.02.07.03.1.04.02,0,.04.02.06.02.05.02.09.03.14.04,0,0,.02,0,.03,0,.17.04.35.07.53.07h7.52c1.12,0,2.04-.91,2.04-2.04v-46.56c0-1.12-.91-2.04-2.04-2.04Z"/>
    </g>
  </g>
</svg>