<svg width="344" height="181" viewBox="0 0 344 181" fill="none" xmlns="http://www.w3.org/2000/svg">
<g clip-path="url(#clip0_446_1718)">
<path d="M201.33 45.31V52.76H70.1602V45.31H127.85V37.56H88.9402V10.88H127.85V0H143.2V10.88H182.4V37.56H143.2V45.31H201.33ZM122.33 112.54L131.57 120.14C118.01 127.74 94.3002 134.45 72.6902 137.28L70.9002 131.47C88.0402 126.55 101.9 120.44 113.98 112.54H87.1502V60.07H184.64V112.54H122.33ZM102.35 75.13H169.58V67.38H102.35V75.13ZM102.35 90.03H169.58V82.13H102.35V90.03ZM102.35 105.24H169.58V97.04H102.35V105.24ZM127.84 18.04H103.54V30.11H127.84V18.04ZM143.2 30.11H167.5V18.04H143.2V30.11ZM145.13 112.69C161.23 114.33 184.04 117.91 200.88 123.12L193.58 138.62C179.72 131.47 159.3 124.01 143.64 118.65L145.13 112.69Z" fill="white"/>
<path d="M235.62 90.4801C234.28 111.95 228.91 127.15 216.69 138.48L212.07 134.46C220.27 121.34 221.46 105.39 221.46 76.0301V52.3301H276.02C274.38 47.8601 272.74 43.8301 270.8 39.8101V47.5601H258.58V24.1601H234.88V47.8601H221.91V17.3001H270.8V36.0801L274.08 33.8401C277.51 36.5201 280.94 40.4001 283.92 44.5701V17.1401H333.26V47.5501H320.44V23.8501H296.14V47.1001H285.56L286.9 49.3401L281.24 52.3201H339.23V59.7701H301.22V67.3701H332.97V90.4701H235.63L235.62 90.4801ZM274.97 11.0301H218.18V3.58008H274.97V11.0301ZM282.42 118.5L283.46 124.16C265.42 130.57 248.88 134 233.97 135.79L231.44 122.52L242.17 122.07V93.4501H256.33V103.29H281.97V110H256.33V121.18C265.27 120.58 274.07 119.69 282.42 118.5ZM255.15 74.2301H236.07V76.4701C236.07 78.8501 236.07 81.2401 235.92 83.6201H255.15V74.2301ZM236.07 59.7701V67.3701H255.15V59.7701H236.07ZM255.15 44.1201L244.42 48.4401C242.78 41.4301 240.69 34.7301 238.61 29.2101L243.08 26.6801C247.7 31.1501 251.87 37.4101 255.15 44.1201ZM269.16 67.5201H286.9V59.7701H269.16V67.5201ZM269.16 83.6201H286.9V74.2301H269.16V83.6201ZM338.02 11.0301H280.48V3.58008H338.02V11.0301ZM332.21 133.26C323.86 133.86 312.38 133.86 301.21 133.26C288.99 132.51 285.86 128.19 285.86 118.8V93.7601H299.87V107.62C307.17 104.19 315.82 99.1201 322.23 93.7601L331.92 104.05C323.72 108.52 309.86 112.4 299.87 114.48V115.52C299.87 119.69 300.61 121.48 305.24 121.78C313.14 122.23 324.77 122.23 328.94 121.93C334.6 121.48 335.05 119.54 334.75 105.09H340.71C346.23 128.05 342.8 132.52 332.21 133.26ZM304.04 26.6801C308.96 31.4501 312.83 37.1101 316.71 43.9701L306.28 48.5901C304.64 42.1801 302.26 35.4701 299.72 29.5101L304.04 26.6801ZM301.21 83.6201H318.8V74.2301H301.21V83.6201Z" fill="white"/>
<path d="M20.2905 38.6701C19.1405 35.1501 17.4205 30.9201 16.0505 27.4701V68.0301H11.6005V32.8601C9.59051 39.3201 6.58051 46.2801 3.06051 51.3801L1.27051 50.0201C5.00051 43.2001 9.09051 31.0701 11.1005 19.3701H2.77051V16.5701H11.6005V1.85012H16.0505V16.5701H24.0905V19.3701H16.0505V23.3901C19.1405 27.4101 22.5105 32.8701 24.2305 36.8101L20.2805 38.6801L20.2905 38.6701ZM65.5105 57.8401L62.2805 62.1501C56.5405 57.0501 53.3105 50.5201 51.4405 41.4001C50.0805 42.1201 48.7805 42.6901 47.6405 43.1201C50.0105 48.7901 50.4405 54.5301 49.9405 59.4101C49.2205 65.7301 46.0605 68.0201 41.9005 68.0201C38.8105 68.0201 35.2205 66.2301 31.8505 63.9301L32.7105 61.9901C36.4405 63.2801 38.9605 64.0001 41.6805 63.7801C43.9105 63.7101 45.1305 61.2701 45.4105 58.5401C45.6305 55.9601 45.7005 52.8701 45.2705 49.6401C39.3105 54.9501 30.7705 59.2601 21.7305 61.4801L21.0105 59.4001C31.7805 55.8101 38.8105 50.7901 44.2705 44.5401C43.9805 43.4601 43.6205 42.3101 43.1205 41.1701C38.4505 45.2601 32.2805 49.4301 22.2305 52.3701L21.4405 50.3601C30.8405 46.7001 36.6605 42.3201 41.3205 37.3001C40.8905 36.5101 40.3905 35.7901 39.8805 35.0701C35.1405 38.5901 28.9705 41.6701 22.5105 43.5401L21.6505 41.5301C28.8305 38.7301 35.0005 34.9301 38.9505 30.8301H27.4605V21.4301C26.1005 22.5101 24.6605 23.5101 23.1505 24.5201L21.9305 22.8701C29.6105 16.1201 33.5605 9.52012 36.8605 1.12012L41.8105 2.91012C40.9505 4.63012 40.0205 6.36012 39.0105 8.01012H47.7705L49.3505 7.00012L53.5905 9.66012C51.2205 12.8201 48.9205 15.3301 46.8405 17.0501H61.2005V30.8301H44.8305C43.9005 31.7601 42.8205 32.7701 41.6705 33.7001C43.8205 36.0701 45.4705 38.6501 46.7705 41.1701C50.0005 39.1601 53.3705 36.1501 56.3205 32.7701L60.2005 35.7801C58.1905 37.4301 55.6805 39.0801 53.3105 40.4501C55.5405 48.1301 59.4805 53.7301 65.5105 57.8201V57.8401ZM31.9905 28.1201H42.0405V19.7901H31.9905V28.1201ZM37.3005 10.7501C35.7905 12.9801 34.1405 15.0601 32.2805 17.0701H43.9105C45.4205 14.9901 46.9305 12.7601 47.7905 10.7501H37.3105H37.3005ZM56.6105 19.7901H46.4905V28.1201H56.6105V19.7901Z" fill="white"/>
<path d="M15.4102 100.91V140.18H10.8202V104.07C8.9502 110.32 6.0102 117.28 2.4902 122.81L0.700195 121.45C4.3602 114.13 8.31019 102.71 10.0302 91.4396H2.1302V88.6396H10.8202V73.3496H15.4102V88.6396H22.1602V91.4396H15.4102V96.9696C18.2802 100.13 21.1502 103.72 23.0902 107.09L19.2102 109.46C18.1302 106.59 16.7702 103.57 15.4102 100.92V100.91ZM47.7802 128.25C39.7402 132.27 27.7502 135.79 20.2202 137.37L18.6402 132.35C23.1602 131.92 28.8302 130.91 34.2902 129.62C35.5102 125.96 36.7302 120.79 37.5202 116.05L42.1902 117.41C40.5402 121.79 38.7402 125.88 36.9502 129.04C40.7502 128.11 44.3402 127.1 47.0702 126.17L47.7902 128.25H47.7802ZM30.9102 85.4696H20.5002V82.6696H30.9102V73.4796H35.5802V82.6696H46.5602V85.4696H35.5802V92.6496H44.0502V95.3796H22.7302V92.6496H30.9102V85.4696ZM42.6802 114.33H23.4402V99.5396H42.6802V114.33ZM23.5902 117.49L25.4602 116.56C27.6102 119.57 29.9802 124.24 31.1302 127.33L26.8202 128.98C26.1002 125.82 24.8802 121.16 23.5902 117.49ZM38.3802 102.34H27.7602V111.53H38.3802V102.34ZM65.7302 94.7996H60.1302V133.35C60.1302 140.17 54.3202 142.47 43.1902 136.44L43.9102 134.36C53.6002 136.44 55.4702 136.08 55.4702 132.49V94.7996H45.4902V91.9996H55.4702V73.6996H60.1402V91.9996H65.7402V94.7996H65.7302ZM48.2802 120.57C47.7802 114.76 46.7702 108.51 45.4102 102.48L47.5602 101.91C49.9302 107.51 52.0802 114.54 52.8702 119.64L48.2802 120.57Z" fill="white"/>
<path d="M13.1007 179.87C13.8207 179.87 14.5307 179.87 15.2507 179.78V180.55C14.5307 180.46 13.8207 180.46 13.1007 180.46H4.1707C3.4507 180.46 2.6807 180.46 1.9707 180.55C2.0607 179.83 2.0607 179.12 2.0607 178.4V161.34C2.0607 160.62 2.0607 159.91 1.9707 159.19H2.8007C2.7107 159.91 2.7107 160.62 2.7107 161.34V179.86H13.1007V179.87Z" fill="white"/>
<path d="M28.56 179.16C28.56 178.5 28.62 177.73 28.7 177.04H28.64C27.55 179.44 25.52 180.76 22.94 180.76C19.79 180.76 17.96 179.27 17.96 176.75C17.96 173.54 20.62 172 26.12 172C27.21 172 27.92 172.03 28.52 172.09V170.69C28.52 167.37 27.12 165.97 23.94 165.97C22.88 165.97 22.02 166.23 21.22 166.63C20.5 167 19.93 167.49 19.47 168L19.07 167.48C19.67 166.88 20.3 166.39 20.99 166.05C21.88 165.59 22.85 165.36 24 165.36C27.55 165.36 29.18 166.99 29.18 170.6V178.3C29.18 179.16 29.21 179.76 29.27 180.48H28.55V179.16H28.56ZM28.53 172.66C27.9 172.6 27.18 172.57 26.13 172.57C20.98 172.57 18.6 173.89 18.6 176.75C18.6 178.93 20.17 180.16 22.95 180.16C25.55 180.16 27.41 178.9 28.53 176.44V172.66Z" fill="white"/>
<path d="M56.4706 159.15C56.1306 159.87 55.8406 160.58 55.5506 161.3L48.8506 178.33C48.5606 179.05 48.3106 179.73 48.1306 180.48H47.2106C47.0106 179.74 46.7806 179.05 46.4906 178.33L39.7906 161.3C39.5006 160.58 39.2206 159.87 38.8506 159.15H39.7106C39.9106 159.87 40.2006 160.58 40.4806 161.3L46.9806 177.87C47.2106 178.41 47.4406 179.02 47.6706 179.67C47.9006 178.98 48.1306 178.38 48.3306 177.87L54.8606 161.3C55.1506 160.58 55.4006 159.87 55.6006 159.15H56.4606H56.4706Z" fill="white"/>
<path d="M60.5907 160.52C60.5907 160.95 60.3007 161.24 59.9007 161.24C59.5007 161.24 59.1807 160.95 59.1807 160.52C59.1807 160.12 59.4907 159.83 59.9007 159.83C60.3107 159.83 60.5907 160.12 60.5907 160.52ZM60.3007 165.59C60.2407 166.19 60.2107 166.74 60.2107 167.74V178.33C60.2107 179.3 60.2407 179.88 60.3007 180.48H59.4707C59.5307 179.88 59.5607 179.31 59.5607 178.33V167.74C59.5607 166.74 59.5307 166.19 59.4707 165.59H60.3007Z" fill="white"/>
<path d="M65.5108 172.8V172.94C65.5108 177.29 68.0308 180.15 71.8608 180.15C73.3808 180.15 74.8408 179.72 75.9208 178.92C76.3808 178.58 76.7508 178.2 77.0608 177.77L77.5208 178.2C77.2608 178.51 76.8008 178.94 76.4308 179.23C75.2308 180.2 73.6008 180.75 71.8508 180.75C67.7008 180.75 64.8408 177.57 64.8408 172.94C64.8408 168.31 67.4208 165.21 71.6208 165.21C75.8208 165.21 77.8908 167.76 77.8908 172.28V172.8H65.5008H65.5108ZM77.2508 172.23C77.2508 168.11 75.2508 165.82 71.6108 165.82C67.9708 165.82 65.7708 168.22 65.5408 172.23H77.2508Z" fill="white"/>
<path d="M99.4003 179.87C100.12 179.87 100.83 179.87 101.55 179.78V180.55C100.83 180.46 100.12 180.46 99.4003 180.46H91.2703C90.5503 180.46 89.7803 180.46 89.0703 180.55C89.1603 179.83 89.1603 179.12 89.1603 178.4V161.23C89.1603 160.51 89.1603 159.8 89.0703 159.05C89.7903 159.14 90.5603 159.14 91.2703 159.14H98.9703C99.6903 159.14 100.4 159.14 101.12 159.05V159.82C100.4 159.73 99.6903 159.73 98.9703 159.73H89.8103V169.49H98.0003C98.7203 169.49 99.4303 169.49 100.15 169.4V170.17C99.4303 170.08 98.7203 170.08 98.0003 170.08H89.8103V179.84H99.4003V179.87Z" fill="white"/>
<path d="M116.871 180.47C116.931 179.84 116.961 179.27 116.961 178.32V170.96C116.961 167.67 115.331 165.89 112.271 165.89C108.981 165.92 106.751 168.01 106.751 171.01V178.31C106.751 179.28 106.781 179.86 106.841 180.46H106.011C106.071 179.86 106.101 179.29 106.101 178.31V167.72C106.101 166.72 106.071 166.17 106.011 165.57H106.751V166.77C106.751 167.43 106.721 168.26 106.641 168.92H106.731C107.531 166.72 109.621 165.28 112.341 165.28C115.691 165.28 117.641 167.28 117.641 170.78V178.31C117.641 179.25 117.671 179.83 117.731 180.46H116.901L116.871 180.47Z" fill="white"/>
<path d="M142.801 178.24C143.261 178.98 143.741 179.76 144.321 180.47H143.151C142.861 179.67 142.461 178.95 142.011 178.24L136.971 170.31H130.761V178.32C130.761 179.04 130.761 179.75 130.851 180.47H130.051C130.111 179.75 130.111 179.04 130.111 178.32V161.2C130.111 159.85 130.081 159.51 130.021 159.05C130.651 159.11 131.221 159.14 132.221 159.14H136.48C140.63 159.14 142.921 161.03 142.921 164.49C142.921 167.55 141.291 169.58 137.651 170.16L142.801 178.23V178.24ZM135.901 169.74C140.051 169.74 142.251 167.94 142.251 164.53C142.251 161.38 140.191 159.75 136.351 159.75H130.741V169.74H135.891H135.901Z" fill="white"/>
<path d="M160.09 173.06C160.09 177.73 157.46 180.76 153.42 180.76C149.38 180.76 146.75 177.61 146.75 173C146.75 168.39 149.38 165.3 153.42 165.3C157.46 165.3 160.09 168.45 160.09 173.06ZM159.43 173.06C159.43 168.74 157.08 165.9 153.42 165.9C149.76 165.9 147.41 168.65 147.41 173C147.41 177.35 149.76 180.16 153.42 180.16C157.08 180.16 159.43 177.41 159.43 173.06Z" fill="white"/>
<path d="M163.44 177.41C163.84 178.04 164.36 178.61 164.93 179.07C165.85 179.81 167.13 180.16 168.68 180.16C171.69 180.16 173.34 178.96 173.34 176.7C173.34 174.73 172.22 173.9 168.53 173.15C165.12 172.46 163.78 171.38 163.78 169.34C163.78 166.91 165.73 165.3 168.65 165.3C169.71 165.3 170.65 165.5 171.51 165.87C172.23 166.18 172.94 166.7 173.4 167.22L172.94 167.71C172.6 167.28 172.05 166.85 171.39 166.51C170.56 166.11 169.62 165.91 168.64 165.91C166.01 165.91 164.43 167.2 164.43 169.34C164.43 171.03 165.6 171.89 168.64 172.49C172.62 173.29 173.99 174.38 173.99 176.64C173.99 179.22 171.99 180.76 168.64 180.76C166.95 180.76 165.63 180.39 164.58 179.59C163.95 179.13 163.38 178.53 162.95 177.87L163.44 177.41Z" fill="white"/>
<path d="M177.521 172.8V172.94C177.521 177.29 180.041 180.15 183.871 180.15C185.391 180.15 186.851 179.72 187.931 178.92C188.391 178.58 188.761 178.2 189.071 177.77L189.531 178.2C189.271 178.51 188.811 178.94 188.441 179.23C187.241 180.2 185.611 180.75 183.861 180.75C179.711 180.75 176.851 177.57 176.851 172.94C176.851 168.31 179.431 165.21 183.631 165.21C187.831 165.21 189.901 167.76 189.901 172.28V172.8H177.511H177.521ZM189.261 172.23C189.261 168.11 187.261 165.82 183.621 165.82C179.981 165.82 177.781 168.22 177.551 172.23H189.261Z" fill="white"/>
<path d="M205.38 174.9C203.97 175.77 201.15 176.96 199.72 177.38L199.32 176.13C200.09 176 200.93 175.8 201.78 175.56V170.95H199.92V170.3H201.78V166.41H199.75V165.76H204.82V166.41H202.84V170.3H204.64V170.95H202.84V175.24C203.67 174.97 204.47 174.69 205.19 174.39L205.37 174.89L205.38 174.9ZM213.13 179.36C212.33 179.41 211.15 179.41 210.37 179.36C209.17 179.26 208.79 178.93 208.79 177.58V172.79H207.88C207.71 176.6 205.73 178.8 202.81 180.08L202.54 179.6C205.07 178.1 206.58 176.27 206.78 172.8H205.1V166.94H207.48C207.71 166.26 207.96 165.16 208.1 164.33L209.4 164.65C209.08 165.37 208.55 166.31 208.09 166.95H212.85V172.81H209.86V177.52C209.86 178.2 209.91 178.34 210.61 178.4C211.31 178.45 212.29 178.43 213.01 178.38C213.68 178.31 213.76 178.06 213.74 175.92H214.24C214.92 179.01 214.29 179.28 213.16 179.38L213.13 179.36ZM208.41 167.58H206.13V169.44H208.41V167.58ZM208.41 170.1H206.13V172.15H208.41V170.1ZM209.45 169.45H211.76V167.59H209.45V169.45ZM209.45 172.14H211.76V170.09H209.45V172.14ZM210.92 176.28C211.35 176.2 211.77 176.08 212.2 175.95C212.08 175.5 211.95 175.08 211.85 174.75L212.25 174.57C212.72 175.29 213.18 176.4 213.36 177.08L212.53 177.35C212.48 177.08 212.41 176.75 212.33 176.42C211.65 176.8 210.77 177.22 210.13 177.37L209.85 176.45C210.03 176.43 210.22 176.4 210.4 176.38C210.63 175.42 210.78 174.2 210.85 173.2L211.85 173.42C211.65 174.33 211.28 175.47 210.92 176.28Z" fill="white"/>
<path d="M227.11 174.55C227.01 176.98 226.59 178.63 225.38 179.97L224.96 179.64C225.94 178.13 226.06 176.28 226.06 173.02V170.38H232.28C232.01 169.71 231.73 169.08 231.45 168.53L231.85 168.25C232.33 168.75 232.83 169.43 233.2 170.1L232.63 170.38H239.1V171.03H234.64V172.03H238.35V174.56H227.1L227.11 174.55ZM231.92 165.6H225.57V164.95H231.92V165.6ZM230.37 169.8V167.07H227.18V169.82H226.2V166.46H231.32V169.8H230.37ZM233 177.95L233.1 178.43C231.17 179.03 228.86 179.38 227.26 179.54L227.08 178.48C227.51 178.46 228 178.45 228.48 178.41V174.92H229.51V176.15H232.85V176.72H229.51V178.33C230.74 178.23 232.01 178.1 233 177.95ZM227.14 171.03V172.03H229.93V171.03H227.14ZM229.94 172.64H227.15V173.94H229.94V172.64ZM227.92 167.65L228.32 167.42C228.79 167.94 229.3 168.73 229.65 169.47L228.74 169.85C228.52 169.1 228.21 168.24 227.92 167.65ZM230.97 172.03H233.61V171.03H230.97V172.03ZM230.97 173.94H233.61V172.64H230.97V173.94ZM239.02 165.6H232.67V164.95H239.02V165.6ZM237.37 169.76V167.03H234.13V169.72H233.17V166.41H238.38V169.75H237.38L237.37 169.76ZM238.45 179.33C237.52 179.4 236.3 179.4 235.17 179.33C233.87 179.25 233.46 178.91 233.46 177.82V174.96H234.49V176.74C235.47 176.34 236.74 175.74 237.58 175.11L238.31 175.96C237.33 176.48 235.61 177.01 234.48 177.27V177.62C234.48 178.25 234.61 178.4 235.38 178.45C236.3 178.5 237.56 178.52 238.17 178.47C238.87 178.42 238.92 178.15 238.9 176.26H239.4C239.87 178.9 239.55 179.25 238.44 179.34L238.45 179.33ZM234.64 173.94H237.32V172.64H234.64V173.94ZM234.83 167.67L235.21 167.4C235.71 167.9 236.22 168.66 236.61 169.4L235.73 169.8C235.51 169.1 235.15 168.29 234.83 167.67Z" fill="white"/>
<path d="M265.161 178.5L264.531 179.83C262.321 179.48 259.211 178.3 257.841 175.12H257.691C256.731 177.8 254.351 179.36 250.221 180.01L250.051 179.53C253.711 178.66 255.561 177.25 256.371 175.12H250.761V174.47H256.581C256.731 173.94 256.811 173.36 256.861 172.74L258.121 172.84C258.071 173.42 257.991 173.97 257.871 174.47H264.341V175.12H258.381C259.991 177.57 262.771 178.2 265.131 178.5H265.161ZM264.711 172.36H250.451V171.71H256.921V169.98H252.151V169.33H256.921V167.65H251.081V167H255.411C254.811 166.28 253.831 165.27 253.181 164.69L253.461 164.27C254.391 164.75 255.811 165.67 256.551 166.33L255.931 167H258.611C259.191 166.19 259.771 165.1 260.161 164.24L261.371 164.86C260.791 165.64 260.091 166.39 259.371 167.01H264.061V167.66H258.091V169.34H263.031V169.99H258.091V171.72H264.691V172.37L264.711 172.36Z" fill="white"/>
<path d="M290.15 176.3H283.81V178.53C283.81 179.86 282.75 180.36 279.6 179.16L279.73 178.66C282.43 179.04 282.69 178.96 282.69 178.04V176.29H275.74V175.64H282.69V174.46L283.57 174.61C284.27 174.24 285.03 173.73 285.58 173.26H278.29V172.61H285.81L286.24 172.44L287.27 173.32C286.14 174.15 284.71 174.77 283.79 175.05V175.63H290.13V176.28L290.15 176.3ZM277.05 174H275.95V171.04H277.46C277.39 169.18 277.31 167.23 277.23 165.35L278.21 165.55C278.89 165.28 279.61 164.88 280.29 164.34L280.97 165.07C280.24 165.49 279.11 165.85 278.27 166.02L278.32 167.07H280.7V167.72H278.34C278.37 168.19 278.39 168.67 278.41 169.13H280.84V169.78H278.43C278.45 170.2 278.46 170.63 278.46 171.04H281.12L280.9 170.62C281.48 170.29 282 169.89 282.45 169.44C282.07 169.14 281.68 168.84 281.29 168.57L281.51 168.17C281.99 168.4 282.47 168.65 282.94 168.92C283.24 168.55 283.52 168.17 283.79 167.76L284.59 168.33C284.32 168.68 284.01 169.03 283.64 169.38C284.04 169.65 284.42 169.95 284.79 170.26L284.09 171.01C283.77 170.64 283.41 170.28 283.03 169.93C282.46 170.38 281.85 170.78 281.18 171.04H287.24C287.27 170.64 287.29 170.23 287.32 169.83H284.87V169.18H287.35L287.4 167.87H284.99V167.22H287.44L287.49 165.81H284.88V165.16H287.34L287.64 164.88L288.59 165.13C288.49 167.08 288.39 169.14 288.24 171.05H289.8V173.98H288.7V171.72H277.06V174.02L277.05 174ZM282.49 166.07C282.09 165.69 281.69 165.32 281.34 165.06L281.57 164.64C281.99 164.86 282.45 165.16 282.92 165.51C283.19 165.13 283.4 164.76 283.6 164.4L284.47 164.9C284.24 165.27 283.94 165.65 283.59 166.01C283.97 166.31 284.34 166.61 284.65 166.89L283.93 167.61C283.7 167.33 283.36 166.96 283.01 166.6C282.48 167.08 281.88 167.55 281.26 167.88L280.99 167.51C281.56 167.08 282.04 166.6 282.47 166.08L282.49 166.07Z" fill="white"/>
<path d="M303.61 170.64V179.92H302.58V172.18C302.03 172.91 301.47 173.58 300.93 174.03L300.58 173.65C301.89 172.15 302.98 169.87 303.57 168.14L304.65 168.57C304.38 169.2 304.02 169.92 303.6 170.63L303.61 170.64ZM301.3 169.21L300.95 168.84C301.98 167.71 303.01 165.85 303.55 164.31L304.65 164.76C303.93 166.27 302.7 168.07 301.31 169.2L301.3 169.21ZM308.43 170.1H310.86V170.77H308.43V172.88H310.48V173.53H308.43V177.11C309.23 176.88 310.01 176.63 310.68 176.39L310.85 176.87C308.94 177.88 306.29 178.77 304.48 179.23L304.1 178.1C304.45 178.05 304.82 177.98 305.2 177.9V172.19H306.15V177.68C306.55 177.6 306.97 177.5 307.38 177.38V170.76H304.77V170.09H307.38V167.45H306.2C305.83 168.03 305.47 168.51 305.14 168.86L304.74 168.56C305.36 167.63 306.07 165.93 306.42 164.45L307.5 164.75C307.25 165.43 306.93 166.15 306.58 166.78H310.49V167.45H308.44V170.09L308.43 170.1ZM314.95 165.54V176.15C314.95 177.45 313.79 177.6 312.21 177.06V179.89H311.16V165.53H314.95V165.54ZM313.96 166.2H312.21V176.51C313.71 176.69 313.96 176.56 313.96 175.79V166.19V166.2Z" fill="white"/>
<path d="M331.79 174.8V173.59H328.33C328.2 176.58 327.75 178.33 326.43 180.03L325.98 179.71C327.16 177.68 327.26 175.6 327.26 170.98V165.86L328.26 166.21C329.46 165.88 331.45 165.1 332.37 164.48L333.28 165.41C331.87 165.96 329.85 166.51 328.37 166.71V168.97H332.88V174.81H331.78L331.79 174.8ZM331.79 172.92V169.63H328.38V170.89C328.38 171.62 328.38 172.3 328.36 172.92H331.79ZM340.99 171.01H339.04V179.84H337.94V171.01H335.06C335.03 175.09 334.59 177.73 332.28 179.98L331.9 179.61C333.66 177.31 333.95 174.77 333.95 170.38V165.81L335 166.11C336.38 165.79 338.28 165.16 339.52 164.41L340.34 165.37C338.78 165.99 336.75 166.4 335.07 166.62V170.36H340.99V171.01Z" fill="white"/>
</g>
<defs>
<clipPath id="clip0_446_1718">
<rect width="342.62" height="180.76" fill="white" transform="translate(0.69043)"/>
</clipPath>
</defs>
</svg>
