<svg width="920" height="122" viewBox="0 0 920 122" fill="none" xmlns="http://www.w3.org/2000/svg">
<path d="M2.31 60.484H15.876V63.928H2.31V60.484ZM1.386 73.882H17.388V77.41H1.386V73.882ZM8.022 75.73H11.844V93.076C11.844 94.084 11.718 94.868 11.466 95.428C11.242 96.016 10.78 96.464 10.08 96.772C9.408 97.08 8.568 97.262 7.56 97.318C6.58 97.402 5.362 97.444 3.906 97.444C3.85 96.884 3.696 96.24 3.444 95.512C3.22 94.812 2.968 94.196 2.688 93.664C3.696 93.692 4.634 93.706 5.502 93.706C6.37 93.706 6.944 93.692 7.224 93.664C7.532 93.664 7.742 93.622 7.854 93.538C7.966 93.454 8.022 93.286 8.022 93.034V75.73ZM14.658 60.484H15.498L16.254 60.232L18.69 61.954C18.018 63.046 17.248 64.166 16.38 65.314C15.512 66.462 14.616 67.554 13.692 68.59C12.768 69.598 11.858 70.48 10.962 71.236C10.71 70.872 10.36 70.466 9.912 70.018C9.464 69.57 9.072 69.192 8.736 68.884C9.464 68.212 10.206 67.442 10.962 66.574C11.718 65.678 12.418 64.754 13.062 63.802C13.734 62.85 14.266 61.982 14.658 61.198V60.484ZM16.254 73.882H16.8L17.346 73.756L19.782 74.344C19.278 76.024 18.732 77.746 18.144 79.51C17.556 81.246 17.01 82.716 16.506 83.92L13.524 83.206C13.832 82.478 14.14 81.61 14.448 80.602C14.784 79.594 15.106 78.558 15.414 77.494C15.722 76.402 16.002 75.366 16.254 74.386V73.882ZM3.318 68.59L5.334 65.986C6.51 66.546 7.728 67.204 8.988 67.96C10.276 68.688 11.466 69.444 12.558 70.228C13.678 71.012 14.574 71.768 15.246 72.496L13.062 75.394C12.39 74.694 11.508 73.938 10.416 73.126C9.352 72.286 8.19 71.474 6.93 70.69C5.698 69.878 4.494 69.178 3.318 68.59ZM18.774 60.358H40.152V63.76H18.774V60.358ZM23.982 76.486V80.014H34.986V76.486H23.982ZM23.982 82.828V86.356H34.986V82.828H23.982ZM23.982 70.228V73.672H34.986V70.228H23.982ZM20.328 67.246H38.808V89.338H20.328V67.246ZM27.426 62.122L31.962 62.668C31.598 63.928 31.22 65.174 30.828 66.406C30.436 67.638 30.072 68.702 29.736 69.598L26.208 68.926C26.376 68.282 26.544 67.568 26.712 66.784C26.88 65.972 27.02 65.16 27.132 64.348C27.272 63.536 27.37 62.794 27.426 62.122ZM24.444 89.8L27.804 91.9C27.048 92.628 26.124 93.356 25.032 94.084C23.968 94.812 22.848 95.484 21.672 96.1C20.496 96.716 19.348 97.234 18.228 97.654C17.92 97.29 17.5 96.842 16.968 96.31C16.436 95.806 15.974 95.386 15.582 95.05C16.674 94.63 17.78 94.14 18.9 93.58C20.048 92.992 21.112 92.376 22.092 91.732C23.072 91.06 23.856 90.416 24.444 89.8ZM30.786 92.026L33.768 90.01C34.58 90.514 35.448 91.088 36.372 91.732C37.296 92.376 38.178 93.02 39.018 93.664C39.886 94.28 40.586 94.854 41.118 95.386L37.968 97.654C37.492 97.122 36.848 96.52 36.036 95.848C35.224 95.204 34.356 94.546 33.432 93.874C32.508 93.202 31.626 92.586 30.786 92.026ZM64.176 66.196H78.834V69.976H64.176V66.196ZM77.196 66.196H81.228C81.228 66.196 81.228 66.336 81.228 66.616C81.228 66.868 81.228 67.148 81.228 67.456C81.228 67.764 81.228 68.016 81.228 68.212C81.088 72.832 80.948 76.752 80.808 79.972C80.668 83.192 80.5 85.838 80.304 87.91C80.108 89.954 79.87 91.55 79.59 92.698C79.338 93.846 79.002 94.672 78.582 95.176C78.05 95.904 77.504 96.394 76.944 96.646C76.384 96.926 75.698 97.122 74.886 97.234C74.158 97.318 73.206 97.346 72.03 97.318C70.882 97.318 69.706 97.29 68.502 97.234C68.474 96.674 68.334 96.016 68.082 95.26C67.858 94.504 67.564 93.846 67.2 93.286C68.516 93.398 69.72 93.468 70.812 93.496C71.904 93.496 72.702 93.496 73.206 93.496C73.598 93.496 73.934 93.454 74.214 93.37C74.494 93.286 74.732 93.104 74.928 92.824C75.264 92.488 75.544 91.774 75.768 90.682C76.02 89.562 76.23 87.994 76.398 85.978C76.566 83.934 76.706 81.372 76.818 78.292C76.958 75.184 77.084 71.446 77.196 67.078V66.196ZM65.688 58.552L69.594 59.35C69.09 61.45 68.474 63.508 67.746 65.524C67.046 67.54 66.262 69.444 65.394 71.236C64.526 73 63.602 74.554 62.622 75.898C62.398 75.674 62.076 75.422 61.656 75.142C61.236 74.862 60.802 74.582 60.354 74.302C59.934 74.022 59.556 73.798 59.22 73.63C60.2 72.426 61.096 71.012 61.908 69.388C62.748 67.764 63.476 66.028 64.092 64.18C64.736 62.332 65.268 60.456 65.688 58.552ZM63.84 77.2L66.57 75.142C67.522 76.01 68.488 76.99 69.468 78.082C70.448 79.146 71.344 80.21 72.156 81.274C72.968 82.31 73.598 83.262 74.046 84.13L71.106 86.44C70.686 85.572 70.084 84.592 69.3 83.5C68.516 82.408 67.648 81.316 66.696 80.224C65.744 79.104 64.792 78.096 63.84 77.2ZM55.65 75.058L58.842 74.218C59.234 75.17 59.612 76.192 59.976 77.284C60.368 78.348 60.704 79.384 60.984 80.392C61.292 81.372 61.516 82.24 61.656 82.996L58.338 84.004C58.198 83.248 57.988 82.366 57.708 81.358C57.428 80.322 57.106 79.258 56.742 78.166C56.406 77.046 56.042 76.01 55.65 75.058ZM51.366 86.356L54.516 85.558C54.824 87.07 55.104 88.68 55.356 90.388C55.636 92.096 55.832 93.594 55.944 94.882L52.626 95.764C52.57 94.896 52.472 93.93 52.332 92.866C52.22 91.774 52.08 90.668 51.912 89.548C51.744 88.4 51.562 87.336 51.366 86.356ZM46.242 85.894L49.728 86.608C49.42 88.372 49 90.192 48.468 92.068C47.964 93.916 47.446 95.47 46.914 96.73C46.662 96.59 46.326 96.436 45.906 96.268C45.486 96.128 45.066 95.988 44.646 95.848C44.226 95.708 43.848 95.61 43.512 95.554C44.1 94.294 44.618 92.796 45.066 91.06C45.542 89.296 45.934 87.574 46.242 85.894ZM44.814 74.68C44.758 74.428 44.66 74.092 44.52 73.672C44.38 73.224 44.226 72.762 44.058 72.286C43.89 71.81 43.722 71.418 43.554 71.11C43.974 70.998 44.394 70.76 44.814 70.396C45.234 70.004 45.682 69.486 46.158 68.842C46.438 68.534 46.816 68.044 47.292 67.372C47.768 66.672 48.3 65.846 48.888 64.894C49.504 63.942 50.12 62.906 50.736 61.786C51.352 60.666 51.912 59.546 52.416 58.426L56.07 59.98C54.81 62.304 53.396 64.6 51.828 66.868C50.288 69.108 48.734 71.04 47.166 72.664V72.748C47.166 72.748 47.04 72.818 46.788 72.958C46.564 73.07 46.298 73.238 45.99 73.462C45.682 73.658 45.402 73.868 45.15 74.092C44.926 74.288 44.814 74.484 44.814 74.68ZM44.814 74.68L44.73 71.908L46.452 70.774L54.516 70.102C54.404 70.606 54.32 71.166 54.264 71.782C54.208 72.37 54.166 72.86 54.138 73.252C52.318 73.448 50.834 73.616 49.686 73.756C48.566 73.896 47.684 74.022 47.04 74.134C46.396 74.218 45.906 74.302 45.57 74.386C45.262 74.47 45.01 74.568 44.814 74.68ZM44.982 84.298C44.926 84.046 44.814 83.696 44.646 83.248C44.506 82.8 44.352 82.338 44.184 81.862C44.044 81.358 43.89 80.938 43.722 80.602C44.254 80.49 44.786 80.21 45.318 79.762C45.878 79.286 46.522 78.67 47.25 77.914C47.642 77.55 48.202 76.948 48.93 76.108C49.686 75.24 50.526 74.218 51.45 73.042C52.402 71.838 53.354 70.55 54.306 69.178C55.258 67.778 56.14 66.378 56.952 64.978L60.312 67.12C58.464 69.948 56.42 72.678 54.18 75.31C51.968 77.942 49.756 80.266 47.544 82.282V82.366C47.544 82.366 47.418 82.436 47.166 82.576C46.914 82.688 46.62 82.842 46.284 83.038C45.948 83.234 45.64 83.444 45.36 83.668C45.108 83.892 44.982 84.102 44.982 84.298ZM44.982 84.298L44.814 81.316L46.662 80.056L59.178 78.334C59.122 78.838 59.066 79.412 59.01 80.056C58.982 80.672 58.982 81.176 59.01 81.568C56.182 82.016 53.886 82.394 52.122 82.702C50.386 82.982 49.042 83.22 48.09 83.416C47.166 83.584 46.48 83.738 46.032 83.878C45.584 84.018 45.234 84.158 44.982 84.298ZM56.49 85.6L59.43 84.592C59.962 85.852 60.48 87.224 60.984 88.708C61.488 90.164 61.866 91.424 62.118 92.488L59.052 93.664C58.912 92.936 58.688 92.11 58.38 91.186C58.1 90.262 57.792 89.31 57.456 88.33C57.148 87.322 56.826 86.412 56.49 85.6ZM102.942 58.552H106.89V65.146H102.942V58.552ZM87.528 63.172H122.934V70.774H119.07V65.944H91.224V70.774H87.528V63.172ZM97.776 70.228V72.664H112.518V70.228H97.776ZM94.08 67.918H116.424V74.974H94.08V67.918ZM91.476 59.812L95.004 58.804C95.62 59.392 96.208 60.064 96.768 60.82C97.356 61.576 97.804 62.248 98.112 62.836L94.5 64.138C94.22 63.55 93.786 62.85 93.198 62.038C92.61 61.198 92.036 60.456 91.476 59.812ZM115.29 58.636L119.364 59.686C118.692 60.554 118.006 61.38 117.306 62.164C116.606 62.92 115.962 63.578 115.374 64.138L112.182 63.13C112.714 62.486 113.274 61.744 113.862 60.904C114.478 60.036 114.954 59.28 115.29 58.636ZM95.466 83.164V85.138H115.08V83.164H95.466ZM95.466 87.322V89.338H115.08V87.322H95.466ZM95.466 79.048V80.98H115.08V79.048H95.466ZM91.686 76.78H118.986V91.606H91.686V76.78ZM98.364 91.774L102.186 93.202C101.122 93.874 99.862 94.49 98.406 95.05C96.95 95.638 95.424 96.156 93.828 96.604C92.26 97.052 90.748 97.444 89.292 97.78C89.096 97.5 88.816 97.164 88.452 96.772C88.088 96.38 87.724 96.002 87.36 95.638C86.996 95.274 86.66 94.98 86.352 94.756C87.836 94.56 89.334 94.308 90.846 94C92.358 93.72 93.772 93.398 95.088 93.034C96.404 92.642 97.496 92.222 98.364 91.774ZM107.856 93.748L110.922 91.564C112.434 91.928 113.974 92.334 115.542 92.782C117.138 93.23 118.636 93.678 120.036 94.126C121.436 94.574 122.64 94.994 123.648 95.386L119.574 97.612C118.706 97.22 117.642 96.8 116.382 96.352C115.15 95.932 113.792 95.484 112.308 95.008C110.852 94.56 109.368 94.14 107.856 93.748ZM131.712 60.61H135.702V72.538C135.702 74.358 135.646 76.346 135.534 78.502C135.422 80.658 135.198 82.87 134.862 85.138C134.526 87.406 134.036 89.604 133.392 91.732C132.748 93.832 131.894 95.764 130.83 97.528C130.578 97.304 130.228 97.052 129.78 96.772C129.36 96.52 128.912 96.268 128.436 96.016C127.988 95.792 127.596 95.624 127.26 95.512C128.268 93.832 129.066 92.012 129.654 90.052C130.27 88.092 130.718 86.09 130.998 84.046C131.306 82.002 131.502 80 131.586 78.04C131.67 76.052 131.712 74.218 131.712 72.538V60.61ZM134.148 60.61H163.464V70.606H134.148V67.33H159.474V63.886H134.148V60.61ZM135.618 73.084H164.724V76.276H135.618V73.084ZM137.55 86.188H162.708V89.38H137.55V86.188ZM134.526 93.244H165.816V96.436H134.526V93.244ZM148.05 82.324H151.914V95.302H148.05V82.324ZM153.174 77.494L156.114 75.772C157.094 76.444 158.116 77.2 159.18 78.04C160.272 78.88 161.28 79.734 162.204 80.602C163.156 81.47 163.94 82.254 164.556 82.954L161.406 84.928C160.846 84.228 160.104 83.444 159.18 82.576C158.256 81.708 157.262 80.826 156.198 79.93C155.162 79.034 154.154 78.222 153.174 77.494ZM138.264 84.088C138.208 83.836 138.11 83.5 137.97 83.08C137.83 82.632 137.676 82.184 137.508 81.736C137.368 81.288 137.214 80.91 137.046 80.602C137.41 80.518 137.788 80.378 138.18 80.182C138.572 79.958 138.992 79.678 139.44 79.342C139.776 79.118 140.28 78.712 140.952 78.124C141.624 77.536 142.352 76.836 143.136 76.024C143.948 75.212 144.69 74.372 145.362 73.504L148.554 75.604C147.378 76.836 146.09 78.04 144.69 79.216C143.29 80.392 141.89 81.4 140.49 82.24V82.366C140.49 82.366 140.364 82.422 140.112 82.534C139.888 82.646 139.636 82.786 139.356 82.954C139.076 83.122 138.824 83.304 138.6 83.5C138.376 83.696 138.264 83.892 138.264 84.088ZM138.264 84.088L138.222 81.442L140.364 80.224L159.852 79.216C159.88 79.692 159.95 80.224 160.062 80.812C160.174 81.372 160.286 81.848 160.398 82.24C156.674 82.464 153.552 82.66 151.032 82.828C148.512 82.996 146.468 83.136 144.9 83.248C143.36 83.36 142.142 83.458 141.246 83.542C140.378 83.626 139.72 83.71 139.272 83.794C138.852 83.878 138.516 83.976 138.264 84.088Z" fill="black"/>
<path d="M0 122L920 122L920 113L-7.86812e-07 113L0 122Z" fill="url(#paint0_linear_446_1687)"/>
<path d="M449.03 37.1C446.03 34.3667 442.563 32.2667 438.63 30.8C434.763 29.3333 430.663 28.6 426.33 28.6C421.663 28.6 417.263 29.4667 413.13 31.2C409.063 32.9333 405.463 35.3333 402.33 38.4C399.196 41.4667 396.73 45.0333 394.93 49.1C393.196 53.1 392.33 57.4 392.33 62C392.33 66.6 393.196 70.9333 394.93 75C396.73 79 399.196 82.5333 402.33 85.6C405.463 88.6667 409.063 91.0667 413.13 92.8C417.263 94.5333 421.663 95.4 426.33 95.4C430.663 95.4 434.763 94.6333 438.63 93.1C442.563 91.5667 446.03 89.4667 449.03 86.8L450.43 88.1C448.296 89.9667 445.93 91.6 443.33 93C440.796 94.4 438.096 95.4667 435.23 96.2C432.363 96.9333 429.396 97.3 426.33 97.3C421.396 97.3 416.763 96.4 412.43 94.6C408.096 92.7333 404.263 90.1667 400.93 86.9C397.663 83.6333 395.096 79.8667 393.23 75.6C391.363 71.3333 390.43 66.8 390.43 62C390.43 57.1333 391.363 52.5667 393.23 48.3C395.096 44.0333 397.663 40.3 400.93 37.1C404.263 33.8333 408.096 31.3 412.43 29.5C416.763 27.6333 421.396 26.7 426.33 26.7C429.396 26.7 432.363 27.0667 435.23 27.8C438.096 28.5333 440.796 29.5667 443.33 30.9C445.863 32.2333 448.196 33.8667 450.33 35.8L449.03 37.1ZM484.284 45.3C489.084 45.3 493.384 46.4 497.184 48.6C500.984 50.8 503.951 53.8667 506.084 57.8C508.284 61.6667 509.384 66.1 509.384 71.1C509.384 76.1 508.284 80.5667 506.084 84.5C503.951 88.3667 500.984 91.4333 497.184 93.7C493.384 95.9 489.084 97 484.284 97C479.484 97 475.184 95.9 471.384 93.7C467.651 91.4333 464.684 88.3667 462.484 84.5C460.284 80.5667 459.184 76.1 459.184 71.1C459.184 66.1 460.284 61.6667 462.484 57.8C464.684 53.8667 467.651 50.8 471.384 48.6C475.184 46.4 479.484 45.3 484.284 45.3ZM484.284 47.3C479.818 47.3 475.851 48.3333 472.384 50.4C468.918 52.4 466.184 55.2 464.184 58.8C462.184 62.3333 461.184 66.4333 461.184 71.1C461.184 75.7667 462.184 79.9 464.184 83.5C466.184 87.1 468.918 89.9333 472.384 92C475.851 94 479.818 95 484.284 95C488.751 95 492.718 94 496.184 92C499.651 89.9333 502.384 87.1 504.384 83.5C506.384 79.9 507.384 75.7667 507.384 71.1C507.384 66.4333 506.384 62.3333 504.384 58.8C502.384 55.2 499.651 52.4 496.184 50.4C492.718 48.3333 488.751 47.3 484.284 47.3ZM567.729 65.7C567.729 59.9 566.096 55.4 562.829 52.2C559.629 48.9333 555.162 47.3 549.429 47.3C542.562 47.4333 537.196 49.6667 533.329 54C529.462 58.2667 527.529 64.1667 527.529 71.7H525.729C525.729 66.2333 526.662 61.5667 528.529 57.7C530.396 53.7667 533.096 50.7333 536.629 48.6C540.229 46.4667 544.496 45.3667 549.429 45.3C553.696 45.3 557.329 46.1333 560.329 47.8C563.396 49.4 565.729 51.7333 567.329 54.8C568.929 57.8 569.729 61.4333 569.729 65.7V97H567.729V65.7ZM525.629 45.3H527.629V97H525.629V45.3ZM593.584 82.8C593.584 86.8 594.351 89.8667 595.884 92C597.418 94.0667 599.651 95.0667 602.584 95C604.184 94.9333 605.751 94.6333 607.284 94.1C608.884 93.5667 610.318 92.7667 611.584 91.7L612.784 93.3C611.318 94.4333 609.718 95.3333 607.984 96C606.251 96.6 604.451 96.9333 602.584 97C600.184 97 598.151 96.5 596.484 95.5C594.884 94.4333 593.651 92.8333 592.784 90.7C591.984 88.5667 591.584 85.9333 591.584 82.8V34H593.584V82.8ZM583.984 46.3H611.784V48.3H583.984V46.3ZM640.715 70.8C635.248 70.8 631.015 71.8 628.015 73.8C625.015 75.7333 623.515 78.5 623.515 82.1C623.515 85.9 624.848 89 627.515 91.4C630.248 93.8 633.882 95 638.415 95C641.815 95 644.882 94.5333 647.615 93.6C650.415 92.6 652.848 91.0667 654.915 89C657.048 86.8667 658.782 84.0667 660.115 80.6L661.915 81.4C659.782 86.8667 656.648 90.8333 652.515 93.3C648.382 95.7667 643.648 97 638.315 97C634.982 97 632.048 96.3667 629.515 95.1C626.982 93.7667 625.015 92 623.615 89.8C622.215 87.5333 621.515 84.9667 621.515 82.1C621.515 77.9 623.248 74.6333 626.715 72.3C630.182 69.9667 634.848 68.8 640.715 68.8H661.015V70.8H640.715ZM659.915 62.5C659.848 57.7667 658.448 54.0667 655.715 51.4C653.048 48.6667 648.982 47.3 643.515 47.3C640.048 47.3 636.848 47.9667 633.915 49.3C631.048 50.5667 628.215 52.3 625.415 54.5L624.215 52.9C626.148 51.3667 628.115 50.0333 630.115 48.9C632.182 47.7667 634.315 46.9 636.515 46.3C638.782 45.6333 641.115 45.3 643.515 45.3C649.448 45.3 653.982 46.8667 657.115 50C660.248 53.0667 661.848 57.2333 661.915 62.5L662.115 97H660.115L659.915 62.5ZM717.967 53.6C715.834 51.6667 713.401 50.1333 710.667 49C707.934 47.8667 704.934 47.3 701.667 47.3C697.201 47.3 693.201 48.3333 689.667 50.4C686.201 52.4 683.467 55.2 681.467 58.8C679.467 62.3333 678.467 66.4333 678.467 71.1C678.467 75.7667 679.467 79.9 681.467 83.5C683.467 87.1 686.201 89.9333 689.667 92C693.201 94 697.201 95 701.667 95C705.201 95 708.467 94.3667 711.467 93.1C714.467 91.7667 717.001 89.9 719.067 87.5L720.367 88.9C718.101 91.4333 715.367 93.4333 712.167 94.9C708.967 96.3 705.467 97 701.667 97C696.867 97 692.567 95.9 688.767 93.7C685.034 91.4333 682.067 88.3667 679.867 84.5C677.667 80.5667 676.567 76.1 676.567 71.1C676.567 66.1 677.667 61.6667 679.867 57.8C682.067 53.8667 685.034 50.8 688.767 48.6C692.567 46.4 696.867 45.3 701.667 45.3C705.134 45.3 708.367 45.9333 711.367 47.2C714.367 48.4 717.001 50.0667 719.267 52.2L717.967 53.6ZM741.631 82.8C741.631 86.8 742.398 89.8667 743.931 92C745.465 94.0667 747.698 95.0667 750.631 95C752.231 94.9333 753.798 94.6333 755.331 94.1C756.931 93.5667 758.365 92.7667 759.631 91.7L760.831 93.3C759.365 94.4333 757.765 95.3333 756.031 96C754.298 96.6 752.498 96.9333 750.631 97C748.231 97 746.198 96.5 744.531 95.5C742.931 94.4333 741.698 92.8333 740.831 90.7C740.031 88.5667 739.631 85.9333 739.631 82.8V34H741.631V82.8ZM732.031 46.3H759.831V48.3H732.031V46.3ZM796.281 68.9C796.281 77.3 798.515 83.8 802.981 88.4C807.515 93 813.848 95.3 821.981 95.3C830.115 95.3 836.415 93 840.881 88.4C845.415 83.8 847.681 77.3 847.681 68.9V27.1H849.681V68.9C849.681 74.9 848.581 80.0333 846.381 84.3C844.248 88.5 841.115 91.7333 836.981 94C832.848 96.2 827.848 97.3 821.981 97.3C816.115 97.3 811.115 96.2 806.981 94C802.848 91.7333 799.681 88.5 797.481 84.3C795.348 80.0333 794.281 74.9 794.281 68.9V27.1H796.281V68.9ZM908.523 33.4C907.056 32.4 905.323 31.5667 903.323 30.9C901.389 30.1667 899.356 29.6333 897.223 29.3C895.089 28.9 892.989 28.7 890.923 28.7C884.789 28.7 879.856 29.9667 876.123 32.5C872.456 34.9667 870.623 38.2667 870.623 42.4C870.623 45.8 871.356 48.5333 872.823 50.6C874.356 52.6667 876.356 54.3667 878.823 55.7C881.356 56.9667 884.123 58.0667 887.123 59C890.123 59.8667 893.089 60.7667 896.023 61.7C899.023 62.6333 901.756 63.8333 904.223 65.3C906.756 66.7 908.756 68.6 910.223 71C911.689 73.3333 912.423 76.3667 912.423 80.1C912.423 83.5667 911.456 86.6 909.523 89.2C907.589 91.7333 904.823 93.7333 901.223 95.2C897.689 96.6 893.523 97.3 888.723 97.3C885.789 97.3 882.856 96.9 879.923 96.1C876.989 95.2333 874.223 94.0667 871.623 92.6C869.023 91.1333 866.756 89.4 864.823 87.4L866.223 86C868.023 87.8667 870.123 89.5 872.523 90.9C874.989 92.3 877.589 93.4 880.323 94.2C883.123 94.9333 885.923 95.3 888.723 95.3C895.323 95.3 900.589 93.9333 904.523 91.2C908.456 88.4 910.423 84.7 910.423 80.1C910.423 76.6333 909.689 73.8333 908.223 71.7C906.756 69.5667 904.756 67.8333 902.223 66.5C899.756 65.1667 897.023 64.0667 894.023 63.2C891.089 62.2667 888.123 61.3333 885.123 60.4C882.123 59.4 879.356 58.2 876.823 56.8C874.356 55.4 872.356 53.5667 870.823 51.3C869.356 48.9667 868.623 45.9667 868.623 42.3C868.623 39.1667 869.523 36.4333 871.323 34.1C873.189 31.7667 875.789 29.9667 879.123 28.7C882.523 27.3667 886.456 26.7 890.923 26.7C894.189 26.7 897.489 27.1667 900.823 28.1C904.223 29.0333 907.123 30.2667 909.523 31.8L908.523 33.4Z" fill="black"/>
<defs>
<linearGradient id="paint0_linear_446_1687" x1="-6.37955" y1="117.5" x2="897.417" y2="117.5" gradientUnits="userSpaceOnUse">
<stop stop-color="#F0D178"/>
<stop offset="0.32" stop-color="#F7E28B"/>
<stop offset="0.53" stop-color="#FFDD7E"/>
<stop offset="0.62" stop-color="#FCD97A"/>
<stop offset="0.71" stop-color="#F3CD70"/>
<stop offset="0.8" stop-color="#E4BB60"/>
<stop offset="0.88" stop-color="#CFA049"/>
<stop offset="0.93" stop-color="#C2903B"/>
</linearGradient>
</defs>
</svg>
