<svg width="311" height="50" viewBox="0 0 311 50" fill="none" xmlns="http://www.w3.org/2000/svg">
<path d="M1.6 19.04H8.06V20.68H1.6V19.04ZM1.16 25.42H8.78V27.1H1.16V25.42ZM4.32 26.3H6.14V34.56C6.14 35.04 6.08 35.4133 5.96 35.68C5.85333 35.96 5.63333 36.1733 5.3 36.32C4.98 36.4667 4.58 36.5533 4.1 36.58C3.63333 36.62 3.05333 36.64 2.36 36.64C2.33333 36.3733 2.26 36.0667 2.14 35.72C2.03333 35.3867 1.91333 35.0933 1.78 34.84C2.26 34.8533 2.70667 34.86 3.12 34.86C3.53333 34.86 3.80667 34.8533 3.94 34.84C4.08667 34.84 4.18667 34.82 4.24 34.78C4.29333 34.74 4.32 34.66 4.32 34.54V26.3ZM7.48 19.04H7.88L8.24 18.92L9.4 19.74C9.08 20.26 8.71333 20.7933 8.3 21.34C7.88667 21.8867 7.46 22.4067 7.02 22.9C6.58 23.38 6.14667 23.8 5.72 24.16C5.6 23.9867 5.43333 23.7933 5.22 23.58C5.00667 23.3667 4.82 23.1867 4.66 23.04C5.00667 22.72 5.36 22.3533 5.72 21.94C6.08 21.5133 6.41333 21.0733 6.72 20.62C7.04 20.1667 7.29333 19.7533 7.48 19.38V19.04ZM8.24 25.42H8.5L8.76 25.36L9.92 25.64C9.68 26.44 9.42 27.26 9.14 28.1C8.86 28.9267 8.6 29.6267 8.36 30.2L6.94 29.86C7.08667 29.5133 7.23333 29.1 7.38 28.62C7.54 28.14 7.69333 27.6467 7.84 27.14C7.98667 26.62 8.12 26.1267 8.24 25.66V25.42ZM2.08 22.9L3.04 21.66C3.6 21.9267 4.18 22.24 4.78 22.6C5.39333 22.9467 5.96 23.3067 6.48 23.68C7.01333 24.0533 7.44 24.4133 7.76 24.76L6.72 26.14C6.4 25.8067 5.98 25.4467 5.46 25.06C4.95333 24.66 4.4 24.2733 3.8 23.9C3.21333 23.5133 2.64 23.18 2.08 22.9ZM9.44 18.98H19.62V20.6H9.44V18.98ZM11.92 26.66V28.34H17.16V26.66H11.92ZM11.92 29.68V31.36H17.16V29.68H11.92ZM11.92 23.68V25.32H17.16V23.68H11.92ZM10.18 22.26H18.98V32.78H10.18V22.26ZM13.56 19.82L15.72 20.08C15.5467 20.68 15.3667 21.2733 15.18 21.86C14.9933 22.4467 14.82 22.9533 14.66 23.38L12.98 23.06C13.06 22.7533 13.14 22.4133 13.22 22.04C13.3 21.6533 13.3667 21.2667 13.42 20.88C13.4867 20.4933 13.5333 20.14 13.56 19.82ZM12.14 33L13.74 34C13.38 34.3467 12.94 34.6933 12.42 35.04C11.9133 35.3867 11.38 35.7067 10.82 36C10.26 36.2933 9.71333 36.54 9.18 36.74C9.03333 36.5667 8.83333 36.3533 8.58 36.1C8.32667 35.86 8.10667 35.66 7.92 35.5C8.44 35.3 8.96667 35.0667 9.5 34.8C10.0467 34.52 10.5533 34.2267 11.02 33.92C11.4867 33.6 11.86 33.2933 12.14 33ZM15.16 34.06L16.58 33.1C16.9667 33.34 17.38 33.6133 17.82 33.92C18.26 34.2267 18.68 34.5333 19.08 34.84C19.4933 35.1333 19.8267 35.4067 20.08 35.66L18.58 36.74C18.3533 36.4867 18.0467 36.2 17.66 35.88C17.2733 35.5733 16.86 35.26 16.42 34.94C15.98 34.62 15.56 34.3267 15.16 34.06ZM31.06 21.76H38.04V23.56H31.06V21.76ZM37.26 21.76H39.18C39.18 21.76 39.18 21.8267 39.18 21.96C39.18 22.08 39.18 22.2133 39.18 22.36C39.18 22.5067 39.18 22.6267 39.18 22.72C39.1133 24.92 39.0467 26.7867 38.98 28.32C38.9133 29.8533 38.8333 31.1133 38.74 32.1C38.6467 33.0733 38.5333 33.8333 38.4 34.38C38.28 34.9267 38.12 35.32 37.92 35.56C37.6667 35.9067 37.4067 36.14 37.14 36.26C36.8733 36.3933 36.5467 36.4867 36.16 36.54C35.8133 36.58 35.36 36.5933 34.8 36.58C34.2533 36.58 33.6933 36.5667 33.12 36.54C33.1067 36.2733 33.04 35.96 32.92 35.6C32.8133 35.24 32.6733 34.9267 32.5 34.66C33.1267 34.7133 33.7 34.7467 34.22 34.76C34.74 34.76 35.12 34.76 35.36 34.76C35.5467 34.76 35.7067 34.74 35.84 34.7C35.9733 34.66 36.0867 34.5733 36.18 34.44C36.34 34.28 36.4733 33.94 36.58 33.42C36.7 32.8867 36.8 32.14 36.88 31.18C36.96 30.2067 37.0267 28.9867 37.08 27.52C37.1467 26.04 37.2067 24.26 37.26 22.18V21.76ZM31.78 18.12L33.64 18.5C33.4 19.5 33.1067 20.48 32.76 21.44C32.4267 22.4 32.0533 23.3067 31.64 24.16C31.2267 25 30.7867 25.74 30.32 26.38C30.2133 26.2733 30.06 26.1533 29.86 26.02C29.66 25.8867 29.4533 25.7533 29.24 25.62C29.04 25.4867 28.86 25.38 28.7 25.3C29.1667 24.7267 29.5933 24.0533 29.98 23.28C30.38 22.5067 30.7267 21.68 31.02 20.8C31.3267 19.92 31.58 19.0267 31.78 18.12ZM30.9 27L32.2 26.02C32.6533 26.4333 33.1133 26.9 33.58 27.42C34.0467 27.9267 34.4733 28.4333 34.86 28.94C35.2467 29.4333 35.5467 29.8867 35.76 30.3L34.36 31.4C34.16 30.9867 33.8733 30.52 33.5 30C33.1267 29.48 32.7133 28.96 32.26 28.44C31.8067 27.9067 31.3533 27.4267 30.9 27ZM27 25.98L28.52 25.58C28.7067 26.0333 28.8867 26.52 29.06 27.04C29.2467 27.5467 29.4067 28.04 29.54 28.52C29.6867 28.9867 29.7933 29.4 29.86 29.76L28.28 30.24C28.2133 29.88 28.1133 29.46 27.98 28.98C27.8467 28.4867 27.6933 27.98 27.52 27.46C27.36 26.9267 27.1867 26.4333 27 25.98ZM24.96 31.36L26.46 30.98C26.6067 31.7 26.74 32.4667 26.86 33.28C26.9933 34.0933 27.0867 34.8067 27.14 35.42L25.56 35.84C25.5333 35.4267 25.4867 34.9667 25.42 34.46C25.3667 33.94 25.3 33.4133 25.22 32.88C25.14 32.3333 25.0533 31.8267 24.96 31.36ZM22.52 31.14L24.18 31.48C24.0333 32.32 23.8333 33.1867 23.58 34.08C23.34 34.96 23.0933 35.7 22.84 36.3C22.72 36.2333 22.56 36.16 22.36 36.08C22.16 36.0133 21.96 35.9467 21.76 35.88C21.56 35.8133 21.38 35.7667 21.22 35.74C21.5 35.14 21.7467 34.4267 21.96 33.6C22.1867 32.76 22.3733 31.94 22.52 31.14ZM21.84 25.8C21.8133 25.68 21.7667 25.52 21.7 25.32C21.6333 25.1067 21.56 24.8867 21.48 24.66C21.4 24.4333 21.32 24.2467 21.24 24.1C21.44 24.0467 21.64 23.9333 21.84 23.76C22.04 23.5733 22.2533 23.3267 22.48 23.02C22.6133 22.8733 22.7933 22.64 23.02 22.32C23.2467 21.9867 23.5 21.5933 23.78 21.14C24.0733 20.6867 24.3667 20.1933 24.66 19.66C24.9533 19.1267 25.22 18.5933 25.46 18.06L27.2 18.8C26.6 19.9067 25.9267 21 25.18 22.08C24.4467 23.1467 23.7067 24.0667 22.96 24.84V24.88C22.96 24.88 22.9 24.9133 22.78 24.98C22.6733 25.0333 22.5467 25.1133 22.4 25.22C22.2533 25.3133 22.12 25.4133 22 25.52C21.8933 25.6133 21.84 25.7067 21.84 25.8ZM21.84 25.8L21.8 24.48L22.62 23.94L26.46 23.62C26.4067 23.86 26.3667 24.1267 26.34 24.42C26.3133 24.7 26.2933 24.9333 26.28 25.12C25.4133 25.2133 24.7067 25.2933 24.16 25.36C23.6267 25.4267 23.2067 25.4867 22.9 25.54C22.5933 25.58 22.36 25.62 22.2 25.66C22.0533 25.7 21.9333 25.7467 21.84 25.8ZM21.92 30.38C21.8933 30.26 21.84 30.0933 21.76 29.88C21.6933 29.6667 21.62 29.4467 21.54 29.22C21.4733 28.98 21.4 28.78 21.32 28.62C21.5733 28.5667 21.8267 28.4333 22.08 28.22C22.3467 27.9933 22.6533 27.7 23 27.34C23.1867 27.1667 23.4533 26.88 23.8 26.48C24.16 26.0667 24.56 25.58 25 25.02C25.4533 24.4467 25.9067 23.8333 26.36 23.18C26.8133 22.5133 27.2333 21.8467 27.62 21.18L29.22 22.2C28.34 23.5467 27.3667 24.8467 26.3 26.1C25.2467 27.3533 24.1933 28.46 23.14 29.42V29.46C23.14 29.46 23.08 29.4933 22.96 29.56C22.84 29.6133 22.7 29.6867 22.54 29.78C22.38 29.8733 22.2333 29.9733 22.1 30.08C21.98 30.1867 21.92 30.2867 21.92 30.38ZM21.92 30.38L21.84 28.96L22.72 28.36L28.68 27.54C28.6533 27.78 28.6267 28.0533 28.6 28.36C28.5867 28.6533 28.5867 28.8933 28.6 29.08C27.2533 29.2933 26.16 29.4733 25.32 29.62C24.4933 29.7533 23.8533 29.8667 23.4 29.96C22.96 30.04 22.6333 30.1133 22.42 30.18C22.2067 30.2467 22.04 30.3133 21.92 30.38ZM27.4 31L28.8 30.52C29.0533 31.12 29.3 31.7733 29.54 32.48C29.78 33.1733 29.96 33.7733 30.08 34.28L28.62 34.84C28.5533 34.4933 28.4467 34.1 28.3 33.66C28.1667 33.22 28.02 32.7667 27.86 32.3C27.7133 31.82 27.56 31.3867 27.4 31ZM49.52 18.12H51.4V21.26H49.52V18.12ZM42.18 20.32H59.04V23.94H57.2V21.64H43.94V23.94H42.18V20.32ZM47.06 23.68V24.84H54.08V23.68H47.06ZM45.3 22.58H55.94V25.94H45.3V22.58ZM44.06 18.72L45.74 18.24C46.0333 18.52 46.3133 18.84 46.58 19.2C46.86 19.56 47.0733 19.88 47.22 20.16L45.5 20.78C45.3667 20.5 45.16 20.1667 44.88 19.78C44.6 19.38 44.3267 19.0267 44.06 18.72ZM55.4 18.16L57.34 18.66C57.02 19.0733 56.6933 19.4667 56.36 19.84C56.0267 20.2 55.72 20.5133 55.44 20.78L53.92 20.3C54.1733 19.9933 54.44 19.64 54.72 19.24C55.0133 18.8267 55.24 18.4667 55.4 18.16ZM45.96 29.84V30.78H55.3V29.84H45.96ZM45.96 31.82V32.78H55.3V31.82H45.96ZM45.96 27.88V28.8H55.3V27.88H45.96ZM44.16 26.8H57.16V33.86H44.16V26.8ZM47.34 33.94L49.16 34.62C48.6533 34.94 48.0533 35.2333 47.36 35.5C46.6667 35.78 45.94 36.0267 45.18 36.24C44.4333 36.4533 43.7133 36.64 43.02 36.8C42.9267 36.6667 42.7933 36.5067 42.62 36.32C42.4467 36.1333 42.2733 35.9533 42.1 35.78C41.9267 35.6067 41.7667 35.4667 41.62 35.36C42.3267 35.2667 43.04 35.1467 43.76 35C44.48 34.8667 45.1533 34.7133 45.78 34.54C46.4067 34.3533 46.9267 34.1533 47.34 33.94ZM51.86 34.88L53.32 33.84C54.04 34.0133 54.7733 34.2067 55.52 34.42C56.28 34.6333 56.9933 34.8467 57.66 35.06C58.3267 35.2733 58.9 35.4733 59.38 35.66L57.44 36.72C57.0267 36.5333 56.52 36.3333 55.92 36.12C55.3333 35.92 54.6867 35.7067 53.98 35.48C53.2867 35.2667 52.58 35.0667 51.86 34.88ZM63.22 19.1H65.12V24.78C65.12 25.6467 65.0933 26.5933 65.04 27.62C64.9867 28.6467 64.88 29.7 64.72 30.78C64.56 31.86 64.3267 32.9067 64.02 33.92C63.7133 34.92 63.3067 35.84 62.8 36.68C62.68 36.5733 62.5133 36.4533 62.3 36.32C62.1 36.2 61.8867 36.08 61.66 35.96C61.4467 35.8533 61.26 35.7733 61.1 35.72C61.58 34.92 61.96 34.0533 62.24 33.12C62.5333 32.1867 62.7467 31.2333 62.88 30.26C63.0267 29.2867 63.12 28.3333 63.16 27.4C63.2 26.4533 63.22 25.58 63.22 24.78V19.1ZM64.38 19.1H78.34V23.86H64.38V22.3H76.44V20.66H64.38V19.1ZM65.08 25.04H78.94V26.56H65.08V25.04ZM66 31.28H77.98V32.8H66V31.28ZM64.56 34.64H79.46V36.16H64.56V34.64ZM71 29.44H72.84V35.62H71V29.44ZM73.44 27.14L74.84 26.32C75.3067 26.64 75.7933 27 76.3 27.4C76.82 27.8 77.3 28.2067 77.74 28.62C78.1933 29.0333 78.5667 29.4067 78.86 29.74L77.36 30.68C77.0933 30.3467 76.74 29.9733 76.3 29.56C75.86 29.1467 75.3867 28.7267 74.88 28.3C74.3867 27.8733 73.9067 27.4867 73.44 27.14ZM66.34 30.28C66.3133 30.16 66.2667 30 66.2 29.8C66.1333 29.5867 66.06 29.3733 65.98 29.16C65.9133 28.9467 65.84 28.7667 65.76 28.62C65.9333 28.58 66.1133 28.5133 66.3 28.42C66.4867 28.3133 66.6867 28.18 66.9 28.02C67.06 27.9133 67.3 27.72 67.62 27.44C67.94 27.16 68.2867 26.8267 68.66 26.44C69.0467 26.0533 69.4 25.6533 69.72 25.24L71.24 26.24C70.68 26.8267 70.0667 27.4 69.4 27.96C68.7333 28.52 68.0667 29 67.4 29.4V29.46C67.4 29.46 67.34 29.4867 67.22 29.54C67.1133 29.5933 66.9933 29.66 66.86 29.74C66.7267 29.82 66.6067 29.9067 66.5 30C66.3933 30.0933 66.34 30.1867 66.34 30.28ZM66.34 30.28L66.32 29.02L67.34 28.44L76.62 27.96C76.6333 28.1867 76.6667 28.44 76.72 28.72C76.7733 28.9867 76.8267 29.2133 76.88 29.4C75.1067 29.5067 73.62 29.6 72.42 29.68C71.22 29.76 70.2467 29.8267 69.5 29.88C68.7667 29.9333 68.1867 29.98 67.76 30.02C67.3467 30.06 67.0333 30.1 66.82 30.14C66.62 30.18 66.46 30.2267 66.34 30.28Z" fill="black"/>
<path d="M0.5 50L310.5 50L310.5 46L0.5 46L0.5 50Z" fill="url(#paint0_linear_639_184)"/>
<path d="M131.031 14.238C129.891 13.1993 128.574 12.4013 127.079 11.844C125.61 11.2867 124.052 11.008 122.405 11.008C120.632 11.008 118.96 11.3373 117.389 11.996C115.844 12.6547 114.476 13.5667 113.285 14.732C112.095 15.8973 111.157 17.2527 110.473 18.798C109.815 20.318 109.485 21.952 109.485 23.7C109.485 25.448 109.815 27.0947 110.473 28.64C111.157 30.16 112.095 31.5027 113.285 32.668C114.476 33.8333 115.844 34.7453 117.389 35.404C118.96 36.0627 120.632 36.392 122.405 36.392C124.052 36.392 125.61 36.1007 127.079 35.518C128.574 34.9353 129.891 34.1373 131.031 33.124L131.563 33.618C130.753 34.3273 129.853 34.948 128.865 35.48C127.903 36.012 126.877 36.4173 125.787 36.696C124.698 36.9747 123.571 37.114 122.405 37.114C120.531 37.114 118.77 36.772 117.123 36.088C115.477 35.3787 114.02 34.4033 112.753 33.162C111.512 31.9207 110.537 30.4893 109.827 28.868C109.118 27.2467 108.763 25.524 108.763 23.7C108.763 21.8507 109.118 20.1153 109.827 18.494C110.537 16.8727 111.512 15.454 112.753 14.238C114.02 12.9967 115.477 12.034 117.123 11.35C118.77 10.6407 120.531 10.286 122.405 10.286C123.571 10.286 124.698 10.4253 125.787 10.704C126.877 10.9827 127.903 11.3753 128.865 11.882C129.828 12.3887 130.715 13.0093 131.525 13.744L131.031 14.238ZM144.428 17.354C146.252 17.354 147.886 17.772 149.33 18.608C150.774 19.444 151.901 20.6093 152.712 22.104C153.548 23.5733 153.966 25.258 153.966 27.158C153.966 29.058 153.548 30.7553 152.712 32.25C151.901 33.7193 150.774 34.8847 149.33 35.746C147.886 36.582 146.252 37 144.428 37C142.604 37 140.97 36.582 139.526 35.746C138.107 34.8847 136.98 33.7193 136.144 32.25C135.308 30.7553 134.89 29.058 134.89 27.158C134.89 25.258 135.308 23.5733 136.144 22.104C136.98 20.6093 138.107 19.444 139.526 18.608C140.97 17.772 142.604 17.354 144.428 17.354ZM144.428 18.114C142.731 18.114 141.223 18.5067 139.906 19.292C138.589 20.052 137.55 21.116 136.79 22.484C136.03 23.8267 135.65 25.3847 135.65 27.158C135.65 28.9313 136.03 30.502 136.79 31.87C137.55 33.238 138.589 34.3147 139.906 35.1C141.223 35.86 142.731 36.24 144.428 36.24C146.125 36.24 147.633 35.86 148.95 35.1C150.267 34.3147 151.306 33.238 152.066 31.87C152.826 30.502 153.206 28.9313 153.206 27.158C153.206 25.3847 152.826 23.8267 152.066 22.484C151.306 21.116 150.267 20.052 148.95 19.292C147.633 18.5067 146.125 18.114 144.428 18.114ZM176.137 25.106C176.137 22.902 175.516 21.192 174.275 19.976C173.059 18.7347 171.362 18.114 169.183 18.114C166.574 18.1647 164.534 19.0133 163.065 20.66C161.596 22.2813 160.861 24.5233 160.861 27.386H160.177C160.177 25.3087 160.532 23.5353 161.241 22.066C161.95 20.5713 162.976 19.4187 164.319 18.608C165.687 17.7973 167.308 17.3793 169.183 17.354C170.804 17.354 172.185 17.6707 173.325 18.304C174.49 18.912 175.377 19.7987 175.985 20.964C176.593 22.104 176.897 23.4847 176.897 25.106V37H176.137V25.106ZM160.139 17.354H160.899V37H160.139V17.354ZM185.962 31.604C185.962 33.124 186.253 34.2893 186.836 35.1C187.419 35.8853 188.267 36.2653 189.382 36.24C189.99 36.2147 190.585 36.1007 191.168 35.898C191.776 35.6953 192.321 35.3913 192.802 34.986L193.258 35.594C192.701 36.0247 192.093 36.3667 191.434 36.62C190.775 36.848 190.091 36.9747 189.382 37C188.47 37 187.697 36.81 187.064 36.43C186.456 36.0247 185.987 35.4167 185.658 34.606C185.354 33.7953 185.202 32.7947 185.202 31.604V13.06H185.962V31.604ZM182.314 17.734H192.878V18.494H182.314V17.734ZM203.872 27.044C201.794 27.044 200.186 27.424 199.046 28.184C197.906 28.9187 197.336 29.97 197.336 31.338C197.336 32.782 197.842 33.96 198.856 34.872C199.894 35.784 201.275 36.24 202.998 36.24C204.29 36.24 205.455 36.0627 206.494 35.708C207.558 35.328 208.482 34.7453 209.268 33.96C210.078 33.1493 210.737 32.0853 211.244 30.768L211.928 31.072C211.117 33.1493 209.926 34.6567 208.356 35.594C206.785 36.5313 204.986 37 202.96 37C201.693 37 200.578 36.7593 199.616 36.278C198.653 35.7713 197.906 35.1 197.374 34.264C196.842 33.4027 196.576 32.4273 196.576 31.338C196.576 29.742 197.234 28.5007 198.552 27.614C199.869 26.7273 201.642 26.284 203.872 26.284H211.586V27.044H203.872ZM211.168 23.89C211.142 22.0913 210.61 20.6853 209.572 19.672C208.558 18.6333 207.013 18.114 204.936 18.114C203.618 18.114 202.402 18.3673 201.288 18.874C200.198 19.3553 199.122 20.014 198.058 20.85L197.602 20.242C198.336 19.6593 199.084 19.1527 199.844 18.722C200.629 18.2913 201.44 17.962 202.276 17.734C203.137 17.4807 204.024 17.354 204.936 17.354C207.19 17.354 208.913 17.9493 210.104 19.14C211.294 20.3053 211.902 21.8887 211.928 23.89L212.004 37H211.244L211.168 23.89ZM233.228 20.508C232.417 19.7733 231.492 19.1907 230.454 18.76C229.415 18.3293 228.275 18.114 227.034 18.114C225.336 18.114 223.816 18.5067 222.474 19.292C221.156 20.052 220.118 21.116 219.358 22.484C218.598 23.8267 218.218 25.3847 218.218 27.158C218.218 28.9313 218.598 30.502 219.358 31.87C220.118 33.238 221.156 34.3147 222.474 35.1C223.816 35.86 225.336 36.24 227.034 36.24C228.376 36.24 229.618 35.9993 230.758 35.518C231.898 35.0113 232.86 34.302 233.646 33.39L234.14 33.922C233.278 34.8847 232.24 35.6447 231.024 36.202C229.808 36.734 228.478 37 227.034 37C225.21 37 223.576 36.582 222.132 35.746C220.713 34.8847 219.586 33.7193 218.75 32.25C217.914 30.7553 217.496 29.058 217.496 27.158C217.496 25.258 217.914 23.5733 218.75 22.104C219.586 20.6093 220.713 19.444 222.132 18.608C223.576 17.772 225.21 17.354 227.034 17.354C228.351 17.354 229.58 17.5947 230.72 18.076C231.86 18.532 232.86 19.1653 233.722 19.976L233.228 20.508ZM242.22 31.604C242.22 33.124 242.511 34.2893 243.094 35.1C243.677 35.8853 244.525 36.2653 245.64 36.24C246.248 36.2147 246.843 36.1007 247.426 35.898C248.034 35.6953 248.579 35.3913 249.06 34.986L249.516 35.594C248.959 36.0247 248.351 36.3667 247.692 36.62C247.033 36.848 246.349 36.9747 245.64 37C244.728 37 243.955 36.81 243.322 36.43C242.714 36.0247 242.245 35.4167 241.916 34.606C241.612 33.7953 241.46 32.7947 241.46 31.604V13.06H242.22V31.604ZM238.572 17.734H249.136V18.494H238.572V17.734ZM262.987 26.322C262.987 29.514 263.836 31.984 265.533 33.732C267.256 35.48 269.662 36.354 272.753 36.354C275.844 36.354 278.238 35.48 279.935 33.732C281.658 31.984 282.519 29.514 282.519 26.322V10.438H283.279V26.322C283.279 28.602 282.861 30.5527 282.025 32.174C281.214 33.77 280.024 34.9987 278.453 35.86C276.882 36.696 274.982 37.114 272.753 37.114C270.524 37.114 268.624 36.696 267.053 35.86C265.482 34.9987 264.279 33.77 263.443 32.174C262.632 30.5527 262.227 28.602 262.227 26.322V10.438H262.987V26.322ZM305.639 12.832C305.081 12.452 304.423 12.1353 303.663 11.882C302.928 11.6033 302.155 11.4007 301.345 11.274C300.534 11.122 299.736 11.046 298.951 11.046C296.62 11.046 294.745 11.5273 293.327 12.49C291.933 13.4273 291.237 14.6813 291.237 16.252C291.237 17.544 291.515 18.5827 292.073 19.368C292.655 20.1533 293.415 20.7993 294.353 21.306C295.315 21.7873 296.367 22.2053 297.507 22.56C298.647 22.8893 299.774 23.2313 300.889 23.586C302.029 23.9407 303.067 24.3967 304.005 24.954C304.967 25.486 305.727 26.208 306.285 27.12C306.842 28.0067 307.121 29.1593 307.121 30.578C307.121 31.8953 306.753 33.048 306.019 34.036C305.284 34.9987 304.233 35.7587 302.865 36.316C301.522 36.848 299.939 37.114 298.115 37.114C297 37.114 295.885 36.962 294.771 36.658C293.656 36.3287 292.605 35.8853 291.617 35.328C290.629 34.7707 289.767 34.112 289.033 33.352L289.565 32.82C290.249 33.5293 291.047 34.15 291.959 34.682C292.896 35.214 293.884 35.632 294.923 35.936C295.987 36.2147 297.051 36.354 298.115 36.354C300.623 36.354 302.624 35.8347 304.119 34.796C305.613 33.732 306.361 32.326 306.361 30.578C306.361 29.2607 306.082 28.1967 305.525 27.386C304.967 26.5753 304.207 25.9167 303.245 25.41C302.307 24.9033 301.269 24.4853 300.129 24.156C299.014 23.8013 297.887 23.4467 296.747 23.092C295.607 22.712 294.555 22.256 293.593 21.724C292.655 21.192 291.895 20.4953 291.313 19.634C290.755 18.7473 290.477 17.6073 290.477 16.214C290.477 15.0233 290.819 13.9847 291.503 13.098C292.212 12.2113 293.2 11.5273 294.467 11.046C295.759 10.5393 297.253 10.286 298.951 10.286C300.192 10.286 301.446 10.4633 302.713 10.818C304.005 11.1727 305.107 11.6413 306.019 12.224L305.639 12.832Z" fill="black"/>
<defs>
<linearGradient id="paint0_linear_639_184" x1="-1.64963" y1="48" x2="302.89" y2="48" gradientUnits="userSpaceOnUse">
<stop stop-color="#F0D178"/>
<stop offset="0.32" stop-color="#F7E28B"/>
<stop offset="0.53" stop-color="#FFDD7E"/>
<stop offset="0.62" stop-color="#FCD97A"/>
<stop offset="0.71" stop-color="#F3CD70"/>
<stop offset="0.8" stop-color="#E4BB60"/>
<stop offset="0.88" stop-color="#CFA049"/>
<stop offset="0.93" stop-color="#C2903B"/>
</linearGradient>
</defs>
</svg>
